%TF.GenerationSoftware,KiCad,Pcbnew,5.1.8-db9833491~87~ubuntu20.04.1*%
%TF.CreationDate,2020-11-04T15:04:12-03:00*%
%TF.ProjectId,dc_motor,64635f6d-6f74-46f7-922e-6b696361645f,Rev: 1.0*%
%TF.SameCoordinates,PX2dc6c00PY6cb8080*%
%TF.FileFunction,OtherDrawing,Comment*%
%FSLAX46Y46*%
G04 Gerber Fmt 4.6, Leading zero omitted, Abs format (unit mm)*
G04 Created by KiCad (PCBNEW 5.1.8-db9833491~87~ubuntu20.04.1) date 2020-11-04 15:04:12*
%MOMM*%
%LPD*%
G01*
G04 APERTURE LIST*
%ADD10C,0.250000*%
%ADD11C,0.150000*%
G04 APERTURE END LIST*
D10*
X90790476Y45442858D02*
X91076190Y45347620D01*
X91171428Y45252381D01*
X91266666Y45061905D01*
X91266666Y44776191D01*
X91171428Y44585715D01*
X91076190Y44490477D01*
X90885714Y44395239D01*
X90123809Y44395239D01*
X90123809Y46395239D01*
X90790476Y46395239D01*
X90980952Y46300000D01*
X91076190Y46204762D01*
X91171428Y46014286D01*
X91171428Y45823810D01*
X91076190Y45633334D01*
X90980952Y45538096D01*
X90790476Y45442858D01*
X90123809Y45442858D01*
X92409523Y44395239D02*
X92219047Y44490477D01*
X92123809Y44585715D01*
X92028571Y44776191D01*
X92028571Y45347620D01*
X92123809Y45538096D01*
X92219047Y45633334D01*
X92409523Y45728572D01*
X92695238Y45728572D01*
X92885714Y45633334D01*
X92980952Y45538096D01*
X93076190Y45347620D01*
X93076190Y44776191D01*
X92980952Y44585715D01*
X92885714Y44490477D01*
X92695238Y44395239D01*
X92409523Y44395239D01*
X94790476Y44395239D02*
X94790476Y45442858D01*
X94695238Y45633334D01*
X94504761Y45728572D01*
X94123809Y45728572D01*
X93933333Y45633334D01*
X94790476Y44490477D02*
X94600000Y44395239D01*
X94123809Y44395239D01*
X93933333Y44490477D01*
X93838095Y44680953D01*
X93838095Y44871429D01*
X93933333Y45061905D01*
X94123809Y45157143D01*
X94600000Y45157143D01*
X94790476Y45252381D01*
X95742857Y44395239D02*
X95742857Y45728572D01*
X95742857Y45347620D02*
X95838095Y45538096D01*
X95933333Y45633334D01*
X96123809Y45728572D01*
X96314285Y45728572D01*
X97838095Y44395239D02*
X97838095Y46395239D01*
X97838095Y44490477D02*
X97647619Y44395239D01*
X97266666Y44395239D01*
X97076190Y44490477D01*
X96980952Y44585715D01*
X96885714Y44776191D01*
X96885714Y45347620D01*
X96980952Y45538096D01*
X97076190Y45633334D01*
X97266666Y45728572D01*
X97647619Y45728572D01*
X97838095Y45633334D01*
X101171428Y44395239D02*
X101171428Y46395239D01*
X101171428Y44490477D02*
X100980952Y44395239D01*
X100600000Y44395239D01*
X100409523Y44490477D01*
X100314285Y44585715D01*
X100219047Y44776191D01*
X100219047Y45347620D01*
X100314285Y45538096D01*
X100409523Y45633334D01*
X100600000Y45728572D01*
X100980952Y45728572D01*
X101171428Y45633334D01*
X102123809Y44395239D02*
X102123809Y45728572D01*
X102123809Y46395239D02*
X102028571Y46300000D01*
X102123809Y46204762D01*
X102219047Y46300000D01*
X102123809Y46395239D01*
X102123809Y46204762D01*
X103076190Y44395239D02*
X103076190Y45728572D01*
X103076190Y45538096D02*
X103171428Y45633334D01*
X103361904Y45728572D01*
X103647619Y45728572D01*
X103838095Y45633334D01*
X103933333Y45442858D01*
X103933333Y44395239D01*
X103933333Y45442858D02*
X104028571Y45633334D01*
X104219047Y45728572D01*
X104504761Y45728572D01*
X104695238Y45633334D01*
X104790476Y45442858D01*
X104790476Y44395239D01*
X106504761Y44490477D02*
X106314285Y44395239D01*
X105933333Y44395239D01*
X105742857Y44490477D01*
X105647619Y44680953D01*
X105647619Y45442858D01*
X105742857Y45633334D01*
X105933333Y45728572D01*
X106314285Y45728572D01*
X106504761Y45633334D01*
X106600000Y45442858D01*
X106600000Y45252381D01*
X105647619Y45061905D01*
X107457142Y45728572D02*
X107457142Y44395239D01*
X107457142Y45538096D02*
X107552380Y45633334D01*
X107742857Y45728572D01*
X108028571Y45728572D01*
X108219047Y45633334D01*
X108314285Y45442858D01*
X108314285Y44395239D01*
X109171428Y44490477D02*
X109361904Y44395239D01*
X109742857Y44395239D01*
X109933333Y44490477D01*
X110028571Y44680953D01*
X110028571Y44776191D01*
X109933333Y44966667D01*
X109742857Y45061905D01*
X109457142Y45061905D01*
X109266666Y45157143D01*
X109171428Y45347620D01*
X109171428Y45442858D01*
X109266666Y45633334D01*
X109457142Y45728572D01*
X109742857Y45728572D01*
X109933333Y45633334D01*
X110885714Y44395239D02*
X110885714Y45728572D01*
X110885714Y46395239D02*
X110790476Y46300000D01*
X110885714Y46204762D01*
X110980952Y46300000D01*
X110885714Y46395239D01*
X110885714Y46204762D01*
X112123809Y44395239D02*
X111933333Y44490477D01*
X111838095Y44585715D01*
X111742857Y44776191D01*
X111742857Y45347620D01*
X111838095Y45538096D01*
X111933333Y45633334D01*
X112123809Y45728572D01*
X112409523Y45728572D01*
X112600000Y45633334D01*
X112695238Y45538096D01*
X112790476Y45347620D01*
X112790476Y44776191D01*
X112695238Y44585715D01*
X112600000Y44490477D01*
X112409523Y44395239D01*
X112123809Y44395239D01*
X113647619Y45728572D02*
X113647619Y44395239D01*
X113647619Y45538096D02*
X113742857Y45633334D01*
X113933333Y45728572D01*
X114219047Y45728572D01*
X114409523Y45633334D01*
X114504761Y45442858D01*
X114504761Y44395239D01*
X115457142Y44585715D02*
X115552380Y44490477D01*
X115457142Y44395239D01*
X115361904Y44490477D01*
X115457142Y44585715D01*
X115457142Y44395239D01*
X115457142Y45633334D02*
X115552380Y45538096D01*
X115457142Y45442858D01*
X115361904Y45538096D01*
X115457142Y45633334D01*
X115457142Y45442858D01*
X117742857Y46395239D02*
X119076190Y46395239D01*
X118219047Y44395239D01*
X120219047Y46395239D02*
X120409523Y46395239D01*
X120600000Y46300000D01*
X120695238Y46204762D01*
X120790476Y46014286D01*
X120885714Y45633334D01*
X120885714Y45157143D01*
X120790476Y44776191D01*
X120695238Y44585715D01*
X120600000Y44490477D01*
X120409523Y44395239D01*
X120219047Y44395239D01*
X120028571Y44490477D01*
X119933333Y44585715D01*
X119838095Y44776191D01*
X119742857Y45157143D01*
X119742857Y45633334D01*
X119838095Y46014286D01*
X119933333Y46204762D01*
X120028571Y46300000D01*
X120219047Y46395239D01*
X121552380Y44395239D02*
X122600000Y45728572D01*
X121552380Y45728572D02*
X122600000Y44395239D01*
X123171428Y46395239D02*
X124504761Y46395239D01*
X123647619Y44395239D01*
X126123809Y46395239D02*
X125742857Y46395239D01*
X125552380Y46300000D01*
X125457142Y46204762D01*
X125266666Y45919048D01*
X125171428Y45538096D01*
X125171428Y44776191D01*
X125266666Y44585715D01*
X125361904Y44490477D01*
X125552380Y44395239D01*
X125933333Y44395239D01*
X126123809Y44490477D01*
X126219047Y44585715D01*
X126314285Y44776191D01*
X126314285Y45252381D01*
X126219047Y45442858D01*
X126123809Y45538096D01*
X125933333Y45633334D01*
X125552380Y45633334D01*
X125361904Y45538096D01*
X125266666Y45442858D01*
X125171428Y45252381D01*
X128695238Y44395239D02*
X128695238Y45728572D01*
X128695238Y45538096D02*
X128790476Y45633334D01*
X128980952Y45728572D01*
X129266666Y45728572D01*
X129457142Y45633334D01*
X129552380Y45442858D01*
X129552380Y44395239D01*
X129552380Y45442858D02*
X129647619Y45633334D01*
X129838095Y45728572D01*
X130123809Y45728572D01*
X130314285Y45633334D01*
X130409523Y45442858D01*
X130409523Y44395239D01*
X131361904Y44395239D02*
X131361904Y45728572D01*
X131361904Y45538096D02*
X131457142Y45633334D01*
X131647619Y45728572D01*
X131933333Y45728572D01*
X132123809Y45633334D01*
X132219047Y45442858D01*
X132219047Y44395239D01*
X132219047Y45442858D02*
X132314285Y45633334D01*
X132504761Y45728572D01*
X132790476Y45728572D01*
X132980952Y45633334D01*
X133076190Y45442858D01*
X133076190Y44395239D01*
X90304761Y7639687D02*
X91447618Y7639687D01*
X90876190Y5639687D02*
X90876190Y7639687D01*
X92876190Y5734925D02*
X92685713Y5639687D01*
X92304761Y5639687D01*
X92114285Y5734925D01*
X92019047Y5925401D01*
X92019047Y6687306D01*
X92114285Y6877782D01*
X92304761Y6973020D01*
X92685713Y6973020D01*
X92876190Y6877782D01*
X92971428Y6687306D01*
X92971428Y6496829D01*
X92019047Y6306353D01*
X93828571Y6973020D02*
X93828571Y5639687D01*
X93828571Y6782544D02*
X93923809Y6877782D01*
X94114285Y6973020D01*
X94399999Y6973020D01*
X94590475Y6877782D01*
X94685713Y6687306D01*
X94685713Y5639687D01*
X95352380Y6973020D02*
X96114285Y6973020D01*
X95638094Y7639687D02*
X95638094Y5925401D01*
X95733332Y5734925D01*
X95923809Y5639687D01*
X96114285Y5639687D01*
X97542856Y5734925D02*
X97352380Y5639687D01*
X96971428Y5639687D01*
X96780952Y5734925D01*
X96685713Y5925401D01*
X96685713Y6687306D01*
X96780952Y6877782D01*
X96971428Y6973020D01*
X97352380Y6973020D01*
X97542856Y6877782D01*
X97638094Y6687306D01*
X97638094Y6496829D01*
X96685713Y6306353D01*
X99352380Y5639687D02*
X99352380Y7639687D01*
X99352380Y5734925D02*
X99161904Y5639687D01*
X98780952Y5639687D01*
X98590475Y5734925D01*
X98495237Y5830163D01*
X98399999Y6020639D01*
X98399999Y6592068D01*
X98495237Y6782544D01*
X98590475Y6877782D01*
X98780952Y6973020D01*
X99161904Y6973020D01*
X99352380Y6877782D01*
X101542856Y7639687D02*
X102209523Y5639687D01*
X102876190Y7639687D01*
X103542856Y5639687D02*
X103542856Y6973020D01*
X103542856Y7639687D02*
X103447618Y7544448D01*
X103542856Y7449210D01*
X103638094Y7544448D01*
X103542856Y7639687D01*
X103542856Y7449210D01*
X105352380Y5639687D02*
X105352380Y6687306D01*
X105257142Y6877782D01*
X105066666Y6973020D01*
X104685713Y6973020D01*
X104495237Y6877782D01*
X105352380Y5734925D02*
X105161904Y5639687D01*
X104685713Y5639687D01*
X104495237Y5734925D01*
X104399999Y5925401D01*
X104399999Y6115877D01*
X104495237Y6306353D01*
X104685713Y6401591D01*
X105161904Y6401591D01*
X105352380Y6496829D01*
X106209523Y5734925D02*
X106399999Y5639687D01*
X106780952Y5639687D01*
X106971428Y5734925D01*
X107066666Y5925401D01*
X107066666Y6020639D01*
X106971428Y6211115D01*
X106780952Y6306353D01*
X106495237Y6306353D01*
X106304761Y6401591D01*
X106209523Y6592068D01*
X106209523Y6687306D01*
X106304761Y6877782D01*
X106495237Y6973020D01*
X106780952Y6973020D01*
X106971428Y6877782D01*
X90495238Y34801589D02*
X90780952Y34706351D01*
X91257142Y34706351D01*
X91447619Y34801589D01*
X91542857Y34896827D01*
X91638095Y35087303D01*
X91638095Y35277779D01*
X91542857Y35468255D01*
X91447619Y35563493D01*
X91257142Y35658732D01*
X90876190Y35753970D01*
X90685714Y35849208D01*
X90590476Y35944446D01*
X90495238Y36134922D01*
X90495238Y36325398D01*
X90590476Y36515874D01*
X90685714Y36611112D01*
X90876190Y36706351D01*
X91352381Y36706351D01*
X91638095Y36611112D01*
X93352381Y36039684D02*
X93352381Y34706351D01*
X92495238Y36039684D02*
X92495238Y34992065D01*
X92590476Y34801589D01*
X92780952Y34706351D01*
X93066666Y34706351D01*
X93257142Y34801589D01*
X93352381Y34896827D01*
X94304762Y34706351D02*
X94304762Y36039684D01*
X94304762Y35658732D02*
X94400000Y35849208D01*
X94495238Y35944446D01*
X94685714Y36039684D01*
X94876190Y36039684D01*
X95257142Y36039684D02*
X96019047Y36039684D01*
X95542857Y34706351D02*
X95542857Y36420636D01*
X95638095Y36611112D01*
X95828571Y36706351D01*
X96019047Y36706351D01*
X97542857Y34706351D02*
X97542857Y35753970D01*
X97447619Y35944446D01*
X97257142Y36039684D01*
X96876190Y36039684D01*
X96685714Y35944446D01*
X97542857Y34801589D02*
X97352381Y34706351D01*
X96876190Y34706351D01*
X96685714Y34801589D01*
X96590476Y34992065D01*
X96590476Y35182541D01*
X96685714Y35373017D01*
X96876190Y35468255D01*
X97352381Y35468255D01*
X97542857Y35563493D01*
X99352381Y34801589D02*
X99161904Y34706351D01*
X98780952Y34706351D01*
X98590476Y34801589D01*
X98495238Y34896827D01*
X98400000Y35087303D01*
X98400000Y35658732D01*
X98495238Y35849208D01*
X98590476Y35944446D01*
X98780952Y36039684D01*
X99161904Y36039684D01*
X99352381Y35944446D01*
X100971428Y34801589D02*
X100780952Y34706351D01*
X100400000Y34706351D01*
X100209523Y34801589D01*
X100114285Y34992065D01*
X100114285Y35753970D01*
X100209523Y35944446D01*
X100400000Y36039684D01*
X100780952Y36039684D01*
X100971428Y35944446D01*
X101066666Y35753970D01*
X101066666Y35563493D01*
X100114285Y35373017D01*
X103161904Y36039684D02*
X103923809Y36039684D01*
X103447619Y34706351D02*
X103447619Y36420636D01*
X103542857Y36611112D01*
X103733333Y36706351D01*
X103923809Y36706351D01*
X104590476Y34706351D02*
X104590476Y36039684D01*
X104590476Y36706351D02*
X104495238Y36611112D01*
X104590476Y36515874D01*
X104685714Y36611112D01*
X104590476Y36706351D01*
X104590476Y36515874D01*
X105542857Y36039684D02*
X105542857Y34706351D01*
X105542857Y35849208D02*
X105638095Y35944446D01*
X105828571Y36039684D01*
X106114285Y36039684D01*
X106304762Y35944446D01*
X106400000Y35753970D01*
X106400000Y34706351D01*
X107352381Y34706351D02*
X107352381Y36039684D01*
X107352381Y36706351D02*
X107257142Y36611112D01*
X107352381Y36515874D01*
X107447619Y36611112D01*
X107352381Y36706351D01*
X107352381Y36515874D01*
X108209523Y34801589D02*
X108400000Y34706351D01*
X108780952Y34706351D01*
X108971428Y34801589D01*
X109066666Y34992065D01*
X109066666Y35087303D01*
X108971428Y35277779D01*
X108780952Y35373017D01*
X108495238Y35373017D01*
X108304762Y35468255D01*
X108209523Y35658732D01*
X108209523Y35753970D01*
X108304762Y35944446D01*
X108495238Y36039684D01*
X108780952Y36039684D01*
X108971428Y35944446D01*
X109923809Y34706351D02*
X109923809Y36706351D01*
X110780952Y34706351D02*
X110780952Y35753970D01*
X110685714Y35944446D01*
X110495238Y36039684D01*
X110209523Y36039684D01*
X110019047Y35944446D01*
X109923809Y35849208D01*
X111733333Y34896827D02*
X111828571Y34801589D01*
X111733333Y34706351D01*
X111638095Y34801589D01*
X111733333Y34896827D01*
X111733333Y34706351D01*
X111733333Y35944446D02*
X111828571Y35849208D01*
X111733333Y35753970D01*
X111638095Y35849208D01*
X111733333Y35944446D01*
X111733333Y35753970D01*
X114209523Y34706351D02*
X114209523Y36706351D01*
X114209523Y35753970D02*
X115352381Y35753970D01*
X115352381Y34706351D02*
X115352381Y36706351D01*
X116209523Y35277779D02*
X117161904Y35277779D01*
X116019047Y34706351D02*
X116685714Y36706351D01*
X117352381Y34706351D01*
X117923809Y34801589D02*
X118209523Y34706351D01*
X118685714Y34706351D01*
X118876190Y34801589D01*
X118971428Y34896827D01*
X119066666Y35087303D01*
X119066666Y35277779D01*
X118971428Y35468255D01*
X118876190Y35563493D01*
X118685714Y35658732D01*
X118304762Y35753970D01*
X118114285Y35849208D01*
X118019047Y35944446D01*
X117923809Y36134922D01*
X117923809Y36325398D01*
X118019047Y36515874D01*
X118114285Y36611112D01*
X118304762Y36706351D01*
X118780952Y36706351D01*
X119066666Y36611112D01*
X120876190Y34706351D02*
X119923809Y34706351D01*
X119923809Y36706351D01*
X122876190Y36039684D02*
X123257142Y34706351D01*
X123638095Y35658732D01*
X124019047Y34706351D01*
X124400000Y36039684D01*
X125161904Y34706351D02*
X125161904Y36039684D01*
X125161904Y36706351D02*
X125066666Y36611112D01*
X125161904Y36515874D01*
X125257142Y36611112D01*
X125161904Y36706351D01*
X125161904Y36515874D01*
X125828571Y36039684D02*
X126590476Y36039684D01*
X126114285Y36706351D02*
X126114285Y34992065D01*
X126209523Y34801589D01*
X126400000Y34706351D01*
X126590476Y34706351D01*
X127257142Y34706351D02*
X127257142Y36706351D01*
X128114285Y34706351D02*
X128114285Y35753970D01*
X128019047Y35944446D01*
X127828571Y36039684D01*
X127542857Y36039684D01*
X127352381Y35944446D01*
X127257142Y35849208D01*
X130876190Y34706351D02*
X130685714Y34801589D01*
X130590476Y34992065D01*
X130590476Y36706351D01*
X132400000Y34801589D02*
X132209523Y34706351D01*
X131828571Y34706351D01*
X131638095Y34801589D01*
X131542857Y34992065D01*
X131542857Y35753970D01*
X131638095Y35944446D01*
X131828571Y36039684D01*
X132209523Y36039684D01*
X132400000Y35944446D01*
X132495238Y35753970D01*
X132495238Y35563493D01*
X131542857Y35373017D01*
X134209523Y34706351D02*
X134209523Y35753970D01*
X134114285Y35944446D01*
X133923809Y36039684D01*
X133542857Y36039684D01*
X133352381Y35944446D01*
X134209523Y34801589D02*
X134019047Y34706351D01*
X133542857Y34706351D01*
X133352381Y34801589D01*
X133257142Y34992065D01*
X133257142Y35182541D01*
X133352381Y35373017D01*
X133542857Y35468255D01*
X134019047Y35468255D01*
X134209523Y35563493D01*
X136019047Y34706351D02*
X136019047Y36706351D01*
X136019047Y34801589D02*
X135828571Y34706351D01*
X135447619Y34706351D01*
X135257142Y34801589D01*
X135161904Y34896827D01*
X135066666Y35087303D01*
X135066666Y35658732D01*
X135161904Y35849208D01*
X135257142Y35944446D01*
X135447619Y36039684D01*
X135828571Y36039684D01*
X136019047Y35944446D01*
X91409523Y795239D02*
X90742857Y1747620D01*
X90266666Y795239D02*
X90266666Y2795239D01*
X91028571Y2795239D01*
X91219047Y2700000D01*
X91314285Y2604762D01*
X91409523Y2414286D01*
X91409523Y2128572D01*
X91314285Y1938096D01*
X91219047Y1842858D01*
X91028571Y1747620D01*
X90266666Y1747620D01*
X93028571Y890477D02*
X92838095Y795239D01*
X92457142Y795239D01*
X92266666Y890477D01*
X92171428Y1080953D01*
X92171428Y1842858D01*
X92266666Y2033334D01*
X92457142Y2128572D01*
X92838095Y2128572D01*
X93028571Y2033334D01*
X93123809Y1842858D01*
X93123809Y1652381D01*
X92171428Y1461905D01*
X93695238Y2128572D02*
X94457142Y2128572D01*
X93980952Y795239D02*
X93980952Y2509524D01*
X94076190Y2700000D01*
X94266666Y2795239D01*
X94457142Y2795239D01*
X95885714Y890477D02*
X95695238Y795239D01*
X95314285Y795239D01*
X95123809Y890477D01*
X95028571Y1080953D01*
X95028571Y1842858D01*
X95123809Y2033334D01*
X95314285Y2128572D01*
X95695238Y2128572D01*
X95885714Y2033334D01*
X95980952Y1842858D01*
X95980952Y1652381D01*
X95028571Y1461905D01*
X96838095Y795239D02*
X96838095Y2128572D01*
X96838095Y1747620D02*
X96933333Y1938096D01*
X97028571Y2033334D01*
X97219047Y2128572D01*
X97409523Y2128572D01*
X98838095Y890477D02*
X98647619Y795239D01*
X98266666Y795239D01*
X98076190Y890477D01*
X97980952Y1080953D01*
X97980952Y1842858D01*
X98076190Y2033334D01*
X98266666Y2128572D01*
X98647619Y2128572D01*
X98838095Y2033334D01*
X98933333Y1842858D01*
X98933333Y1652381D01*
X97980952Y1461905D01*
X99790476Y2128572D02*
X99790476Y795239D01*
X99790476Y1938096D02*
X99885714Y2033334D01*
X100076190Y2128572D01*
X100361904Y2128572D01*
X100552380Y2033334D01*
X100647619Y1842858D01*
X100647619Y795239D01*
X102457142Y890477D02*
X102266666Y795239D01*
X101885714Y795239D01*
X101695238Y890477D01*
X101600000Y985715D01*
X101504761Y1176191D01*
X101504761Y1747620D01*
X101600000Y1938096D01*
X101695238Y2033334D01*
X101885714Y2128572D01*
X102266666Y2128572D01*
X102457142Y2033334D01*
X104076190Y890477D02*
X103885714Y795239D01*
X103504761Y795239D01*
X103314285Y890477D01*
X103219047Y1080953D01*
X103219047Y1842858D01*
X103314285Y2033334D01*
X103504761Y2128572D01*
X103885714Y2128572D01*
X104076190Y2033334D01*
X104171428Y1842858D01*
X104171428Y1652381D01*
X103219047Y1461905D01*
X106457142Y890477D02*
X106647619Y795239D01*
X107028571Y795239D01*
X107219047Y890477D01*
X107314285Y1080953D01*
X107314285Y1176191D01*
X107219047Y1366667D01*
X107028571Y1461905D01*
X106742857Y1461905D01*
X106552380Y1557143D01*
X106457142Y1747620D01*
X106457142Y1842858D01*
X106552380Y2033334D01*
X106742857Y2128572D01*
X107028571Y2128572D01*
X107219047Y2033334D01*
X108171428Y2128572D02*
X108171428Y128572D01*
X108171428Y2033334D02*
X108361904Y2128572D01*
X108742857Y2128572D01*
X108933333Y2033334D01*
X109028571Y1938096D01*
X109123809Y1747620D01*
X109123809Y1176191D01*
X109028571Y985715D01*
X108933333Y890477D01*
X108742857Y795239D01*
X108361904Y795239D01*
X108171428Y890477D01*
X110742857Y890477D02*
X110552380Y795239D01*
X110171428Y795239D01*
X109980952Y890477D01*
X109885714Y1080953D01*
X109885714Y1842858D01*
X109980952Y2033334D01*
X110171428Y2128572D01*
X110552380Y2128572D01*
X110742857Y2033334D01*
X110838095Y1842858D01*
X110838095Y1652381D01*
X109885714Y1461905D01*
X112552380Y890477D02*
X112361904Y795239D01*
X111980952Y795239D01*
X111790476Y890477D01*
X111695238Y985715D01*
X111600000Y1176191D01*
X111600000Y1747620D01*
X111695238Y1938096D01*
X111790476Y2033334D01*
X111980952Y2128572D01*
X112361904Y2128572D01*
X112552380Y2033334D01*
X113314285Y890477D02*
X113504761Y795239D01*
X113885714Y795239D01*
X114076190Y890477D01*
X114171428Y1080953D01*
X114171428Y1176191D01*
X114076190Y1366667D01*
X113885714Y1461905D01*
X113600000Y1461905D01*
X113409523Y1557143D01*
X113314285Y1747620D01*
X113314285Y1842858D01*
X113409523Y2033334D01*
X113600000Y2128572D01*
X113885714Y2128572D01*
X114076190Y2033334D01*
X115028571Y985715D02*
X115123809Y890477D01*
X115028571Y795239D01*
X114933333Y890477D01*
X115028571Y985715D01*
X115028571Y795239D01*
X115028571Y2033334D02*
X115123809Y1938096D01*
X115028571Y1842858D01*
X114933333Y1938096D01*
X115028571Y2033334D01*
X115028571Y1842858D01*
X117504761Y795239D02*
X117504761Y2795239D01*
X118171428Y1366667D01*
X118838095Y2795239D01*
X118838095Y795239D01*
X119695238Y1366667D02*
X120647619Y1366667D01*
X119504761Y795239D02*
X120171428Y2795239D01*
X120838095Y795239D01*
X121885714Y1747620D02*
X121885714Y795239D01*
X121219047Y2795239D02*
X121885714Y1747620D01*
X122552380Y2795239D01*
X123219047Y1842858D02*
X123885714Y1842858D01*
X124171428Y795239D02*
X123219047Y795239D01*
X123219047Y2795239D01*
X124171428Y2795239D01*
X126171428Y795239D02*
X125504761Y1747620D01*
X125028571Y795239D02*
X125028571Y2795239D01*
X125790476Y2795239D01*
X125980952Y2700000D01*
X126076190Y2604762D01*
X126171428Y2414286D01*
X126171428Y2128572D01*
X126076190Y1938096D01*
X125980952Y1842858D01*
X125790476Y1747620D01*
X125028571Y1747620D01*
X128552380Y2128572D02*
X128552380Y128572D01*
X128552380Y2033334D02*
X128742857Y2128572D01*
X129123809Y2128572D01*
X129314285Y2033334D01*
X129409523Y1938096D01*
X129504761Y1747620D01*
X129504761Y1176191D01*
X129409523Y985715D01*
X129314285Y890477D01*
X129123809Y795239D01*
X128742857Y795239D01*
X128552380Y890477D01*
X131219047Y890477D02*
X131028571Y795239D01*
X130647619Y795239D01*
X130457142Y890477D01*
X130361904Y985715D01*
X130266666Y1176191D01*
X130266666Y1747620D01*
X130361904Y1938096D01*
X130457142Y2033334D01*
X130647619Y2128572D01*
X131028571Y2128572D01*
X131219047Y2033334D01*
X132076190Y795239D02*
X132076190Y2795239D01*
X132076190Y2033334D02*
X132266666Y2128572D01*
X132647619Y2128572D01*
X132838095Y2033334D01*
X132933333Y1938096D01*
X133028571Y1747620D01*
X133028571Y1176191D01*
X132933333Y985715D01*
X132838095Y890477D01*
X132647619Y795239D01*
X132266666Y795239D01*
X132076190Y890477D01*
X90495238Y41360318D02*
X90590476Y41455556D01*
X90780952Y41550795D01*
X91257142Y41550795D01*
X91447619Y41455556D01*
X91542857Y41360318D01*
X91638095Y41169842D01*
X91638095Y40979366D01*
X91542857Y40693652D01*
X90400000Y39550795D01*
X91638095Y39550795D01*
X94971428Y39550795D02*
X94019047Y39550795D01*
X94019047Y41550795D01*
X96495238Y39550795D02*
X96495238Y40598414D01*
X96400000Y40788890D01*
X96209523Y40884128D01*
X95828571Y40884128D01*
X95638095Y40788890D01*
X96495238Y39646033D02*
X96304761Y39550795D01*
X95828571Y39550795D01*
X95638095Y39646033D01*
X95542857Y39836509D01*
X95542857Y40026985D01*
X95638095Y40217461D01*
X95828571Y40312699D01*
X96304761Y40312699D01*
X96495238Y40407937D01*
X97257142Y40884128D02*
X97733333Y39550795D01*
X98209523Y40884128D02*
X97733333Y39550795D01*
X97542857Y39074604D01*
X97447619Y38979366D01*
X97257142Y38884128D01*
X99733333Y39646033D02*
X99542857Y39550795D01*
X99161904Y39550795D01*
X98971428Y39646033D01*
X98876190Y39836509D01*
X98876190Y40598414D01*
X98971428Y40788890D01*
X99161904Y40884128D01*
X99542857Y40884128D01*
X99733333Y40788890D01*
X99828571Y40598414D01*
X99828571Y40407937D01*
X98876190Y40217461D01*
X100685714Y39550795D02*
X100685714Y40884128D01*
X100685714Y40503176D02*
X100780952Y40693652D01*
X100876190Y40788890D01*
X101066666Y40884128D01*
X101257142Y40884128D01*
X101828571Y39646033D02*
X102019047Y39550795D01*
X102400000Y39550795D01*
X102590476Y39646033D01*
X102685714Y39836509D01*
X102685714Y39931747D01*
X102590476Y40122223D01*
X102400000Y40217461D01*
X102114285Y40217461D01*
X101923809Y40312699D01*
X101828571Y40503176D01*
X101828571Y40598414D01*
X101923809Y40788890D01*
X102114285Y40884128D01*
X102400000Y40884128D01*
X102590476Y40788890D01*
X105066666Y40312699D02*
X106590476Y40312699D01*
X108780952Y40884128D02*
X109542857Y40884128D01*
X109066666Y41550795D02*
X109066666Y39836509D01*
X109161904Y39646033D01*
X109352380Y39550795D01*
X109542857Y39550795D01*
X110209523Y39550795D02*
X110209523Y41550795D01*
X111066666Y39550795D02*
X111066666Y40598414D01*
X110971428Y40788890D01*
X110780952Y40884128D01*
X110495238Y40884128D01*
X110304761Y40788890D01*
X110209523Y40693652D01*
X112019047Y39550795D02*
X112019047Y40884128D01*
X112019047Y41550795D02*
X111923809Y41455556D01*
X112019047Y41360318D01*
X112114285Y41455556D01*
X112019047Y41550795D01*
X112019047Y41360318D01*
X113828571Y39646033D02*
X113638095Y39550795D01*
X113257142Y39550795D01*
X113066666Y39646033D01*
X112971428Y39741271D01*
X112876190Y39931747D01*
X112876190Y40503176D01*
X112971428Y40693652D01*
X113066666Y40788890D01*
X113257142Y40884128D01*
X113638095Y40884128D01*
X113828571Y40788890D01*
X114685714Y39550795D02*
X114685714Y41550795D01*
X114876190Y40312699D02*
X115447619Y39550795D01*
X115447619Y40884128D02*
X114685714Y40122223D01*
X116304761Y40884128D02*
X116304761Y39550795D01*
X116304761Y40693652D02*
X116400000Y40788890D01*
X116590476Y40884128D01*
X116876190Y40884128D01*
X117066666Y40788890D01*
X117161904Y40598414D01*
X117161904Y39550795D01*
X118876190Y39646033D02*
X118685714Y39550795D01*
X118304761Y39550795D01*
X118114285Y39646033D01*
X118019047Y39836509D01*
X118019047Y40598414D01*
X118114285Y40788890D01*
X118304761Y40884128D01*
X118685714Y40884128D01*
X118876190Y40788890D01*
X118971428Y40598414D01*
X118971428Y40407937D01*
X118019047Y40217461D01*
X119733333Y39646033D02*
X119923809Y39550795D01*
X120304761Y39550795D01*
X120495238Y39646033D01*
X120590476Y39836509D01*
X120590476Y39931747D01*
X120495238Y40122223D01*
X120304761Y40217461D01*
X120019047Y40217461D01*
X119828571Y40312699D01*
X119733333Y40503176D01*
X119733333Y40598414D01*
X119828571Y40788890D01*
X120019047Y40884128D01*
X120304761Y40884128D01*
X120495238Y40788890D01*
X121352380Y39646033D02*
X121542857Y39550795D01*
X121923809Y39550795D01*
X122114285Y39646033D01*
X122209523Y39836509D01*
X122209523Y39931747D01*
X122114285Y40122223D01*
X121923809Y40217461D01*
X121638095Y40217461D01*
X121447619Y40312699D01*
X121352380Y40503176D01*
X121352380Y40598414D01*
X121447619Y40788890D01*
X121638095Y40884128D01*
X121923809Y40884128D01*
X122114285Y40788890D01*
X123066666Y39741271D02*
X123161904Y39646033D01*
X123066666Y39550795D01*
X122971428Y39646033D01*
X123066666Y39741271D01*
X123066666Y39550795D01*
X123066666Y40788890D02*
X123161904Y40693652D01*
X123066666Y40598414D01*
X122971428Y40693652D01*
X123066666Y40788890D01*
X123066666Y40598414D01*
X126590476Y39550795D02*
X125447619Y39550795D01*
X126019047Y39550795D02*
X126019047Y41550795D01*
X125828571Y41265080D01*
X125638095Y41074604D01*
X125447619Y40979366D01*
X127447619Y39741271D02*
X127542857Y39646033D01*
X127447619Y39550795D01*
X127352380Y39646033D01*
X127447619Y39741271D01*
X127447619Y39550795D01*
X129257142Y41550795D02*
X128876190Y41550795D01*
X128685714Y41455556D01*
X128590476Y41360318D01*
X128400000Y41074604D01*
X128304761Y40693652D01*
X128304761Y39931747D01*
X128400000Y39741271D01*
X128495238Y39646033D01*
X128685714Y39550795D01*
X129066666Y39550795D01*
X129257142Y39646033D01*
X129352380Y39741271D01*
X129447619Y39931747D01*
X129447619Y40407937D01*
X129352380Y40598414D01*
X129257142Y40693652D01*
X129066666Y40788890D01*
X128685714Y40788890D01*
X128495238Y40693652D01*
X128400000Y40598414D01*
X128304761Y40407937D01*
X131828571Y39550795D02*
X131828571Y40884128D01*
X131828571Y40693652D02*
X131923809Y40788890D01*
X132114285Y40884128D01*
X132400000Y40884128D01*
X132590476Y40788890D01*
X132685714Y40598414D01*
X132685714Y39550795D01*
X132685714Y40598414D02*
X132780952Y40788890D01*
X132971428Y40884128D01*
X133257142Y40884128D01*
X133447619Y40788890D01*
X133542857Y40598414D01*
X133542857Y39550795D01*
X134495238Y39550795D02*
X134495238Y40884128D01*
X134495238Y40693652D02*
X134590476Y40788890D01*
X134780952Y40884128D01*
X135066666Y40884128D01*
X135257142Y40788890D01*
X135352380Y40598414D01*
X135352380Y39550795D01*
X135352380Y40598414D02*
X135447619Y40788890D01*
X135638095Y40884128D01*
X135923809Y40884128D01*
X136114285Y40788890D01*
X136209523Y40598414D01*
X136209523Y39550795D01*
X91638095Y31766668D02*
X91447619Y31861907D01*
X91161904Y31861907D01*
X90876190Y31766668D01*
X90685714Y31576192D01*
X90590476Y31385716D01*
X90495238Y31004764D01*
X90495238Y30719049D01*
X90590476Y30338097D01*
X90685714Y30147621D01*
X90876190Y29957145D01*
X91161904Y29861907D01*
X91352380Y29861907D01*
X91638095Y29957145D01*
X91733333Y30052383D01*
X91733333Y30719049D01*
X91352380Y30719049D01*
X92590476Y29861907D02*
X92590476Y31195240D01*
X92590476Y30814288D02*
X92685714Y31004764D01*
X92780952Y31100002D01*
X92971428Y31195240D01*
X93161904Y31195240D01*
X93828571Y29861907D02*
X93828571Y31195240D01*
X93828571Y31861907D02*
X93733333Y31766668D01*
X93828571Y31671430D01*
X93923809Y31766668D01*
X93828571Y31861907D01*
X93828571Y31671430D01*
X95638095Y29861907D02*
X95638095Y31861907D01*
X95638095Y29957145D02*
X95447619Y29861907D01*
X95066666Y29861907D01*
X94876190Y29957145D01*
X94780952Y30052383D01*
X94685714Y30242859D01*
X94685714Y30814288D01*
X94780952Y31004764D01*
X94876190Y31100002D01*
X95066666Y31195240D01*
X95447619Y31195240D01*
X95638095Y31100002D01*
X96590476Y30052383D02*
X96685714Y29957145D01*
X96590476Y29861907D01*
X96495238Y29957145D01*
X96590476Y30052383D01*
X96590476Y29861907D01*
X96590476Y31100002D02*
X96685714Y31004764D01*
X96590476Y30909526D01*
X96495238Y31004764D01*
X96590476Y31100002D01*
X96590476Y30909526D01*
X99447619Y31861907D02*
X99638095Y31861907D01*
X99828571Y31766668D01*
X99923809Y31671430D01*
X100019047Y31480954D01*
X100114285Y31100002D01*
X100114285Y30623811D01*
X100019047Y30242859D01*
X99923809Y30052383D01*
X99828571Y29957145D01*
X99638095Y29861907D01*
X99447619Y29861907D01*
X99257142Y29957145D01*
X99161904Y30052383D01*
X99066666Y30242859D01*
X98971428Y30623811D01*
X98971428Y31100002D01*
X99066666Y31480954D01*
X99161904Y31671430D01*
X99257142Y31766668D01*
X99447619Y31861907D01*
X100971428Y30052383D02*
X101066666Y29957145D01*
X100971428Y29861907D01*
X100876190Y29957145D01*
X100971428Y30052383D01*
X100971428Y29861907D01*
X102971428Y29861907D02*
X101828571Y29861907D01*
X102400000Y29861907D02*
X102400000Y31861907D01*
X102209523Y31576192D01*
X102019047Y31385716D01*
X101828571Y31290478D01*
X103828571Y29861907D02*
X103828571Y31195240D01*
X103828571Y31004764D02*
X103923809Y31100002D01*
X104114285Y31195240D01*
X104400000Y31195240D01*
X104590476Y31100002D01*
X104685714Y30909526D01*
X104685714Y29861907D01*
X104685714Y30909526D02*
X104780952Y31100002D01*
X104971428Y31195240D01*
X105257142Y31195240D01*
X105447619Y31100002D01*
X105542857Y30909526D01*
X105542857Y29861907D01*
X106495238Y29861907D02*
X106495238Y31195240D01*
X106495238Y31004764D02*
X106590476Y31100002D01*
X106780952Y31195240D01*
X107066666Y31195240D01*
X107257142Y31100002D01*
X107352380Y30909526D01*
X107352380Y29861907D01*
X107352380Y30909526D02*
X107447619Y31100002D01*
X107638095Y31195240D01*
X107923809Y31195240D01*
X108114285Y31100002D01*
X108209523Y30909526D01*
X108209523Y29861907D01*
X90304761Y12484131D02*
X90971428Y10484131D01*
X91638095Y12484131D01*
X92304761Y10484131D02*
X92304761Y11817464D01*
X92304761Y12484131D02*
X92209523Y12388892D01*
X92304761Y12293654D01*
X92399999Y12388892D01*
X92304761Y12484131D01*
X92304761Y12293654D01*
X94114285Y10484131D02*
X94114285Y11531750D01*
X94019047Y11722226D01*
X93828571Y11817464D01*
X93447618Y11817464D01*
X93257142Y11722226D01*
X94114285Y10579369D02*
X93923809Y10484131D01*
X93447618Y10484131D01*
X93257142Y10579369D01*
X93161904Y10769845D01*
X93161904Y10960321D01*
X93257142Y11150797D01*
X93447618Y11246035D01*
X93923809Y11246035D01*
X94114285Y11341273D01*
X96590476Y10484131D02*
X96590476Y12484131D01*
X97066666Y12484131D01*
X97352380Y12388892D01*
X97542857Y12198416D01*
X97638095Y12007940D01*
X97733333Y11626988D01*
X97733333Y11341273D01*
X97638095Y10960321D01*
X97542857Y10769845D01*
X97352380Y10579369D01*
X97066666Y10484131D01*
X96590476Y10484131D01*
X98590476Y10484131D02*
X98590476Y11817464D01*
X98590476Y11436512D02*
X98685714Y11626988D01*
X98780952Y11722226D01*
X98971428Y11817464D01*
X99161904Y11817464D01*
X99828571Y10484131D02*
X99828571Y11817464D01*
X99828571Y12484131D02*
X99733333Y12388892D01*
X99828571Y12293654D01*
X99923809Y12388892D01*
X99828571Y12484131D01*
X99828571Y12293654D01*
X101066666Y10484131D02*
X100876190Y10579369D01*
X100780952Y10769845D01*
X100780952Y12484131D01*
X102114285Y10484131D02*
X101923809Y10579369D01*
X101828571Y10769845D01*
X101828571Y12484131D01*
X102876190Y10674607D02*
X102971428Y10579369D01*
X102876190Y10484131D01*
X102780952Y10579369D01*
X102876190Y10674607D01*
X102876190Y10484131D01*
X102876190Y11722226D02*
X102971428Y11626988D01*
X102876190Y11531750D01*
X102780952Y11626988D01*
X102876190Y11722226D01*
X102876190Y11531750D01*
X105733333Y12484131D02*
X105923809Y12484131D01*
X106114285Y12388892D01*
X106209523Y12293654D01*
X106304761Y12103178D01*
X106399999Y11722226D01*
X106399999Y11246035D01*
X106304761Y10865083D01*
X106209523Y10674607D01*
X106114285Y10579369D01*
X105923809Y10484131D01*
X105733333Y10484131D01*
X105542857Y10579369D01*
X105447618Y10674607D01*
X105352380Y10865083D01*
X105257142Y11246035D01*
X105257142Y11722226D01*
X105352380Y12103178D01*
X105447618Y12293654D01*
X105542857Y12388892D01*
X105733333Y12484131D01*
X107257142Y10674607D02*
X107352380Y10579369D01*
X107257142Y10484131D01*
X107161904Y10579369D01*
X107257142Y10674607D01*
X107257142Y10484131D01*
X109066666Y11817464D02*
X109066666Y10484131D01*
X108590476Y12579369D02*
X108114285Y11150797D01*
X109352380Y11150797D01*
X110114285Y10484131D02*
X110114285Y11817464D01*
X110114285Y11626988D02*
X110209523Y11722226D01*
X110399999Y11817464D01*
X110685714Y11817464D01*
X110876190Y11722226D01*
X110971428Y11531750D01*
X110971428Y10484131D01*
X110971428Y11531750D02*
X111066666Y11722226D01*
X111257142Y11817464D01*
X111542857Y11817464D01*
X111733333Y11722226D01*
X111828571Y11531750D01*
X111828571Y10484131D01*
X112780952Y10484131D02*
X112780952Y11817464D01*
X112780952Y11626988D02*
X112876190Y11722226D01*
X113066666Y11817464D01*
X113352380Y11817464D01*
X113542857Y11722226D01*
X113638095Y11531750D01*
X113638095Y10484131D01*
X113638095Y11531750D02*
X113733333Y11722226D01*
X113923809Y11817464D01*
X114209523Y11817464D01*
X114399999Y11722226D01*
X114495237Y11531750D01*
X114495237Y10484131D01*
X90304761Y17328575D02*
X90971428Y15328575D01*
X91638095Y17328575D01*
X92304761Y15328575D02*
X92304761Y16661908D01*
X92304761Y17328575D02*
X92209523Y17233336D01*
X92304761Y17138098D01*
X92400000Y17233336D01*
X92304761Y17328575D01*
X92304761Y17138098D01*
X94114285Y15328575D02*
X94114285Y16376194D01*
X94019047Y16566670D01*
X93828571Y16661908D01*
X93447619Y16661908D01*
X93257142Y16566670D01*
X94114285Y15423813D02*
X93923809Y15328575D01*
X93447619Y15328575D01*
X93257142Y15423813D01*
X93161904Y15614289D01*
X93161904Y15804765D01*
X93257142Y15995241D01*
X93447619Y16090479D01*
X93923809Y16090479D01*
X94114285Y16185717D01*
X96495238Y15423813D02*
X96685714Y15328575D01*
X97066666Y15328575D01*
X97257142Y15423813D01*
X97352381Y15614289D01*
X97352381Y15709527D01*
X97257142Y15900003D01*
X97066666Y15995241D01*
X96780952Y15995241D01*
X96590476Y16090479D01*
X96495238Y16280956D01*
X96495238Y16376194D01*
X96590476Y16566670D01*
X96780952Y16661908D01*
X97066666Y16661908D01*
X97257142Y16566670D01*
X98209523Y15328575D02*
X98209523Y16661908D01*
X98209523Y17328575D02*
X98114285Y17233336D01*
X98209523Y17138098D01*
X98304761Y17233336D01*
X98209523Y17328575D01*
X98209523Y17138098D01*
X98971428Y16661908D02*
X100019047Y16661908D01*
X98971428Y15328575D01*
X100019047Y15328575D01*
X101542857Y15423813D02*
X101352381Y15328575D01*
X100971428Y15328575D01*
X100780952Y15423813D01*
X100685714Y15614289D01*
X100685714Y16376194D01*
X100780952Y16566670D01*
X100971428Y16661908D01*
X101352381Y16661908D01*
X101542857Y16566670D01*
X101638095Y16376194D01*
X101638095Y16185717D01*
X100685714Y15995241D01*
X102495238Y15519051D02*
X102590476Y15423813D01*
X102495238Y15328575D01*
X102400000Y15423813D01*
X102495238Y15519051D01*
X102495238Y15328575D01*
X102495238Y16566670D02*
X102590476Y16471432D01*
X102495238Y16376194D01*
X102400000Y16471432D01*
X102495238Y16566670D01*
X102495238Y16376194D01*
X105352381Y17328575D02*
X105542857Y17328575D01*
X105733333Y17233336D01*
X105828571Y17138098D01*
X105923809Y16947622D01*
X106019047Y16566670D01*
X106019047Y16090479D01*
X105923809Y15709527D01*
X105828571Y15519051D01*
X105733333Y15423813D01*
X105542857Y15328575D01*
X105352381Y15328575D01*
X105161904Y15423813D01*
X105066666Y15519051D01*
X104971428Y15709527D01*
X104876190Y16090479D01*
X104876190Y16566670D01*
X104971428Y16947622D01*
X105066666Y17138098D01*
X105161904Y17233336D01*
X105352381Y17328575D01*
X106876190Y15519051D02*
X106971428Y15423813D01*
X106876190Y15328575D01*
X106780952Y15423813D01*
X106876190Y15519051D01*
X106876190Y15328575D01*
X108114285Y16471432D02*
X107923809Y16566670D01*
X107828571Y16661908D01*
X107733333Y16852384D01*
X107733333Y16947622D01*
X107828571Y17138098D01*
X107923809Y17233336D01*
X108114285Y17328575D01*
X108495238Y17328575D01*
X108685714Y17233336D01*
X108780952Y17138098D01*
X108876190Y16947622D01*
X108876190Y16852384D01*
X108780952Y16661908D01*
X108685714Y16566670D01*
X108495238Y16471432D01*
X108114285Y16471432D01*
X107923809Y16376194D01*
X107828571Y16280956D01*
X107733333Y16090479D01*
X107733333Y15709527D01*
X107828571Y15519051D01*
X107923809Y15423813D01*
X108114285Y15328575D01*
X108495238Y15328575D01*
X108685714Y15423813D01*
X108780952Y15519051D01*
X108876190Y15709527D01*
X108876190Y16090479D01*
X108780952Y16280956D01*
X108685714Y16376194D01*
X108495238Y16471432D01*
X109733333Y15328575D02*
X109733333Y16661908D01*
X109733333Y16471432D02*
X109828571Y16566670D01*
X110019047Y16661908D01*
X110304761Y16661908D01*
X110495238Y16566670D01*
X110590476Y16376194D01*
X110590476Y15328575D01*
X110590476Y16376194D02*
X110685714Y16566670D01*
X110876190Y16661908D01*
X111161904Y16661908D01*
X111352381Y16566670D01*
X111447619Y16376194D01*
X111447619Y15328575D01*
X112400000Y15328575D02*
X112400000Y16661908D01*
X112400000Y16471432D02*
X112495238Y16566670D01*
X112685714Y16661908D01*
X112971428Y16661908D01*
X113161904Y16566670D01*
X113257142Y16376194D01*
X113257142Y15328575D01*
X113257142Y16376194D02*
X113352381Y16566670D01*
X113542857Y16661908D01*
X113828571Y16661908D01*
X114019047Y16566670D01*
X114114285Y16376194D01*
X114114285Y15328575D01*
X90304762Y22173019D02*
X91447619Y22173019D01*
X90876190Y20173019D02*
X90876190Y22173019D01*
X92114286Y20173019D02*
X92114286Y21506352D01*
X92114286Y21125400D02*
X92209524Y21315876D01*
X92304762Y21411114D01*
X92495238Y21506352D01*
X92685714Y21506352D01*
X94209524Y20173019D02*
X94209524Y21220638D01*
X94114286Y21411114D01*
X93923809Y21506352D01*
X93542857Y21506352D01*
X93352381Y21411114D01*
X94209524Y20268257D02*
X94019047Y20173019D01*
X93542857Y20173019D01*
X93352381Y20268257D01*
X93257143Y20458733D01*
X93257143Y20649209D01*
X93352381Y20839685D01*
X93542857Y20934923D01*
X94019047Y20934923D01*
X94209524Y21030161D01*
X96019047Y20268257D02*
X95828571Y20173019D01*
X95447619Y20173019D01*
X95257143Y20268257D01*
X95161905Y20363495D01*
X95066666Y20553971D01*
X95066666Y21125400D01*
X95161905Y21315876D01*
X95257143Y21411114D01*
X95447619Y21506352D01*
X95828571Y21506352D01*
X96019047Y21411114D01*
X96876190Y20173019D02*
X96876190Y22173019D01*
X97066666Y20934923D02*
X97638095Y20173019D01*
X97638095Y21506352D02*
X96876190Y20744447D01*
X99828571Y22173019D02*
X100304762Y20173019D01*
X100685714Y21601590D01*
X101066666Y20173019D01*
X101542857Y22173019D01*
X102304762Y20173019D02*
X102304762Y21506352D01*
X102304762Y22173019D02*
X102209524Y22077780D01*
X102304762Y21982542D01*
X102400000Y22077780D01*
X102304762Y22173019D01*
X102304762Y21982542D01*
X104114286Y20173019D02*
X104114286Y22173019D01*
X104114286Y20268257D02*
X103923809Y20173019D01*
X103542857Y20173019D01*
X103352381Y20268257D01*
X103257143Y20363495D01*
X103161905Y20553971D01*
X103161905Y21125400D01*
X103257143Y21315876D01*
X103352381Y21411114D01*
X103542857Y21506352D01*
X103923809Y21506352D01*
X104114286Y21411114D01*
X104780952Y21506352D02*
X105542857Y21506352D01*
X105066666Y22173019D02*
X105066666Y20458733D01*
X105161905Y20268257D01*
X105352381Y20173019D01*
X105542857Y20173019D01*
X106209524Y20173019D02*
X106209524Y22173019D01*
X107066666Y20173019D02*
X107066666Y21220638D01*
X106971428Y21411114D01*
X106780952Y21506352D01*
X106495238Y21506352D01*
X106304762Y21411114D01*
X106209524Y21315876D01*
X108019047Y20363495D02*
X108114286Y20268257D01*
X108019047Y20173019D01*
X107923809Y20268257D01*
X108019047Y20363495D01*
X108019047Y20173019D01*
X108019047Y21411114D02*
X108114286Y21315876D01*
X108019047Y21220638D01*
X107923809Y21315876D01*
X108019047Y21411114D01*
X108019047Y21220638D01*
X110876190Y22173019D02*
X111066666Y22173019D01*
X111257143Y22077780D01*
X111352381Y21982542D01*
X111447619Y21792066D01*
X111542857Y21411114D01*
X111542857Y20934923D01*
X111447619Y20553971D01*
X111352381Y20363495D01*
X111257143Y20268257D01*
X111066666Y20173019D01*
X110876190Y20173019D01*
X110685714Y20268257D01*
X110590476Y20363495D01*
X110495238Y20553971D01*
X110400000Y20934923D01*
X110400000Y21411114D01*
X110495238Y21792066D01*
X110590476Y21982542D01*
X110685714Y22077780D01*
X110876190Y22173019D01*
X112400000Y20363495D02*
X112495238Y20268257D01*
X112400000Y20173019D01*
X112304762Y20268257D01*
X112400000Y20363495D01*
X112400000Y20173019D01*
X113161905Y22173019D02*
X114400000Y22173019D01*
X113733333Y21411114D01*
X114019047Y21411114D01*
X114209524Y21315876D01*
X114304762Y21220638D01*
X114400000Y21030161D01*
X114400000Y20553971D01*
X114304762Y20363495D01*
X114209524Y20268257D01*
X114019047Y20173019D01*
X113447619Y20173019D01*
X113257143Y20268257D01*
X113161905Y20363495D01*
X115257143Y20173019D02*
X115257143Y21506352D01*
X115257143Y21315876D02*
X115352381Y21411114D01*
X115542857Y21506352D01*
X115828571Y21506352D01*
X116019047Y21411114D01*
X116114286Y21220638D01*
X116114286Y20173019D01*
X116114286Y21220638D02*
X116209524Y21411114D01*
X116400000Y21506352D01*
X116685714Y21506352D01*
X116876190Y21411114D01*
X116971428Y21220638D01*
X116971428Y20173019D01*
X117923809Y20173019D02*
X117923809Y21506352D01*
X117923809Y21315876D02*
X118019047Y21411114D01*
X118209524Y21506352D01*
X118495238Y21506352D01*
X118685714Y21411114D01*
X118780952Y21220638D01*
X118780952Y20173019D01*
X118780952Y21220638D02*
X118876190Y21411114D01*
X119066666Y21506352D01*
X119352381Y21506352D01*
X119542857Y21411114D01*
X119638095Y21220638D01*
X119638095Y20173019D01*
X91733333Y25207939D02*
X91638095Y25112701D01*
X91352380Y25017463D01*
X91161904Y25017463D01*
X90876190Y25112701D01*
X90685714Y25303177D01*
X90590476Y25493653D01*
X90495237Y25874605D01*
X90495237Y26160320D01*
X90590476Y26541272D01*
X90685714Y26731748D01*
X90876190Y26922224D01*
X91161904Y27017463D01*
X91352380Y27017463D01*
X91638095Y26922224D01*
X91733333Y26826986D01*
X92876190Y25017463D02*
X92685714Y25112701D01*
X92590476Y25303177D01*
X92590476Y27017463D01*
X94399999Y25112701D02*
X94209523Y25017463D01*
X93828571Y25017463D01*
X93638095Y25112701D01*
X93542856Y25303177D01*
X93542856Y26065082D01*
X93638095Y26255558D01*
X93828571Y26350796D01*
X94209523Y26350796D01*
X94399999Y26255558D01*
X94495237Y26065082D01*
X94495237Y25874605D01*
X93542856Y25684129D01*
X96209523Y25017463D02*
X96209523Y26065082D01*
X96114285Y26255558D01*
X95923809Y26350796D01*
X95542856Y26350796D01*
X95352380Y26255558D01*
X96209523Y25112701D02*
X96019047Y25017463D01*
X95542856Y25017463D01*
X95352380Y25112701D01*
X95257142Y25303177D01*
X95257142Y25493653D01*
X95352380Y25684129D01*
X95542856Y25779367D01*
X96019047Y25779367D01*
X96209523Y25874605D01*
X97161904Y25017463D02*
X97161904Y26350796D01*
X97161904Y25969844D02*
X97257142Y26160320D01*
X97352380Y26255558D01*
X97542856Y26350796D01*
X97733333Y26350796D01*
X99257142Y25017463D02*
X99257142Y26065082D01*
X99161904Y26255558D01*
X98971428Y26350796D01*
X98590476Y26350796D01*
X98399999Y26255558D01*
X99257142Y25112701D02*
X99066666Y25017463D01*
X98590476Y25017463D01*
X98399999Y25112701D01*
X98304761Y25303177D01*
X98304761Y25493653D01*
X98399999Y25684129D01*
X98590476Y25779367D01*
X99066666Y25779367D01*
X99257142Y25874605D01*
X100209523Y26350796D02*
X100209523Y25017463D01*
X100209523Y26160320D02*
X100304761Y26255558D01*
X100495237Y26350796D01*
X100780952Y26350796D01*
X100971428Y26255558D01*
X101066666Y26065082D01*
X101066666Y25017463D01*
X102876190Y25112701D02*
X102685714Y25017463D01*
X102304761Y25017463D01*
X102114285Y25112701D01*
X102019047Y25207939D01*
X101923809Y25398415D01*
X101923809Y25969844D01*
X102019047Y26160320D01*
X102114285Y26255558D01*
X102304761Y26350796D01*
X102685714Y26350796D01*
X102876190Y26255558D01*
X104495237Y25112701D02*
X104304761Y25017463D01*
X103923809Y25017463D01*
X103733333Y25112701D01*
X103638095Y25303177D01*
X103638095Y26065082D01*
X103733333Y26255558D01*
X103923809Y26350796D01*
X104304761Y26350796D01*
X104495237Y26255558D01*
X104590476Y26065082D01*
X104590476Y25874605D01*
X103638095Y25684129D01*
X105447618Y25207939D02*
X105542856Y25112701D01*
X105447618Y25017463D01*
X105352380Y25112701D01*
X105447618Y25207939D01*
X105447618Y25017463D01*
X105447618Y26255558D02*
X105542856Y26160320D01*
X105447618Y26065082D01*
X105352380Y26160320D01*
X105447618Y26255558D01*
X105447618Y26065082D01*
X108304761Y27017463D02*
X108495237Y27017463D01*
X108685714Y26922224D01*
X108780952Y26826986D01*
X108876190Y26636510D01*
X108971428Y26255558D01*
X108971428Y25779367D01*
X108876190Y25398415D01*
X108780952Y25207939D01*
X108685714Y25112701D01*
X108495237Y25017463D01*
X108304761Y25017463D01*
X108114285Y25112701D01*
X108019047Y25207939D01*
X107923809Y25398415D01*
X107828571Y25779367D01*
X107828571Y26255558D01*
X107923809Y26636510D01*
X108019047Y26826986D01*
X108114285Y26922224D01*
X108304761Y27017463D01*
X109828571Y25207939D02*
X109923809Y25112701D01*
X109828571Y25017463D01*
X109733333Y25112701D01*
X109828571Y25207939D01*
X109828571Y25017463D01*
X110685714Y26826986D02*
X110780952Y26922224D01*
X110971428Y27017463D01*
X111447618Y27017463D01*
X111638095Y26922224D01*
X111733333Y26826986D01*
X111828571Y26636510D01*
X111828571Y26446034D01*
X111733333Y26160320D01*
X110590476Y25017463D01*
X111828571Y25017463D01*
X114209523Y25017463D02*
X114209523Y26350796D01*
X114209523Y26160320D02*
X114304761Y26255558D01*
X114495237Y26350796D01*
X114780952Y26350796D01*
X114971428Y26255558D01*
X115066666Y26065082D01*
X115066666Y25017463D01*
X115066666Y26065082D02*
X115161904Y26255558D01*
X115352380Y26350796D01*
X115638095Y26350796D01*
X115828571Y26255558D01*
X115923809Y26065082D01*
X115923809Y25017463D01*
X116876190Y25017463D02*
X116876190Y26350796D01*
X116876190Y26160320D02*
X116971428Y26255558D01*
X117161904Y26350796D01*
X117447618Y26350796D01*
X117638095Y26255558D01*
X117733333Y26065082D01*
X117733333Y25017463D01*
X117733333Y26065082D02*
X117828571Y26255558D01*
X118019047Y26350796D01*
X118304761Y26350796D01*
X118495237Y26255558D01*
X118590476Y26065082D01*
X118590476Y25017463D01*
D11*
X-8647620Y30809524D02*
X-8647620Y31476191D01*
X-7647620Y31047620D01*
X-8647620Y32047620D02*
X-8647620Y32142858D01*
X-8600000Y32238096D01*
X-8552381Y32285715D01*
X-8457143Y32333334D01*
X-8266667Y32380953D01*
X-8028572Y32380953D01*
X-7838096Y32333334D01*
X-7742858Y32285715D01*
X-7695239Y32238096D01*
X-7647620Y32142858D01*
X-7647620Y32047620D01*
X-7695239Y31952381D01*
X-7742858Y31904762D01*
X-7838096Y31857143D01*
X-8028572Y31809524D01*
X-8266667Y31809524D01*
X-8457143Y31857143D01*
X-8552381Y31904762D01*
X-8600000Y31952381D01*
X-8647620Y32047620D01*
X-7695239Y32857143D02*
X-7647620Y32857143D01*
X-7552381Y32809524D01*
X-7504762Y32761905D01*
X-8647620Y33476191D02*
X-8647620Y33571429D01*
X-8600000Y33666667D01*
X-8552381Y33714286D01*
X-8457143Y33761905D01*
X-8266667Y33809524D01*
X-8028572Y33809524D01*
X-7838096Y33761905D01*
X-7742858Y33714286D01*
X-7695239Y33666667D01*
X-7647620Y33571429D01*
X-7647620Y33476191D01*
X-7695239Y33380953D01*
X-7742858Y33333334D01*
X-7838096Y33285715D01*
X-8028572Y33238096D01*
X-8266667Y33238096D01*
X-8457143Y33285715D01*
X-8552381Y33333334D01*
X-8600000Y33380953D01*
X-8647620Y33476191D01*
X-8647620Y34428572D02*
X-8647620Y34523810D01*
X-8600000Y34619048D01*
X-8552381Y34666667D01*
X-8457143Y34714286D01*
X-8266667Y34761905D01*
X-8028572Y34761905D01*
X-7838096Y34714286D01*
X-7742858Y34666667D01*
X-7695239Y34619048D01*
X-7647620Y34523810D01*
X-7647620Y34428572D01*
X-7695239Y34333334D01*
X-7742858Y34285715D01*
X-7838096Y34238096D01*
X-8028572Y34190477D01*
X-8266667Y34190477D01*
X-8457143Y34238096D01*
X-8552381Y34285715D01*
X-8600000Y34333334D01*
X-8647620Y34428572D01*
X-8647620Y35380953D02*
X-8647620Y35476191D01*
X-8600000Y35571429D01*
X-8552381Y35619048D01*
X-8457143Y35666667D01*
X-8266667Y35714286D01*
X-8028572Y35714286D01*
X-7838096Y35666667D01*
X-7742858Y35619048D01*
X-7695239Y35571429D01*
X-7647620Y35476191D01*
X-7647620Y35380953D01*
X-7695239Y35285715D01*
X-7742858Y35238096D01*
X-7838096Y35190477D01*
X-8028572Y35142858D01*
X-8266667Y35142858D01*
X-8457143Y35190477D01*
X-8552381Y35238096D01*
X-8600000Y35285715D01*
X-8647620Y35380953D01*
X-7647620Y36904762D02*
X-8314286Y36904762D01*
X-8219048Y36904762D02*
X-8266667Y36952381D01*
X-8314286Y37047620D01*
X-8314286Y37190477D01*
X-8266667Y37285715D01*
X-8171429Y37333334D01*
X-7647620Y37333334D01*
X-8171429Y37333334D02*
X-8266667Y37380953D01*
X-8314286Y37476191D01*
X-8314286Y37619048D01*
X-8266667Y37714286D01*
X-8171429Y37761905D01*
X-7647620Y37761905D01*
X-7647620Y38238096D02*
X-8314286Y38238096D01*
X-8219048Y38238096D02*
X-8266667Y38285715D01*
X-8314286Y38380953D01*
X-8314286Y38523810D01*
X-8266667Y38619048D01*
X-8171429Y38666667D01*
X-7647620Y38666667D01*
X-8171429Y38666667D02*
X-8266667Y38714286D01*
X-8314286Y38809524D01*
X-8314286Y38952381D01*
X-8266667Y39047620D01*
X-8171429Y39095239D01*
X-7647620Y39095239D01*
X-6800000Y0D02*
X-6800000Y70000000D01*
X4000000Y0D02*
X-7386421Y0D01*
X4000000Y70000000D02*
X-7386421Y70000000D01*
X-6800000Y70000000D02*
X-6213579Y68873496D01*
X-6800000Y70000000D02*
X-7386421Y68873496D01*
X-6800000Y0D02*
X-6213579Y1126504D01*
X-6800000Y0D02*
X-7386421Y1126504D01*
X33809523Y-6452380D02*
X34476190Y-6452380D01*
X34047619Y-7452380D01*
X35285714Y-6452380D02*
X35095238Y-6452380D01*
X35000000Y-6500000D01*
X34952380Y-6547619D01*
X34857142Y-6690476D01*
X34809523Y-6880952D01*
X34809523Y-7261904D01*
X34857142Y-7357142D01*
X34904761Y-7404761D01*
X35000000Y-7452380D01*
X35190476Y-7452380D01*
X35285714Y-7404761D01*
X35333333Y-7357142D01*
X35380952Y-7261904D01*
X35380952Y-7023809D01*
X35333333Y-6928571D01*
X35285714Y-6880952D01*
X35190476Y-6833333D01*
X35000000Y-6833333D01*
X34904761Y-6880952D01*
X34857142Y-6928571D01*
X34809523Y-7023809D01*
X35857142Y-7404761D02*
X35857142Y-7452380D01*
X35809523Y-7547619D01*
X35761904Y-7595238D01*
X36476190Y-6452380D02*
X36571428Y-6452380D01*
X36666666Y-6500000D01*
X36714285Y-6547619D01*
X36761904Y-6642857D01*
X36809523Y-6833333D01*
X36809523Y-7071428D01*
X36761904Y-7261904D01*
X36714285Y-7357142D01*
X36666666Y-7404761D01*
X36571428Y-7452380D01*
X36476190Y-7452380D01*
X36380952Y-7404761D01*
X36333333Y-7357142D01*
X36285714Y-7261904D01*
X36238095Y-7071428D01*
X36238095Y-6833333D01*
X36285714Y-6642857D01*
X36333333Y-6547619D01*
X36380952Y-6500000D01*
X36476190Y-6452380D01*
X37428571Y-6452380D02*
X37523809Y-6452380D01*
X37619047Y-6500000D01*
X37666666Y-6547619D01*
X37714285Y-6642857D01*
X37761904Y-6833333D01*
X37761904Y-7071428D01*
X37714285Y-7261904D01*
X37666666Y-7357142D01*
X37619047Y-7404761D01*
X37523809Y-7452380D01*
X37428571Y-7452380D01*
X37333333Y-7404761D01*
X37285714Y-7357142D01*
X37238095Y-7261904D01*
X37190476Y-7071428D01*
X37190476Y-6833333D01*
X37238095Y-6642857D01*
X37285714Y-6547619D01*
X37333333Y-6500000D01*
X37428571Y-6452380D01*
X38380952Y-6452380D02*
X38476190Y-6452380D01*
X38571428Y-6500000D01*
X38619047Y-6547619D01*
X38666666Y-6642857D01*
X38714285Y-6833333D01*
X38714285Y-7071428D01*
X38666666Y-7261904D01*
X38619047Y-7357142D01*
X38571428Y-7404761D01*
X38476190Y-7452380D01*
X38380952Y-7452380D01*
X38285714Y-7404761D01*
X38238095Y-7357142D01*
X38190476Y-7261904D01*
X38142857Y-7071428D01*
X38142857Y-6833333D01*
X38190476Y-6642857D01*
X38238095Y-6547619D01*
X38285714Y-6500000D01*
X38380952Y-6452380D01*
X39904761Y-7452380D02*
X39904761Y-6785714D01*
X39904761Y-6880952D02*
X39952380Y-6833333D01*
X40047619Y-6785714D01*
X40190476Y-6785714D01*
X40285714Y-6833333D01*
X40333333Y-6928571D01*
X40333333Y-7452380D01*
X40333333Y-6928571D02*
X40380952Y-6833333D01*
X40476190Y-6785714D01*
X40619047Y-6785714D01*
X40714285Y-6833333D01*
X40761904Y-6928571D01*
X40761904Y-7452380D01*
X41238095Y-7452380D02*
X41238095Y-6785714D01*
X41238095Y-6880952D02*
X41285714Y-6833333D01*
X41380952Y-6785714D01*
X41523809Y-6785714D01*
X41619047Y-6833333D01*
X41666666Y-6928571D01*
X41666666Y-7452380D01*
X41666666Y-6928571D02*
X41714285Y-6833333D01*
X41809523Y-6785714D01*
X41952380Y-6785714D01*
X42047619Y-6833333D01*
X42095238Y-6928571D01*
X42095238Y-7452380D01*
X0Y-5700000D02*
X76000000Y-5700000D01*
X0Y4000000D02*
X0Y-6286421D01*
X76000000Y4000000D02*
X76000000Y-6286421D01*
X76000000Y-5700000D02*
X74873496Y-6286421D01*
X76000000Y-5700000D02*
X74873496Y-5113579D01*
X0Y-5700000D02*
X1126504Y-6286421D01*
X0Y-5700000D02*
X1126504Y-5113579D01*
M02*
