%TF.GenerationSoftware,KiCad,Pcbnew,5.1.8-db9833491~87~ubuntu20.04.1*%
%TF.CreationDate,2020-11-15T12:16:06-03:00*%
%TF.ProjectId,dc_motor,64635f6d-6f74-46f7-922e-6b696361645f,Rev: 1.1*%
%TF.SameCoordinates,PX2dc6c00PY6cb8080*%
%TF.FileFunction,Copper,L2,Bot*%
%TF.FilePolarity,Positive*%
%FSLAX46Y46*%
G04 Gerber Fmt 4.6, Leading zero omitted, Abs format (unit mm)*
G04 Created by KiCad (PCBNEW 5.1.8-db9833491~87~ubuntu20.04.1) date 2020-11-15 12:16:06*
%MOMM*%
%LPD*%
G01*
G04 APERTURE LIST*
%TA.AperFunction,NonConductor*%
%ADD10C,0.350000*%
%TD*%
%TA.AperFunction,ComponentPad*%
%ADD11O,1.800000X3.600000*%
%TD*%
%TA.AperFunction,ComponentPad*%
%ADD12O,1.740000X2.190000*%
%TD*%
%TA.AperFunction,ComponentPad*%
%ADD13O,1.700000X1.700000*%
%TD*%
%TA.AperFunction,ComponentPad*%
%ADD14R,1.700000X1.700000*%
%TD*%
%TA.AperFunction,ComponentPad*%
%ADD15C,2.000000*%
%TD*%
%TA.AperFunction,ComponentPad*%
%ADD16R,2.000000X2.000000*%
%TD*%
%TA.AperFunction,ViaPad*%
%ADD17C,0.800000*%
%TD*%
%TA.AperFunction,Conductor*%
%ADD18C,1.000000*%
%TD*%
%TA.AperFunction,Conductor*%
%ADD19C,0.300000*%
%TD*%
%TA.AperFunction,Conductor*%
%ADD20C,0.254000*%
%TD*%
%TA.AperFunction,Conductor*%
%ADD21C,0.100000*%
%TD*%
G04 APERTURE END LIST*
D10*
X16295238Y16938096D02*
X16295238Y15985715D01*
X18295238Y15985715D01*
X17628571Y18461905D02*
X16295238Y18461905D01*
X17628571Y17604762D02*
X16580952Y17604762D01*
X16390476Y17700000D01*
X16295238Y17890477D01*
X16295238Y18176191D01*
X16390476Y18366667D01*
X16485714Y18461905D01*
X16390476Y20271429D02*
X16295238Y20080953D01*
X16295238Y19700000D01*
X16390476Y19509524D01*
X16485714Y19414286D01*
X16676190Y19319048D01*
X17247619Y19319048D01*
X17438095Y19414286D01*
X17533333Y19509524D01*
X17628571Y19700000D01*
X17628571Y20080953D01*
X17533333Y20271429D01*
X16295238Y21128572D02*
X18295238Y21128572D01*
X16295238Y21985715D02*
X17342857Y21985715D01*
X17533333Y21890477D01*
X17628571Y21700000D01*
X17628571Y21414286D01*
X17533333Y21223810D01*
X17438095Y21128572D01*
X16295238Y23795239D02*
X17342857Y23795239D01*
X17533333Y23700000D01*
X17628571Y23509524D01*
X17628571Y23128572D01*
X17533333Y22938096D01*
X16390476Y23795239D02*
X16295238Y23604762D01*
X16295238Y23128572D01*
X16390476Y22938096D01*
X16580952Y22842858D01*
X16771428Y22842858D01*
X16961904Y22938096D01*
X17057142Y23128572D01*
X17057142Y23604762D01*
X17152380Y23795239D01*
X16295238Y25033334D02*
X16390476Y24842858D01*
X16485714Y24747620D01*
X16676190Y24652381D01*
X17247619Y24652381D01*
X17438095Y24747620D01*
X17533333Y24842858D01*
X17628571Y25033334D01*
X17628571Y25319048D01*
X17533333Y25509524D01*
X17438095Y25604762D01*
X17247619Y25700000D01*
X16676190Y25700000D01*
X16485714Y25604762D01*
X16390476Y25509524D01*
X16295238Y25319048D01*
X16295238Y25033334D01*
X16295238Y26652381D02*
X16295238Y27033334D01*
X16390476Y27223810D01*
X16485714Y27319048D01*
X16771428Y27509524D01*
X17152380Y27604762D01*
X17914285Y27604762D01*
X18104761Y27509524D01*
X18200000Y27414286D01*
X18295238Y27223810D01*
X18295238Y26842858D01*
X18200000Y26652381D01*
X18104761Y26557143D01*
X17914285Y26461905D01*
X17438095Y26461905D01*
X17247619Y26557143D01*
X17152380Y26652381D01*
X17057142Y26842858D01*
X17057142Y27223810D01*
X17152380Y27414286D01*
X17247619Y27509524D01*
X17438095Y27604762D01*
X18295238Y28842858D02*
X18295238Y29033334D01*
X18200000Y29223810D01*
X18104761Y29319048D01*
X17914285Y29414286D01*
X17533333Y29509524D01*
X17057142Y29509524D01*
X16676190Y29414286D01*
X16485714Y29319048D01*
X16390476Y29223810D01*
X16295238Y29033334D01*
X16295238Y28842858D01*
X16390476Y28652381D01*
X16485714Y28557143D01*
X16676190Y28461905D01*
X17057142Y28366667D01*
X17533333Y28366667D01*
X17914285Y28461905D01*
X18104761Y28557143D01*
X18200000Y28652381D01*
X18295238Y28842858D01*
X71566666Y10795239D02*
X71566666Y12795239D01*
X70614285Y10795239D02*
X70614285Y12795239D01*
X69471428Y10795239D01*
X69471428Y12795239D01*
X68519047Y10795239D02*
X68519047Y12795239D01*
X68042857Y12795239D01*
X67757142Y12700000D01*
X67566666Y12509524D01*
X67471428Y12319048D01*
X67376190Y11938096D01*
X67376190Y11652381D01*
X67471428Y11271429D01*
X67566666Y11080953D01*
X67757142Y10890477D01*
X68042857Y10795239D01*
X68519047Y10795239D01*
X65090476Y11366667D02*
X64138095Y11366667D01*
X65280952Y10795239D02*
X64614285Y12795239D01*
X63947619Y10795239D01*
X62138095Y10795239D02*
X62804761Y11747620D01*
X63280952Y10795239D02*
X63280952Y12795239D01*
X62519047Y12795239D01*
X62328571Y12700000D01*
X62233333Y12604762D01*
X62138095Y12414286D01*
X62138095Y12128572D01*
X62233333Y11938096D01*
X62328571Y11842858D01*
X62519047Y11747620D01*
X63280952Y11747620D01*
X60233333Y12700000D02*
X60423809Y12795239D01*
X60709523Y12795239D01*
X60995238Y12700000D01*
X61185714Y12509524D01*
X61280952Y12319048D01*
X61376190Y11938096D01*
X61376190Y11652381D01*
X61280952Y11271429D01*
X61185714Y11080953D01*
X60995238Y10890477D01*
X60709523Y10795239D01*
X60519047Y10795239D01*
X60233333Y10890477D01*
X60138095Y10985715D01*
X60138095Y11652381D01*
X60519047Y11652381D01*
D11*
%TO.P,J5,2*%
%TO.N,GND*%
X38880000Y56000000D03*
%TO.P,J5,1*%
%TO.N,Net-(C11-Pad2)*%
%TA.AperFunction,ComponentPad*%
G36*
G01*
X32900000Y54450000D02*
X32900000Y57550000D01*
G75*
G02*
X33150000Y57800000I250000J0D01*
G01*
X34450000Y57800000D01*
G75*
G02*
X34700000Y57550000I0J-250000D01*
G01*
X34700000Y54450000D01*
G75*
G02*
X34450000Y54200000I-250000J0D01*
G01*
X33150000Y54200000D01*
G75*
G02*
X32900000Y54450000I0J250000D01*
G01*
G37*
%TD.AperFunction*%
%TD*%
%TO.P,J2,2*%
%TO.N,Net-(C10-Pad2)*%
X28680000Y56000000D03*
%TO.P,J2,1*%
%TO.N,GND*%
%TA.AperFunction,ComponentPad*%
G36*
G01*
X22700000Y54450000D02*
X22700000Y57550000D01*
G75*
G02*
X22950000Y57800000I250000J0D01*
G01*
X24250000Y57800000D01*
G75*
G02*
X24500000Y57550000I0J-250000D01*
G01*
X24500000Y54450000D01*
G75*
G02*
X24250000Y54200000I-250000J0D01*
G01*
X22950000Y54200000D01*
G75*
G02*
X22700000Y54450000I0J250000D01*
G01*
G37*
%TD.AperFunction*%
%TD*%
%TO.P,J1,2*%
%TO.N,GND*%
X57080000Y56000000D03*
%TO.P,J1,1*%
%TO.N,Net-(C7-Pad1)*%
%TA.AperFunction,ComponentPad*%
G36*
G01*
X51100000Y54450000D02*
X51100000Y57550000D01*
G75*
G02*
X51350000Y57800000I250000J0D01*
G01*
X52650000Y57800000D01*
G75*
G02*
X52900000Y57550000I0J-250000D01*
G01*
X52900000Y54450000D01*
G75*
G02*
X52650000Y54200000I-250000J0D01*
G01*
X51350000Y54200000D01*
G75*
G02*
X51100000Y54450000I0J250000D01*
G01*
G37*
%TD.AperFunction*%
%TD*%
D12*
%TO.P,J3,4*%
%TO.N,/SCL*%
X54829000Y8200000D03*
%TO.P,J3,3*%
%TO.N,/SDA*%
X52289000Y8200000D03*
%TO.P,J3,2*%
%TO.N,/ALERT*%
X49749000Y8200000D03*
%TO.P,J3,1*%
%TO.N,GND*%
%TA.AperFunction,ComponentPad*%
G36*
G01*
X46339000Y7354999D02*
X46339000Y9045001D01*
G75*
G02*
X46588999Y9295000I249999J0D01*
G01*
X47829001Y9295000D01*
G75*
G02*
X48079000Y9045001I0J-249999D01*
G01*
X48079000Y7354999D01*
G75*
G02*
X47829001Y7105000I-249999J0D01*
G01*
X46588999Y7105000D01*
G75*
G02*
X46339000Y7354999I0J249999D01*
G01*
G37*
%TD.AperFunction*%
%TD*%
D13*
%TO.P,JP2,3*%
%TO.N,/EN_2*%
X40000000Y6720000D03*
%TO.P,JP2,2*%
%TO.N,Net-(JP2-Pad2)*%
X40000000Y9260000D03*
D14*
%TO.P,JP2,1*%
%TO.N,/EN_1*%
X40000000Y11800000D03*
%TD*%
D12*
%TO.P,J4,7*%
%TO.N,GND*%
X33640000Y8200000D03*
%TO.P,J4,6*%
%TO.N,/IS-B*%
X31100000Y8200000D03*
%TO.P,J4,5*%
%TO.N,/IS-A*%
X28560000Y8200000D03*
%TO.P,J4,4*%
%TO.N,/EN_2*%
X26020000Y8200000D03*
%TO.P,J4,3*%
%TO.N,/PWM2*%
X23480000Y8200000D03*
%TO.P,J4,2*%
%TO.N,/EN_1*%
X20940000Y8200000D03*
%TO.P,J4,1*%
%TO.N,/PWM1*%
%TA.AperFunction,ComponentPad*%
G36*
G01*
X17530000Y7354999D02*
X17530000Y9045001D01*
G75*
G02*
X17779999Y9295000I249999J0D01*
G01*
X19020001Y9295000D01*
G75*
G02*
X19270000Y9045001I0J-249999D01*
G01*
X19270000Y7354999D01*
G75*
G02*
X19020001Y7105000I-249999J0D01*
G01*
X17779999Y7105000D01*
G75*
G02*
X17530000Y7354999I0J249999D01*
G01*
G37*
%TD.AperFunction*%
%TD*%
D15*
%TO.P,C9,2*%
%TO.N,GND*%
X63437000Y41051000D03*
D16*
%TO.P,C9,1*%
%TO.N,VCC*%
X58437000Y41051000D03*
%TD*%
D17*
%TO.N,GND*%
X20100000Y24400000D03*
X46600000Y12700000D03*
X48850000Y12700000D03*
X47600000Y29665000D03*
X30975000Y28500000D03*
X23500000Y18710500D03*
X31400000Y18700000D03*
X62400000Y24973000D03*
X65500000Y23400000D03*
X62400000Y21800000D03*
X39500000Y28500000D03*
X32550000Y35350000D03*
X32550000Y32950000D03*
X33750000Y36550000D03*
X32550000Y34150000D03*
X33750000Y35350000D03*
X32550000Y36550000D03*
X33750000Y32950000D03*
X33750000Y34150000D03*
X17350000Y35250000D03*
X17350000Y32850000D03*
X18550000Y36450000D03*
X17350000Y34050000D03*
X18550000Y35250000D03*
X17350000Y36450000D03*
X18550000Y32850000D03*
X18550000Y34050000D03*
X24407000Y28500000D03*
X24500000Y22300000D03*
X52600000Y22700000D03*
X53700000Y22700000D03*
X54900000Y22700000D03*
X41519662Y27919662D03*
X2500000Y67500000D03*
X7500000Y67500000D03*
X12500000Y67500000D03*
X17500000Y67500000D03*
X22500000Y67500000D03*
X27500000Y67500000D03*
X32500000Y67500000D03*
X37500000Y67500000D03*
X42500000Y67500000D03*
X47500000Y67500000D03*
X52500000Y67500000D03*
X57500000Y67500000D03*
X62500000Y67500000D03*
X67500000Y67500000D03*
X72500000Y67500000D03*
X3750000Y65000000D03*
X8750000Y65000000D03*
X13750000Y65000000D03*
X18750000Y65000000D03*
X23750000Y65000000D03*
X28750000Y65000000D03*
X33750000Y65000000D03*
X38750000Y65000000D03*
X43750000Y65000000D03*
X48750000Y65000000D03*
X53750000Y65000000D03*
X58750000Y65000000D03*
X63750000Y65000000D03*
X68750000Y65000000D03*
X73750000Y65000000D03*
X5000000Y62500000D03*
X10000000Y62500000D03*
X15000000Y62500000D03*
X20000000Y62500000D03*
X25000000Y62500000D03*
X30000000Y62500000D03*
X35000000Y62500000D03*
X40000000Y62500000D03*
X45000000Y62500000D03*
X50000000Y62500000D03*
X55000000Y62500000D03*
X60000000Y62500000D03*
X65000000Y62500000D03*
X70000000Y62500000D03*
X2500000Y50000000D03*
X7500000Y47500000D03*
X12500000Y45000000D03*
X2500000Y45000000D03*
X7500000Y42500000D03*
X12500000Y40000000D03*
X2500000Y40000000D03*
X7500000Y37500000D03*
X12500000Y35000000D03*
X2500000Y35000000D03*
X7500000Y32500000D03*
X12500000Y30000000D03*
X2500000Y30000000D03*
X7500000Y27500000D03*
X12500000Y25000000D03*
X2500000Y25000000D03*
X7500000Y22500000D03*
X12500000Y20000000D03*
X2500000Y20000000D03*
X7500000Y17500000D03*
X12500000Y15000000D03*
X2500000Y15000000D03*
X7500000Y12500000D03*
X12500000Y10000000D03*
X2500000Y10000000D03*
X7500000Y7500000D03*
X12500000Y5000000D03*
X2500000Y5000000D03*
X7500000Y2500000D03*
X70000000Y50000000D03*
X73000000Y47500000D03*
X70000000Y45000000D03*
X73000000Y42500000D03*
X70000000Y40000000D03*
X73000000Y37500000D03*
X70000000Y35000000D03*
X73000000Y32500000D03*
X70000000Y30000000D03*
X73000000Y27500000D03*
X70000000Y25000000D03*
X73000000Y22500000D03*
X70000000Y20000000D03*
X73000000Y17500000D03*
X40000000Y20000000D03*
X42500000Y20000000D03*
X45000000Y20000000D03*
X40000000Y17500000D03*
X42500000Y17500000D03*
X45000000Y17500000D03*
X40000000Y15000000D03*
X42500000Y15000000D03*
X45000000Y15000000D03*
X17500000Y2500000D03*
X22500000Y2500000D03*
X27500000Y2500000D03*
X32500000Y2500000D03*
X37500000Y2500000D03*
X42500000Y2500000D03*
X47500000Y2500000D03*
X52500000Y2500000D03*
X57500000Y2500000D03*
X62500000Y2500000D03*
X53400000Y31300000D03*
X53400000Y29400000D03*
X53400000Y27600000D03*
X55300000Y28600000D03*
X34300000Y26800000D03*
X36800000Y26800000D03*
X39300000Y26800000D03*
X35550000Y24300000D03*
X38050000Y24300000D03*
X40550000Y24300000D03*
X26021997Y28495801D03*
%TO.N,+5V*%
X55600000Y12700000D03*
X51100000Y12700000D03*
X53350000Y12700000D03*
X56400000Y27138000D03*
X58500000Y23400000D03*
X58500000Y25000000D03*
X58500000Y21800000D03*
X52800000Y25900000D03*
X46900000Y22300000D03*
X44900000Y22299994D03*
X33600006Y22300000D03*
X23800000Y24400008D03*
%TO.N,VCC*%
X55400000Y35000000D03*
X50200000Y31300000D03*
X55400000Y33700000D03*
X55400000Y36250000D03*
%TO.N,Net-(C10-Pad2)*%
X19600000Y49000000D03*
X21100000Y49000000D03*
X22600000Y49000000D03*
X24100000Y49000000D03*
X25600000Y49000000D03*
X27100000Y49000000D03*
X19600000Y47500000D03*
X21100000Y47500000D03*
X22600000Y47500000D03*
X24100000Y47500000D03*
X25600000Y47500000D03*
X27100000Y47500000D03*
X19600000Y46000000D03*
X21100000Y46000000D03*
X22600000Y46000000D03*
X24100000Y46000000D03*
X25600000Y46000000D03*
X27100000Y46000000D03*
X19600000Y44500000D03*
X21100000Y44500000D03*
X22600000Y44500000D03*
X24100000Y44500000D03*
X25600000Y44500000D03*
X27100000Y44500000D03*
X19600000Y43000000D03*
X21100000Y43000000D03*
X22600000Y43000000D03*
X24100000Y43000000D03*
X25600000Y43000000D03*
X27100000Y43000000D03*
X19600000Y41500000D03*
X21100000Y41500000D03*
X22600000Y41500000D03*
X24100000Y41500000D03*
X25600000Y41500000D03*
X27100000Y41500000D03*
%TO.N,Vdrive*%
X46350000Y37700000D03*
X46350000Y36500000D03*
X46350000Y34100000D03*
X46350000Y35300000D03*
X44451000Y32500000D03*
X46102000Y32500000D03*
X28500000Y37800000D03*
X29700000Y37800000D03*
X28500000Y36600000D03*
X29700000Y36600000D03*
X28500000Y35400000D03*
X29700000Y35400000D03*
X28500000Y34200000D03*
X43900000Y36500000D03*
X43900000Y34100000D03*
X45100000Y37700000D03*
X43900000Y35300000D03*
X45100000Y36500000D03*
X43900000Y37700000D03*
X45100000Y34100000D03*
X45100000Y35300000D03*
X29700000Y34200000D03*
%TO.N,Net-(C11-Pad2)*%
X40800000Y47500000D03*
X39300000Y41500000D03*
X36300000Y44500000D03*
X36300000Y41500000D03*
X34800000Y43000000D03*
X37800000Y46000000D03*
X42300000Y46000000D03*
X34800000Y47500000D03*
X37800000Y44500000D03*
X37800000Y43000000D03*
X36300000Y43000000D03*
X34800000Y49000000D03*
X37800000Y47500000D03*
X39300000Y49000000D03*
X42300000Y47500000D03*
X39300000Y47500000D03*
X36300000Y46000000D03*
X34800000Y41500000D03*
X37800000Y41500000D03*
X40800000Y49000000D03*
X36300000Y47500000D03*
X40800000Y43000000D03*
X42300000Y43000000D03*
X40800000Y41500000D03*
X42300000Y44500000D03*
X40800000Y46000000D03*
X37800000Y49000000D03*
X40800000Y44500000D03*
X39300000Y46000000D03*
X34800000Y46000000D03*
X34800000Y44500000D03*
X36300000Y49000000D03*
X42300000Y49000000D03*
X39300000Y43000000D03*
X42300000Y41500000D03*
X39300000Y44500000D03*
X44000000Y27000000D03*
X38600000Y32800000D03*
%TO.N,/IS-A*%
X25940000Y32700000D03*
X14400000Y38800000D03*
%TO.N,/IS-B*%
X41140000Y32800000D03*
%TO.N,Net-(C19-Pad1)*%
X24700000Y32700000D03*
%TO.N,Net-(C20-Pad1)*%
X39870000Y32800000D03*
%TO.N,/EN_1*%
X26354284Y16100000D03*
%TO.N,/PWM2*%
X31808568Y16100000D03*
%TO.N,/PWM1*%
X20900000Y16100000D03*
%TO.N,/INH-B*%
X37330000Y32800000D03*
%TO.N,/IN-B*%
X36060000Y32800000D03*
%TD*%
D18*
%TO.N,+5V*%
X52800000Y25900000D02*
X49199994Y22299994D01*
X49199994Y22299994D02*
X44900000Y22299994D01*
X58500000Y25000000D02*
X58500000Y13700000D01*
X57500000Y12700000D02*
X51100000Y12700000D01*
X58500000Y13700000D02*
X57500000Y12700000D01*
X55162000Y25900000D02*
X56400000Y27138000D01*
X52800000Y25900000D02*
X55162000Y25900000D01*
X33600006Y22300000D02*
X31499998Y24400008D01*
X31499998Y24400008D02*
X23800000Y24400008D01*
%TO.N,VCC*%
X51800000Y33700000D02*
X55400000Y33700000D01*
X50200000Y32100000D02*
X51800000Y33700000D01*
X50200000Y31300000D02*
X50200000Y32100000D01*
D19*
%TO.N,Net-(C11-Pad2)*%
X38600000Y32400000D02*
X38600000Y32800000D01*
X44000000Y27000000D02*
X38600000Y32400000D01*
D18*
%TO.N,/IS-A*%
X24450000Y38800000D02*
X14400000Y38800000D01*
X25940000Y37310000D02*
X24450000Y38800000D01*
X25940000Y32700000D02*
X25940000Y37310000D01*
%TO.N,/IS-B*%
X45700000Y28240000D02*
X41140000Y32800000D01*
X45700000Y25700000D02*
X45700000Y28240000D01*
X38900000Y21900000D02*
X41900000Y21900000D01*
X37000000Y20000000D02*
X38900000Y21900000D01*
X37000000Y16000000D02*
X37000000Y20000000D01*
X31100000Y10100000D02*
X37000000Y16000000D01*
X41900000Y21900000D02*
X45700000Y25700000D01*
X31100000Y8200000D02*
X31100000Y10100000D01*
D19*
%TO.N,/EN_2*%
X38780000Y5500000D02*
X40000000Y6720000D01*
X27100000Y5500000D02*
X38780000Y5500000D01*
X26020000Y6580000D02*
X27100000Y5500000D01*
X26020000Y8200000D02*
X26020000Y6580000D01*
%TO.N,/EN_1*%
X20940000Y10685716D02*
X20940000Y8200000D01*
X26354284Y16100000D02*
X20940000Y10685716D01*
X42100000Y5500000D02*
X42100000Y10900000D01*
X41200000Y11800000D02*
X40000000Y11800000D01*
X40850000Y4250000D02*
X42100000Y5500000D01*
X22850000Y4250000D02*
X40850000Y4250000D01*
X20940000Y6160000D02*
X22850000Y4250000D01*
X42100000Y10900000D02*
X41200000Y11800000D01*
X20940000Y8200000D02*
X20940000Y6160000D01*
%TO.N,/PWM2*%
X29300000Y16100000D02*
X31808568Y16100000D01*
X23480000Y10280000D02*
X29300000Y16100000D01*
X23480000Y8200000D02*
X23480000Y10280000D01*
%TO.N,/PWM1*%
X18400000Y8200000D02*
X18400000Y10900000D01*
X20900000Y13400000D02*
X20900000Y16100000D01*
X18400000Y10900000D02*
X20900000Y13400000D01*
%TD*%
D20*
%TO.N,Net-(C10-Pad2)*%
X29873000Y41127000D02*
X16377000Y41127000D01*
X16377000Y50873000D01*
X29873000Y50873000D01*
X29873000Y41127000D01*
%TA.AperFunction,Conductor*%
D21*
G36*
X29873000Y41127000D02*
G01*
X16377000Y41127000D01*
X16377000Y50873000D01*
X29873000Y50873000D01*
X29873000Y41127000D01*
G37*
%TD.AperFunction*%
%TD*%
D20*
%TO.N,Net-(C11-Pad2)*%
X45123000Y41127000D02*
X32377000Y41127000D01*
X32377000Y50873000D01*
X45123000Y50873000D01*
X45123000Y41127000D01*
%TA.AperFunction,Conductor*%
D21*
G36*
X45123000Y41127000D02*
G01*
X32377000Y41127000D01*
X32377000Y50873000D01*
X45123000Y50873000D01*
X45123000Y41127000D01*
G37*
%TD.AperFunction*%
%TD*%
D19*
%TO.N,Vdrive*%
X48100000Y37187868D02*
X48100000Y33400000D01*
X41883502Y33400000D01*
X41778754Y33504748D01*
X41670345Y33593717D01*
X41505308Y33681931D01*
X41326232Y33736253D01*
X41140000Y33754595D01*
X40953768Y33736253D01*
X40774692Y33681931D01*
X40609655Y33593717D01*
X40464999Y33475001D01*
X40434385Y33437697D01*
X40411844Y33460238D01*
X40272626Y33553260D01*
X40117936Y33617335D01*
X39953718Y33650000D01*
X39786282Y33650000D01*
X39622064Y33617335D01*
X39467374Y33553260D01*
X39328156Y33460238D01*
X39267918Y33400000D01*
X39202082Y33400000D01*
X39141844Y33460238D01*
X39002626Y33553260D01*
X38847936Y33617335D01*
X38683718Y33650000D01*
X38516282Y33650000D01*
X38352064Y33617335D01*
X38197374Y33553260D01*
X38058156Y33460238D01*
X37997918Y33400000D01*
X37932082Y33400000D01*
X37871844Y33460238D01*
X37732626Y33553260D01*
X37577936Y33617335D01*
X37413718Y33650000D01*
X37246282Y33650000D01*
X37082064Y33617335D01*
X36927374Y33553260D01*
X36788156Y33460238D01*
X36727918Y33400000D01*
X36662082Y33400000D01*
X36601844Y33460238D01*
X36462626Y33553260D01*
X36307936Y33617335D01*
X36143718Y33650000D01*
X35976282Y33650000D01*
X35900000Y33634827D01*
X35900000Y37500000D01*
X35897118Y37529264D01*
X35888582Y37557403D01*
X35874720Y37583336D01*
X35856066Y37606066D01*
X35833336Y37624720D01*
X35807403Y37638582D01*
X35779264Y37647118D01*
X35750000Y37650000D01*
X30750000Y37650000D01*
X30720736Y37647118D01*
X30692597Y37638582D01*
X30666664Y37624720D01*
X30643934Y37606066D01*
X30625280Y37583336D01*
X30611418Y37557403D01*
X30602882Y37529264D01*
X30600000Y37500000D01*
X30600000Y32900000D01*
X26900000Y32900000D01*
X26900000Y40100000D01*
X45187868Y40100000D01*
X48100000Y37187868D01*
%TA.AperFunction,Conductor*%
D21*
G36*
X48100000Y37187868D02*
G01*
X48100000Y33400000D01*
X41883502Y33400000D01*
X41778754Y33504748D01*
X41670345Y33593717D01*
X41505308Y33681931D01*
X41326232Y33736253D01*
X41140000Y33754595D01*
X40953768Y33736253D01*
X40774692Y33681931D01*
X40609655Y33593717D01*
X40464999Y33475001D01*
X40434385Y33437697D01*
X40411844Y33460238D01*
X40272626Y33553260D01*
X40117936Y33617335D01*
X39953718Y33650000D01*
X39786282Y33650000D01*
X39622064Y33617335D01*
X39467374Y33553260D01*
X39328156Y33460238D01*
X39267918Y33400000D01*
X39202082Y33400000D01*
X39141844Y33460238D01*
X39002626Y33553260D01*
X38847936Y33617335D01*
X38683718Y33650000D01*
X38516282Y33650000D01*
X38352064Y33617335D01*
X38197374Y33553260D01*
X38058156Y33460238D01*
X37997918Y33400000D01*
X37932082Y33400000D01*
X37871844Y33460238D01*
X37732626Y33553260D01*
X37577936Y33617335D01*
X37413718Y33650000D01*
X37246282Y33650000D01*
X37082064Y33617335D01*
X36927374Y33553260D01*
X36788156Y33460238D01*
X36727918Y33400000D01*
X36662082Y33400000D01*
X36601844Y33460238D01*
X36462626Y33553260D01*
X36307936Y33617335D01*
X36143718Y33650000D01*
X35976282Y33650000D01*
X35900000Y33634827D01*
X35900000Y37500000D01*
X35897118Y37529264D01*
X35888582Y37557403D01*
X35874720Y37583336D01*
X35856066Y37606066D01*
X35833336Y37624720D01*
X35807403Y37638582D01*
X35779264Y37647118D01*
X35750000Y37650000D01*
X30750000Y37650000D01*
X30720736Y37647118D01*
X30692597Y37638582D01*
X30666664Y37624720D01*
X30643934Y37606066D01*
X30625280Y37583336D01*
X30611418Y37557403D01*
X30602882Y37529264D01*
X30600000Y37500000D01*
X30600000Y32900000D01*
X26900000Y32900000D01*
X26900000Y40100000D01*
X45187868Y40100000D01*
X48100000Y37187868D01*
G37*
%TD.AperFunction*%
%TD*%
D19*
%TO.N,GND*%
X72659834Y69332426D02*
X73294546Y69140795D01*
X73879941Y68829534D01*
X74393731Y68410497D01*
X74816343Y67899646D01*
X75131683Y67316437D01*
X75327737Y66683087D01*
X75400000Y65995558D01*
X75400001Y4029351D01*
X75332426Y3340166D01*
X75140795Y2705453D01*
X74829537Y2120062D01*
X74410499Y1606271D01*
X73899649Y1183659D01*
X73316437Y868317D01*
X72683086Y672262D01*
X71995559Y600000D01*
X4029341Y600000D01*
X3340166Y667574D01*
X2705453Y859205D01*
X2120062Y1170463D01*
X1606271Y1589501D01*
X1183659Y2100351D01*
X868317Y2683563D01*
X672262Y3316914D01*
X600000Y4004441D01*
X600000Y6201907D01*
X7950000Y6201907D01*
X7950000Y5798093D01*
X8028780Y5402037D01*
X8183314Y5028961D01*
X8407661Y4693201D01*
X8693201Y4407661D01*
X9028961Y4183314D01*
X9402037Y4028780D01*
X9798093Y3950000D01*
X10201907Y3950000D01*
X10597963Y4028780D01*
X10971039Y4183314D01*
X11306799Y4407661D01*
X11592339Y4693201D01*
X11816686Y5028961D01*
X11971220Y5402037D01*
X12050000Y5798093D01*
X12050000Y6201907D01*
X11971220Y6597963D01*
X11816686Y6971039D01*
X11592339Y7306799D01*
X11306799Y7592339D01*
X10971039Y7816686D01*
X10597963Y7971220D01*
X10201907Y8050000D01*
X9798093Y8050000D01*
X9402037Y7971220D01*
X9028961Y7816686D01*
X8693201Y7592339D01*
X8407661Y7306799D01*
X8183314Y6971039D01*
X8028780Y6597963D01*
X7950000Y6201907D01*
X600000Y6201907D01*
X600000Y30515476D01*
X14927500Y30515476D01*
X14927500Y14884524D01*
X19177500Y14884524D01*
X19177500Y24400008D01*
X22845404Y24400008D01*
X22863746Y24213776D01*
X22918068Y24034700D01*
X23006282Y23869663D01*
X23124999Y23725007D01*
X23269655Y23606290D01*
X23434692Y23518076D01*
X23613768Y23463754D01*
X23753335Y23450008D01*
X31106496Y23450008D01*
X32961251Y21595252D01*
X33069660Y21506283D01*
X33234697Y21418068D01*
X33413773Y21363746D01*
X33600006Y21345405D01*
X33786238Y21363746D01*
X33965314Y21418068D01*
X34130351Y21506283D01*
X34275007Y21624999D01*
X34393723Y21769655D01*
X34481938Y21934692D01*
X34536260Y22113768D01*
X34554601Y22300000D01*
X34536260Y22486233D01*
X34481938Y22665309D01*
X34393723Y22830346D01*
X34304754Y22938755D01*
X32204748Y25038760D01*
X32174999Y25075009D01*
X32030343Y25193726D01*
X31865306Y25281940D01*
X31686230Y25336262D01*
X31546663Y25350008D01*
X31546652Y25350008D01*
X31499998Y25354603D01*
X31453344Y25350008D01*
X23753335Y25350008D01*
X23613768Y25336262D01*
X23434692Y25281940D01*
X23269655Y25193726D01*
X23124999Y25075009D01*
X23006282Y24930353D01*
X22918068Y24765316D01*
X22863746Y24586240D01*
X22845404Y24400008D01*
X19177500Y24400008D01*
X19177500Y30515476D01*
X14927500Y30515476D01*
X600000Y30515476D01*
X600000Y38800000D01*
X13445404Y38800000D01*
X13463746Y38613768D01*
X13518068Y38434692D01*
X13606282Y38269655D01*
X13724999Y38124999D01*
X13869655Y38006282D01*
X14034692Y37918068D01*
X14213768Y37863746D01*
X14353335Y37850000D01*
X24056498Y37850000D01*
X24990001Y36916496D01*
X24990000Y33499911D01*
X24947936Y33517335D01*
X24783718Y33550000D01*
X24616282Y33550000D01*
X24452064Y33517335D01*
X24297374Y33453260D01*
X24158156Y33360238D01*
X24039762Y33241844D01*
X23946740Y33102626D01*
X23882665Y32947936D01*
X23850000Y32783718D01*
X23850000Y32616282D01*
X23882665Y32452064D01*
X23946740Y32297374D01*
X24039762Y32158156D01*
X24158156Y32039762D01*
X24297374Y31946740D01*
X24452064Y31882665D01*
X24616282Y31850000D01*
X24783718Y31850000D01*
X24947936Y31882665D01*
X25102626Y31946740D01*
X25241844Y32039762D01*
X25247907Y32045825D01*
X25264999Y32024999D01*
X25409655Y31906282D01*
X25574692Y31818068D01*
X25753768Y31763746D01*
X25940000Y31745404D01*
X26126231Y31763746D01*
X26305307Y31818068D01*
X26470345Y31906282D01*
X26615001Y32024999D01*
X26733718Y32169655D01*
X26803389Y32300000D01*
X30750000Y32300000D01*
X30837791Y32308647D01*
X30922208Y32334254D01*
X31000007Y32375839D01*
X31068198Y32431802D01*
X31124161Y32499993D01*
X31165746Y32577792D01*
X31191353Y32662209D01*
X31200000Y32750000D01*
X31200000Y37050000D01*
X35300000Y37050000D01*
X35300000Y33250000D01*
X35305065Y33198581D01*
X35242665Y33047936D01*
X35210000Y32883718D01*
X35210000Y32716282D01*
X35242665Y32552064D01*
X35306740Y32397374D01*
X35399762Y32258156D01*
X35518156Y32139762D01*
X35657374Y32046740D01*
X35812064Y31982665D01*
X35976282Y31950000D01*
X36143718Y31950000D01*
X36307936Y31982665D01*
X36462626Y32046740D01*
X36601844Y32139762D01*
X36695000Y32232918D01*
X36788156Y32139762D01*
X36927374Y32046740D01*
X37082064Y31982665D01*
X37246282Y31950000D01*
X37413718Y31950000D01*
X37577936Y31982665D01*
X37732626Y32046740D01*
X37871844Y32139762D01*
X37965000Y32232918D01*
X38058156Y32139762D01*
X38059107Y32139126D01*
X38098704Y32065046D01*
X38173683Y31973683D01*
X38196586Y31954887D01*
X43150000Y27001472D01*
X43150000Y26916282D01*
X43182665Y26752064D01*
X43246740Y26597374D01*
X43339762Y26458156D01*
X43458156Y26339762D01*
X43597374Y26246740D01*
X43752064Y26182665D01*
X43916282Y26150000D01*
X44083718Y26150000D01*
X44247936Y26182665D01*
X44402626Y26246740D01*
X44541844Y26339762D01*
X44660238Y26458156D01*
X44750000Y26592496D01*
X44750000Y26093502D01*
X41506498Y22850000D01*
X38946657Y22850000D01*
X38900000Y22854595D01*
X38853343Y22850000D01*
X38853335Y22850000D01*
X38729720Y22837825D01*
X38713767Y22836254D01*
X38534691Y22781932D01*
X38455797Y22739762D01*
X38369655Y22693718D01*
X38369653Y22693717D01*
X38369654Y22693717D01*
X38261245Y22604748D01*
X38261242Y22604745D01*
X38224999Y22575001D01*
X38195254Y22538757D01*
X36361243Y20704745D01*
X36325000Y20675001D01*
X36295256Y20638758D01*
X36295252Y20638754D01*
X36206283Y20530345D01*
X36118069Y20365308D01*
X36063747Y20186232D01*
X36045405Y20000000D01*
X36050001Y19953336D01*
X36050000Y16393503D01*
X30461243Y10804745D01*
X30425000Y10775001D01*
X30395256Y10738758D01*
X30395252Y10738754D01*
X30306283Y10630345D01*
X30218069Y10465308D01*
X30163747Y10286232D01*
X30145405Y10100000D01*
X30150001Y10053336D01*
X30150001Y9348150D01*
X29997150Y9161900D01*
X29874579Y8932585D01*
X29830000Y8785628D01*
X29785421Y8932586D01*
X29662850Y9161901D01*
X29497897Y9362897D01*
X29296900Y9527850D01*
X29067585Y9650421D01*
X28818764Y9725900D01*
X28560000Y9751386D01*
X28301235Y9725900D01*
X28052414Y9650421D01*
X27823099Y9527850D01*
X27622103Y9362897D01*
X27457150Y9161900D01*
X27334579Y8932585D01*
X27290000Y8785628D01*
X27245421Y8932586D01*
X27122850Y9161901D01*
X26957897Y9362897D01*
X26756900Y9527850D01*
X26527585Y9650421D01*
X26278764Y9725900D01*
X26020000Y9751386D01*
X25761235Y9725900D01*
X25512414Y9650421D01*
X25283099Y9527850D01*
X25082103Y9362897D01*
X24917150Y9161900D01*
X24794579Y8932585D01*
X24750000Y8785628D01*
X24705421Y8932586D01*
X24582850Y9161901D01*
X24417897Y9362897D01*
X24216900Y9527850D01*
X24080000Y9601024D01*
X24080000Y10031473D01*
X29548528Y15500000D01*
X31206486Y15500000D01*
X31266724Y15439762D01*
X31405942Y15346740D01*
X31560632Y15282665D01*
X31724850Y15250000D01*
X31892286Y15250000D01*
X32056504Y15282665D01*
X32211194Y15346740D01*
X32350412Y15439762D01*
X32468806Y15558156D01*
X32561828Y15697374D01*
X32625903Y15852064D01*
X32658568Y16016282D01*
X32658568Y16183718D01*
X32625903Y16347936D01*
X32561828Y16502626D01*
X32468806Y16641844D01*
X32350412Y16760238D01*
X32211194Y16853260D01*
X32056504Y16917335D01*
X31892286Y16950000D01*
X31724850Y16950000D01*
X31560632Y16917335D01*
X31405942Y16853260D01*
X31266724Y16760238D01*
X31206486Y16700000D01*
X29329474Y16700000D01*
X29300000Y16702903D01*
X29270526Y16700000D01*
X29182379Y16691318D01*
X29069279Y16657010D01*
X28965045Y16601296D01*
X28873683Y16526317D01*
X28854891Y16503419D01*
X23076582Y10725109D01*
X23053684Y10706317D01*
X22978705Y10614955D01*
X22952028Y10565046D01*
X22922991Y10510721D01*
X22888682Y10397620D01*
X22877097Y10280000D01*
X22880001Y10250517D01*
X22880001Y9601025D01*
X22743099Y9527850D01*
X22542103Y9362897D01*
X22377150Y9161900D01*
X22254579Y8932585D01*
X22210000Y8785628D01*
X22165421Y8932586D01*
X22042850Y9161901D01*
X21877897Y9362897D01*
X21676900Y9527850D01*
X21540000Y9601024D01*
X21540000Y10437189D01*
X26352812Y15250000D01*
X26438002Y15250000D01*
X26602220Y15282665D01*
X26756910Y15346740D01*
X26896128Y15439762D01*
X27014522Y15558156D01*
X27107544Y15697374D01*
X27171619Y15852064D01*
X27204284Y16016282D01*
X27204284Y16183718D01*
X27171619Y16347936D01*
X27107544Y16502626D01*
X27014522Y16641844D01*
X26896128Y16760238D01*
X26756910Y16853260D01*
X26602220Y16917335D01*
X26438002Y16950000D01*
X26270566Y16950000D01*
X26106348Y16917335D01*
X25951658Y16853260D01*
X25812440Y16760238D01*
X25694046Y16641844D01*
X25601024Y16502626D01*
X25536949Y16347936D01*
X25504284Y16183718D01*
X25504284Y16098528D01*
X20536586Y11130829D01*
X20513683Y11112033D01*
X20438704Y11020670D01*
X20382990Y10916436D01*
X20369304Y10871318D01*
X20348682Y10803336D01*
X20337097Y10685716D01*
X20340000Y10656242D01*
X20340000Y9601025D01*
X20203099Y9527850D01*
X20002103Y9362897D01*
X19837150Y9161900D01*
X19722177Y8946800D01*
X19722177Y9045001D01*
X19708685Y9181989D01*
X19668727Y9313712D01*
X19603839Y9435109D01*
X19516514Y9541514D01*
X19410109Y9628839D01*
X19288712Y9693727D01*
X19156989Y9733685D01*
X19020001Y9747177D01*
X19000000Y9747177D01*
X19000000Y10651473D01*
X21303420Y12954892D01*
X21326317Y12973683D01*
X21401296Y13065045D01*
X21457010Y13169279D01*
X21491318Y13282379D01*
X21500000Y13370526D01*
X21500000Y13370527D01*
X21502903Y13400000D01*
X21500000Y13429474D01*
X21500000Y15497918D01*
X21560238Y15558156D01*
X21653260Y15697374D01*
X21717335Y15852064D01*
X21750000Y16016282D01*
X21750000Y16183718D01*
X21717335Y16347936D01*
X21653260Y16502626D01*
X21560238Y16641844D01*
X21441844Y16760238D01*
X21302626Y16853260D01*
X21147936Y16917335D01*
X20983718Y16950000D01*
X20816282Y16950000D01*
X20652064Y16917335D01*
X20497374Y16853260D01*
X20358156Y16760238D01*
X20239762Y16641844D01*
X20146740Y16502626D01*
X20082665Y16347936D01*
X20050000Y16183718D01*
X20050000Y16016282D01*
X20082665Y15852064D01*
X20146740Y15697374D01*
X20239762Y15558156D01*
X20300001Y15497917D01*
X20300000Y13648528D01*
X17996582Y11345109D01*
X17973684Y11326317D01*
X17898705Y11234955D01*
X17873079Y11187012D01*
X17842991Y11130721D01*
X17808682Y11017620D01*
X17797097Y10900000D01*
X17800001Y10870517D01*
X17800001Y9747177D01*
X17779999Y9747177D01*
X17643011Y9733685D01*
X17511288Y9693727D01*
X17389891Y9628839D01*
X17283486Y9541514D01*
X17196161Y9435109D01*
X17131273Y9313712D01*
X17091315Y9181989D01*
X17077823Y9045001D01*
X17077823Y7354999D01*
X17091315Y7218011D01*
X17131273Y7086288D01*
X17196161Y6964891D01*
X17283486Y6858486D01*
X17389891Y6771161D01*
X17511288Y6706273D01*
X17643011Y6666315D01*
X17779999Y6652823D01*
X19020001Y6652823D01*
X19156989Y6666315D01*
X19288712Y6706273D01*
X19410109Y6771161D01*
X19516514Y6858486D01*
X19603839Y6964891D01*
X19668727Y7086288D01*
X19708685Y7218011D01*
X19722177Y7354999D01*
X19722177Y7453199D01*
X19837150Y7238099D01*
X20002104Y7037103D01*
X20203100Y6872150D01*
X20340001Y6798975D01*
X20340001Y6189483D01*
X20337097Y6160000D01*
X20348682Y6042380D01*
X20378190Y5945105D01*
X20382991Y5929279D01*
X20438705Y5825045D01*
X20513684Y5733683D01*
X20536582Y5714891D01*
X22404891Y3846581D01*
X22423683Y3823683D01*
X22515045Y3748704D01*
X22619279Y3692990D01*
X22711403Y3665045D01*
X22732379Y3658682D01*
X22850000Y3647097D01*
X22879474Y3650000D01*
X40820526Y3650000D01*
X40850000Y3647097D01*
X40879474Y3650000D01*
X40967621Y3658682D01*
X41080721Y3692990D01*
X41184955Y3748704D01*
X41276317Y3823683D01*
X41295113Y3846586D01*
X42503420Y5054892D01*
X42526317Y5073683D01*
X42601296Y5165045D01*
X42657010Y5269279D01*
X42691318Y5382379D01*
X42700000Y5470526D01*
X42700000Y5470527D01*
X42702903Y5500000D01*
X42700000Y5529474D01*
X42700000Y6201907D01*
X63950000Y6201907D01*
X63950000Y5798093D01*
X64028780Y5402037D01*
X64183314Y5028961D01*
X64407661Y4693201D01*
X64693201Y4407661D01*
X65028961Y4183314D01*
X65402037Y4028780D01*
X65798093Y3950000D01*
X66201907Y3950000D01*
X66597963Y4028780D01*
X66971039Y4183314D01*
X67306799Y4407661D01*
X67592339Y4693201D01*
X67816686Y5028961D01*
X67971220Y5402037D01*
X68050000Y5798093D01*
X68050000Y6201907D01*
X67971220Y6597963D01*
X67816686Y6971039D01*
X67592339Y7306799D01*
X67306799Y7592339D01*
X66971039Y7816686D01*
X66597963Y7971220D01*
X66201907Y8050000D01*
X65798093Y8050000D01*
X65402037Y7971220D01*
X65028961Y7816686D01*
X64693201Y7592339D01*
X64407661Y7306799D01*
X64183314Y6971039D01*
X64028780Y6597963D01*
X63950000Y6201907D01*
X42700000Y6201907D01*
X42700000Y7105000D01*
X45677816Y7105000D01*
X45690520Y6976009D01*
X45728146Y6851976D01*
X45789246Y6737666D01*
X45871472Y6637472D01*
X45971666Y6555246D01*
X46085976Y6494146D01*
X46210009Y6456520D01*
X46339000Y6443816D01*
X46694500Y6447000D01*
X46859000Y6611500D01*
X46859000Y7850000D01*
X45845500Y7850000D01*
X45681000Y7685500D01*
X45677816Y7105000D01*
X42700000Y7105000D01*
X42700000Y9295000D01*
X45677816Y9295000D01*
X45681000Y8714500D01*
X45845500Y8550000D01*
X46859000Y8550000D01*
X46859000Y9788500D01*
X47559000Y9788500D01*
X47559000Y8550000D01*
X47579000Y8550000D01*
X47579000Y7850000D01*
X47559000Y7850000D01*
X47559000Y6611500D01*
X47723500Y6447000D01*
X48079000Y6443816D01*
X48207991Y6456520D01*
X48332024Y6494146D01*
X48446334Y6555246D01*
X48546528Y6637472D01*
X48628754Y6737666D01*
X48689854Y6851976D01*
X48727480Y6976009D01*
X48740184Y7105000D01*
X48740082Y7123643D01*
X48811104Y7037103D01*
X49012100Y6872150D01*
X49241415Y6749579D01*
X49490236Y6674100D01*
X49749000Y6648614D01*
X50007765Y6674100D01*
X50256586Y6749579D01*
X50485901Y6872150D01*
X50686897Y7037103D01*
X50851850Y7238099D01*
X50974421Y7467415D01*
X51019000Y7614372D01*
X51063579Y7467414D01*
X51186150Y7238099D01*
X51351104Y7037103D01*
X51552100Y6872150D01*
X51781415Y6749579D01*
X52030236Y6674100D01*
X52289000Y6648614D01*
X52547765Y6674100D01*
X52796586Y6749579D01*
X53025901Y6872150D01*
X53226897Y7037103D01*
X53391850Y7238099D01*
X53514421Y7467415D01*
X53559000Y7614372D01*
X53603579Y7467414D01*
X53726150Y7238099D01*
X53891104Y7037103D01*
X54092100Y6872150D01*
X54321415Y6749579D01*
X54570236Y6674100D01*
X54829000Y6648614D01*
X55087765Y6674100D01*
X55336586Y6749579D01*
X55565901Y6872150D01*
X55766897Y7037103D01*
X55931850Y7238099D01*
X56054421Y7467415D01*
X56129900Y7716236D01*
X56149000Y7910163D01*
X56149000Y8489838D01*
X56129900Y8683765D01*
X56054421Y8932586D01*
X55931850Y9161901D01*
X55766897Y9362897D01*
X55565900Y9527850D01*
X55336585Y9650421D01*
X55087764Y9725900D01*
X54829000Y9751386D01*
X54570235Y9725900D01*
X54321414Y9650421D01*
X54092099Y9527850D01*
X53891103Y9362897D01*
X53726150Y9161900D01*
X53603579Y8932585D01*
X53559000Y8785628D01*
X53514421Y8932586D01*
X53391850Y9161901D01*
X53226897Y9362897D01*
X53025900Y9527850D01*
X52796585Y9650421D01*
X52547764Y9725900D01*
X52289000Y9751386D01*
X52030235Y9725900D01*
X51781414Y9650421D01*
X51552099Y9527850D01*
X51351103Y9362897D01*
X51186150Y9161900D01*
X51063579Y8932585D01*
X51019000Y8785628D01*
X50974421Y8932586D01*
X50851850Y9161901D01*
X50686897Y9362897D01*
X50485900Y9527850D01*
X50256585Y9650421D01*
X50007764Y9725900D01*
X49749000Y9751386D01*
X49490235Y9725900D01*
X49241414Y9650421D01*
X49012099Y9527850D01*
X48811103Y9362897D01*
X48740082Y9276357D01*
X48740184Y9295000D01*
X48727480Y9423991D01*
X48689854Y9548024D01*
X48628754Y9662334D01*
X48546528Y9762528D01*
X48446334Y9844754D01*
X48332024Y9905854D01*
X48207991Y9943480D01*
X48079000Y9956184D01*
X47723500Y9953000D01*
X47559000Y9788500D01*
X46859000Y9788500D01*
X46694500Y9953000D01*
X46339000Y9956184D01*
X46210009Y9943480D01*
X46085976Y9905854D01*
X45971666Y9844754D01*
X45871472Y9762528D01*
X45789246Y9662334D01*
X45728146Y9548024D01*
X45690520Y9423991D01*
X45677816Y9295000D01*
X42700000Y9295000D01*
X42700000Y10870527D01*
X42702903Y10900001D01*
X42691318Y11017621D01*
X42680102Y11054596D01*
X42657010Y11130721D01*
X42601296Y11234955D01*
X42526317Y11326317D01*
X42503419Y11345109D01*
X41645113Y12203414D01*
X41626317Y12226317D01*
X41534955Y12301296D01*
X41430721Y12357010D01*
X41317621Y12391318D01*
X41302177Y12392839D01*
X41302177Y12650000D01*
X41297253Y12700000D01*
X50145404Y12700000D01*
X50163746Y12513768D01*
X50218068Y12334692D01*
X50306282Y12169655D01*
X50424999Y12024999D01*
X50569655Y11906282D01*
X50734692Y11818068D01*
X50913768Y11763746D01*
X51053335Y11750000D01*
X57453346Y11750000D01*
X57500000Y11745405D01*
X57546654Y11750000D01*
X57546665Y11750000D01*
X57686232Y11763746D01*
X57865308Y11818068D01*
X58030345Y11906282D01*
X58175001Y12024999D01*
X58204750Y12061248D01*
X59132143Y12988641D01*
X59132143Y9427500D01*
X72667857Y9427500D01*
X72667857Y13677500D01*
X59452379Y13677500D01*
X59454595Y13700000D01*
X59450000Y13746657D01*
X59450000Y25046665D01*
X59436254Y25186232D01*
X59381932Y25365308D01*
X59293718Y25530345D01*
X59175001Y25675001D01*
X59030345Y25793718D01*
X58865307Y25881932D01*
X58686231Y25936254D01*
X58500000Y25954596D01*
X58313768Y25936254D01*
X58134692Y25881932D01*
X57969655Y25793718D01*
X57824999Y25675001D01*
X57706282Y25530345D01*
X57618068Y25365307D01*
X57563746Y25186231D01*
X57550000Y25046664D01*
X57550001Y14093503D01*
X57106498Y13650000D01*
X51053335Y13650000D01*
X50913768Y13636254D01*
X50734692Y13581932D01*
X50569655Y13493718D01*
X50424999Y13375001D01*
X50306282Y13230345D01*
X50218068Y13065308D01*
X50163746Y12886232D01*
X50145404Y12700000D01*
X41297253Y12700000D01*
X41293489Y12738215D01*
X41267757Y12823041D01*
X41225971Y12901216D01*
X41169737Y12969737D01*
X41101216Y13025971D01*
X41023041Y13067757D01*
X40938215Y13093489D01*
X40850000Y13102177D01*
X39150000Y13102177D01*
X39061785Y13093489D01*
X38976959Y13067757D01*
X38898784Y13025971D01*
X38830263Y12969737D01*
X38774029Y12901216D01*
X38732243Y12823041D01*
X38706511Y12738215D01*
X38697823Y12650000D01*
X38697823Y10950000D01*
X38706511Y10861785D01*
X38732243Y10776959D01*
X38774029Y10698784D01*
X38830263Y10630263D01*
X38898784Y10574029D01*
X38976959Y10532243D01*
X39061785Y10506511D01*
X39150000Y10497823D01*
X39591305Y10497823D01*
X39384219Y10412045D01*
X39171298Y10269776D01*
X38990224Y10088702D01*
X38847955Y9875781D01*
X38749958Y9639196D01*
X38700000Y9388039D01*
X38700000Y9131961D01*
X38749958Y8880804D01*
X38847955Y8644219D01*
X38990224Y8431298D01*
X39171298Y8250224D01*
X39384219Y8107955D01*
X39620804Y8009958D01*
X39721140Y7990000D01*
X39620804Y7970042D01*
X39384219Y7872045D01*
X39171298Y7729776D01*
X38990224Y7548702D01*
X38847955Y7335781D01*
X38749958Y7099196D01*
X38700000Y6848039D01*
X38700000Y6591961D01*
X38749958Y6340804D01*
X38756495Y6325022D01*
X38531473Y6100000D01*
X27348528Y6100000D01*
X26639258Y6809269D01*
X26756901Y6872150D01*
X26957897Y7037103D01*
X27122850Y7238099D01*
X27245421Y7467415D01*
X27290000Y7614372D01*
X27334579Y7467414D01*
X27457150Y7238099D01*
X27622104Y7037103D01*
X27823100Y6872150D01*
X28052415Y6749579D01*
X28301236Y6674100D01*
X28560000Y6648614D01*
X28818765Y6674100D01*
X29067586Y6749579D01*
X29296901Y6872150D01*
X29497897Y7037103D01*
X29662850Y7238099D01*
X29785421Y7467415D01*
X29830000Y7614372D01*
X29874579Y7467414D01*
X29997150Y7238099D01*
X30162104Y7037103D01*
X30363100Y6872150D01*
X30592415Y6749579D01*
X30841236Y6674100D01*
X31100000Y6648614D01*
X31358765Y6674100D01*
X31607586Y6749579D01*
X31836901Y6872150D01*
X32037897Y7037103D01*
X32202850Y7238099D01*
X32259560Y7344197D01*
X32263198Y7333835D01*
X32414738Y7077554D01*
X32613364Y6855761D01*
X32851443Y6676980D01*
X33061632Y6560689D01*
X33290000Y6657187D01*
X33290000Y7850000D01*
X33990000Y7850000D01*
X33990000Y6657187D01*
X34218368Y6560689D01*
X34428557Y6676980D01*
X34666636Y6855761D01*
X34865262Y7077554D01*
X35016802Y7333835D01*
X35115432Y7614756D01*
X34989121Y7850000D01*
X33990000Y7850000D01*
X33290000Y7850000D01*
X33270000Y7850000D01*
X33270000Y8550000D01*
X33290000Y8550000D01*
X33290000Y9742813D01*
X33990000Y9742813D01*
X33990000Y8550000D01*
X34989121Y8550000D01*
X35115432Y8785244D01*
X35016802Y9066165D01*
X34865262Y9322446D01*
X34666636Y9544239D01*
X34428557Y9723020D01*
X34218368Y9839311D01*
X33990000Y9742813D01*
X33290000Y9742813D01*
X33061632Y9839311D01*
X32851443Y9723020D01*
X32613364Y9544239D01*
X32414738Y9322446D01*
X32263198Y9066165D01*
X32259560Y9055803D01*
X32202850Y9161901D01*
X32050000Y9348149D01*
X32050000Y9706498D01*
X37638757Y15295254D01*
X37675001Y15324999D01*
X37793718Y15469655D01*
X37881932Y15634692D01*
X37936254Y15813768D01*
X37950000Y15953335D01*
X37950000Y15953345D01*
X37954595Y15999999D01*
X37950000Y16046654D01*
X37950000Y19606498D01*
X39293503Y20950000D01*
X41853346Y20950000D01*
X41900000Y20945405D01*
X41946654Y20950000D01*
X41946665Y20950000D01*
X42086232Y20963746D01*
X42265308Y21018068D01*
X42430345Y21106282D01*
X42575001Y21224999D01*
X42604750Y21261248D01*
X44028706Y22685204D01*
X44018068Y22665302D01*
X43963746Y22486226D01*
X43945404Y22299994D01*
X43963746Y22113762D01*
X44018068Y21934686D01*
X44106282Y21769649D01*
X44224999Y21624993D01*
X44369655Y21506276D01*
X44534692Y21418062D01*
X44713768Y21363740D01*
X44853335Y21349994D01*
X49153340Y21349994D01*
X49199994Y21345399D01*
X49246648Y21349994D01*
X49246659Y21349994D01*
X49386226Y21363740D01*
X49565302Y21418062D01*
X49730339Y21506276D01*
X49874995Y21624993D01*
X49904744Y21661242D01*
X53193503Y24950000D01*
X55115346Y24950000D01*
X55162000Y24945405D01*
X55208654Y24950000D01*
X55208665Y24950000D01*
X55348232Y24963746D01*
X55527308Y25018068D01*
X55692345Y25106282D01*
X55837001Y25224999D01*
X55866750Y25261248D01*
X57104748Y26499245D01*
X57193717Y26607654D01*
X57281931Y26772691D01*
X57336253Y26951766D01*
X57354595Y27137999D01*
X57336253Y27324232D01*
X57281931Y27503308D01*
X57193717Y27668345D01*
X57075001Y27813001D01*
X56930345Y27931717D01*
X56765308Y28019931D01*
X56586232Y28074253D01*
X56399999Y28092595D01*
X56213766Y28074253D01*
X56034691Y28019931D01*
X55869654Y27931717D01*
X55761245Y27842748D01*
X54768498Y26850000D01*
X52846654Y26850000D01*
X52799999Y26854595D01*
X52753344Y26850000D01*
X52753335Y26850000D01*
X52613768Y26836254D01*
X52434692Y26781932D01*
X52269655Y26693718D01*
X52269653Y26693717D01*
X52269654Y26693717D01*
X52161245Y26604748D01*
X52161242Y26604745D01*
X52124999Y26575001D01*
X52095254Y26538757D01*
X48806492Y23249994D01*
X44853335Y23249994D01*
X44713768Y23236248D01*
X44534692Y23181926D01*
X44514790Y23171288D01*
X46338752Y24995250D01*
X46375001Y25024999D01*
X46493718Y25169655D01*
X46553736Y25281940D01*
X46581932Y25334691D01*
X46636254Y25513767D01*
X46639019Y25541844D01*
X46650000Y25653335D01*
X46650000Y25653343D01*
X46654595Y25700000D01*
X46650000Y25746657D01*
X46650000Y28193343D01*
X46654595Y28240000D01*
X46650000Y28286657D01*
X46650000Y28286665D01*
X46636254Y28426232D01*
X46581932Y28605308D01*
X46493718Y28770345D01*
X46375001Y28915001D01*
X46338757Y28944746D01*
X42483502Y32800000D01*
X43655231Y32800000D01*
X43633665Y32747936D01*
X43601000Y32583718D01*
X43601000Y32416282D01*
X43633665Y32252064D01*
X43697740Y32097374D01*
X43790762Y31958156D01*
X43909156Y31839762D01*
X44048374Y31746740D01*
X44203064Y31682665D01*
X44367282Y31650000D01*
X44534718Y31650000D01*
X44698936Y31682665D01*
X44853626Y31746740D01*
X44992844Y31839762D01*
X45111238Y31958156D01*
X45204260Y32097374D01*
X45268335Y32252064D01*
X45276500Y32293112D01*
X45284665Y32252064D01*
X45348740Y32097374D01*
X45441762Y31958156D01*
X45560156Y31839762D01*
X45699374Y31746740D01*
X45854064Y31682665D01*
X46018282Y31650000D01*
X46185718Y31650000D01*
X46349936Y31682665D01*
X46504626Y31746740D01*
X46643844Y31839762D01*
X46762238Y31958156D01*
X46855260Y32097374D01*
X46856347Y32100000D01*
X49245405Y32100000D01*
X49250000Y32053346D01*
X49250000Y31253336D01*
X49263746Y31113769D01*
X49318068Y30934693D01*
X49406282Y30769655D01*
X49524999Y30624999D01*
X49669655Y30506282D01*
X49834692Y30418068D01*
X50013768Y30363746D01*
X50200000Y30345404D01*
X50386231Y30363746D01*
X50565307Y30418068D01*
X50730345Y30506282D01*
X50875001Y30624999D01*
X50993718Y30769655D01*
X51081932Y30934692D01*
X51136254Y31113768D01*
X51150000Y31253335D01*
X51150000Y31706498D01*
X52193503Y32750000D01*
X55446665Y32750000D01*
X55586232Y32763746D01*
X55765308Y32818068D01*
X55930345Y32906282D01*
X56075001Y33024999D01*
X56193718Y33169655D01*
X56281932Y33334692D01*
X56336254Y33513768D01*
X56354596Y33700000D01*
X56336254Y33886232D01*
X56281932Y34065308D01*
X56193718Y34230345D01*
X56075001Y34375001D01*
X56021220Y34419138D01*
X56060238Y34458156D01*
X56153260Y34597374D01*
X56217335Y34752064D01*
X56250000Y34916282D01*
X56250000Y35083718D01*
X56217335Y35247936D01*
X56153260Y35402626D01*
X56060238Y35541844D01*
X55977082Y35625000D01*
X56060238Y35708156D01*
X56153260Y35847374D01*
X56217335Y36002064D01*
X56250000Y36166282D01*
X56250000Y36333718D01*
X56217335Y36497936D01*
X56153260Y36652626D01*
X56060238Y36791844D01*
X55941844Y36910238D01*
X55802626Y37003260D01*
X55647936Y37067335D01*
X55483718Y37100000D01*
X55316282Y37100000D01*
X55152064Y37067335D01*
X54997374Y37003260D01*
X54858156Y36910238D01*
X54739762Y36791844D01*
X54646740Y36652626D01*
X54582665Y36497936D01*
X54550000Y36333718D01*
X54550000Y36166282D01*
X54582665Y36002064D01*
X54646740Y35847374D01*
X54739762Y35708156D01*
X54822918Y35625000D01*
X54739762Y35541844D01*
X54646740Y35402626D01*
X54582665Y35247936D01*
X54550000Y35083718D01*
X54550000Y34916282D01*
X54582665Y34752064D01*
X54624941Y34650000D01*
X51846657Y34650000D01*
X51800000Y34654595D01*
X51753343Y34650000D01*
X51753335Y34650000D01*
X51629720Y34637825D01*
X51613767Y34636254D01*
X51434691Y34581932D01*
X51374951Y34550000D01*
X51269655Y34493718D01*
X51269653Y34493717D01*
X51269654Y34493717D01*
X51161245Y34404748D01*
X51161242Y34404745D01*
X51124999Y34375001D01*
X51095254Y34338757D01*
X49561243Y32804745D01*
X49525000Y32775001D01*
X49495256Y32738758D01*
X49495252Y32738754D01*
X49406592Y32630721D01*
X49406283Y32630345D01*
X49318069Y32465308D01*
X49263747Y32286232D01*
X49250000Y32146665D01*
X49250000Y32146654D01*
X49245405Y32100000D01*
X46856347Y32100000D01*
X46919335Y32252064D01*
X46952000Y32416282D01*
X46952000Y32583718D01*
X46919335Y32747936D01*
X46897769Y32800000D01*
X48250000Y32800000D01*
X48337791Y32808647D01*
X48422208Y32834254D01*
X48500007Y32875839D01*
X48568198Y32931802D01*
X48624161Y32999993D01*
X48665746Y33077792D01*
X48691353Y33162209D01*
X48700000Y33250000D01*
X48700000Y37250000D01*
X48691353Y37337791D01*
X48665746Y37422208D01*
X48624161Y37500007D01*
X48568198Y37568198D01*
X45652880Y40483516D01*
X45715276Y40534724D01*
X45797107Y40634435D01*
X45857913Y40748194D01*
X45895357Y40871631D01*
X45908000Y41000000D01*
X45908000Y42051000D01*
X56984823Y42051000D01*
X56984823Y40051000D01*
X56993511Y39962785D01*
X57019243Y39877959D01*
X57061029Y39799784D01*
X57117263Y39731263D01*
X57185784Y39675029D01*
X57263959Y39633243D01*
X57348785Y39607511D01*
X57437000Y39598823D01*
X59437000Y39598823D01*
X59525215Y39607511D01*
X59610041Y39633243D01*
X59688216Y39675029D01*
X59756737Y39731263D01*
X59789368Y39771024D01*
X62651998Y39771024D01*
X62762746Y39527514D01*
X63072919Y39425247D01*
X63397084Y39385457D01*
X63722782Y39409673D01*
X64037498Y39496964D01*
X64111254Y39527514D01*
X64222002Y39771024D01*
X63437000Y40556025D01*
X62651998Y39771024D01*
X59789368Y39771024D01*
X59812971Y39799784D01*
X59854757Y39877959D01*
X59880489Y39962785D01*
X59889177Y40051000D01*
X59889177Y41090916D01*
X61771457Y41090916D01*
X61795673Y40765218D01*
X61882964Y40450502D01*
X61913514Y40376746D01*
X62157024Y40265998D01*
X62942025Y41051000D01*
X63931975Y41051000D01*
X64716976Y40265998D01*
X64960486Y40376746D01*
X65062753Y40686919D01*
X65102543Y41011084D01*
X65078327Y41336782D01*
X64991036Y41651498D01*
X64960486Y41725254D01*
X64716976Y41836002D01*
X63931975Y41051000D01*
X62942025Y41051000D01*
X62157024Y41836002D01*
X61913514Y41725254D01*
X61811247Y41415081D01*
X61771457Y41090916D01*
X59889177Y41090916D01*
X59889177Y42051000D01*
X59880489Y42139215D01*
X59854757Y42224041D01*
X59812971Y42302216D01*
X59789369Y42330976D01*
X62651998Y42330976D01*
X63437000Y41545975D01*
X64222002Y42330976D01*
X64111254Y42574486D01*
X63801081Y42676753D01*
X63476916Y42716543D01*
X63151218Y42692327D01*
X62836502Y42605036D01*
X62762746Y42574486D01*
X62651998Y42330976D01*
X59789369Y42330976D01*
X59756737Y42370737D01*
X59688216Y42426971D01*
X59610041Y42468757D01*
X59525215Y42494489D01*
X59437000Y42503177D01*
X57437000Y42503177D01*
X57348785Y42494489D01*
X57263959Y42468757D01*
X57185784Y42426971D01*
X57117263Y42370737D01*
X57061029Y42302216D01*
X57019243Y42224041D01*
X56993511Y42139215D01*
X56984823Y42051000D01*
X45908000Y42051000D01*
X45908000Y51000000D01*
X45895357Y51128369D01*
X45857913Y51251806D01*
X45797107Y51365565D01*
X45715276Y51465276D01*
X45615565Y51547107D01*
X45501806Y51607913D01*
X45378369Y51645357D01*
X45250000Y51658000D01*
X32250000Y51658000D01*
X32121631Y51645357D01*
X31998194Y51607913D01*
X31884435Y51547107D01*
X31784724Y51465276D01*
X31702893Y51365565D01*
X31642087Y51251806D01*
X31604643Y51128369D01*
X31592000Y51000000D01*
X31592000Y41000000D01*
X31604643Y40871631D01*
X31642087Y40748194D01*
X31667847Y40700000D01*
X30582153Y40700000D01*
X30607913Y40748194D01*
X30645357Y40871631D01*
X30658000Y41000000D01*
X30658000Y51000000D01*
X30645357Y51128369D01*
X30607913Y51251806D01*
X30547107Y51365565D01*
X30465276Y51465276D01*
X30365565Y51547107D01*
X30251806Y51607913D01*
X30128369Y51645357D01*
X30000000Y51658000D01*
X16250000Y51658000D01*
X16121631Y51645357D01*
X15998194Y51607913D01*
X15884435Y51547107D01*
X15784724Y51465276D01*
X15702893Y51365565D01*
X15642087Y51251806D01*
X15604643Y51128369D01*
X15592000Y51000000D01*
X15592000Y41000000D01*
X15604643Y40871631D01*
X15642087Y40748194D01*
X15702893Y40634435D01*
X15784724Y40534724D01*
X15884435Y40452893D01*
X15998194Y40392087D01*
X16121631Y40354643D01*
X16250000Y40342000D01*
X26309924Y40342000D01*
X26308647Y40337791D01*
X26300000Y40250000D01*
X26300000Y38293503D01*
X25154750Y39438752D01*
X25125001Y39475001D01*
X24980345Y39593718D01*
X24815308Y39681932D01*
X24636232Y39736254D01*
X24496665Y39750000D01*
X24496654Y39750000D01*
X24450000Y39754595D01*
X24403346Y39750000D01*
X14353335Y39750000D01*
X14213768Y39736254D01*
X14034692Y39681932D01*
X13869655Y39593718D01*
X13724999Y39475001D01*
X13606282Y39330345D01*
X13518068Y39165308D01*
X13463746Y38986232D01*
X13445404Y38800000D01*
X600000Y38800000D01*
X600000Y56201907D01*
X7950000Y56201907D01*
X7950000Y55798093D01*
X8028780Y55402037D01*
X8183314Y55028961D01*
X8407661Y54693201D01*
X8693201Y54407661D01*
X9028961Y54183314D01*
X9402037Y54028780D01*
X9798093Y53950000D01*
X10201907Y53950000D01*
X10597963Y54028780D01*
X10971039Y54183314D01*
X10996011Y54200000D01*
X22038816Y54200000D01*
X22051520Y54071009D01*
X22089146Y53946976D01*
X22150246Y53832666D01*
X22232472Y53732472D01*
X22332666Y53650246D01*
X22446976Y53589146D01*
X22571009Y53551520D01*
X22700000Y53538816D01*
X23085500Y53542000D01*
X23250000Y53706500D01*
X23250000Y55650000D01*
X23950000Y55650000D01*
X23950000Y53706500D01*
X24114500Y53542000D01*
X24500000Y53538816D01*
X24628991Y53551520D01*
X24753024Y53589146D01*
X24867334Y53650246D01*
X24967528Y53732472D01*
X25049754Y53832666D01*
X25110854Y53946976D01*
X25148480Y54071009D01*
X25161184Y54200000D01*
X25158000Y55485500D01*
X24993500Y55650000D01*
X23950000Y55650000D01*
X23250000Y55650000D01*
X22206500Y55650000D01*
X22042000Y55485500D01*
X22038816Y54200000D01*
X10996011Y54200000D01*
X11306799Y54407661D01*
X11592339Y54693201D01*
X11816686Y55028961D01*
X11971220Y55402037D01*
X12050000Y55798093D01*
X12050000Y56201907D01*
X11971220Y56597963D01*
X11816686Y56971039D01*
X11592339Y57306799D01*
X11306799Y57592339D01*
X10996012Y57800000D01*
X22038816Y57800000D01*
X22042000Y56514500D01*
X22206500Y56350000D01*
X23250000Y56350000D01*
X23250000Y58293500D01*
X23950000Y58293500D01*
X23950000Y56350000D01*
X24993500Y56350000D01*
X25158000Y56514500D01*
X25159119Y56966320D01*
X27330000Y56966320D01*
X27330000Y55033679D01*
X27349534Y54835354D01*
X27426729Y54580878D01*
X27552086Y54346351D01*
X27720788Y54140787D01*
X27926352Y53972085D01*
X28160879Y53846728D01*
X28415355Y53769533D01*
X28680000Y53743468D01*
X28944646Y53769533D01*
X29199122Y53846728D01*
X29433649Y53972085D01*
X29639213Y54140787D01*
X29807915Y54346351D01*
X29933272Y54580878D01*
X30010467Y54835354D01*
X30030000Y55033679D01*
X30030000Y56966321D01*
X30010467Y57164646D01*
X29933272Y57419122D01*
X29863317Y57550000D01*
X32447823Y57550000D01*
X32447823Y54450000D01*
X32461315Y54313012D01*
X32501273Y54181288D01*
X32566161Y54059891D01*
X32653486Y53953486D01*
X32759891Y53866161D01*
X32881288Y53801273D01*
X33013012Y53761315D01*
X33150000Y53747823D01*
X34450000Y53747823D01*
X34586988Y53761315D01*
X34718712Y53801273D01*
X34840109Y53866161D01*
X34946514Y53953486D01*
X35033839Y54059891D01*
X35098727Y54181288D01*
X35138685Y54313012D01*
X35152177Y54450000D01*
X35152177Y55650000D01*
X37322000Y55650000D01*
X37322000Y54750000D01*
X37420218Y54452774D01*
X37574535Y54180421D01*
X37779020Y53943407D01*
X38025815Y53750840D01*
X38296814Y53655265D01*
X38530000Y53751170D01*
X38530000Y55650000D01*
X39230000Y55650000D01*
X39230000Y53751170D01*
X39463186Y53655265D01*
X39734185Y53750840D01*
X39980980Y53943407D01*
X40185465Y54180421D01*
X40339782Y54452774D01*
X40438000Y54750000D01*
X40438000Y55650000D01*
X39230000Y55650000D01*
X38530000Y55650000D01*
X37322000Y55650000D01*
X35152177Y55650000D01*
X35152177Y57250000D01*
X37322000Y57250000D01*
X37322000Y56350000D01*
X38530000Y56350000D01*
X38530000Y58248830D01*
X39230000Y58248830D01*
X39230000Y56350000D01*
X40438000Y56350000D01*
X40438000Y57250000D01*
X40339782Y57547226D01*
X40338211Y57550000D01*
X50647823Y57550000D01*
X50647823Y54450000D01*
X50661315Y54313012D01*
X50701273Y54181288D01*
X50766161Y54059891D01*
X50853486Y53953486D01*
X50959891Y53866161D01*
X51081288Y53801273D01*
X51213012Y53761315D01*
X51350000Y53747823D01*
X52650000Y53747823D01*
X52786988Y53761315D01*
X52918712Y53801273D01*
X53040109Y53866161D01*
X53146514Y53953486D01*
X53233839Y54059891D01*
X53298727Y54181288D01*
X53338685Y54313012D01*
X53352177Y54450000D01*
X53352177Y55650000D01*
X55522000Y55650000D01*
X55522000Y54750000D01*
X55620218Y54452774D01*
X55774535Y54180421D01*
X55979020Y53943407D01*
X56225815Y53750840D01*
X56496814Y53655265D01*
X56730000Y53751170D01*
X56730000Y55650000D01*
X57430000Y55650000D01*
X57430000Y53751170D01*
X57663186Y53655265D01*
X57934185Y53750840D01*
X58180980Y53943407D01*
X58385465Y54180421D01*
X58539782Y54452774D01*
X58638000Y54750000D01*
X58638000Y55650000D01*
X57430000Y55650000D01*
X56730000Y55650000D01*
X55522000Y55650000D01*
X53352177Y55650000D01*
X53352177Y56201907D01*
X63950000Y56201907D01*
X63950000Y55798093D01*
X64028780Y55402037D01*
X64183314Y55028961D01*
X64407661Y54693201D01*
X64693201Y54407661D01*
X65028961Y54183314D01*
X65402037Y54028780D01*
X65798093Y53950000D01*
X66201907Y53950000D01*
X66597963Y54028780D01*
X66971039Y54183314D01*
X67306799Y54407661D01*
X67592339Y54693201D01*
X67816686Y55028961D01*
X67971220Y55402037D01*
X68050000Y55798093D01*
X68050000Y56201907D01*
X67971220Y56597963D01*
X67816686Y56971039D01*
X67592339Y57306799D01*
X67306799Y57592339D01*
X66971039Y57816686D01*
X66597963Y57971220D01*
X66201907Y58050000D01*
X65798093Y58050000D01*
X65402037Y57971220D01*
X65028961Y57816686D01*
X64693201Y57592339D01*
X64407661Y57306799D01*
X64183314Y56971039D01*
X64028780Y56597963D01*
X63950000Y56201907D01*
X53352177Y56201907D01*
X53352177Y57250000D01*
X55522000Y57250000D01*
X55522000Y56350000D01*
X56730000Y56350000D01*
X56730000Y58248830D01*
X57430000Y58248830D01*
X57430000Y56350000D01*
X58638000Y56350000D01*
X58638000Y57250000D01*
X58539782Y57547226D01*
X58385465Y57819579D01*
X58180980Y58056593D01*
X57934185Y58249160D01*
X57663186Y58344735D01*
X57430000Y58248830D01*
X56730000Y58248830D01*
X56496814Y58344735D01*
X56225815Y58249160D01*
X55979020Y58056593D01*
X55774535Y57819579D01*
X55620218Y57547226D01*
X55522000Y57250000D01*
X53352177Y57250000D01*
X53352177Y57550000D01*
X53338685Y57686988D01*
X53298727Y57818712D01*
X53233839Y57940109D01*
X53146514Y58046514D01*
X53040109Y58133839D01*
X52918712Y58198727D01*
X52786988Y58238685D01*
X52650000Y58252177D01*
X51350000Y58252177D01*
X51213012Y58238685D01*
X51081288Y58198727D01*
X50959891Y58133839D01*
X50853486Y58046514D01*
X50766161Y57940109D01*
X50701273Y57818712D01*
X50661315Y57686988D01*
X50647823Y57550000D01*
X40338211Y57550000D01*
X40185465Y57819579D01*
X39980980Y58056593D01*
X39734185Y58249160D01*
X39463186Y58344735D01*
X39230000Y58248830D01*
X38530000Y58248830D01*
X38296814Y58344735D01*
X38025815Y58249160D01*
X37779020Y58056593D01*
X37574535Y57819579D01*
X37420218Y57547226D01*
X37322000Y57250000D01*
X35152177Y57250000D01*
X35152177Y57550000D01*
X35138685Y57686988D01*
X35098727Y57818712D01*
X35033839Y57940109D01*
X34946514Y58046514D01*
X34840109Y58133839D01*
X34718712Y58198727D01*
X34586988Y58238685D01*
X34450000Y58252177D01*
X33150000Y58252177D01*
X33013012Y58238685D01*
X32881288Y58198727D01*
X32759891Y58133839D01*
X32653486Y58046514D01*
X32566161Y57940109D01*
X32501273Y57818712D01*
X32461315Y57686988D01*
X32447823Y57550000D01*
X29863317Y57550000D01*
X29807915Y57653649D01*
X29639212Y57859213D01*
X29433648Y58027915D01*
X29199121Y58153272D01*
X28944645Y58230467D01*
X28680000Y58256532D01*
X28415354Y58230467D01*
X28160878Y58153272D01*
X27926351Y58027915D01*
X27720787Y57859212D01*
X27552085Y57653648D01*
X27426728Y57419121D01*
X27349533Y57164645D01*
X27330000Y56966320D01*
X25159119Y56966320D01*
X25161184Y57800000D01*
X25148480Y57928991D01*
X25110854Y58053024D01*
X25049754Y58167334D01*
X24967528Y58267528D01*
X24867334Y58349754D01*
X24753024Y58410854D01*
X24628991Y58448480D01*
X24500000Y58461184D01*
X24114500Y58458000D01*
X23950000Y58293500D01*
X23250000Y58293500D01*
X23085500Y58458000D01*
X22700000Y58461184D01*
X22571009Y58448480D01*
X22446976Y58410854D01*
X22332666Y58349754D01*
X22232472Y58267528D01*
X22150246Y58167334D01*
X22089146Y58053024D01*
X22051520Y57928991D01*
X22038816Y57800000D01*
X10996012Y57800000D01*
X10971039Y57816686D01*
X10597963Y57971220D01*
X10201907Y58050000D01*
X9798093Y58050000D01*
X9402037Y57971220D01*
X9028961Y57816686D01*
X8693201Y57592339D01*
X8407661Y57306799D01*
X8183314Y56971039D01*
X8028780Y56597963D01*
X7950000Y56201907D01*
X600000Y56201907D01*
X600000Y65970660D01*
X667574Y66659834D01*
X859205Y67294546D01*
X1170466Y67879941D01*
X1589503Y68393731D01*
X2100354Y68816343D01*
X2683563Y69131683D01*
X3316913Y69327737D01*
X4004442Y69400000D01*
X71970660Y69400000D01*
X72659834Y69332426D01*
%TA.AperFunction,Conductor*%
D21*
G36*
X72659834Y69332426D02*
G01*
X73294546Y69140795D01*
X73879941Y68829534D01*
X74393731Y68410497D01*
X74816343Y67899646D01*
X75131683Y67316437D01*
X75327737Y66683087D01*
X75400000Y65995558D01*
X75400001Y4029351D01*
X75332426Y3340166D01*
X75140795Y2705453D01*
X74829537Y2120062D01*
X74410499Y1606271D01*
X73899649Y1183659D01*
X73316437Y868317D01*
X72683086Y672262D01*
X71995559Y600000D01*
X4029341Y600000D01*
X3340166Y667574D01*
X2705453Y859205D01*
X2120062Y1170463D01*
X1606271Y1589501D01*
X1183659Y2100351D01*
X868317Y2683563D01*
X672262Y3316914D01*
X600000Y4004441D01*
X600000Y6201907D01*
X7950000Y6201907D01*
X7950000Y5798093D01*
X8028780Y5402037D01*
X8183314Y5028961D01*
X8407661Y4693201D01*
X8693201Y4407661D01*
X9028961Y4183314D01*
X9402037Y4028780D01*
X9798093Y3950000D01*
X10201907Y3950000D01*
X10597963Y4028780D01*
X10971039Y4183314D01*
X11306799Y4407661D01*
X11592339Y4693201D01*
X11816686Y5028961D01*
X11971220Y5402037D01*
X12050000Y5798093D01*
X12050000Y6201907D01*
X11971220Y6597963D01*
X11816686Y6971039D01*
X11592339Y7306799D01*
X11306799Y7592339D01*
X10971039Y7816686D01*
X10597963Y7971220D01*
X10201907Y8050000D01*
X9798093Y8050000D01*
X9402037Y7971220D01*
X9028961Y7816686D01*
X8693201Y7592339D01*
X8407661Y7306799D01*
X8183314Y6971039D01*
X8028780Y6597963D01*
X7950000Y6201907D01*
X600000Y6201907D01*
X600000Y30515476D01*
X14927500Y30515476D01*
X14927500Y14884524D01*
X19177500Y14884524D01*
X19177500Y24400008D01*
X22845404Y24400008D01*
X22863746Y24213776D01*
X22918068Y24034700D01*
X23006282Y23869663D01*
X23124999Y23725007D01*
X23269655Y23606290D01*
X23434692Y23518076D01*
X23613768Y23463754D01*
X23753335Y23450008D01*
X31106496Y23450008D01*
X32961251Y21595252D01*
X33069660Y21506283D01*
X33234697Y21418068D01*
X33413773Y21363746D01*
X33600006Y21345405D01*
X33786238Y21363746D01*
X33965314Y21418068D01*
X34130351Y21506283D01*
X34275007Y21624999D01*
X34393723Y21769655D01*
X34481938Y21934692D01*
X34536260Y22113768D01*
X34554601Y22300000D01*
X34536260Y22486233D01*
X34481938Y22665309D01*
X34393723Y22830346D01*
X34304754Y22938755D01*
X32204748Y25038760D01*
X32174999Y25075009D01*
X32030343Y25193726D01*
X31865306Y25281940D01*
X31686230Y25336262D01*
X31546663Y25350008D01*
X31546652Y25350008D01*
X31499998Y25354603D01*
X31453344Y25350008D01*
X23753335Y25350008D01*
X23613768Y25336262D01*
X23434692Y25281940D01*
X23269655Y25193726D01*
X23124999Y25075009D01*
X23006282Y24930353D01*
X22918068Y24765316D01*
X22863746Y24586240D01*
X22845404Y24400008D01*
X19177500Y24400008D01*
X19177500Y30515476D01*
X14927500Y30515476D01*
X600000Y30515476D01*
X600000Y38800000D01*
X13445404Y38800000D01*
X13463746Y38613768D01*
X13518068Y38434692D01*
X13606282Y38269655D01*
X13724999Y38124999D01*
X13869655Y38006282D01*
X14034692Y37918068D01*
X14213768Y37863746D01*
X14353335Y37850000D01*
X24056498Y37850000D01*
X24990001Y36916496D01*
X24990000Y33499911D01*
X24947936Y33517335D01*
X24783718Y33550000D01*
X24616282Y33550000D01*
X24452064Y33517335D01*
X24297374Y33453260D01*
X24158156Y33360238D01*
X24039762Y33241844D01*
X23946740Y33102626D01*
X23882665Y32947936D01*
X23850000Y32783718D01*
X23850000Y32616282D01*
X23882665Y32452064D01*
X23946740Y32297374D01*
X24039762Y32158156D01*
X24158156Y32039762D01*
X24297374Y31946740D01*
X24452064Y31882665D01*
X24616282Y31850000D01*
X24783718Y31850000D01*
X24947936Y31882665D01*
X25102626Y31946740D01*
X25241844Y32039762D01*
X25247907Y32045825D01*
X25264999Y32024999D01*
X25409655Y31906282D01*
X25574692Y31818068D01*
X25753768Y31763746D01*
X25940000Y31745404D01*
X26126231Y31763746D01*
X26305307Y31818068D01*
X26470345Y31906282D01*
X26615001Y32024999D01*
X26733718Y32169655D01*
X26803389Y32300000D01*
X30750000Y32300000D01*
X30837791Y32308647D01*
X30922208Y32334254D01*
X31000007Y32375839D01*
X31068198Y32431802D01*
X31124161Y32499993D01*
X31165746Y32577792D01*
X31191353Y32662209D01*
X31200000Y32750000D01*
X31200000Y37050000D01*
X35300000Y37050000D01*
X35300000Y33250000D01*
X35305065Y33198581D01*
X35242665Y33047936D01*
X35210000Y32883718D01*
X35210000Y32716282D01*
X35242665Y32552064D01*
X35306740Y32397374D01*
X35399762Y32258156D01*
X35518156Y32139762D01*
X35657374Y32046740D01*
X35812064Y31982665D01*
X35976282Y31950000D01*
X36143718Y31950000D01*
X36307936Y31982665D01*
X36462626Y32046740D01*
X36601844Y32139762D01*
X36695000Y32232918D01*
X36788156Y32139762D01*
X36927374Y32046740D01*
X37082064Y31982665D01*
X37246282Y31950000D01*
X37413718Y31950000D01*
X37577936Y31982665D01*
X37732626Y32046740D01*
X37871844Y32139762D01*
X37965000Y32232918D01*
X38058156Y32139762D01*
X38059107Y32139126D01*
X38098704Y32065046D01*
X38173683Y31973683D01*
X38196586Y31954887D01*
X43150000Y27001472D01*
X43150000Y26916282D01*
X43182665Y26752064D01*
X43246740Y26597374D01*
X43339762Y26458156D01*
X43458156Y26339762D01*
X43597374Y26246740D01*
X43752064Y26182665D01*
X43916282Y26150000D01*
X44083718Y26150000D01*
X44247936Y26182665D01*
X44402626Y26246740D01*
X44541844Y26339762D01*
X44660238Y26458156D01*
X44750000Y26592496D01*
X44750000Y26093502D01*
X41506498Y22850000D01*
X38946657Y22850000D01*
X38900000Y22854595D01*
X38853343Y22850000D01*
X38853335Y22850000D01*
X38729720Y22837825D01*
X38713767Y22836254D01*
X38534691Y22781932D01*
X38455797Y22739762D01*
X38369655Y22693718D01*
X38369653Y22693717D01*
X38369654Y22693717D01*
X38261245Y22604748D01*
X38261242Y22604745D01*
X38224999Y22575001D01*
X38195254Y22538757D01*
X36361243Y20704745D01*
X36325000Y20675001D01*
X36295256Y20638758D01*
X36295252Y20638754D01*
X36206283Y20530345D01*
X36118069Y20365308D01*
X36063747Y20186232D01*
X36045405Y20000000D01*
X36050001Y19953336D01*
X36050000Y16393503D01*
X30461243Y10804745D01*
X30425000Y10775001D01*
X30395256Y10738758D01*
X30395252Y10738754D01*
X30306283Y10630345D01*
X30218069Y10465308D01*
X30163747Y10286232D01*
X30145405Y10100000D01*
X30150001Y10053336D01*
X30150001Y9348150D01*
X29997150Y9161900D01*
X29874579Y8932585D01*
X29830000Y8785628D01*
X29785421Y8932586D01*
X29662850Y9161901D01*
X29497897Y9362897D01*
X29296900Y9527850D01*
X29067585Y9650421D01*
X28818764Y9725900D01*
X28560000Y9751386D01*
X28301235Y9725900D01*
X28052414Y9650421D01*
X27823099Y9527850D01*
X27622103Y9362897D01*
X27457150Y9161900D01*
X27334579Y8932585D01*
X27290000Y8785628D01*
X27245421Y8932586D01*
X27122850Y9161901D01*
X26957897Y9362897D01*
X26756900Y9527850D01*
X26527585Y9650421D01*
X26278764Y9725900D01*
X26020000Y9751386D01*
X25761235Y9725900D01*
X25512414Y9650421D01*
X25283099Y9527850D01*
X25082103Y9362897D01*
X24917150Y9161900D01*
X24794579Y8932585D01*
X24750000Y8785628D01*
X24705421Y8932586D01*
X24582850Y9161901D01*
X24417897Y9362897D01*
X24216900Y9527850D01*
X24080000Y9601024D01*
X24080000Y10031473D01*
X29548528Y15500000D01*
X31206486Y15500000D01*
X31266724Y15439762D01*
X31405942Y15346740D01*
X31560632Y15282665D01*
X31724850Y15250000D01*
X31892286Y15250000D01*
X32056504Y15282665D01*
X32211194Y15346740D01*
X32350412Y15439762D01*
X32468806Y15558156D01*
X32561828Y15697374D01*
X32625903Y15852064D01*
X32658568Y16016282D01*
X32658568Y16183718D01*
X32625903Y16347936D01*
X32561828Y16502626D01*
X32468806Y16641844D01*
X32350412Y16760238D01*
X32211194Y16853260D01*
X32056504Y16917335D01*
X31892286Y16950000D01*
X31724850Y16950000D01*
X31560632Y16917335D01*
X31405942Y16853260D01*
X31266724Y16760238D01*
X31206486Y16700000D01*
X29329474Y16700000D01*
X29300000Y16702903D01*
X29270526Y16700000D01*
X29182379Y16691318D01*
X29069279Y16657010D01*
X28965045Y16601296D01*
X28873683Y16526317D01*
X28854891Y16503419D01*
X23076582Y10725109D01*
X23053684Y10706317D01*
X22978705Y10614955D01*
X22952028Y10565046D01*
X22922991Y10510721D01*
X22888682Y10397620D01*
X22877097Y10280000D01*
X22880001Y10250517D01*
X22880001Y9601025D01*
X22743099Y9527850D01*
X22542103Y9362897D01*
X22377150Y9161900D01*
X22254579Y8932585D01*
X22210000Y8785628D01*
X22165421Y8932586D01*
X22042850Y9161901D01*
X21877897Y9362897D01*
X21676900Y9527850D01*
X21540000Y9601024D01*
X21540000Y10437189D01*
X26352812Y15250000D01*
X26438002Y15250000D01*
X26602220Y15282665D01*
X26756910Y15346740D01*
X26896128Y15439762D01*
X27014522Y15558156D01*
X27107544Y15697374D01*
X27171619Y15852064D01*
X27204284Y16016282D01*
X27204284Y16183718D01*
X27171619Y16347936D01*
X27107544Y16502626D01*
X27014522Y16641844D01*
X26896128Y16760238D01*
X26756910Y16853260D01*
X26602220Y16917335D01*
X26438002Y16950000D01*
X26270566Y16950000D01*
X26106348Y16917335D01*
X25951658Y16853260D01*
X25812440Y16760238D01*
X25694046Y16641844D01*
X25601024Y16502626D01*
X25536949Y16347936D01*
X25504284Y16183718D01*
X25504284Y16098528D01*
X20536586Y11130829D01*
X20513683Y11112033D01*
X20438704Y11020670D01*
X20382990Y10916436D01*
X20369304Y10871318D01*
X20348682Y10803336D01*
X20337097Y10685716D01*
X20340000Y10656242D01*
X20340000Y9601025D01*
X20203099Y9527850D01*
X20002103Y9362897D01*
X19837150Y9161900D01*
X19722177Y8946800D01*
X19722177Y9045001D01*
X19708685Y9181989D01*
X19668727Y9313712D01*
X19603839Y9435109D01*
X19516514Y9541514D01*
X19410109Y9628839D01*
X19288712Y9693727D01*
X19156989Y9733685D01*
X19020001Y9747177D01*
X19000000Y9747177D01*
X19000000Y10651473D01*
X21303420Y12954892D01*
X21326317Y12973683D01*
X21401296Y13065045D01*
X21457010Y13169279D01*
X21491318Y13282379D01*
X21500000Y13370526D01*
X21500000Y13370527D01*
X21502903Y13400000D01*
X21500000Y13429474D01*
X21500000Y15497918D01*
X21560238Y15558156D01*
X21653260Y15697374D01*
X21717335Y15852064D01*
X21750000Y16016282D01*
X21750000Y16183718D01*
X21717335Y16347936D01*
X21653260Y16502626D01*
X21560238Y16641844D01*
X21441844Y16760238D01*
X21302626Y16853260D01*
X21147936Y16917335D01*
X20983718Y16950000D01*
X20816282Y16950000D01*
X20652064Y16917335D01*
X20497374Y16853260D01*
X20358156Y16760238D01*
X20239762Y16641844D01*
X20146740Y16502626D01*
X20082665Y16347936D01*
X20050000Y16183718D01*
X20050000Y16016282D01*
X20082665Y15852064D01*
X20146740Y15697374D01*
X20239762Y15558156D01*
X20300001Y15497917D01*
X20300000Y13648528D01*
X17996582Y11345109D01*
X17973684Y11326317D01*
X17898705Y11234955D01*
X17873079Y11187012D01*
X17842991Y11130721D01*
X17808682Y11017620D01*
X17797097Y10900000D01*
X17800001Y10870517D01*
X17800001Y9747177D01*
X17779999Y9747177D01*
X17643011Y9733685D01*
X17511288Y9693727D01*
X17389891Y9628839D01*
X17283486Y9541514D01*
X17196161Y9435109D01*
X17131273Y9313712D01*
X17091315Y9181989D01*
X17077823Y9045001D01*
X17077823Y7354999D01*
X17091315Y7218011D01*
X17131273Y7086288D01*
X17196161Y6964891D01*
X17283486Y6858486D01*
X17389891Y6771161D01*
X17511288Y6706273D01*
X17643011Y6666315D01*
X17779999Y6652823D01*
X19020001Y6652823D01*
X19156989Y6666315D01*
X19288712Y6706273D01*
X19410109Y6771161D01*
X19516514Y6858486D01*
X19603839Y6964891D01*
X19668727Y7086288D01*
X19708685Y7218011D01*
X19722177Y7354999D01*
X19722177Y7453199D01*
X19837150Y7238099D01*
X20002104Y7037103D01*
X20203100Y6872150D01*
X20340001Y6798975D01*
X20340001Y6189483D01*
X20337097Y6160000D01*
X20348682Y6042380D01*
X20378190Y5945105D01*
X20382991Y5929279D01*
X20438705Y5825045D01*
X20513684Y5733683D01*
X20536582Y5714891D01*
X22404891Y3846581D01*
X22423683Y3823683D01*
X22515045Y3748704D01*
X22619279Y3692990D01*
X22711403Y3665045D01*
X22732379Y3658682D01*
X22850000Y3647097D01*
X22879474Y3650000D01*
X40820526Y3650000D01*
X40850000Y3647097D01*
X40879474Y3650000D01*
X40967621Y3658682D01*
X41080721Y3692990D01*
X41184955Y3748704D01*
X41276317Y3823683D01*
X41295113Y3846586D01*
X42503420Y5054892D01*
X42526317Y5073683D01*
X42601296Y5165045D01*
X42657010Y5269279D01*
X42691318Y5382379D01*
X42700000Y5470526D01*
X42700000Y5470527D01*
X42702903Y5500000D01*
X42700000Y5529474D01*
X42700000Y6201907D01*
X63950000Y6201907D01*
X63950000Y5798093D01*
X64028780Y5402037D01*
X64183314Y5028961D01*
X64407661Y4693201D01*
X64693201Y4407661D01*
X65028961Y4183314D01*
X65402037Y4028780D01*
X65798093Y3950000D01*
X66201907Y3950000D01*
X66597963Y4028780D01*
X66971039Y4183314D01*
X67306799Y4407661D01*
X67592339Y4693201D01*
X67816686Y5028961D01*
X67971220Y5402037D01*
X68050000Y5798093D01*
X68050000Y6201907D01*
X67971220Y6597963D01*
X67816686Y6971039D01*
X67592339Y7306799D01*
X67306799Y7592339D01*
X66971039Y7816686D01*
X66597963Y7971220D01*
X66201907Y8050000D01*
X65798093Y8050000D01*
X65402037Y7971220D01*
X65028961Y7816686D01*
X64693201Y7592339D01*
X64407661Y7306799D01*
X64183314Y6971039D01*
X64028780Y6597963D01*
X63950000Y6201907D01*
X42700000Y6201907D01*
X42700000Y7105000D01*
X45677816Y7105000D01*
X45690520Y6976009D01*
X45728146Y6851976D01*
X45789246Y6737666D01*
X45871472Y6637472D01*
X45971666Y6555246D01*
X46085976Y6494146D01*
X46210009Y6456520D01*
X46339000Y6443816D01*
X46694500Y6447000D01*
X46859000Y6611500D01*
X46859000Y7850000D01*
X45845500Y7850000D01*
X45681000Y7685500D01*
X45677816Y7105000D01*
X42700000Y7105000D01*
X42700000Y9295000D01*
X45677816Y9295000D01*
X45681000Y8714500D01*
X45845500Y8550000D01*
X46859000Y8550000D01*
X46859000Y9788500D01*
X47559000Y9788500D01*
X47559000Y8550000D01*
X47579000Y8550000D01*
X47579000Y7850000D01*
X47559000Y7850000D01*
X47559000Y6611500D01*
X47723500Y6447000D01*
X48079000Y6443816D01*
X48207991Y6456520D01*
X48332024Y6494146D01*
X48446334Y6555246D01*
X48546528Y6637472D01*
X48628754Y6737666D01*
X48689854Y6851976D01*
X48727480Y6976009D01*
X48740184Y7105000D01*
X48740082Y7123643D01*
X48811104Y7037103D01*
X49012100Y6872150D01*
X49241415Y6749579D01*
X49490236Y6674100D01*
X49749000Y6648614D01*
X50007765Y6674100D01*
X50256586Y6749579D01*
X50485901Y6872150D01*
X50686897Y7037103D01*
X50851850Y7238099D01*
X50974421Y7467415D01*
X51019000Y7614372D01*
X51063579Y7467414D01*
X51186150Y7238099D01*
X51351104Y7037103D01*
X51552100Y6872150D01*
X51781415Y6749579D01*
X52030236Y6674100D01*
X52289000Y6648614D01*
X52547765Y6674100D01*
X52796586Y6749579D01*
X53025901Y6872150D01*
X53226897Y7037103D01*
X53391850Y7238099D01*
X53514421Y7467415D01*
X53559000Y7614372D01*
X53603579Y7467414D01*
X53726150Y7238099D01*
X53891104Y7037103D01*
X54092100Y6872150D01*
X54321415Y6749579D01*
X54570236Y6674100D01*
X54829000Y6648614D01*
X55087765Y6674100D01*
X55336586Y6749579D01*
X55565901Y6872150D01*
X55766897Y7037103D01*
X55931850Y7238099D01*
X56054421Y7467415D01*
X56129900Y7716236D01*
X56149000Y7910163D01*
X56149000Y8489838D01*
X56129900Y8683765D01*
X56054421Y8932586D01*
X55931850Y9161901D01*
X55766897Y9362897D01*
X55565900Y9527850D01*
X55336585Y9650421D01*
X55087764Y9725900D01*
X54829000Y9751386D01*
X54570235Y9725900D01*
X54321414Y9650421D01*
X54092099Y9527850D01*
X53891103Y9362897D01*
X53726150Y9161900D01*
X53603579Y8932585D01*
X53559000Y8785628D01*
X53514421Y8932586D01*
X53391850Y9161901D01*
X53226897Y9362897D01*
X53025900Y9527850D01*
X52796585Y9650421D01*
X52547764Y9725900D01*
X52289000Y9751386D01*
X52030235Y9725900D01*
X51781414Y9650421D01*
X51552099Y9527850D01*
X51351103Y9362897D01*
X51186150Y9161900D01*
X51063579Y8932585D01*
X51019000Y8785628D01*
X50974421Y8932586D01*
X50851850Y9161901D01*
X50686897Y9362897D01*
X50485900Y9527850D01*
X50256585Y9650421D01*
X50007764Y9725900D01*
X49749000Y9751386D01*
X49490235Y9725900D01*
X49241414Y9650421D01*
X49012099Y9527850D01*
X48811103Y9362897D01*
X48740082Y9276357D01*
X48740184Y9295000D01*
X48727480Y9423991D01*
X48689854Y9548024D01*
X48628754Y9662334D01*
X48546528Y9762528D01*
X48446334Y9844754D01*
X48332024Y9905854D01*
X48207991Y9943480D01*
X48079000Y9956184D01*
X47723500Y9953000D01*
X47559000Y9788500D01*
X46859000Y9788500D01*
X46694500Y9953000D01*
X46339000Y9956184D01*
X46210009Y9943480D01*
X46085976Y9905854D01*
X45971666Y9844754D01*
X45871472Y9762528D01*
X45789246Y9662334D01*
X45728146Y9548024D01*
X45690520Y9423991D01*
X45677816Y9295000D01*
X42700000Y9295000D01*
X42700000Y10870527D01*
X42702903Y10900001D01*
X42691318Y11017621D01*
X42680102Y11054596D01*
X42657010Y11130721D01*
X42601296Y11234955D01*
X42526317Y11326317D01*
X42503419Y11345109D01*
X41645113Y12203414D01*
X41626317Y12226317D01*
X41534955Y12301296D01*
X41430721Y12357010D01*
X41317621Y12391318D01*
X41302177Y12392839D01*
X41302177Y12650000D01*
X41297253Y12700000D01*
X50145404Y12700000D01*
X50163746Y12513768D01*
X50218068Y12334692D01*
X50306282Y12169655D01*
X50424999Y12024999D01*
X50569655Y11906282D01*
X50734692Y11818068D01*
X50913768Y11763746D01*
X51053335Y11750000D01*
X57453346Y11750000D01*
X57500000Y11745405D01*
X57546654Y11750000D01*
X57546665Y11750000D01*
X57686232Y11763746D01*
X57865308Y11818068D01*
X58030345Y11906282D01*
X58175001Y12024999D01*
X58204750Y12061248D01*
X59132143Y12988641D01*
X59132143Y9427500D01*
X72667857Y9427500D01*
X72667857Y13677500D01*
X59452379Y13677500D01*
X59454595Y13700000D01*
X59450000Y13746657D01*
X59450000Y25046665D01*
X59436254Y25186232D01*
X59381932Y25365308D01*
X59293718Y25530345D01*
X59175001Y25675001D01*
X59030345Y25793718D01*
X58865307Y25881932D01*
X58686231Y25936254D01*
X58500000Y25954596D01*
X58313768Y25936254D01*
X58134692Y25881932D01*
X57969655Y25793718D01*
X57824999Y25675001D01*
X57706282Y25530345D01*
X57618068Y25365307D01*
X57563746Y25186231D01*
X57550000Y25046664D01*
X57550001Y14093503D01*
X57106498Y13650000D01*
X51053335Y13650000D01*
X50913768Y13636254D01*
X50734692Y13581932D01*
X50569655Y13493718D01*
X50424999Y13375001D01*
X50306282Y13230345D01*
X50218068Y13065308D01*
X50163746Y12886232D01*
X50145404Y12700000D01*
X41297253Y12700000D01*
X41293489Y12738215D01*
X41267757Y12823041D01*
X41225971Y12901216D01*
X41169737Y12969737D01*
X41101216Y13025971D01*
X41023041Y13067757D01*
X40938215Y13093489D01*
X40850000Y13102177D01*
X39150000Y13102177D01*
X39061785Y13093489D01*
X38976959Y13067757D01*
X38898784Y13025971D01*
X38830263Y12969737D01*
X38774029Y12901216D01*
X38732243Y12823041D01*
X38706511Y12738215D01*
X38697823Y12650000D01*
X38697823Y10950000D01*
X38706511Y10861785D01*
X38732243Y10776959D01*
X38774029Y10698784D01*
X38830263Y10630263D01*
X38898784Y10574029D01*
X38976959Y10532243D01*
X39061785Y10506511D01*
X39150000Y10497823D01*
X39591305Y10497823D01*
X39384219Y10412045D01*
X39171298Y10269776D01*
X38990224Y10088702D01*
X38847955Y9875781D01*
X38749958Y9639196D01*
X38700000Y9388039D01*
X38700000Y9131961D01*
X38749958Y8880804D01*
X38847955Y8644219D01*
X38990224Y8431298D01*
X39171298Y8250224D01*
X39384219Y8107955D01*
X39620804Y8009958D01*
X39721140Y7990000D01*
X39620804Y7970042D01*
X39384219Y7872045D01*
X39171298Y7729776D01*
X38990224Y7548702D01*
X38847955Y7335781D01*
X38749958Y7099196D01*
X38700000Y6848039D01*
X38700000Y6591961D01*
X38749958Y6340804D01*
X38756495Y6325022D01*
X38531473Y6100000D01*
X27348528Y6100000D01*
X26639258Y6809269D01*
X26756901Y6872150D01*
X26957897Y7037103D01*
X27122850Y7238099D01*
X27245421Y7467415D01*
X27290000Y7614372D01*
X27334579Y7467414D01*
X27457150Y7238099D01*
X27622104Y7037103D01*
X27823100Y6872150D01*
X28052415Y6749579D01*
X28301236Y6674100D01*
X28560000Y6648614D01*
X28818765Y6674100D01*
X29067586Y6749579D01*
X29296901Y6872150D01*
X29497897Y7037103D01*
X29662850Y7238099D01*
X29785421Y7467415D01*
X29830000Y7614372D01*
X29874579Y7467414D01*
X29997150Y7238099D01*
X30162104Y7037103D01*
X30363100Y6872150D01*
X30592415Y6749579D01*
X30841236Y6674100D01*
X31100000Y6648614D01*
X31358765Y6674100D01*
X31607586Y6749579D01*
X31836901Y6872150D01*
X32037897Y7037103D01*
X32202850Y7238099D01*
X32259560Y7344197D01*
X32263198Y7333835D01*
X32414738Y7077554D01*
X32613364Y6855761D01*
X32851443Y6676980D01*
X33061632Y6560689D01*
X33290000Y6657187D01*
X33290000Y7850000D01*
X33990000Y7850000D01*
X33990000Y6657187D01*
X34218368Y6560689D01*
X34428557Y6676980D01*
X34666636Y6855761D01*
X34865262Y7077554D01*
X35016802Y7333835D01*
X35115432Y7614756D01*
X34989121Y7850000D01*
X33990000Y7850000D01*
X33290000Y7850000D01*
X33270000Y7850000D01*
X33270000Y8550000D01*
X33290000Y8550000D01*
X33290000Y9742813D01*
X33990000Y9742813D01*
X33990000Y8550000D01*
X34989121Y8550000D01*
X35115432Y8785244D01*
X35016802Y9066165D01*
X34865262Y9322446D01*
X34666636Y9544239D01*
X34428557Y9723020D01*
X34218368Y9839311D01*
X33990000Y9742813D01*
X33290000Y9742813D01*
X33061632Y9839311D01*
X32851443Y9723020D01*
X32613364Y9544239D01*
X32414738Y9322446D01*
X32263198Y9066165D01*
X32259560Y9055803D01*
X32202850Y9161901D01*
X32050000Y9348149D01*
X32050000Y9706498D01*
X37638757Y15295254D01*
X37675001Y15324999D01*
X37793718Y15469655D01*
X37881932Y15634692D01*
X37936254Y15813768D01*
X37950000Y15953335D01*
X37950000Y15953345D01*
X37954595Y15999999D01*
X37950000Y16046654D01*
X37950000Y19606498D01*
X39293503Y20950000D01*
X41853346Y20950000D01*
X41900000Y20945405D01*
X41946654Y20950000D01*
X41946665Y20950000D01*
X42086232Y20963746D01*
X42265308Y21018068D01*
X42430345Y21106282D01*
X42575001Y21224999D01*
X42604750Y21261248D01*
X44028706Y22685204D01*
X44018068Y22665302D01*
X43963746Y22486226D01*
X43945404Y22299994D01*
X43963746Y22113762D01*
X44018068Y21934686D01*
X44106282Y21769649D01*
X44224999Y21624993D01*
X44369655Y21506276D01*
X44534692Y21418062D01*
X44713768Y21363740D01*
X44853335Y21349994D01*
X49153340Y21349994D01*
X49199994Y21345399D01*
X49246648Y21349994D01*
X49246659Y21349994D01*
X49386226Y21363740D01*
X49565302Y21418062D01*
X49730339Y21506276D01*
X49874995Y21624993D01*
X49904744Y21661242D01*
X53193503Y24950000D01*
X55115346Y24950000D01*
X55162000Y24945405D01*
X55208654Y24950000D01*
X55208665Y24950000D01*
X55348232Y24963746D01*
X55527308Y25018068D01*
X55692345Y25106282D01*
X55837001Y25224999D01*
X55866750Y25261248D01*
X57104748Y26499245D01*
X57193717Y26607654D01*
X57281931Y26772691D01*
X57336253Y26951766D01*
X57354595Y27137999D01*
X57336253Y27324232D01*
X57281931Y27503308D01*
X57193717Y27668345D01*
X57075001Y27813001D01*
X56930345Y27931717D01*
X56765308Y28019931D01*
X56586232Y28074253D01*
X56399999Y28092595D01*
X56213766Y28074253D01*
X56034691Y28019931D01*
X55869654Y27931717D01*
X55761245Y27842748D01*
X54768498Y26850000D01*
X52846654Y26850000D01*
X52799999Y26854595D01*
X52753344Y26850000D01*
X52753335Y26850000D01*
X52613768Y26836254D01*
X52434692Y26781932D01*
X52269655Y26693718D01*
X52269653Y26693717D01*
X52269654Y26693717D01*
X52161245Y26604748D01*
X52161242Y26604745D01*
X52124999Y26575001D01*
X52095254Y26538757D01*
X48806492Y23249994D01*
X44853335Y23249994D01*
X44713768Y23236248D01*
X44534692Y23181926D01*
X44514790Y23171288D01*
X46338752Y24995250D01*
X46375001Y25024999D01*
X46493718Y25169655D01*
X46553736Y25281940D01*
X46581932Y25334691D01*
X46636254Y25513767D01*
X46639019Y25541844D01*
X46650000Y25653335D01*
X46650000Y25653343D01*
X46654595Y25700000D01*
X46650000Y25746657D01*
X46650000Y28193343D01*
X46654595Y28240000D01*
X46650000Y28286657D01*
X46650000Y28286665D01*
X46636254Y28426232D01*
X46581932Y28605308D01*
X46493718Y28770345D01*
X46375001Y28915001D01*
X46338757Y28944746D01*
X42483502Y32800000D01*
X43655231Y32800000D01*
X43633665Y32747936D01*
X43601000Y32583718D01*
X43601000Y32416282D01*
X43633665Y32252064D01*
X43697740Y32097374D01*
X43790762Y31958156D01*
X43909156Y31839762D01*
X44048374Y31746740D01*
X44203064Y31682665D01*
X44367282Y31650000D01*
X44534718Y31650000D01*
X44698936Y31682665D01*
X44853626Y31746740D01*
X44992844Y31839762D01*
X45111238Y31958156D01*
X45204260Y32097374D01*
X45268335Y32252064D01*
X45276500Y32293112D01*
X45284665Y32252064D01*
X45348740Y32097374D01*
X45441762Y31958156D01*
X45560156Y31839762D01*
X45699374Y31746740D01*
X45854064Y31682665D01*
X46018282Y31650000D01*
X46185718Y31650000D01*
X46349936Y31682665D01*
X46504626Y31746740D01*
X46643844Y31839762D01*
X46762238Y31958156D01*
X46855260Y32097374D01*
X46856347Y32100000D01*
X49245405Y32100000D01*
X49250000Y32053346D01*
X49250000Y31253336D01*
X49263746Y31113769D01*
X49318068Y30934693D01*
X49406282Y30769655D01*
X49524999Y30624999D01*
X49669655Y30506282D01*
X49834692Y30418068D01*
X50013768Y30363746D01*
X50200000Y30345404D01*
X50386231Y30363746D01*
X50565307Y30418068D01*
X50730345Y30506282D01*
X50875001Y30624999D01*
X50993718Y30769655D01*
X51081932Y30934692D01*
X51136254Y31113768D01*
X51150000Y31253335D01*
X51150000Y31706498D01*
X52193503Y32750000D01*
X55446665Y32750000D01*
X55586232Y32763746D01*
X55765308Y32818068D01*
X55930345Y32906282D01*
X56075001Y33024999D01*
X56193718Y33169655D01*
X56281932Y33334692D01*
X56336254Y33513768D01*
X56354596Y33700000D01*
X56336254Y33886232D01*
X56281932Y34065308D01*
X56193718Y34230345D01*
X56075001Y34375001D01*
X56021220Y34419138D01*
X56060238Y34458156D01*
X56153260Y34597374D01*
X56217335Y34752064D01*
X56250000Y34916282D01*
X56250000Y35083718D01*
X56217335Y35247936D01*
X56153260Y35402626D01*
X56060238Y35541844D01*
X55977082Y35625000D01*
X56060238Y35708156D01*
X56153260Y35847374D01*
X56217335Y36002064D01*
X56250000Y36166282D01*
X56250000Y36333718D01*
X56217335Y36497936D01*
X56153260Y36652626D01*
X56060238Y36791844D01*
X55941844Y36910238D01*
X55802626Y37003260D01*
X55647936Y37067335D01*
X55483718Y37100000D01*
X55316282Y37100000D01*
X55152064Y37067335D01*
X54997374Y37003260D01*
X54858156Y36910238D01*
X54739762Y36791844D01*
X54646740Y36652626D01*
X54582665Y36497936D01*
X54550000Y36333718D01*
X54550000Y36166282D01*
X54582665Y36002064D01*
X54646740Y35847374D01*
X54739762Y35708156D01*
X54822918Y35625000D01*
X54739762Y35541844D01*
X54646740Y35402626D01*
X54582665Y35247936D01*
X54550000Y35083718D01*
X54550000Y34916282D01*
X54582665Y34752064D01*
X54624941Y34650000D01*
X51846657Y34650000D01*
X51800000Y34654595D01*
X51753343Y34650000D01*
X51753335Y34650000D01*
X51629720Y34637825D01*
X51613767Y34636254D01*
X51434691Y34581932D01*
X51374951Y34550000D01*
X51269655Y34493718D01*
X51269653Y34493717D01*
X51269654Y34493717D01*
X51161245Y34404748D01*
X51161242Y34404745D01*
X51124999Y34375001D01*
X51095254Y34338757D01*
X49561243Y32804745D01*
X49525000Y32775001D01*
X49495256Y32738758D01*
X49495252Y32738754D01*
X49406592Y32630721D01*
X49406283Y32630345D01*
X49318069Y32465308D01*
X49263747Y32286232D01*
X49250000Y32146665D01*
X49250000Y32146654D01*
X49245405Y32100000D01*
X46856347Y32100000D01*
X46919335Y32252064D01*
X46952000Y32416282D01*
X46952000Y32583718D01*
X46919335Y32747936D01*
X46897769Y32800000D01*
X48250000Y32800000D01*
X48337791Y32808647D01*
X48422208Y32834254D01*
X48500007Y32875839D01*
X48568198Y32931802D01*
X48624161Y32999993D01*
X48665746Y33077792D01*
X48691353Y33162209D01*
X48700000Y33250000D01*
X48700000Y37250000D01*
X48691353Y37337791D01*
X48665746Y37422208D01*
X48624161Y37500007D01*
X48568198Y37568198D01*
X45652880Y40483516D01*
X45715276Y40534724D01*
X45797107Y40634435D01*
X45857913Y40748194D01*
X45895357Y40871631D01*
X45908000Y41000000D01*
X45908000Y42051000D01*
X56984823Y42051000D01*
X56984823Y40051000D01*
X56993511Y39962785D01*
X57019243Y39877959D01*
X57061029Y39799784D01*
X57117263Y39731263D01*
X57185784Y39675029D01*
X57263959Y39633243D01*
X57348785Y39607511D01*
X57437000Y39598823D01*
X59437000Y39598823D01*
X59525215Y39607511D01*
X59610041Y39633243D01*
X59688216Y39675029D01*
X59756737Y39731263D01*
X59789368Y39771024D01*
X62651998Y39771024D01*
X62762746Y39527514D01*
X63072919Y39425247D01*
X63397084Y39385457D01*
X63722782Y39409673D01*
X64037498Y39496964D01*
X64111254Y39527514D01*
X64222002Y39771024D01*
X63437000Y40556025D01*
X62651998Y39771024D01*
X59789368Y39771024D01*
X59812971Y39799784D01*
X59854757Y39877959D01*
X59880489Y39962785D01*
X59889177Y40051000D01*
X59889177Y41090916D01*
X61771457Y41090916D01*
X61795673Y40765218D01*
X61882964Y40450502D01*
X61913514Y40376746D01*
X62157024Y40265998D01*
X62942025Y41051000D01*
X63931975Y41051000D01*
X64716976Y40265998D01*
X64960486Y40376746D01*
X65062753Y40686919D01*
X65102543Y41011084D01*
X65078327Y41336782D01*
X64991036Y41651498D01*
X64960486Y41725254D01*
X64716976Y41836002D01*
X63931975Y41051000D01*
X62942025Y41051000D01*
X62157024Y41836002D01*
X61913514Y41725254D01*
X61811247Y41415081D01*
X61771457Y41090916D01*
X59889177Y41090916D01*
X59889177Y42051000D01*
X59880489Y42139215D01*
X59854757Y42224041D01*
X59812971Y42302216D01*
X59789369Y42330976D01*
X62651998Y42330976D01*
X63437000Y41545975D01*
X64222002Y42330976D01*
X64111254Y42574486D01*
X63801081Y42676753D01*
X63476916Y42716543D01*
X63151218Y42692327D01*
X62836502Y42605036D01*
X62762746Y42574486D01*
X62651998Y42330976D01*
X59789369Y42330976D01*
X59756737Y42370737D01*
X59688216Y42426971D01*
X59610041Y42468757D01*
X59525215Y42494489D01*
X59437000Y42503177D01*
X57437000Y42503177D01*
X57348785Y42494489D01*
X57263959Y42468757D01*
X57185784Y42426971D01*
X57117263Y42370737D01*
X57061029Y42302216D01*
X57019243Y42224041D01*
X56993511Y42139215D01*
X56984823Y42051000D01*
X45908000Y42051000D01*
X45908000Y51000000D01*
X45895357Y51128369D01*
X45857913Y51251806D01*
X45797107Y51365565D01*
X45715276Y51465276D01*
X45615565Y51547107D01*
X45501806Y51607913D01*
X45378369Y51645357D01*
X45250000Y51658000D01*
X32250000Y51658000D01*
X32121631Y51645357D01*
X31998194Y51607913D01*
X31884435Y51547107D01*
X31784724Y51465276D01*
X31702893Y51365565D01*
X31642087Y51251806D01*
X31604643Y51128369D01*
X31592000Y51000000D01*
X31592000Y41000000D01*
X31604643Y40871631D01*
X31642087Y40748194D01*
X31667847Y40700000D01*
X30582153Y40700000D01*
X30607913Y40748194D01*
X30645357Y40871631D01*
X30658000Y41000000D01*
X30658000Y51000000D01*
X30645357Y51128369D01*
X30607913Y51251806D01*
X30547107Y51365565D01*
X30465276Y51465276D01*
X30365565Y51547107D01*
X30251806Y51607913D01*
X30128369Y51645357D01*
X30000000Y51658000D01*
X16250000Y51658000D01*
X16121631Y51645357D01*
X15998194Y51607913D01*
X15884435Y51547107D01*
X15784724Y51465276D01*
X15702893Y51365565D01*
X15642087Y51251806D01*
X15604643Y51128369D01*
X15592000Y51000000D01*
X15592000Y41000000D01*
X15604643Y40871631D01*
X15642087Y40748194D01*
X15702893Y40634435D01*
X15784724Y40534724D01*
X15884435Y40452893D01*
X15998194Y40392087D01*
X16121631Y40354643D01*
X16250000Y40342000D01*
X26309924Y40342000D01*
X26308647Y40337791D01*
X26300000Y40250000D01*
X26300000Y38293503D01*
X25154750Y39438752D01*
X25125001Y39475001D01*
X24980345Y39593718D01*
X24815308Y39681932D01*
X24636232Y39736254D01*
X24496665Y39750000D01*
X24496654Y39750000D01*
X24450000Y39754595D01*
X24403346Y39750000D01*
X14353335Y39750000D01*
X14213768Y39736254D01*
X14034692Y39681932D01*
X13869655Y39593718D01*
X13724999Y39475001D01*
X13606282Y39330345D01*
X13518068Y39165308D01*
X13463746Y38986232D01*
X13445404Y38800000D01*
X600000Y38800000D01*
X600000Y56201907D01*
X7950000Y56201907D01*
X7950000Y55798093D01*
X8028780Y55402037D01*
X8183314Y55028961D01*
X8407661Y54693201D01*
X8693201Y54407661D01*
X9028961Y54183314D01*
X9402037Y54028780D01*
X9798093Y53950000D01*
X10201907Y53950000D01*
X10597963Y54028780D01*
X10971039Y54183314D01*
X10996011Y54200000D01*
X22038816Y54200000D01*
X22051520Y54071009D01*
X22089146Y53946976D01*
X22150246Y53832666D01*
X22232472Y53732472D01*
X22332666Y53650246D01*
X22446976Y53589146D01*
X22571009Y53551520D01*
X22700000Y53538816D01*
X23085500Y53542000D01*
X23250000Y53706500D01*
X23250000Y55650000D01*
X23950000Y55650000D01*
X23950000Y53706500D01*
X24114500Y53542000D01*
X24500000Y53538816D01*
X24628991Y53551520D01*
X24753024Y53589146D01*
X24867334Y53650246D01*
X24967528Y53732472D01*
X25049754Y53832666D01*
X25110854Y53946976D01*
X25148480Y54071009D01*
X25161184Y54200000D01*
X25158000Y55485500D01*
X24993500Y55650000D01*
X23950000Y55650000D01*
X23250000Y55650000D01*
X22206500Y55650000D01*
X22042000Y55485500D01*
X22038816Y54200000D01*
X10996011Y54200000D01*
X11306799Y54407661D01*
X11592339Y54693201D01*
X11816686Y55028961D01*
X11971220Y55402037D01*
X12050000Y55798093D01*
X12050000Y56201907D01*
X11971220Y56597963D01*
X11816686Y56971039D01*
X11592339Y57306799D01*
X11306799Y57592339D01*
X10996012Y57800000D01*
X22038816Y57800000D01*
X22042000Y56514500D01*
X22206500Y56350000D01*
X23250000Y56350000D01*
X23250000Y58293500D01*
X23950000Y58293500D01*
X23950000Y56350000D01*
X24993500Y56350000D01*
X25158000Y56514500D01*
X25159119Y56966320D01*
X27330000Y56966320D01*
X27330000Y55033679D01*
X27349534Y54835354D01*
X27426729Y54580878D01*
X27552086Y54346351D01*
X27720788Y54140787D01*
X27926352Y53972085D01*
X28160879Y53846728D01*
X28415355Y53769533D01*
X28680000Y53743468D01*
X28944646Y53769533D01*
X29199122Y53846728D01*
X29433649Y53972085D01*
X29639213Y54140787D01*
X29807915Y54346351D01*
X29933272Y54580878D01*
X30010467Y54835354D01*
X30030000Y55033679D01*
X30030000Y56966321D01*
X30010467Y57164646D01*
X29933272Y57419122D01*
X29863317Y57550000D01*
X32447823Y57550000D01*
X32447823Y54450000D01*
X32461315Y54313012D01*
X32501273Y54181288D01*
X32566161Y54059891D01*
X32653486Y53953486D01*
X32759891Y53866161D01*
X32881288Y53801273D01*
X33013012Y53761315D01*
X33150000Y53747823D01*
X34450000Y53747823D01*
X34586988Y53761315D01*
X34718712Y53801273D01*
X34840109Y53866161D01*
X34946514Y53953486D01*
X35033839Y54059891D01*
X35098727Y54181288D01*
X35138685Y54313012D01*
X35152177Y54450000D01*
X35152177Y55650000D01*
X37322000Y55650000D01*
X37322000Y54750000D01*
X37420218Y54452774D01*
X37574535Y54180421D01*
X37779020Y53943407D01*
X38025815Y53750840D01*
X38296814Y53655265D01*
X38530000Y53751170D01*
X38530000Y55650000D01*
X39230000Y55650000D01*
X39230000Y53751170D01*
X39463186Y53655265D01*
X39734185Y53750840D01*
X39980980Y53943407D01*
X40185465Y54180421D01*
X40339782Y54452774D01*
X40438000Y54750000D01*
X40438000Y55650000D01*
X39230000Y55650000D01*
X38530000Y55650000D01*
X37322000Y55650000D01*
X35152177Y55650000D01*
X35152177Y57250000D01*
X37322000Y57250000D01*
X37322000Y56350000D01*
X38530000Y56350000D01*
X38530000Y58248830D01*
X39230000Y58248830D01*
X39230000Y56350000D01*
X40438000Y56350000D01*
X40438000Y57250000D01*
X40339782Y57547226D01*
X40338211Y57550000D01*
X50647823Y57550000D01*
X50647823Y54450000D01*
X50661315Y54313012D01*
X50701273Y54181288D01*
X50766161Y54059891D01*
X50853486Y53953486D01*
X50959891Y53866161D01*
X51081288Y53801273D01*
X51213012Y53761315D01*
X51350000Y53747823D01*
X52650000Y53747823D01*
X52786988Y53761315D01*
X52918712Y53801273D01*
X53040109Y53866161D01*
X53146514Y53953486D01*
X53233839Y54059891D01*
X53298727Y54181288D01*
X53338685Y54313012D01*
X53352177Y54450000D01*
X53352177Y55650000D01*
X55522000Y55650000D01*
X55522000Y54750000D01*
X55620218Y54452774D01*
X55774535Y54180421D01*
X55979020Y53943407D01*
X56225815Y53750840D01*
X56496814Y53655265D01*
X56730000Y53751170D01*
X56730000Y55650000D01*
X57430000Y55650000D01*
X57430000Y53751170D01*
X57663186Y53655265D01*
X57934185Y53750840D01*
X58180980Y53943407D01*
X58385465Y54180421D01*
X58539782Y54452774D01*
X58638000Y54750000D01*
X58638000Y55650000D01*
X57430000Y55650000D01*
X56730000Y55650000D01*
X55522000Y55650000D01*
X53352177Y55650000D01*
X53352177Y56201907D01*
X63950000Y56201907D01*
X63950000Y55798093D01*
X64028780Y55402037D01*
X64183314Y55028961D01*
X64407661Y54693201D01*
X64693201Y54407661D01*
X65028961Y54183314D01*
X65402037Y54028780D01*
X65798093Y53950000D01*
X66201907Y53950000D01*
X66597963Y54028780D01*
X66971039Y54183314D01*
X67306799Y54407661D01*
X67592339Y54693201D01*
X67816686Y55028961D01*
X67971220Y55402037D01*
X68050000Y55798093D01*
X68050000Y56201907D01*
X67971220Y56597963D01*
X67816686Y56971039D01*
X67592339Y57306799D01*
X67306799Y57592339D01*
X66971039Y57816686D01*
X66597963Y57971220D01*
X66201907Y58050000D01*
X65798093Y58050000D01*
X65402037Y57971220D01*
X65028961Y57816686D01*
X64693201Y57592339D01*
X64407661Y57306799D01*
X64183314Y56971039D01*
X64028780Y56597963D01*
X63950000Y56201907D01*
X53352177Y56201907D01*
X53352177Y57250000D01*
X55522000Y57250000D01*
X55522000Y56350000D01*
X56730000Y56350000D01*
X56730000Y58248830D01*
X57430000Y58248830D01*
X57430000Y56350000D01*
X58638000Y56350000D01*
X58638000Y57250000D01*
X58539782Y57547226D01*
X58385465Y57819579D01*
X58180980Y58056593D01*
X57934185Y58249160D01*
X57663186Y58344735D01*
X57430000Y58248830D01*
X56730000Y58248830D01*
X56496814Y58344735D01*
X56225815Y58249160D01*
X55979020Y58056593D01*
X55774535Y57819579D01*
X55620218Y57547226D01*
X55522000Y57250000D01*
X53352177Y57250000D01*
X53352177Y57550000D01*
X53338685Y57686988D01*
X53298727Y57818712D01*
X53233839Y57940109D01*
X53146514Y58046514D01*
X53040109Y58133839D01*
X52918712Y58198727D01*
X52786988Y58238685D01*
X52650000Y58252177D01*
X51350000Y58252177D01*
X51213012Y58238685D01*
X51081288Y58198727D01*
X50959891Y58133839D01*
X50853486Y58046514D01*
X50766161Y57940109D01*
X50701273Y57818712D01*
X50661315Y57686988D01*
X50647823Y57550000D01*
X40338211Y57550000D01*
X40185465Y57819579D01*
X39980980Y58056593D01*
X39734185Y58249160D01*
X39463186Y58344735D01*
X39230000Y58248830D01*
X38530000Y58248830D01*
X38296814Y58344735D01*
X38025815Y58249160D01*
X37779020Y58056593D01*
X37574535Y57819579D01*
X37420218Y57547226D01*
X37322000Y57250000D01*
X35152177Y57250000D01*
X35152177Y57550000D01*
X35138685Y57686988D01*
X35098727Y57818712D01*
X35033839Y57940109D01*
X34946514Y58046514D01*
X34840109Y58133839D01*
X34718712Y58198727D01*
X34586988Y58238685D01*
X34450000Y58252177D01*
X33150000Y58252177D01*
X33013012Y58238685D01*
X32881288Y58198727D01*
X32759891Y58133839D01*
X32653486Y58046514D01*
X32566161Y57940109D01*
X32501273Y57818712D01*
X32461315Y57686988D01*
X32447823Y57550000D01*
X29863317Y57550000D01*
X29807915Y57653649D01*
X29639212Y57859213D01*
X29433648Y58027915D01*
X29199121Y58153272D01*
X28944645Y58230467D01*
X28680000Y58256532D01*
X28415354Y58230467D01*
X28160878Y58153272D01*
X27926351Y58027915D01*
X27720787Y57859212D01*
X27552085Y57653648D01*
X27426728Y57419121D01*
X27349533Y57164645D01*
X27330000Y56966320D01*
X25159119Y56966320D01*
X25161184Y57800000D01*
X25148480Y57928991D01*
X25110854Y58053024D01*
X25049754Y58167334D01*
X24967528Y58267528D01*
X24867334Y58349754D01*
X24753024Y58410854D01*
X24628991Y58448480D01*
X24500000Y58461184D01*
X24114500Y58458000D01*
X23950000Y58293500D01*
X23250000Y58293500D01*
X23085500Y58458000D01*
X22700000Y58461184D01*
X22571009Y58448480D01*
X22446976Y58410854D01*
X22332666Y58349754D01*
X22232472Y58267528D01*
X22150246Y58167334D01*
X22089146Y58053024D01*
X22051520Y57928991D01*
X22038816Y57800000D01*
X10996012Y57800000D01*
X10971039Y57816686D01*
X10597963Y57971220D01*
X10201907Y58050000D01*
X9798093Y58050000D01*
X9402037Y57971220D01*
X9028961Y57816686D01*
X8693201Y57592339D01*
X8407661Y57306799D01*
X8183314Y56971039D01*
X8028780Y56597963D01*
X7950000Y56201907D01*
X600000Y56201907D01*
X600000Y65970660D01*
X667574Y66659834D01*
X859205Y67294546D01*
X1170466Y67879941D01*
X1589503Y68393731D01*
X2100354Y68816343D01*
X2683563Y69131683D01*
X3316913Y69327737D01*
X4004442Y69400000D01*
X71970660Y69400000D01*
X72659834Y69332426D01*
G37*
%TD.AperFunction*%
%TD*%
M02*
