%TF.GenerationSoftware,KiCad,Pcbnew,5.1.8-db9833491~87~ubuntu20.04.1*%
%TF.CreationDate,2020-11-04T15:04:12-03:00*%
%TF.ProjectId,dc_motor,64635f6d-6f74-46f7-922e-6b696361645f,Rev: 1.0*%
%TF.SameCoordinates,PX2dc6c00PY6cb8080*%
%TF.FileFunction,Legend,Top*%
%TF.FilePolarity,Positive*%
%FSLAX46Y46*%
G04 Gerber Fmt 4.6, Leading zero omitted, Abs format (unit mm)*
G04 Created by KiCad (PCBNEW 5.1.8-db9833491~87~ubuntu20.04.1) date 2020-11-04 15:04:12*
%MOMM*%
%LPD*%
G01*
G04 APERTURE LIST*
%ADD10C,0.150000*%
%ADD11C,0.350000*%
%ADD12C,0.400000*%
%ADD13C,0.300000*%
%ADD14C,0.500000*%
%ADD15C,0.010000*%
%ADD16C,0.120000*%
G04 APERTURE END LIST*
D10*
X20100000Y29400000D02*
X13000000Y29400000D01*
X21400000Y32200000D02*
X20100000Y29400000D01*
X31000000Y32200000D02*
X21400000Y32200000D01*
D11*
X71566666Y12304762D02*
X71566666Y10304762D01*
X70614285Y12304762D02*
X70614285Y10304762D01*
X69471428Y12304762D01*
X69471428Y10304762D01*
X68519047Y12304762D02*
X68519047Y10304762D01*
X68042857Y10304762D01*
X67757142Y10400000D01*
X67566666Y10590477D01*
X67471428Y10780953D01*
X67376190Y11161905D01*
X67376190Y11447620D01*
X67471428Y11828572D01*
X67566666Y12019048D01*
X67757142Y12209524D01*
X68042857Y12304762D01*
X68519047Y12304762D01*
X65090476Y11733334D02*
X64138095Y11733334D01*
X65280952Y12304762D02*
X64614285Y10304762D01*
X63947619Y12304762D01*
X62138095Y12304762D02*
X62804761Y11352381D01*
X63280952Y12304762D02*
X63280952Y10304762D01*
X62519047Y10304762D01*
X62328571Y10400000D01*
X62233333Y10495239D01*
X62138095Y10685715D01*
X62138095Y10971429D01*
X62233333Y11161905D01*
X62328571Y11257143D01*
X62519047Y11352381D01*
X63280952Y11352381D01*
X60233333Y10400000D02*
X60423809Y10304762D01*
X60709523Y10304762D01*
X60995238Y10400000D01*
X61185714Y10590477D01*
X61280952Y10780953D01*
X61376190Y11161905D01*
X61376190Y11447620D01*
X61280952Y11828572D01*
X61185714Y12019048D01*
X60995238Y12209524D01*
X60709523Y12304762D01*
X60519047Y12304762D01*
X60233333Y12209524D01*
X60138095Y12114286D01*
X60138095Y11447620D01*
X60519047Y11447620D01*
D10*
X46090476Y21702381D02*
X46566666Y21702381D01*
X46614285Y22178572D01*
X46566666Y22130953D01*
X46471428Y22083334D01*
X46233333Y22083334D01*
X46138095Y22130953D01*
X46090476Y22178572D01*
X46042857Y22273810D01*
X46042857Y22511905D01*
X46090476Y22607143D01*
X46138095Y22654762D01*
X46233333Y22702381D01*
X46471428Y22702381D01*
X46566666Y22654762D01*
X46614285Y22607143D01*
X45757142Y21702381D02*
X45423809Y22702381D01*
X45090476Y21702381D01*
X46614285Y23866667D02*
X46138095Y23866667D01*
X46709523Y24152381D02*
X46376190Y23152381D01*
X46042857Y24152381D01*
X45519047Y23152381D02*
X45423809Y23152381D01*
X45328571Y23200000D01*
X45280952Y23247620D01*
X45233333Y23342858D01*
X45185714Y23533334D01*
X45185714Y23771429D01*
X45233333Y23961905D01*
X45280952Y24057143D01*
X45328571Y24104762D01*
X45423809Y24152381D01*
X45519047Y24152381D01*
X45614285Y24104762D01*
X45661904Y24057143D01*
X45709523Y23961905D01*
X45757142Y23771429D01*
X45757142Y23533334D01*
X45709523Y23342858D01*
X45661904Y23247620D01*
X45614285Y23200000D01*
X45519047Y23152381D01*
X46614285Y20966667D02*
X46138095Y20966667D01*
X46709523Y21252381D02*
X46376190Y20252381D01*
X46042857Y21252381D01*
X45185714Y21252381D02*
X45757142Y21252381D01*
X45471428Y21252381D02*
X45471428Y20252381D01*
X45566666Y20395239D01*
X45661904Y20490477D01*
X45757142Y20538096D01*
X42276190Y21927381D02*
X42276190Y20927381D01*
X41847619Y21022620D02*
X41800000Y20975000D01*
X41704761Y20927381D01*
X41466666Y20927381D01*
X41371428Y20975000D01*
X41323809Y21022620D01*
X41276190Y21117858D01*
X41276190Y21213096D01*
X41323809Y21355953D01*
X41895238Y21927381D01*
X41276190Y21927381D01*
X40276190Y21832143D02*
X40323809Y21879762D01*
X40466666Y21927381D01*
X40561904Y21927381D01*
X40704761Y21879762D01*
X40800000Y21784524D01*
X40847619Y21689286D01*
X40895238Y21498810D01*
X40895238Y21355953D01*
X40847619Y21165477D01*
X40800000Y21070239D01*
X40704761Y20975000D01*
X40561904Y20927381D01*
X40466666Y20927381D01*
X40323809Y20975000D01*
X40276190Y21022620D01*
X43538095Y23577381D02*
X43538095Y23053572D01*
X43585714Y22958334D01*
X43680952Y22910715D01*
X43871428Y22910715D01*
X43966666Y22958334D01*
X43538095Y23529762D02*
X43633333Y23577381D01*
X43871428Y23577381D01*
X43966666Y23529762D01*
X44014285Y23434524D01*
X44014285Y23339286D01*
X43966666Y23244048D01*
X43871428Y23196429D01*
X43633333Y23196429D01*
X43538095Y23148810D01*
X42633333Y23577381D02*
X42633333Y22577381D01*
X42633333Y23529762D02*
X42728571Y23577381D01*
X42919047Y23577381D01*
X43014285Y23529762D01*
X43061904Y23482143D01*
X43109523Y23386905D01*
X43109523Y23101191D01*
X43061904Y23005953D01*
X43014285Y22958334D01*
X42919047Y22910715D01*
X42728571Y22910715D01*
X42633333Y22958334D01*
X41728571Y23577381D02*
X41728571Y22577381D01*
X41728571Y23529762D02*
X41823809Y23577381D01*
X42014285Y23577381D01*
X42109523Y23529762D01*
X42157142Y23482143D01*
X42204761Y23386905D01*
X42204761Y23101191D01*
X42157142Y23005953D01*
X42109523Y22958334D01*
X42014285Y22910715D01*
X41823809Y22910715D01*
X41728571Y22958334D01*
X41252380Y23577381D02*
X41252380Y22910715D01*
X41252380Y23101191D02*
X41204761Y23005953D01*
X41157142Y22958334D01*
X41061904Y22910715D01*
X40966666Y22910715D01*
X40252380Y23529762D02*
X40347619Y23577381D01*
X40538095Y23577381D01*
X40633333Y23529762D01*
X40680952Y23434524D01*
X40680952Y23053572D01*
X40633333Y22958334D01*
X40538095Y22910715D01*
X40347619Y22910715D01*
X40252380Y22958334D01*
X40204761Y23053572D01*
X40204761Y23148810D01*
X40680952Y23244048D01*
X39823809Y23529762D02*
X39728571Y23577381D01*
X39538095Y23577381D01*
X39442857Y23529762D01*
X39395238Y23434524D01*
X39395238Y23386905D01*
X39442857Y23291667D01*
X39538095Y23244048D01*
X39680952Y23244048D01*
X39776190Y23196429D01*
X39823809Y23101191D01*
X39823809Y23053572D01*
X39776190Y22958334D01*
X39680952Y22910715D01*
X39538095Y22910715D01*
X39442857Y22958334D01*
X39014285Y23529762D02*
X38919047Y23577381D01*
X38728571Y23577381D01*
X38633333Y23529762D01*
X38585714Y23434524D01*
X38585714Y23386905D01*
X38633333Y23291667D01*
X38728571Y23244048D01*
X38871428Y23244048D01*
X38966666Y23196429D01*
X39014285Y23101191D01*
X39014285Y23053572D01*
X38966666Y22958334D01*
X38871428Y22910715D01*
X38728571Y22910715D01*
X38633333Y22958334D01*
X42900000Y9300000D02*
X42200000Y9300000D01*
X42900000Y6300000D02*
X42200000Y6300000D01*
X42900000Y6300000D02*
X42900000Y9300000D01*
X37700000Y12200000D02*
X38400000Y12200000D01*
X37700000Y9200000D02*
X38400000Y9200000D01*
X37700000Y12200000D02*
X37700000Y9200000D01*
X43352380Y9609524D02*
X42352380Y9609524D01*
X42352380Y9990477D01*
X42400000Y10085715D01*
X42447619Y10133334D01*
X42542857Y10180953D01*
X42685714Y10180953D01*
X42780952Y10133334D01*
X42828571Y10085715D01*
X42876190Y9990477D01*
X42876190Y9609524D01*
X43352380Y11038096D02*
X42828571Y11038096D01*
X42733333Y10990477D01*
X42685714Y10895239D01*
X42685714Y10704762D01*
X42733333Y10609524D01*
X43304761Y11038096D02*
X43352380Y10942858D01*
X43352380Y10704762D01*
X43304761Y10609524D01*
X43209523Y10561905D01*
X43114285Y10561905D01*
X43019047Y10609524D01*
X42971428Y10704762D01*
X42971428Y10942858D01*
X42923809Y11038096D01*
X43352380Y11514286D02*
X42685714Y11514286D01*
X42876190Y11514286D02*
X42780952Y11561905D01*
X42733333Y11609524D01*
X42685714Y11704762D01*
X42685714Y11800000D01*
X43352380Y12561905D02*
X42828571Y12561905D01*
X42733333Y12514286D01*
X42685714Y12419048D01*
X42685714Y12228572D01*
X42733333Y12133334D01*
X43304761Y12561905D02*
X43352380Y12466667D01*
X43352380Y12228572D01*
X43304761Y12133334D01*
X43209523Y12085715D01*
X43114285Y12085715D01*
X43019047Y12133334D01*
X42971428Y12228572D01*
X42971428Y12466667D01*
X42923809Y12561905D01*
X43352380Y13180953D02*
X43304761Y13085715D01*
X43209523Y13038096D01*
X42352380Y13038096D01*
X43304761Y13942858D02*
X43352380Y13847620D01*
X43352380Y13657143D01*
X43304761Y13561905D01*
X43209523Y13514286D01*
X42828571Y13514286D01*
X42733333Y13561905D01*
X42685714Y13657143D01*
X42685714Y13847620D01*
X42733333Y13942858D01*
X42828571Y13990477D01*
X42923809Y13990477D01*
X43019047Y13514286D01*
X43352380Y14561905D02*
X43304761Y14466667D01*
X43209523Y14419048D01*
X42352380Y14419048D01*
X43352380Y15085715D02*
X43304761Y14990477D01*
X43209523Y14942858D01*
X42352380Y14942858D01*
X37252380Y9219048D02*
X36252380Y9219048D01*
X36585714Y9695239D02*
X37252380Y9695239D01*
X36680952Y9695239D02*
X36633333Y9742858D01*
X36585714Y9838096D01*
X36585714Y9980953D01*
X36633333Y10076191D01*
X36728571Y10123810D01*
X37252380Y10123810D01*
X37252380Y11028572D02*
X36252380Y11028572D01*
X37204761Y11028572D02*
X37252380Y10933334D01*
X37252380Y10742858D01*
X37204761Y10647620D01*
X37157142Y10600000D01*
X37061904Y10552381D01*
X36776190Y10552381D01*
X36680952Y10600000D01*
X36633333Y10647620D01*
X36585714Y10742858D01*
X36585714Y10933334D01*
X36633333Y11028572D01*
X37252380Y11504762D02*
X36585714Y11504762D01*
X36252380Y11504762D02*
X36300000Y11457143D01*
X36347619Y11504762D01*
X36300000Y11552381D01*
X36252380Y11504762D01*
X36347619Y11504762D01*
X36585714Y11885715D02*
X37252380Y12123810D01*
X36585714Y12361905D01*
X37252380Y12742858D02*
X36585714Y12742858D01*
X36252380Y12742858D02*
X36300000Y12695239D01*
X36347619Y12742858D01*
X36300000Y12790477D01*
X36252380Y12742858D01*
X36347619Y12742858D01*
X37252380Y13647620D02*
X36252380Y13647620D01*
X37204761Y13647620D02*
X37252380Y13552381D01*
X37252380Y13361905D01*
X37204761Y13266667D01*
X37157142Y13219048D01*
X37061904Y13171429D01*
X36776190Y13171429D01*
X36680952Y13219048D01*
X36633333Y13266667D01*
X36585714Y13361905D01*
X36585714Y13552381D01*
X36633333Y13647620D01*
X36585714Y14552381D02*
X37252380Y14552381D01*
X36585714Y14123810D02*
X37109523Y14123810D01*
X37204761Y14171429D01*
X37252380Y14266667D01*
X37252380Y14409524D01*
X37204761Y14504762D01*
X37157142Y14552381D01*
X37252380Y15457143D02*
X36728571Y15457143D01*
X36633333Y15409524D01*
X36585714Y15314286D01*
X36585714Y15123810D01*
X36633333Y15028572D01*
X37204761Y15457143D02*
X37252380Y15361905D01*
X37252380Y15123810D01*
X37204761Y15028572D01*
X37109523Y14980953D01*
X37014285Y14980953D01*
X36919047Y15028572D01*
X36871428Y15123810D01*
X36871428Y15361905D01*
X36823809Y15457143D01*
X37252380Y16076191D02*
X37204761Y15980953D01*
X37109523Y15933334D01*
X36252380Y15933334D01*
X42361904Y3628572D02*
X42028571Y3628572D01*
X41885714Y4152381D02*
X42361904Y4152381D01*
X42361904Y3152381D01*
X41885714Y3152381D01*
X41457142Y3485715D02*
X41457142Y4152381D01*
X41457142Y3580953D02*
X41409523Y3533334D01*
X41314285Y3485715D01*
X41171428Y3485715D01*
X41076190Y3533334D01*
X41028571Y3628572D01*
X41028571Y4152381D01*
X40123809Y4152381D02*
X40123809Y3628572D01*
X40171428Y3533334D01*
X40266666Y3485715D01*
X40457142Y3485715D01*
X40552380Y3533334D01*
X40123809Y4104762D02*
X40219047Y4152381D01*
X40457142Y4152381D01*
X40552380Y4104762D01*
X40600000Y4009524D01*
X40600000Y3914286D01*
X40552380Y3819048D01*
X40457142Y3771429D01*
X40219047Y3771429D01*
X40123809Y3723810D01*
X39647619Y4152381D02*
X39647619Y3152381D01*
X39647619Y3533334D02*
X39552380Y3485715D01*
X39361904Y3485715D01*
X39266666Y3533334D01*
X39219047Y3580953D01*
X39171428Y3676191D01*
X39171428Y3961905D01*
X39219047Y4057143D01*
X39266666Y4104762D01*
X39361904Y4152381D01*
X39552380Y4152381D01*
X39647619Y4104762D01*
X38600000Y4152381D02*
X38695238Y4104762D01*
X38742857Y4009524D01*
X38742857Y3152381D01*
X37838095Y4104762D02*
X37933333Y4152381D01*
X38123809Y4152381D01*
X38219047Y4104762D01*
X38266666Y4009524D01*
X38266666Y3628572D01*
X38219047Y3533334D01*
X38123809Y3485715D01*
X37933333Y3485715D01*
X37838095Y3533334D01*
X37790476Y3628572D01*
X37790476Y3723810D01*
X38266666Y3819048D01*
D12*
X5504761Y18600000D02*
X5409523Y18409524D01*
X5219047Y18314286D01*
X3504761Y18314286D01*
X4171428Y20219048D02*
X5504761Y20219048D01*
X4171428Y19361905D02*
X5219047Y19361905D01*
X5409523Y19457143D01*
X5504761Y19647620D01*
X5504761Y19933334D01*
X5409523Y20123810D01*
X5314285Y20219048D01*
X5409523Y22028572D02*
X5504761Y21838096D01*
X5504761Y21457143D01*
X5409523Y21266667D01*
X5314285Y21171429D01*
X5123809Y21076191D01*
X4552380Y21076191D01*
X4361904Y21171429D01*
X4266666Y21266667D01*
X4171428Y21457143D01*
X4171428Y21838096D01*
X4266666Y22028572D01*
X5504761Y22885715D02*
X4171428Y22885715D01*
X3504761Y22885715D02*
X3600000Y22790477D01*
X3695238Y22885715D01*
X3600000Y22980953D01*
X3504761Y22885715D01*
X3695238Y22885715D01*
X5504761Y24695239D02*
X4457142Y24695239D01*
X4266666Y24600000D01*
X4171428Y24409524D01*
X4171428Y24028572D01*
X4266666Y23838096D01*
X5409523Y24695239D02*
X5504761Y24504762D01*
X5504761Y24028572D01*
X5409523Y23838096D01*
X5219047Y23742858D01*
X5028571Y23742858D01*
X4838095Y23838096D01*
X4742857Y24028572D01*
X4742857Y24504762D01*
X4647619Y24695239D01*
X4171428Y25647620D02*
X5504761Y25647620D01*
X4361904Y25647620D02*
X4266666Y25742858D01*
X4171428Y25933334D01*
X4171428Y26219048D01*
X4266666Y26409524D01*
X4457142Y26504762D01*
X5504761Y26504762D01*
X5504761Y27742858D02*
X5409523Y27552381D01*
X5314285Y27457143D01*
X5123809Y27361905D01*
X4552380Y27361905D01*
X4361904Y27457143D01*
X4266666Y27552381D01*
X4171428Y27742858D01*
X4171428Y28028572D01*
X4266666Y28219048D01*
X4361904Y28314286D01*
X4552380Y28409524D01*
X5123809Y28409524D01*
X5314285Y28314286D01*
X5409523Y28219048D01*
X5504761Y28028572D01*
X5504761Y27742858D01*
X4171428Y29076191D02*
X5504761Y29552381D01*
X4171428Y30028572D01*
X5504761Y30790477D02*
X4171428Y30790477D01*
X3504761Y30790477D02*
X3600000Y30695239D01*
X3695238Y30790477D01*
X3600000Y30885715D01*
X3504761Y30790477D01*
X3695238Y30790477D01*
X4171428Y31457143D02*
X4171428Y32219048D01*
X3504761Y31742858D02*
X5219047Y31742858D01*
X5409523Y31838096D01*
X5504761Y32028572D01*
X5504761Y32219048D01*
X4171428Y32600000D02*
X4171428Y33361905D01*
X3504761Y32885715D02*
X5219047Y32885715D01*
X5409523Y32980953D01*
X5504761Y33171429D01*
X5504761Y33361905D01*
X5504761Y34314286D02*
X5409523Y34123810D01*
X5314285Y34028572D01*
X5123809Y33933334D01*
X4552380Y33933334D01*
X4361904Y34028572D01*
X4266666Y34123810D01*
X4171428Y34314286D01*
X4171428Y34600000D01*
X4266666Y34790477D01*
X4361904Y34885715D01*
X4552380Y34980953D01*
X5123809Y34980953D01*
X5314285Y34885715D01*
X5409523Y34790477D01*
X5504761Y34600000D01*
X5504761Y34314286D01*
X5504761Y35838096D02*
X4171428Y35838096D01*
X4552380Y35838096D02*
X4361904Y35933334D01*
X4266666Y36028572D01*
X4171428Y36219048D01*
X4171428Y36409524D01*
X5504761Y37076191D02*
X4171428Y37076191D01*
X3504761Y37076191D02*
X3600000Y36980953D01*
X3695238Y37076191D01*
X3600000Y37171429D01*
X3504761Y37076191D01*
X3695238Y37076191D01*
X5504761Y38123810D02*
X5504761Y38504762D01*
X5409523Y38695239D01*
X5314285Y38790477D01*
X5028571Y38980953D01*
X4647619Y39076191D01*
X3885714Y39076191D01*
X3695238Y38980953D01*
X3600000Y38885715D01*
X3504761Y38695239D01*
X3504761Y38314286D01*
X3600000Y38123810D01*
X3695238Y38028572D01*
X3885714Y37933334D01*
X4361904Y37933334D01*
X4552380Y38028572D01*
X4647619Y38123810D01*
X4742857Y38314286D01*
X4742857Y38695239D01*
X4647619Y38885715D01*
X4552380Y38980953D01*
X4361904Y39076191D01*
X5504761Y40028572D02*
X5504761Y40409524D01*
X5409523Y40600000D01*
X5314285Y40695239D01*
X5028571Y40885715D01*
X4647619Y40980953D01*
X3885714Y40980953D01*
X3695238Y40885715D01*
X3600000Y40790477D01*
X3504761Y40600000D01*
X3504761Y40219048D01*
X3600000Y40028572D01*
X3695238Y39933334D01*
X3885714Y39838096D01*
X4361904Y39838096D01*
X4552380Y39933334D01*
X4647619Y40028572D01*
X4742857Y40219048D01*
X4742857Y40600000D01*
X4647619Y40790477D01*
X4552380Y40885715D01*
X4361904Y40980953D01*
X4552380Y43076191D02*
X4457142Y42980953D01*
X4361904Y42790477D01*
X4361904Y42600000D01*
X4457142Y42409524D01*
X4552380Y42314286D01*
X4742857Y42219048D01*
X4933333Y42219048D01*
X5123809Y42314286D01*
X5219047Y42409524D01*
X5314285Y42600000D01*
X5314285Y42790477D01*
X5219047Y42980953D01*
X5123809Y43076191D01*
X4361904Y43076191D02*
X5123809Y43076191D01*
X5219047Y43171429D01*
X5219047Y43266667D01*
X5123809Y43457143D01*
X4933333Y43552381D01*
X4457142Y43552381D01*
X4171428Y43361905D01*
X3980952Y43076191D01*
X3885714Y42695239D01*
X3980952Y42314286D01*
X4171428Y42028572D01*
X4457142Y41838096D01*
X4838095Y41742858D01*
X5219047Y41838096D01*
X5504761Y42028572D01*
X5695238Y42314286D01*
X5790476Y42695239D01*
X5695238Y43076191D01*
X5504761Y43361905D01*
X4171428Y45266667D02*
X5790476Y45266667D01*
X5980952Y45171429D01*
X6076190Y45076191D01*
X6171428Y44885715D01*
X6171428Y44600000D01*
X6076190Y44409524D01*
X5409523Y45266667D02*
X5504761Y45076191D01*
X5504761Y44695239D01*
X5409523Y44504762D01*
X5314285Y44409524D01*
X5123809Y44314286D01*
X4552380Y44314286D01*
X4361904Y44409524D01*
X4266666Y44504762D01*
X4171428Y44695239D01*
X4171428Y45076191D01*
X4266666Y45266667D01*
X5504761Y46219048D02*
X4171428Y46219048D01*
X4361904Y46219048D02*
X4266666Y46314286D01*
X4171428Y46504762D01*
X4171428Y46790477D01*
X4266666Y46980953D01*
X4457142Y47076191D01*
X5504761Y47076191D01*
X4457142Y47076191D02*
X4266666Y47171429D01*
X4171428Y47361905D01*
X4171428Y47647620D01*
X4266666Y47838096D01*
X4457142Y47933334D01*
X5504761Y47933334D01*
X5504761Y49742858D02*
X4457142Y49742858D01*
X4266666Y49647620D01*
X4171428Y49457143D01*
X4171428Y49076191D01*
X4266666Y48885715D01*
X5409523Y49742858D02*
X5504761Y49552381D01*
X5504761Y49076191D01*
X5409523Y48885715D01*
X5219047Y48790477D01*
X5028571Y48790477D01*
X4838095Y48885715D01*
X4742857Y49076191D01*
X4742857Y49552381D01*
X4647619Y49742858D01*
X5504761Y50695239D02*
X4171428Y50695239D01*
X3504761Y50695239D02*
X3600000Y50600000D01*
X3695238Y50695239D01*
X3600000Y50790477D01*
X3504761Y50695239D01*
X3695238Y50695239D01*
X5504761Y51933334D02*
X5409523Y51742858D01*
X5219047Y51647620D01*
X3504761Y51647620D01*
X5314285Y52695239D02*
X5409523Y52790477D01*
X5504761Y52695239D01*
X5409523Y52600000D01*
X5314285Y52695239D01*
X5504761Y52695239D01*
X5409523Y54504762D02*
X5504761Y54314286D01*
X5504761Y53933334D01*
X5409523Y53742858D01*
X5314285Y53647620D01*
X5123809Y53552381D01*
X4552380Y53552381D01*
X4361904Y53647620D01*
X4266666Y53742858D01*
X4171428Y53933334D01*
X4171428Y54314286D01*
X4266666Y54504762D01*
X5504761Y55647620D02*
X5409523Y55457143D01*
X5314285Y55361905D01*
X5123809Y55266667D01*
X4552380Y55266667D01*
X4361904Y55361905D01*
X4266666Y55457143D01*
X4171428Y55647620D01*
X4171428Y55933334D01*
X4266666Y56123810D01*
X4361904Y56219048D01*
X4552380Y56314286D01*
X5123809Y56314286D01*
X5314285Y56219048D01*
X5409523Y56123810D01*
X5504761Y55933334D01*
X5504761Y55647620D01*
X5504761Y57171429D02*
X4171428Y57171429D01*
X4361904Y57171429D02*
X4266666Y57266667D01*
X4171428Y57457143D01*
X4171428Y57742858D01*
X4266666Y57933334D01*
X4457142Y58028572D01*
X5504761Y58028572D01*
X4457142Y58028572D02*
X4266666Y58123810D01*
X4171428Y58314286D01*
X4171428Y58600000D01*
X4266666Y58790477D01*
X4457142Y58885715D01*
X5504761Y58885715D01*
X8471428Y27738096D02*
X10090476Y27738096D01*
X10280952Y27642858D01*
X10376190Y27547620D01*
X10471428Y27357143D01*
X10471428Y27071429D01*
X10376190Y26880953D01*
X9709523Y27738096D02*
X9804761Y27547620D01*
X9804761Y27166667D01*
X9709523Y26976191D01*
X9614285Y26880953D01*
X9423809Y26785715D01*
X8852380Y26785715D01*
X8661904Y26880953D01*
X8566666Y26976191D01*
X8471428Y27166667D01*
X8471428Y27547620D01*
X8566666Y27738096D01*
X9804761Y28690477D02*
X8471428Y28690477D01*
X7804761Y28690477D02*
X7900000Y28595239D01*
X7995238Y28690477D01*
X7900000Y28785715D01*
X7804761Y28690477D01*
X7995238Y28690477D01*
X8471428Y29357143D02*
X8471428Y30119048D01*
X7804761Y29642858D02*
X9519047Y29642858D01*
X9709523Y29738096D01*
X9804761Y29928572D01*
X9804761Y30119048D01*
X9804761Y30785715D02*
X7804761Y30785715D01*
X9804761Y31642858D02*
X8757142Y31642858D01*
X8566666Y31547620D01*
X8471428Y31357143D01*
X8471428Y31071429D01*
X8566666Y30880953D01*
X8661904Y30785715D01*
X8471428Y33452381D02*
X9804761Y33452381D01*
X8471428Y32595239D02*
X9519047Y32595239D01*
X9709523Y32690477D01*
X9804761Y32880953D01*
X9804761Y33166667D01*
X9709523Y33357143D01*
X9614285Y33452381D01*
X9804761Y34404762D02*
X7804761Y34404762D01*
X8566666Y34404762D02*
X8471428Y34595239D01*
X8471428Y34976191D01*
X8566666Y35166667D01*
X8661904Y35261905D01*
X8852380Y35357143D01*
X9423809Y35357143D01*
X9614285Y35261905D01*
X9709523Y35166667D01*
X9804761Y34976191D01*
X9804761Y34595239D01*
X9709523Y34404762D01*
X9614285Y36214286D02*
X9709523Y36309524D01*
X9804761Y36214286D01*
X9709523Y36119048D01*
X9614285Y36214286D01*
X9804761Y36214286D01*
X8566666Y36214286D02*
X8661904Y36309524D01*
X8757142Y36214286D01*
X8661904Y36119048D01*
X8566666Y36214286D01*
X8757142Y36214286D01*
X9804761Y39642858D02*
X9804761Y38690477D01*
X7804761Y38690477D01*
X8471428Y41166667D02*
X9804761Y41166667D01*
X8471428Y40309524D02*
X9519047Y40309524D01*
X9709523Y40404762D01*
X9804761Y40595239D01*
X9804761Y40880953D01*
X9709523Y41071429D01*
X9614285Y41166667D01*
X9709523Y42976191D02*
X9804761Y42785715D01*
X9804761Y42404762D01*
X9709523Y42214286D01*
X9614285Y42119048D01*
X9423809Y42023810D01*
X8852380Y42023810D01*
X8661904Y42119048D01*
X8566666Y42214286D01*
X8471428Y42404762D01*
X8471428Y42785715D01*
X8566666Y42976191D01*
X9804761Y43833334D02*
X7804761Y43833334D01*
X9804761Y44690477D02*
X8757142Y44690477D01*
X8566666Y44595239D01*
X8471428Y44404762D01*
X8471428Y44119048D01*
X8566666Y43928572D01*
X8661904Y43833334D01*
X9804761Y46500000D02*
X8757142Y46500000D01*
X8566666Y46404762D01*
X8471428Y46214286D01*
X8471428Y45833334D01*
X8566666Y45642858D01*
X9709523Y46500000D02*
X9804761Y46309524D01*
X9804761Y45833334D01*
X9709523Y45642858D01*
X9519047Y45547620D01*
X9328571Y45547620D01*
X9138095Y45642858D01*
X9042857Y45833334D01*
X9042857Y46309524D01*
X8947619Y46500000D01*
X9804761Y47738096D02*
X9709523Y47547620D01*
X9614285Y47452381D01*
X9423809Y47357143D01*
X8852380Y47357143D01*
X8661904Y47452381D01*
X8566666Y47547620D01*
X8471428Y47738096D01*
X8471428Y48023810D01*
X8566666Y48214286D01*
X8661904Y48309524D01*
X8852380Y48404762D01*
X9423809Y48404762D01*
X9614285Y48309524D01*
X9709523Y48214286D01*
X9804761Y48023810D01*
X9804761Y47738096D01*
X9804761Y49357143D02*
X9804761Y49738096D01*
X9709523Y49928572D01*
X9614285Y50023810D01*
X9328571Y50214286D01*
X8947619Y50309524D01*
X8185714Y50309524D01*
X7995238Y50214286D01*
X7900000Y50119048D01*
X7804761Y49928572D01*
X7804761Y49547620D01*
X7900000Y49357143D01*
X7995238Y49261905D01*
X8185714Y49166667D01*
X8661904Y49166667D01*
X8852380Y49261905D01*
X8947619Y49357143D01*
X9042857Y49547620D01*
X9042857Y49928572D01*
X8947619Y50119048D01*
X8852380Y50214286D01*
X8661904Y50309524D01*
X7804761Y51547620D02*
X7804761Y51738096D01*
X7900000Y51928572D01*
X7995238Y52023810D01*
X8185714Y52119048D01*
X8566666Y52214286D01*
X9042857Y52214286D01*
X9423809Y52119048D01*
X9614285Y52023810D01*
X9709523Y51928572D01*
X9804761Y51738096D01*
X9804761Y51547620D01*
X9709523Y51357143D01*
X9614285Y51261905D01*
X9423809Y51166667D01*
X9042857Y51071429D01*
X8566666Y51071429D01*
X8185714Y51166667D01*
X7995238Y51261905D01*
X7900000Y51357143D01*
X7804761Y51547620D01*
D13*
X68271428Y19342858D02*
X68671428Y18771429D01*
X68957142Y19342858D02*
X68957142Y18142858D01*
X68500000Y18142858D01*
X68385714Y18200000D01*
X68328571Y18257143D01*
X68271428Y18371429D01*
X68271428Y18542858D01*
X68328571Y18657143D01*
X68385714Y18714286D01*
X68500000Y18771429D01*
X68957142Y18771429D01*
X67757142Y18714286D02*
X67357142Y18714286D01*
X67185714Y19342858D02*
X67757142Y19342858D01*
X67757142Y18142858D01*
X67185714Y18142858D01*
X66842857Y18142858D02*
X66442857Y19342858D01*
X66042857Y18142858D01*
X64100000Y19342858D02*
X64785714Y19342858D01*
X64442857Y19342858D02*
X64442857Y18142858D01*
X64557142Y18314286D01*
X64671428Y18428572D01*
X64785714Y18485715D01*
X63585714Y19228572D02*
X63528571Y19285715D01*
X63585714Y19342858D01*
X63642857Y19285715D01*
X63585714Y19228572D01*
X63585714Y19342858D01*
X62785714Y18142858D02*
X62671428Y18142858D01*
X62557142Y18200000D01*
X62500000Y18257143D01*
X62442857Y18371429D01*
X62385714Y18600000D01*
X62385714Y18885715D01*
X62442857Y19114286D01*
X62500000Y19228572D01*
X62557142Y19285715D01*
X62671428Y19342858D01*
X62785714Y19342858D01*
X62900000Y19285715D01*
X62957142Y19228572D01*
X63014285Y19114286D01*
X63071428Y18885715D01*
X63071428Y18600000D01*
X63014285Y18371429D01*
X62957142Y18257143D01*
X62900000Y18200000D01*
X62785714Y18142858D01*
X71114285Y15042858D02*
X71000000Y15042858D01*
X70885714Y15100000D01*
X70828571Y15157143D01*
X70771428Y15271429D01*
X70714285Y15500000D01*
X70714285Y15785715D01*
X70771428Y16014286D01*
X70828571Y16128572D01*
X70885714Y16185715D01*
X71000000Y16242858D01*
X71114285Y16242858D01*
X71228571Y16185715D01*
X71285714Y16128572D01*
X71342857Y16014286D01*
X71400000Y15785715D01*
X71400000Y15500000D01*
X71342857Y15271429D01*
X71285714Y15157143D01*
X71228571Y15100000D01*
X71114285Y15042858D01*
X69685714Y15442858D02*
X69685714Y16242858D01*
X69971428Y14985715D02*
X70257142Y15842858D01*
X69514285Y15842858D01*
X68200000Y14985715D02*
X69228571Y16528572D01*
X67171428Y16242858D02*
X67857142Y16242858D01*
X67514285Y16242858D02*
X67514285Y15042858D01*
X67628571Y15214286D01*
X67742857Y15328572D01*
X67857142Y15385715D01*
X66028571Y16242858D02*
X66714285Y16242858D01*
X66371428Y16242858D02*
X66371428Y15042858D01*
X66485714Y15214286D01*
X66600000Y15328572D01*
X66714285Y15385715D01*
X64657142Y14985715D02*
X65685714Y16528572D01*
X64314285Y15157143D02*
X64257142Y15100000D01*
X64142857Y15042858D01*
X63857142Y15042858D01*
X63742857Y15100000D01*
X63685714Y15157143D01*
X63628571Y15271429D01*
X63628571Y15385715D01*
X63685714Y15557143D01*
X64371428Y16242858D01*
X63628571Y16242858D01*
X62885714Y15042858D02*
X62771428Y15042858D01*
X62657142Y15100000D01*
X62600000Y15157143D01*
X62542857Y15271429D01*
X62485714Y15500000D01*
X62485714Y15785715D01*
X62542857Y16014286D01*
X62600000Y16128572D01*
X62657142Y16185715D01*
X62771428Y16242858D01*
X62885714Y16242858D01*
X63000000Y16185715D01*
X63057142Y16128572D01*
X63114285Y16014286D01*
X63171428Y15785715D01*
X63171428Y15500000D01*
X63114285Y15271429D01*
X63057142Y15157143D01*
X63000000Y15100000D01*
X62885714Y15042858D01*
X62028571Y15157143D02*
X61971428Y15100000D01*
X61857142Y15042858D01*
X61571428Y15042858D01*
X61457142Y15100000D01*
X61400000Y15157143D01*
X61342857Y15271429D01*
X61342857Y15385715D01*
X61400000Y15557143D01*
X62085714Y16242858D01*
X61342857Y16242858D01*
X60600000Y15042858D02*
X60485714Y15042858D01*
X60371428Y15100000D01*
X60314285Y15157143D01*
X60257142Y15271429D01*
X60200000Y15500000D01*
X60200000Y15785715D01*
X60257142Y16014286D01*
X60314285Y16128572D01*
X60371428Y16185715D01*
X60485714Y16242858D01*
X60600000Y16242858D01*
X60714285Y16185715D01*
X60771428Y16128572D01*
X60828571Y16014286D01*
X60885714Y15785715D01*
X60885714Y15500000D01*
X60828571Y15271429D01*
X60771428Y15157143D01*
X60714285Y15100000D01*
X60600000Y15042858D01*
D10*
X49366666Y1830953D02*
X49366666Y2307144D01*
X49652380Y1735715D02*
X48652380Y2069049D01*
X49652380Y2402382D01*
X49652380Y3211906D02*
X49652380Y2735715D01*
X48652380Y2735715D01*
X49128571Y3545239D02*
X49128571Y3878572D01*
X49652380Y4021430D02*
X49652380Y3545239D01*
X48652380Y3545239D01*
X48652380Y4021430D01*
X52229761Y1830954D02*
X52277380Y1973811D01*
X52277380Y2211906D01*
X52229761Y2307144D01*
X52182142Y2354763D01*
X52086904Y2402382D01*
X51991666Y2402382D01*
X51896428Y2354763D01*
X51848809Y2307144D01*
X51801190Y2211906D01*
X51753571Y2021430D01*
X51705952Y1926192D01*
X51658333Y1878573D01*
X51563095Y1830954D01*
X51467857Y1830954D01*
X51372619Y1878573D01*
X51325000Y1926192D01*
X51277380Y2021430D01*
X51277380Y2259525D01*
X51325000Y2402382D01*
X52277380Y2830954D02*
X51277380Y2830954D01*
X51277380Y3069049D01*
X51325000Y3211906D01*
X51420238Y3307144D01*
X51515476Y3354763D01*
X51705952Y3402382D01*
X51848809Y3402382D01*
X52039285Y3354763D01*
X52134523Y3307144D01*
X52229761Y3211906D01*
X52277380Y3069049D01*
X52277380Y2830954D01*
X51991666Y3783335D02*
X51991666Y4259525D01*
X52277380Y3688097D02*
X51277380Y4021430D01*
X52277380Y4354763D01*
X54854761Y1830953D02*
X54902380Y1973810D01*
X54902380Y2211906D01*
X54854761Y2307144D01*
X54807142Y2354763D01*
X54711904Y2402382D01*
X54616666Y2402382D01*
X54521428Y2354763D01*
X54473809Y2307144D01*
X54426190Y2211906D01*
X54378571Y2021429D01*
X54330952Y1926191D01*
X54283333Y1878572D01*
X54188095Y1830953D01*
X54092857Y1830953D01*
X53997619Y1878572D01*
X53950000Y1926191D01*
X53902380Y2021429D01*
X53902380Y2259525D01*
X53950000Y2402382D01*
X54807142Y3402382D02*
X54854761Y3354763D01*
X54902380Y3211906D01*
X54902380Y3116668D01*
X54854761Y2973810D01*
X54759523Y2878572D01*
X54664285Y2830953D01*
X54473809Y2783334D01*
X54330952Y2783334D01*
X54140476Y2830953D01*
X54045238Y2878572D01*
X53950000Y2973810D01*
X53902380Y3116668D01*
X53902380Y3211906D01*
X53950000Y3354763D01*
X53997619Y3402382D01*
X54902380Y4307144D02*
X54902380Y3830953D01*
X53902380Y3830953D01*
X46075000Y2402382D02*
X46027380Y2307144D01*
X46027380Y2164286D01*
X46075000Y2021429D01*
X46170238Y1926191D01*
X46265476Y1878572D01*
X46455952Y1830953D01*
X46598809Y1830953D01*
X46789285Y1878572D01*
X46884523Y1926191D01*
X46979761Y2021429D01*
X47027380Y2164286D01*
X47027380Y2259525D01*
X46979761Y2402382D01*
X46932142Y2450001D01*
X46598809Y2450001D01*
X46598809Y2259525D01*
X47027380Y2878572D02*
X46027380Y2878572D01*
X47027380Y3450001D01*
X46027380Y3450001D01*
X47027380Y3926191D02*
X46027380Y3926191D01*
X46027380Y4164286D01*
X46075000Y4307144D01*
X46170238Y4402382D01*
X46265476Y4450001D01*
X46455952Y4497620D01*
X46598809Y4497620D01*
X46789285Y4450001D01*
X46884523Y4402382D01*
X46979761Y4307144D01*
X47027380Y4164286D01*
X47027380Y3926191D01*
X33250000Y1642858D02*
X33202380Y1547620D01*
X33202380Y1404762D01*
X33250000Y1261905D01*
X33345238Y1166667D01*
X33440476Y1119048D01*
X33630952Y1071429D01*
X33773809Y1071429D01*
X33964285Y1119048D01*
X34059523Y1166667D01*
X34154761Y1261905D01*
X34202380Y1404762D01*
X34202380Y1500001D01*
X34154761Y1642858D01*
X34107142Y1690477D01*
X33773809Y1690477D01*
X33773809Y1500001D01*
X34202380Y2119048D02*
X33202380Y2119048D01*
X34202380Y2690477D01*
X33202380Y2690477D01*
X34202380Y3166667D02*
X33202380Y3166667D01*
X33202380Y3404762D01*
X33250000Y3547620D01*
X33345238Y3642858D01*
X33440476Y3690477D01*
X33630952Y3738096D01*
X33773809Y3738096D01*
X33964285Y3690477D01*
X34059523Y3642858D01*
X34154761Y3547620D01*
X34202380Y3404762D01*
X34202380Y3166667D01*
X31577380Y1119049D02*
X30577380Y1119049D01*
X31529761Y1547620D02*
X31577380Y1690477D01*
X31577380Y1928572D01*
X31529761Y2023811D01*
X31482142Y2071430D01*
X31386904Y2119049D01*
X31291666Y2119049D01*
X31196428Y2071430D01*
X31148809Y2023811D01*
X31101190Y1928572D01*
X31053571Y1738096D01*
X31005952Y1642858D01*
X30958333Y1595239D01*
X30863095Y1547620D01*
X30767857Y1547620D01*
X30672619Y1595239D01*
X30625000Y1642858D01*
X30577380Y1738096D01*
X30577380Y1976191D01*
X30625000Y2119049D01*
X31672619Y2309525D02*
X31672619Y3071430D01*
X31053571Y3642858D02*
X31101190Y3785715D01*
X31148809Y3833334D01*
X31244047Y3880953D01*
X31386904Y3880953D01*
X31482142Y3833334D01*
X31529761Y3785715D01*
X31577380Y3690477D01*
X31577380Y3309525D01*
X30577380Y3309525D01*
X30577380Y3642858D01*
X30625000Y3738096D01*
X30672619Y3785715D01*
X30767857Y3833334D01*
X30863095Y3833334D01*
X30958333Y3785715D01*
X31005952Y3738096D01*
X31053571Y3642858D01*
X31053571Y3309525D01*
X28952380Y1119048D02*
X27952380Y1119048D01*
X28904761Y1547620D02*
X28952380Y1690477D01*
X28952380Y1928572D01*
X28904761Y2023810D01*
X28857142Y2071429D01*
X28761904Y2119048D01*
X28666666Y2119048D01*
X28571428Y2071429D01*
X28523809Y2023810D01*
X28476190Y1928572D01*
X28428571Y1738096D01*
X28380952Y1642858D01*
X28333333Y1595239D01*
X28238095Y1547620D01*
X28142857Y1547620D01*
X28047619Y1595239D01*
X28000000Y1642858D01*
X27952380Y1738096D01*
X27952380Y1976191D01*
X28000000Y2119048D01*
X29047619Y2309524D02*
X29047619Y3071429D01*
X28666666Y3261905D02*
X28666666Y3738096D01*
X28952380Y3166667D02*
X27952380Y3500001D01*
X28952380Y3833334D01*
X25803571Y1119048D02*
X25803571Y1452382D01*
X26327380Y1595239D02*
X26327380Y1119048D01*
X25327380Y1119048D01*
X25327380Y1595239D01*
X26327380Y2023810D02*
X25327380Y2023810D01*
X26327380Y2595239D01*
X25327380Y2595239D01*
X26422619Y2833334D02*
X26422619Y3595239D01*
X26327380Y4357144D02*
X26327380Y3785715D01*
X26327380Y4071429D02*
X25327380Y4071429D01*
X25470238Y3976191D01*
X25565476Y3880953D01*
X25613095Y3785715D01*
X23702380Y1119048D02*
X22702380Y1119048D01*
X22702380Y1500000D01*
X22750000Y1595239D01*
X22797619Y1642858D01*
X22892857Y1690477D01*
X23035714Y1690477D01*
X23130952Y1642858D01*
X23178571Y1595239D01*
X23226190Y1500000D01*
X23226190Y1119048D01*
X22702380Y2023810D02*
X23702380Y2261905D01*
X22988095Y2452381D01*
X23702380Y2642858D01*
X22702380Y2880953D01*
X23702380Y3261905D02*
X22702380Y3261905D01*
X23416666Y3595239D01*
X22702380Y3928572D01*
X23702380Y3928572D01*
X22797619Y4357143D02*
X22750000Y4404762D01*
X22702380Y4500000D01*
X22702380Y4738096D01*
X22750000Y4833334D01*
X22797619Y4880953D01*
X22892857Y4928572D01*
X22988095Y4928572D01*
X23130952Y4880953D01*
X23702380Y4309524D01*
X23702380Y4928572D01*
X20553571Y1119048D02*
X20553571Y1452382D01*
X21077380Y1595239D02*
X21077380Y1119048D01*
X20077380Y1119048D01*
X20077380Y1595239D01*
X21077380Y2023810D02*
X20077380Y2023810D01*
X21077380Y2595239D01*
X20077380Y2595239D01*
X21172619Y2833334D02*
X21172619Y3595239D01*
X21077380Y4357144D02*
X21077380Y3785715D01*
X21077380Y4071429D02*
X20077380Y4071429D01*
X20220238Y3976191D01*
X20315476Y3880953D01*
X20363095Y3785715D01*
X18452380Y1119048D02*
X17452380Y1119048D01*
X17452380Y1500000D01*
X17500000Y1595239D01*
X17547619Y1642858D01*
X17642857Y1690477D01*
X17785714Y1690477D01*
X17880952Y1642858D01*
X17928571Y1595239D01*
X17976190Y1500000D01*
X17976190Y1119048D01*
X17452380Y2023810D02*
X18452380Y2261905D01*
X17738095Y2452381D01*
X18452380Y2642858D01*
X17452380Y2880953D01*
X18452380Y3261905D02*
X17452380Y3261905D01*
X18166666Y3595239D01*
X17452380Y3928572D01*
X18452380Y3928572D01*
X18452380Y4928572D02*
X18452380Y4357143D01*
X18452380Y4642858D02*
X17452380Y4642858D01*
X17595238Y4547620D01*
X17690476Y4452381D01*
X17738095Y4357143D01*
D13*
X41242857Y65178572D02*
X41242857Y63678572D01*
X40742857Y64750000D01*
X40242857Y63678572D01*
X40242857Y65178572D01*
X39600000Y63821429D02*
X39528571Y63750000D01*
X39385714Y63678572D01*
X39028571Y63678572D01*
X38885714Y63750000D01*
X38814285Y63821429D01*
X38742857Y63964286D01*
X38742857Y64107143D01*
X38814285Y64321429D01*
X39671428Y65178572D01*
X38742857Y65178572D01*
X38100000Y64607143D02*
X36957142Y64607143D01*
X35642857Y65178572D02*
X35642857Y63678572D01*
X35142857Y64750000D01*
X34642857Y63678572D01*
X34642857Y65178572D01*
X34000000Y63821429D02*
X33928571Y63750000D01*
X33785714Y63678572D01*
X33428571Y63678572D01*
X33285714Y63750000D01*
X33214285Y63821429D01*
X33142857Y63964286D01*
X33142857Y64107143D01*
X33214285Y64321429D01*
X34071428Y65178572D01*
X33142857Y65178572D01*
X32500000Y64607143D02*
X31357142Y64607143D01*
X31928571Y65178572D02*
X31928571Y64035715D01*
X30042857Y65178572D02*
X30042857Y63678572D01*
X29542857Y64750000D01*
X29042857Y63678572D01*
X29042857Y65178572D01*
X27542857Y65178572D02*
X28400000Y65178572D01*
X27971428Y65178572D02*
X27971428Y63678572D01*
X28114285Y63892858D01*
X28257142Y64035715D01*
X28400000Y64107143D01*
X26900000Y64607143D02*
X25757142Y64607143D01*
X26328571Y65178572D02*
X26328571Y64035715D01*
X24442857Y65178572D02*
X24442857Y63678572D01*
X23942857Y64750000D01*
X23442857Y63678572D01*
X23442857Y65178572D01*
X21942857Y65178572D02*
X22800000Y65178572D01*
X22371428Y65178572D02*
X22371428Y63678572D01*
X22514285Y63892858D01*
X22657142Y64035715D01*
X22800000Y64107143D01*
X21300000Y64607143D02*
X20157142Y64607143D01*
D11*
X69142857Y59554762D02*
X68476190Y61554762D01*
X67809523Y59554762D01*
X66000000Y61364286D02*
X66095238Y61459524D01*
X66380952Y61554762D01*
X66571428Y61554762D01*
X66857142Y61459524D01*
X67047619Y61269048D01*
X67142857Y61078572D01*
X67238095Y60697620D01*
X67238095Y60411905D01*
X67142857Y60030953D01*
X67047619Y59840477D01*
X66857142Y59650000D01*
X66571428Y59554762D01*
X66380952Y59554762D01*
X66095238Y59650000D01*
X66000000Y59745239D01*
X64000000Y61364286D02*
X64095238Y61459524D01*
X64380952Y61554762D01*
X64571428Y61554762D01*
X64857142Y61459524D01*
X65047619Y61269048D01*
X65142857Y61078572D01*
X65238095Y60697620D01*
X65238095Y60411905D01*
X65142857Y60030953D01*
X65047619Y59840477D01*
X64857142Y59650000D01*
X64571428Y59554762D01*
X64380952Y59554762D01*
X64095238Y59650000D01*
X64000000Y59745239D01*
X63142857Y61364286D02*
X63047619Y61459524D01*
X63142857Y61554762D01*
X63238095Y61459524D01*
X63142857Y61364286D01*
X63142857Y61554762D01*
X63142857Y60316667D02*
X63047619Y60411905D01*
X63142857Y60507143D01*
X63238095Y60411905D01*
X63142857Y60316667D01*
X63142857Y60507143D01*
X70095238Y63761905D02*
X70285714Y63666667D01*
X70380952Y63571429D01*
X70476190Y63380953D01*
X70476190Y63285715D01*
X70380952Y63095239D01*
X70285714Y63000000D01*
X70095238Y62904762D01*
X69714285Y62904762D01*
X69523809Y63000000D01*
X69428571Y63095239D01*
X69333333Y63285715D01*
X69333333Y63380953D01*
X69428571Y63571429D01*
X69523809Y63666667D01*
X69714285Y63761905D01*
X70095238Y63761905D01*
X70285714Y63857143D01*
X70380952Y63952381D01*
X70476190Y64142858D01*
X70476190Y64523810D01*
X70380952Y64714286D01*
X70285714Y64809524D01*
X70095238Y64904762D01*
X69714285Y64904762D01*
X69523809Y64809524D01*
X69428571Y64714286D01*
X69333333Y64523810D01*
X69333333Y64142858D01*
X69428571Y63952381D01*
X69523809Y63857143D01*
X69714285Y63761905D01*
X68476190Y64142858D02*
X66952380Y64142858D01*
X66190476Y62904762D02*
X64952380Y62904762D01*
X65619047Y63666667D01*
X65333333Y63666667D01*
X65142857Y63761905D01*
X65047619Y63857143D01*
X64952380Y64047620D01*
X64952380Y64523810D01*
X65047619Y64714286D01*
X65142857Y64809524D01*
X65333333Y64904762D01*
X65904761Y64904762D01*
X66095238Y64809524D01*
X66190476Y64714286D01*
X63714285Y62904762D02*
X63523809Y62904762D01*
X63333333Y63000000D01*
X63238095Y63095239D01*
X63142857Y63285715D01*
X63047619Y63666667D01*
X63047619Y64142858D01*
X63142857Y64523810D01*
X63238095Y64714286D01*
X63333333Y64809524D01*
X63523809Y64904762D01*
X63714285Y64904762D01*
X63904761Y64809524D01*
X64000000Y64714286D01*
X64095238Y64523810D01*
X64190476Y64142858D01*
X64190476Y63666667D01*
X64095238Y63285715D01*
X64000000Y63095239D01*
X63904761Y63000000D01*
X63714285Y62904762D01*
X62380952Y63571429D02*
X61904761Y64904762D01*
X61428571Y63571429D01*
X68476190Y66254762D02*
X67238095Y66254762D01*
X67904761Y67016667D01*
X67619047Y67016667D01*
X67428571Y67111905D01*
X67333333Y67207143D01*
X67238095Y67397620D01*
X67238095Y67873810D01*
X67333333Y68064286D01*
X67428571Y68159524D01*
X67619047Y68254762D01*
X68190476Y68254762D01*
X68380952Y68159524D01*
X68476190Y68064286D01*
X66000000Y66254762D02*
X65809523Y66254762D01*
X65619047Y66350000D01*
X65523809Y66445239D01*
X65428571Y66635715D01*
X65333333Y67016667D01*
X65333333Y67492858D01*
X65428571Y67873810D01*
X65523809Y68064286D01*
X65619047Y68159524D01*
X65809523Y68254762D01*
X66000000Y68254762D01*
X66190476Y68159524D01*
X66285714Y68064286D01*
X66380952Y67873810D01*
X66476190Y67492858D01*
X66476190Y67016667D01*
X66380952Y66635715D01*
X66285714Y66445239D01*
X66190476Y66350000D01*
X66000000Y66254762D01*
X64571428Y67683334D02*
X63619047Y67683334D01*
X64761904Y68254762D02*
X64095238Y66254762D01*
X63428571Y68254762D01*
D14*
X50857142Y64285715D02*
X53142857Y64285715D01*
X52000000Y63142858D02*
X52000000Y65428572D01*
D10*
X17300000Y15500000D02*
X8700000Y15500000D01*
X19450000Y12000000D02*
X17300000Y15500000D01*
X33750000Y12000000D02*
X19450000Y12000000D01*
D15*
%TO.C,LOGO1*%
G36*
X73231114Y52084505D02*
G01*
X73156461Y52121727D01*
X73090569Y52190261D01*
X73072423Y52215648D01*
X73052655Y52248866D01*
X73039828Y52284945D01*
X73032490Y52333098D01*
X73029187Y52402536D01*
X73028462Y52494206D01*
X73031737Y52619830D01*
X73043123Y52714154D01*
X73064959Y52784523D01*
X73099581Y52838286D01*
X73149330Y52882788D01*
X73152986Y52885423D01*
X73202015Y52912377D01*
X73261055Y52925712D01*
X73336141Y52929000D01*
X73458205Y52929000D01*
X73458256Y53047497D01*
X73459392Y53113492D01*
X73466314Y53152202D01*
X73484402Y53175419D01*
X73519038Y53194933D01*
X73527355Y53198920D01*
X73566280Y53217603D01*
X73596417Y53229403D01*
X73618826Y53230422D01*
X73634567Y53216761D01*
X73644698Y53184522D01*
X73650277Y53129804D01*
X73652365Y53048711D01*
X73652019Y52937344D01*
X73650300Y52791802D01*
X73649763Y52748269D01*
X73647828Y52598205D01*
X73646096Y52500042D01*
X73458308Y52500042D01*
X73457252Y52583364D01*
X73452562Y52637880D01*
X73441949Y52673837D01*
X73423128Y52701482D01*
X73410350Y52714965D01*
X73358110Y52754417D01*
X73311858Y52757628D01*
X73264133Y52725049D01*
X73262923Y52723846D01*
X73243506Y52698668D01*
X73231693Y52664447D01*
X73225735Y52611748D01*
X73223880Y52531131D01*
X73223846Y52513271D01*
X73228330Y52402175D01*
X73242926Y52325161D01*
X73269350Y52278147D01*
X73309317Y52257050D01*
X73332416Y52254923D01*
X73387238Y52264900D01*
X73424842Y52297752D01*
X73447477Y52357857D01*
X73457394Y52449598D01*
X73458308Y52500042D01*
X73646096Y52500042D01*
X73645778Y52482060D01*
X73643127Y52394679D01*
X73639394Y52330905D01*
X73634093Y52285582D01*
X73626742Y52253555D01*
X73616857Y52229668D01*
X73603954Y52208764D01*
X73598421Y52200898D01*
X73525031Y52126595D01*
X73432240Y52084467D01*
X73324904Y52072722D01*
X73231114Y52084505D01*
G37*
X73231114Y52084505D02*
X73156461Y52121727D01*
X73090569Y52190261D01*
X73072423Y52215648D01*
X73052655Y52248866D01*
X73039828Y52284945D01*
X73032490Y52333098D01*
X73029187Y52402536D01*
X73028462Y52494206D01*
X73031737Y52619830D01*
X73043123Y52714154D01*
X73064959Y52784523D01*
X73099581Y52838286D01*
X73149330Y52882788D01*
X73152986Y52885423D01*
X73202015Y52912377D01*
X73261055Y52925712D01*
X73336141Y52929000D01*
X73458205Y52929000D01*
X73458256Y53047497D01*
X73459392Y53113492D01*
X73466314Y53152202D01*
X73484402Y53175419D01*
X73519038Y53194933D01*
X73527355Y53198920D01*
X73566280Y53217603D01*
X73596417Y53229403D01*
X73618826Y53230422D01*
X73634567Y53216761D01*
X73644698Y53184522D01*
X73650277Y53129804D01*
X73652365Y53048711D01*
X73652019Y52937344D01*
X73650300Y52791802D01*
X73649763Y52748269D01*
X73647828Y52598205D01*
X73646096Y52500042D01*
X73458308Y52500042D01*
X73457252Y52583364D01*
X73452562Y52637880D01*
X73441949Y52673837D01*
X73423128Y52701482D01*
X73410350Y52714965D01*
X73358110Y52754417D01*
X73311858Y52757628D01*
X73264133Y52725049D01*
X73262923Y52723846D01*
X73243506Y52698668D01*
X73231693Y52664447D01*
X73225735Y52611748D01*
X73223880Y52531131D01*
X73223846Y52513271D01*
X73228330Y52402175D01*
X73242926Y52325161D01*
X73269350Y52278147D01*
X73309317Y52257050D01*
X73332416Y52254923D01*
X73387238Y52264900D01*
X73424842Y52297752D01*
X73447477Y52357857D01*
X73457394Y52449598D01*
X73458308Y52500042D01*
X73646096Y52500042D01*
X73645778Y52482060D01*
X73643127Y52394679D01*
X73639394Y52330905D01*
X73634093Y52285582D01*
X73626742Y52253555D01*
X73616857Y52229668D01*
X73603954Y52208764D01*
X73598421Y52200898D01*
X73525031Y52126595D01*
X73432240Y52084467D01*
X73324904Y52072722D01*
X73231114Y52084505D01*
G36*
X71728336Y52095089D02*
G01*
X71665633Y52131358D01*
X71622039Y52167358D01*
X71590155Y52205075D01*
X71568190Y52251199D01*
X71554351Y52312421D01*
X71546847Y52395431D01*
X71543883Y52506919D01*
X71543539Y52587062D01*
X71543539Y52882065D01*
X71709615Y52956515D01*
X71719385Y52633402D01*
X71723421Y52512729D01*
X71727656Y52425141D01*
X71732903Y52364650D01*
X71739975Y52325268D01*
X71749689Y52301007D01*
X71762856Y52285880D01*
X71767081Y52282606D01*
X71831091Y52257034D01*
X71895792Y52267153D01*
X71934308Y52294000D01*
X71949975Y52313024D01*
X71960820Y52337988D01*
X71967712Y52375834D01*
X71971521Y52433502D01*
X71973117Y52517935D01*
X71973385Y52605928D01*
X71973437Y52716323D01*
X71975328Y52794463D01*
X71981655Y52847165D01*
X71995017Y52881242D01*
X72018015Y52903511D01*
X72053246Y52920787D01*
X72100303Y52938738D01*
X72151697Y52958278D01*
X72145579Y52611485D01*
X72143116Y52486468D01*
X72140233Y52394082D01*
X72136102Y52327881D01*
X72129893Y52281420D01*
X72120774Y52248256D01*
X72107917Y52221944D01*
X72092416Y52198729D01*
X72017629Y52124569D01*
X71926372Y52081684D01*
X71827117Y52071412D01*
X71728336Y52095089D01*
G37*
X71728336Y52095089D02*
X71665633Y52131358D01*
X71622039Y52167358D01*
X71590155Y52205075D01*
X71568190Y52251199D01*
X71554351Y52312421D01*
X71546847Y52395431D01*
X71543883Y52506919D01*
X71543539Y52587062D01*
X71543539Y52882065D01*
X71709615Y52956515D01*
X71719385Y52633402D01*
X71723421Y52512729D01*
X71727656Y52425141D01*
X71732903Y52364650D01*
X71739975Y52325268D01*
X71749689Y52301007D01*
X71762856Y52285880D01*
X71767081Y52282606D01*
X71831091Y52257034D01*
X71895792Y52267153D01*
X71934308Y52294000D01*
X71949975Y52313024D01*
X71960820Y52337988D01*
X71967712Y52375834D01*
X71971521Y52433502D01*
X71973117Y52517935D01*
X71973385Y52605928D01*
X71973437Y52716323D01*
X71975328Y52794463D01*
X71981655Y52847165D01*
X71995017Y52881242D01*
X72018015Y52903511D01*
X72053246Y52920787D01*
X72100303Y52938738D01*
X72151697Y52958278D01*
X72145579Y52611485D01*
X72143116Y52486468D01*
X72140233Y52394082D01*
X72136102Y52327881D01*
X72129893Y52281420D01*
X72120774Y52248256D01*
X72107917Y52221944D01*
X72092416Y52198729D01*
X72017629Y52124569D01*
X71926372Y52081684D01*
X71827117Y52071412D01*
X71728336Y52095089D01*
G36*
X73983114Y52087256D02*
G01*
X73891536Y52135409D01*
X73823951Y52212905D01*
X73799943Y52262727D01*
X73781262Y52337533D01*
X73771699Y52432052D01*
X73770792Y52535210D01*
X73778079Y52635935D01*
X73793097Y52723153D01*
X73815385Y52785791D01*
X73822235Y52796579D01*
X73903368Y52877105D01*
X73999734Y52925336D01*
X74104299Y52939450D01*
X74210032Y52917629D01*
X74239457Y52904547D01*
X74296759Y52864231D01*
X74347050Y52810775D01*
X74351803Y52803995D01*
X74371122Y52771321D01*
X74383892Y52736394D01*
X74391436Y52690414D01*
X74395076Y52624584D01*
X74396135Y52530105D01*
X74396154Y52508923D01*
X74396106Y52502182D01*
X74200769Y52502182D01*
X74199632Y52591349D01*
X74195159Y52650520D01*
X74185754Y52688741D01*
X74169824Y52715053D01*
X74161692Y52723846D01*
X74114942Y52757261D01*
X74069553Y52755737D01*
X74023660Y52726752D01*
X73996288Y52695809D01*
X73980077Y52650643D01*
X73970974Y52579420D01*
X73970349Y52571114D01*
X73968796Y52442037D01*
X73985035Y52346172D01*
X74018848Y52284107D01*
X74070016Y52256432D01*
X74088280Y52254923D01*
X74136240Y52262513D01*
X74169047Y52288808D01*
X74189105Y52339095D01*
X74198822Y52418664D01*
X74200769Y52502182D01*
X74396106Y52502182D01*
X74395426Y52408249D01*
X74392371Y52337906D01*
X74385678Y52289163D01*
X74374040Y52253288D01*
X74356147Y52221548D01*
X74352192Y52215648D01*
X74285733Y52136104D01*
X74213315Y52089929D01*
X74125151Y52071599D01*
X74095213Y52070703D01*
X73983114Y52087256D01*
G37*
X73983114Y52087256D02*
X73891536Y52135409D01*
X73823951Y52212905D01*
X73799943Y52262727D01*
X73781262Y52337533D01*
X73771699Y52432052D01*
X73770792Y52535210D01*
X73778079Y52635935D01*
X73793097Y52723153D01*
X73815385Y52785791D01*
X73822235Y52796579D01*
X73903368Y52877105D01*
X73999734Y52925336D01*
X74104299Y52939450D01*
X74210032Y52917629D01*
X74239457Y52904547D01*
X74296759Y52864231D01*
X74347050Y52810775D01*
X74351803Y52803995D01*
X74371122Y52771321D01*
X74383892Y52736394D01*
X74391436Y52690414D01*
X74395076Y52624584D01*
X74396135Y52530105D01*
X74396154Y52508923D01*
X74396106Y52502182D01*
X74200769Y52502182D01*
X74199632Y52591349D01*
X74195159Y52650520D01*
X74185754Y52688741D01*
X74169824Y52715053D01*
X74161692Y52723846D01*
X74114942Y52757261D01*
X74069553Y52755737D01*
X74023660Y52726752D01*
X73996288Y52695809D01*
X73980077Y52650643D01*
X73970974Y52579420D01*
X73970349Y52571114D01*
X73968796Y52442037D01*
X73985035Y52346172D01*
X74018848Y52284107D01*
X74070016Y52256432D01*
X74088280Y52254923D01*
X74136240Y52262513D01*
X74169047Y52288808D01*
X74189105Y52339095D01*
X74198822Y52418664D01*
X74200769Y52502182D01*
X74396106Y52502182D01*
X74395426Y52408249D01*
X74392371Y52337906D01*
X74385678Y52289163D01*
X74374040Y52253288D01*
X74356147Y52221548D01*
X74352192Y52215648D01*
X74285733Y52136104D01*
X74213315Y52089929D01*
X74125151Y52071599D01*
X74095213Y52070703D01*
X73983114Y52087256D01*
G36*
X72465746Y52099745D02*
G01*
X72388714Y52151567D01*
X72329184Y52226412D01*
X72293622Y52321654D01*
X72286429Y52391756D01*
X72287246Y52421009D01*
X72294086Y52443407D01*
X72312888Y52463474D01*
X72349592Y52485733D01*
X72410138Y52514709D01*
X72500466Y52554927D01*
X72500923Y52555129D01*
X72584067Y52593210D01*
X72652247Y52627025D01*
X72698495Y52652933D01*
X72715842Y52667295D01*
X72715846Y52667411D01*
X72700557Y52698685D01*
X72664804Y52733157D01*
X72623758Y52757990D01*
X72602963Y52762923D01*
X72546230Y52745862D01*
X72497373Y52703133D01*
X72473535Y52656155D01*
X72450603Y52621522D01*
X72405682Y52582081D01*
X72352877Y52548009D01*
X72306290Y52529480D01*
X72296548Y52528462D01*
X72285582Y52545215D01*
X72284921Y52588039D01*
X72292980Y52645781D01*
X72308173Y52707289D01*
X72328914Y52761409D01*
X72329962Y52763510D01*
X72392379Y52850660D01*
X72473274Y52909939D01*
X72565144Y52939034D01*
X72660487Y52935634D01*
X72751802Y52897428D01*
X72755862Y52894741D01*
X72827694Y52829642D01*
X72874927Y52744705D01*
X72901066Y52633021D01*
X72904574Y52601643D01*
X72910787Y52453536D01*
X72903339Y52384468D01*
X72715846Y52384468D01*
X72713410Y52427552D01*
X72700086Y52440126D01*
X72666868Y52430719D01*
X72614506Y52408483D01*
X72555976Y52380610D01*
X72554521Y52379872D01*
X72504911Y52353777D01*
X72485000Y52336363D01*
X72489910Y52318107D01*
X72510584Y52294120D01*
X72563181Y52259406D01*
X72619823Y52256856D01*
X72670631Y52282119D01*
X72705724Y52330847D01*
X72715846Y52384468D01*
X72903339Y52384468D01*
X72898008Y52335036D01*
X72865222Y52241055D01*
X72819579Y52175215D01*
X72737198Y52108681D01*
X72646454Y52075676D01*
X72553815Y52073573D01*
X72465746Y52099745D01*
G37*
X72465746Y52099745D02*
X72388714Y52151567D01*
X72329184Y52226412D01*
X72293622Y52321654D01*
X72286429Y52391756D01*
X72287246Y52421009D01*
X72294086Y52443407D01*
X72312888Y52463474D01*
X72349592Y52485733D01*
X72410138Y52514709D01*
X72500466Y52554927D01*
X72500923Y52555129D01*
X72584067Y52593210D01*
X72652247Y52627025D01*
X72698495Y52652933D01*
X72715842Y52667295D01*
X72715846Y52667411D01*
X72700557Y52698685D01*
X72664804Y52733157D01*
X72623758Y52757990D01*
X72602963Y52762923D01*
X72546230Y52745862D01*
X72497373Y52703133D01*
X72473535Y52656155D01*
X72450603Y52621522D01*
X72405682Y52582081D01*
X72352877Y52548009D01*
X72306290Y52529480D01*
X72296548Y52528462D01*
X72285582Y52545215D01*
X72284921Y52588039D01*
X72292980Y52645781D01*
X72308173Y52707289D01*
X72328914Y52761409D01*
X72329962Y52763510D01*
X72392379Y52850660D01*
X72473274Y52909939D01*
X72565144Y52939034D01*
X72660487Y52935634D01*
X72751802Y52897428D01*
X72755862Y52894741D01*
X72827694Y52829642D01*
X72874927Y52744705D01*
X72901066Y52633021D01*
X72904574Y52601643D01*
X72910787Y52453536D01*
X72903339Y52384468D01*
X72715846Y52384468D01*
X72713410Y52427552D01*
X72700086Y52440126D01*
X72666868Y52430719D01*
X72614506Y52408483D01*
X72555976Y52380610D01*
X72554521Y52379872D01*
X72504911Y52353777D01*
X72485000Y52336363D01*
X72489910Y52318107D01*
X72510584Y52294120D01*
X72563181Y52259406D01*
X72619823Y52256856D01*
X72670631Y52282119D01*
X72705724Y52330847D01*
X72715846Y52384468D01*
X72903339Y52384468D01*
X72898008Y52335036D01*
X72865222Y52241055D01*
X72819579Y52175215D01*
X72737198Y52108681D01*
X72646454Y52075676D01*
X72553815Y52073573D01*
X72465746Y52099745D01*
G36*
X70840154Y51992120D02*
G01*
X70834428Y52071980D01*
X70827851Y52119039D01*
X70818738Y52139566D01*
X70805402Y52139829D01*
X70801077Y52137378D01*
X70743556Y52119636D01*
X70668732Y52120672D01*
X70592661Y52138910D01*
X70545082Y52162505D01*
X70496298Y52200198D01*
X70460636Y52242855D01*
X70436155Y52297057D01*
X70420913Y52369384D01*
X70412970Y52466419D01*
X70410384Y52594742D01*
X70410338Y52619358D01*
X70410308Y52895870D01*
X70471839Y52917320D01*
X70515541Y52931912D01*
X70539518Y52938706D01*
X70540223Y52938769D01*
X70542585Y52920345D01*
X70544594Y52869526D01*
X70546099Y52792993D01*
X70546947Y52697430D01*
X70547077Y52639329D01*
X70547349Y52524771D01*
X70548748Y52442667D01*
X70552151Y52386393D01*
X70558433Y52349326D01*
X70568471Y52324844D01*
X70583139Y52306325D01*
X70592298Y52297406D01*
X70655211Y52261466D01*
X70723864Y52258775D01*
X70786152Y52289170D01*
X70797671Y52300144D01*
X70814567Y52320779D01*
X70826286Y52345256D01*
X70833767Y52380647D01*
X70837946Y52434026D01*
X70839763Y52512466D01*
X70840154Y52620617D01*
X70840154Y52895870D01*
X70901685Y52917320D01*
X70945387Y52931912D01*
X70969364Y52938706D01*
X70970070Y52938769D01*
X70971874Y52920069D01*
X70973500Y52867322D01*
X70974883Y52785557D01*
X70975958Y52679805D01*
X70976660Y52555094D01*
X70976923Y52416455D01*
X70976923Y51881806D01*
X70849923Y51828236D01*
X70840154Y51992120D01*
G37*
X70840154Y51992120D02*
X70834428Y52071980D01*
X70827851Y52119039D01*
X70818738Y52139566D01*
X70805402Y52139829D01*
X70801077Y52137378D01*
X70743556Y52119636D01*
X70668732Y52120672D01*
X70592661Y52138910D01*
X70545082Y52162505D01*
X70496298Y52200198D01*
X70460636Y52242855D01*
X70436155Y52297057D01*
X70420913Y52369384D01*
X70412970Y52466419D01*
X70410384Y52594742D01*
X70410338Y52619358D01*
X70410308Y52895870D01*
X70471839Y52917320D01*
X70515541Y52931912D01*
X70539518Y52938706D01*
X70540223Y52938769D01*
X70542585Y52920345D01*
X70544594Y52869526D01*
X70546099Y52792993D01*
X70546947Y52697430D01*
X70547077Y52639329D01*
X70547349Y52524771D01*
X70548748Y52442667D01*
X70552151Y52386393D01*
X70558433Y52349326D01*
X70568471Y52324844D01*
X70583139Y52306325D01*
X70592298Y52297406D01*
X70655211Y52261466D01*
X70723864Y52258775D01*
X70786152Y52289170D01*
X70797671Y52300144D01*
X70814567Y52320779D01*
X70826286Y52345256D01*
X70833767Y52380647D01*
X70837946Y52434026D01*
X70839763Y52512466D01*
X70840154Y52620617D01*
X70840154Y52895870D01*
X70901685Y52917320D01*
X70945387Y52931912D01*
X70969364Y52938706D01*
X70970070Y52938769D01*
X70971874Y52920069D01*
X70973500Y52867322D01*
X70974883Y52785557D01*
X70975958Y52679805D01*
X70976660Y52555094D01*
X70976923Y52416455D01*
X70976923Y51881806D01*
X70849923Y51828236D01*
X70840154Y51992120D01*
G36*
X69946499Y52126303D02*
G01*
X69869940Y52154733D01*
X69869064Y52155279D01*
X69821715Y52190127D01*
X69786759Y52230852D01*
X69762175Y52283925D01*
X69745938Y52355814D01*
X69736025Y52452992D01*
X69730414Y52581928D01*
X69729923Y52600298D01*
X69722859Y52877287D01*
X69782305Y52908028D01*
X69825319Y52928802D01*
X69851290Y52938646D01*
X69852491Y52938769D01*
X69856986Y52920606D01*
X69860556Y52871612D01*
X69862752Y52800031D01*
X69863231Y52742068D01*
X69863242Y52648170D01*
X69867534Y52589203D01*
X69882497Y52561079D01*
X69914518Y52559706D01*
X69969986Y52580998D01*
X70053731Y52620136D01*
X70115311Y52652643D01*
X70146983Y52680845D01*
X70156294Y52711582D01*
X70156308Y52713104D01*
X70140943Y52766054D01*
X70095453Y52794660D01*
X70025834Y52798803D01*
X69975687Y52798084D01*
X69949246Y52812527D01*
X69932757Y52847218D01*
X69923267Y52891416D01*
X69936943Y52916493D01*
X69942093Y52920082D01*
X69990575Y52934496D01*
X70058469Y52936537D01*
X70128388Y52926983D01*
X70177932Y52909522D01*
X70246430Y52851364D01*
X70285366Y52770408D01*
X70293077Y52707160D01*
X70287193Y52650111D01*
X70265899Y52603542D01*
X70223735Y52562181D01*
X70155241Y52520755D01*
X70054956Y52473993D01*
X70048846Y52471350D01*
X69958510Y52429617D01*
X69902765Y52395391D01*
X69878871Y52364635D01*
X69884087Y52333311D01*
X69915672Y52297383D01*
X69925117Y52289116D01*
X69988383Y52257058D01*
X70053936Y52258407D01*
X70111028Y52289838D01*
X70148907Y52348024D01*
X70152426Y52359446D01*
X70186700Y52414837D01*
X70230191Y52441518D01*
X70293077Y52467960D01*
X70293077Y52399548D01*
X70273948Y52300110D01*
X70217169Y52208902D01*
X70187622Y52178389D01*
X70120458Y52139228D01*
X70035044Y52121500D01*
X69946499Y52126303D01*
G37*
X69946499Y52126303D02*
X69869940Y52154733D01*
X69869064Y52155279D01*
X69821715Y52190127D01*
X69786759Y52230852D01*
X69762175Y52283925D01*
X69745938Y52355814D01*
X69736025Y52452992D01*
X69730414Y52581928D01*
X69729923Y52600298D01*
X69722859Y52877287D01*
X69782305Y52908028D01*
X69825319Y52928802D01*
X69851290Y52938646D01*
X69852491Y52938769D01*
X69856986Y52920606D01*
X69860556Y52871612D01*
X69862752Y52800031D01*
X69863231Y52742068D01*
X69863242Y52648170D01*
X69867534Y52589203D01*
X69882497Y52561079D01*
X69914518Y52559706D01*
X69969986Y52580998D01*
X70053731Y52620136D01*
X70115311Y52652643D01*
X70146983Y52680845D01*
X70156294Y52711582D01*
X70156308Y52713104D01*
X70140943Y52766054D01*
X70095453Y52794660D01*
X70025834Y52798803D01*
X69975687Y52798084D01*
X69949246Y52812527D01*
X69932757Y52847218D01*
X69923267Y52891416D01*
X69936943Y52916493D01*
X69942093Y52920082D01*
X69990575Y52934496D01*
X70058469Y52936537D01*
X70128388Y52926983D01*
X70177932Y52909522D01*
X70246430Y52851364D01*
X70285366Y52770408D01*
X70293077Y52707160D01*
X70287193Y52650111D01*
X70265899Y52603542D01*
X70223735Y52562181D01*
X70155241Y52520755D01*
X70054956Y52473993D01*
X70048846Y52471350D01*
X69958510Y52429617D01*
X69902765Y52395391D01*
X69878871Y52364635D01*
X69884087Y52333311D01*
X69915672Y52297383D01*
X69925117Y52289116D01*
X69988383Y52257058D01*
X70053936Y52258407D01*
X70111028Y52289838D01*
X70148907Y52348024D01*
X70152426Y52359446D01*
X70186700Y52414837D01*
X70230191Y52441518D01*
X70293077Y52467960D01*
X70293077Y52399548D01*
X70273948Y52300110D01*
X70217169Y52208902D01*
X70187622Y52178389D01*
X70120458Y52139228D01*
X70035044Y52121500D01*
X69946499Y52126303D01*
G36*
X69286638Y52124670D02*
G01*
X69197883Y52157421D01*
X69125978Y52215350D01*
X69097856Y52256128D01*
X69067198Y52330954D01*
X69067835Y52385058D01*
X69100013Y52421446D01*
X69111919Y52427633D01*
X69163325Y52446925D01*
X69189578Y52441982D01*
X69198470Y52409587D01*
X69198923Y52391692D01*
X69215203Y52325859D01*
X69257635Y52279807D01*
X69316612Y52257564D01*
X69382525Y52263161D01*
X69436105Y52292229D01*
X69454202Y52308810D01*
X69467029Y52328925D01*
X69475694Y52359332D01*
X69481304Y52406788D01*
X69484965Y52478050D01*
X69487785Y52579875D01*
X69488516Y52612115D01*
X69491180Y52722410D01*
X69494208Y52800036D01*
X69498750Y52851396D01*
X69505954Y52882890D01*
X69516967Y52900920D01*
X69532940Y52911888D01*
X69543166Y52916733D01*
X69586594Y52933301D01*
X69612158Y52938769D01*
X69620605Y52920507D01*
X69625761Y52865296D01*
X69627654Y52772499D01*
X69626311Y52641478D01*
X69625893Y52621269D01*
X69622942Y52501733D01*
X69619452Y52414449D01*
X69614486Y52352591D01*
X69607107Y52309336D01*
X69596376Y52277860D01*
X69581355Y52251339D01*
X69573498Y52239975D01*
X69528447Y52189692D01*
X69478060Y52150581D01*
X69471892Y52147167D01*
X69381542Y52120212D01*
X69286638Y52124670D01*
G37*
X69286638Y52124670D02*
X69197883Y52157421D01*
X69125978Y52215350D01*
X69097856Y52256128D01*
X69067198Y52330954D01*
X69067835Y52385058D01*
X69100013Y52421446D01*
X69111919Y52427633D01*
X69163325Y52446925D01*
X69189578Y52441982D01*
X69198470Y52409587D01*
X69198923Y52391692D01*
X69215203Y52325859D01*
X69257635Y52279807D01*
X69316612Y52257564D01*
X69382525Y52263161D01*
X69436105Y52292229D01*
X69454202Y52308810D01*
X69467029Y52328925D01*
X69475694Y52359332D01*
X69481304Y52406788D01*
X69484965Y52478050D01*
X69487785Y52579875D01*
X69488516Y52612115D01*
X69491180Y52722410D01*
X69494208Y52800036D01*
X69498750Y52851396D01*
X69505954Y52882890D01*
X69516967Y52900920D01*
X69532940Y52911888D01*
X69543166Y52916733D01*
X69586594Y52933301D01*
X69612158Y52938769D01*
X69620605Y52920507D01*
X69625761Y52865296D01*
X69627654Y52772499D01*
X69626311Y52641478D01*
X69625893Y52621269D01*
X69622942Y52501733D01*
X69619452Y52414449D01*
X69614486Y52352591D01*
X69607107Y52309336D01*
X69596376Y52277860D01*
X69581355Y52251339D01*
X69573498Y52239975D01*
X69528447Y52189692D01*
X69478060Y52150581D01*
X69471892Y52147167D01*
X69381542Y52120212D01*
X69286638Y52124670D01*
G36*
X68397919Y52280289D02*
G01*
X68398167Y52426320D01*
X68399128Y52538655D01*
X68401206Y52622678D01*
X68404807Y52683769D01*
X68410335Y52727309D01*
X68418196Y52758679D01*
X68428793Y52783262D01*
X68436818Y52797294D01*
X68503272Y52873388D01*
X68587530Y52921084D01*
X68680751Y52938199D01*
X68774100Y52922546D01*
X68829688Y52894418D01*
X68888043Y52845760D01*
X68927814Y52786333D01*
X68951810Y52708507D01*
X68962839Y52604652D01*
X68964401Y52528462D01*
X68964191Y52522986D01*
X68827692Y52522986D01*
X68826859Y52610355D01*
X68823039Y52668192D01*
X68814254Y52706029D01*
X68798526Y52733398D01*
X68779734Y52754042D01*
X68716625Y52793890D01*
X68648863Y52797295D01*
X68584821Y52764025D01*
X68579836Y52759517D01*
X68558561Y52736067D01*
X68545221Y52708166D01*
X68537999Y52666641D01*
X68535077Y52602316D01*
X68534615Y52531200D01*
X68535617Y52441858D01*
X68539762Y52382258D01*
X68548764Y52343089D01*
X68564333Y52315040D01*
X68577098Y52300144D01*
X68636400Y52262575D01*
X68704699Y52258057D01*
X68769890Y52286753D01*
X68782472Y52297406D01*
X68803889Y52321063D01*
X68817256Y52349251D01*
X68824434Y52391245D01*
X68827281Y52456319D01*
X68827692Y52522986D01*
X68964191Y52522986D01*
X68959678Y52405765D01*
X68943638Y52313577D01*
X68913472Y52244269D01*
X68866371Y52190211D01*
X68829688Y52162505D01*
X68763010Y52132572D01*
X68685728Y52118678D01*
X68613890Y52122397D01*
X68573692Y52137400D01*
X68557918Y52141670D01*
X68547450Y52125750D01*
X68540144Y52083089D01*
X68534615Y52018106D01*
X68528563Y51945732D01*
X68520156Y51902187D01*
X68504859Y51877287D01*
X68478136Y51860845D01*
X68461346Y51853564D01*
X68397846Y51826963D01*
X68397919Y52280289D01*
G37*
X68397919Y52280289D02*
X68398167Y52426320D01*
X68399128Y52538655D01*
X68401206Y52622678D01*
X68404807Y52683769D01*
X68410335Y52727309D01*
X68418196Y52758679D01*
X68428793Y52783262D01*
X68436818Y52797294D01*
X68503272Y52873388D01*
X68587530Y52921084D01*
X68680751Y52938199D01*
X68774100Y52922546D01*
X68829688Y52894418D01*
X68888043Y52845760D01*
X68927814Y52786333D01*
X68951810Y52708507D01*
X68962839Y52604652D01*
X68964401Y52528462D01*
X68964191Y52522986D01*
X68827692Y52522986D01*
X68826859Y52610355D01*
X68823039Y52668192D01*
X68814254Y52706029D01*
X68798526Y52733398D01*
X68779734Y52754042D01*
X68716625Y52793890D01*
X68648863Y52797295D01*
X68584821Y52764025D01*
X68579836Y52759517D01*
X68558561Y52736067D01*
X68545221Y52708166D01*
X68537999Y52666641D01*
X68535077Y52602316D01*
X68534615Y52531200D01*
X68535617Y52441858D01*
X68539762Y52382258D01*
X68548764Y52343089D01*
X68564333Y52315040D01*
X68577098Y52300144D01*
X68636400Y52262575D01*
X68704699Y52258057D01*
X68769890Y52286753D01*
X68782472Y52297406D01*
X68803889Y52321063D01*
X68817256Y52349251D01*
X68824434Y52391245D01*
X68827281Y52456319D01*
X68827692Y52522986D01*
X68964191Y52522986D01*
X68959678Y52405765D01*
X68943638Y52313577D01*
X68913472Y52244269D01*
X68866371Y52190211D01*
X68829688Y52162505D01*
X68763010Y52132572D01*
X68685728Y52118678D01*
X68613890Y52122397D01*
X68573692Y52137400D01*
X68557918Y52141670D01*
X68547450Y52125750D01*
X68540144Y52083089D01*
X68534615Y52018106D01*
X68528563Y51945732D01*
X68520156Y51902187D01*
X68504859Y51877287D01*
X68478136Y51860845D01*
X68461346Y51853564D01*
X68397846Y51826963D01*
X68397919Y52280289D01*
G36*
X67604071Y52136662D02*
G01*
X67601089Y52188068D01*
X67598753Y52266192D01*
X67597251Y52364857D01*
X67596769Y52468343D01*
X67596769Y52818533D01*
X67658599Y52880363D01*
X67701207Y52918462D01*
X67738610Y52933895D01*
X67789730Y52932918D01*
X67810022Y52930433D01*
X67873446Y52923200D01*
X67925905Y52919055D01*
X67938692Y52918672D01*
X67981801Y52921176D01*
X68043456Y52927462D01*
X68067362Y52930433D01*
X68126078Y52935028D01*
X68165536Y52925046D01*
X68204662Y52894228D01*
X68218785Y52880363D01*
X68280615Y52818533D01*
X68280615Y52163503D01*
X68230850Y52140829D01*
X68187998Y52124034D01*
X68162927Y52118154D01*
X68156499Y52136736D01*
X68150491Y52188655D01*
X68145303Y52268172D01*
X68141336Y52369546D01*
X68139423Y52455192D01*
X68134077Y52792231D01*
X68087440Y52798825D01*
X68045024Y52794214D01*
X68024240Y52779287D01*
X68018430Y52751377D01*
X68013470Y52691925D01*
X68009754Y52608466D01*
X68007676Y52508532D01*
X68007376Y52457104D01*
X68007077Y52161054D01*
X67945546Y52139604D01*
X67901996Y52125020D01*
X67878306Y52118219D01*
X67877623Y52118154D01*
X67875246Y52136642D01*
X67872634Y52187906D01*
X67870005Y52265649D01*
X67867579Y52363574D01*
X67865885Y52455192D01*
X67860539Y52792231D01*
X67743308Y52792231D01*
X67737928Y52484746D01*
X67732549Y52177261D01*
X67675399Y52147707D01*
X67633203Y52127413D01*
X67608230Y52118204D01*
X67607509Y52118154D01*
X67604071Y52136662D01*
G37*
X67604071Y52136662D02*
X67601089Y52188068D01*
X67598753Y52266192D01*
X67597251Y52364857D01*
X67596769Y52468343D01*
X67596769Y52818533D01*
X67658599Y52880363D01*
X67701207Y52918462D01*
X67738610Y52933895D01*
X67789730Y52932918D01*
X67810022Y52930433D01*
X67873446Y52923200D01*
X67925905Y52919055D01*
X67938692Y52918672D01*
X67981801Y52921176D01*
X68043456Y52927462D01*
X68067362Y52930433D01*
X68126078Y52935028D01*
X68165536Y52925046D01*
X68204662Y52894228D01*
X68218785Y52880363D01*
X68280615Y52818533D01*
X68280615Y52163503D01*
X68230850Y52140829D01*
X68187998Y52124034D01*
X68162927Y52118154D01*
X68156499Y52136736D01*
X68150491Y52188655D01*
X68145303Y52268172D01*
X68141336Y52369546D01*
X68139423Y52455192D01*
X68134077Y52792231D01*
X68087440Y52798825D01*
X68045024Y52794214D01*
X68024240Y52779287D01*
X68018430Y52751377D01*
X68013470Y52691925D01*
X68009754Y52608466D01*
X68007676Y52508532D01*
X68007376Y52457104D01*
X68007077Y52161054D01*
X67945546Y52139604D01*
X67901996Y52125020D01*
X67878306Y52118219D01*
X67877623Y52118154D01*
X67875246Y52136642D01*
X67872634Y52187906D01*
X67870005Y52265649D01*
X67867579Y52363574D01*
X67865885Y52455192D01*
X67860539Y52792231D01*
X67743308Y52792231D01*
X67737928Y52484746D01*
X67732549Y52177261D01*
X67675399Y52147707D01*
X67633203Y52127413D01*
X67608230Y52118204D01*
X67607509Y52118154D01*
X67604071Y52136662D01*
G36*
X67112667Y52133528D02*
G01*
X67056410Y52159117D01*
X67012253Y52190124D01*
X66979899Y52224795D01*
X66957562Y52269520D01*
X66943454Y52330692D01*
X66935789Y52414701D01*
X66932780Y52527940D01*
X66932462Y52602509D01*
X66932462Y52893420D01*
X66982227Y52916095D01*
X67021424Y52932667D01*
X67040843Y52938769D01*
X67044558Y52920610D01*
X67047505Y52871648D01*
X67049309Y52800153D01*
X67049692Y52743385D01*
X67051339Y52661371D01*
X67055778Y52596309D01*
X67062260Y52556467D01*
X67067410Y52548000D01*
X67102023Y52556646D01*
X67156360Y52578823D01*
X67219278Y52608886D01*
X67279632Y52641192D01*
X67326279Y52670098D01*
X67348074Y52689961D01*
X67348161Y52690175D01*
X67346286Y52726935D01*
X67329475Y52762026D01*
X67299961Y52790528D01*
X67256884Y52800061D01*
X67220068Y52798950D01*
X67167926Y52798133D01*
X67140556Y52810349D01*
X67124118Y52842624D01*
X67122045Y52848710D01*
X67114919Y52894739D01*
X67133976Y52922687D01*
X67183647Y52936007D01*
X67237303Y52938470D01*
X67333858Y52920210D01*
X67383841Y52894131D01*
X67445571Y52832868D01*
X67478310Y52757670D01*
X67481247Y52678211D01*
X67453576Y52604167D01*
X67411953Y52557769D01*
X67370396Y52531793D01*
X67305078Y52498907D01*
X67228962Y52465557D01*
X67216274Y52460461D01*
X67132667Y52423565D01*
X67084470Y52391046D01*
X67068970Y52358718D01*
X67083450Y52322394D01*
X67108308Y52294000D01*
X67167061Y52259039D01*
X67231707Y52256417D01*
X67290992Y52283358D01*
X67333661Y52337088D01*
X67339261Y52350950D01*
X67371867Y52401936D01*
X67419470Y52439787D01*
X67479539Y52470850D01*
X67479539Y52382768D01*
X67476003Y52328951D01*
X67460844Y52286534D01*
X67427232Y52241279D01*
X67394965Y52206420D01*
X67344791Y52157062D01*
X67305807Y52130547D01*
X67263936Y52119911D01*
X67216540Y52118154D01*
X67112667Y52133528D01*
G37*
X67112667Y52133528D02*
X67056410Y52159117D01*
X67012253Y52190124D01*
X66979899Y52224795D01*
X66957562Y52269520D01*
X66943454Y52330692D01*
X66935789Y52414701D01*
X66932780Y52527940D01*
X66932462Y52602509D01*
X66932462Y52893420D01*
X66982227Y52916095D01*
X67021424Y52932667D01*
X67040843Y52938769D01*
X67044558Y52920610D01*
X67047505Y52871648D01*
X67049309Y52800153D01*
X67049692Y52743385D01*
X67051339Y52661371D01*
X67055778Y52596309D01*
X67062260Y52556467D01*
X67067410Y52548000D01*
X67102023Y52556646D01*
X67156360Y52578823D01*
X67219278Y52608886D01*
X67279632Y52641192D01*
X67326279Y52670098D01*
X67348074Y52689961D01*
X67348161Y52690175D01*
X67346286Y52726935D01*
X67329475Y52762026D01*
X67299961Y52790528D01*
X67256884Y52800061D01*
X67220068Y52798950D01*
X67167926Y52798133D01*
X67140556Y52810349D01*
X67124118Y52842624D01*
X67122045Y52848710D01*
X67114919Y52894739D01*
X67133976Y52922687D01*
X67183647Y52936007D01*
X67237303Y52938470D01*
X67333858Y52920210D01*
X67383841Y52894131D01*
X67445571Y52832868D01*
X67478310Y52757670D01*
X67481247Y52678211D01*
X67453576Y52604167D01*
X67411953Y52557769D01*
X67370396Y52531793D01*
X67305078Y52498907D01*
X67228962Y52465557D01*
X67216274Y52460461D01*
X67132667Y52423565D01*
X67084470Y52391046D01*
X67068970Y52358718D01*
X67083450Y52322394D01*
X67108308Y52294000D01*
X67167061Y52259039D01*
X67231707Y52256417D01*
X67290992Y52283358D01*
X67333661Y52337088D01*
X67339261Y52350950D01*
X67371867Y52401936D01*
X67419470Y52439787D01*
X67479539Y52470850D01*
X67479539Y52382768D01*
X67476003Y52328951D01*
X67460844Y52286534D01*
X67427232Y52241279D01*
X67394965Y52206420D01*
X67344791Y52157062D01*
X67305807Y52130547D01*
X67263936Y52119911D01*
X67216540Y52118154D01*
X67112667Y52133528D01*
G36*
X66429193Y52136782D02*
G01*
X66405839Y52146988D01*
X66350098Y52191134D01*
X66302431Y52254967D01*
X66272952Y52323087D01*
X66268154Y52356670D01*
X66284240Y52403556D01*
X66319525Y52428365D01*
X66357356Y52443387D01*
X66374679Y52446155D01*
X66383114Y52426066D01*
X66399770Y52382351D01*
X66407077Y52362598D01*
X66448052Y52294271D01*
X66507378Y52260191D01*
X66583448Y52261239D01*
X66589082Y52262581D01*
X66629695Y52281836D01*
X66659552Y52319375D01*
X66679945Y52379809D01*
X66692164Y52467751D01*
X66697500Y52587813D01*
X66698000Y52651698D01*
X66698248Y52752403D01*
X66699874Y52821054D01*
X66704199Y52864673D01*
X66712546Y52890282D01*
X66726235Y52904903D01*
X66746589Y52915558D01*
X66747766Y52916095D01*
X66786962Y52932667D01*
X66806381Y52938769D01*
X66809365Y52920319D01*
X66811919Y52869323D01*
X66813860Y52792308D01*
X66815003Y52695805D01*
X66815231Y52625184D01*
X66814068Y52488525D01*
X66809521Y52384851D01*
X66800001Y52308108D01*
X66783919Y52252246D01*
X66759687Y52211212D01*
X66725714Y52178954D01*
X66692167Y52156440D01*
X66611501Y52126476D01*
X66517619Y52119718D01*
X66429193Y52136782D01*
G37*
X66429193Y52136782D02*
X66405839Y52146988D01*
X66350098Y52191134D01*
X66302431Y52254967D01*
X66272952Y52323087D01*
X66268154Y52356670D01*
X66284240Y52403556D01*
X66319525Y52428365D01*
X66357356Y52443387D01*
X66374679Y52446155D01*
X66383114Y52426066D01*
X66399770Y52382351D01*
X66407077Y52362598D01*
X66448052Y52294271D01*
X66507378Y52260191D01*
X66583448Y52261239D01*
X66589082Y52262581D01*
X66629695Y52281836D01*
X66659552Y52319375D01*
X66679945Y52379809D01*
X66692164Y52467751D01*
X66697500Y52587813D01*
X66698000Y52651698D01*
X66698248Y52752403D01*
X66699874Y52821054D01*
X66704199Y52864673D01*
X66712546Y52890282D01*
X66726235Y52904903D01*
X66746589Y52915558D01*
X66747766Y52916095D01*
X66786962Y52932667D01*
X66806381Y52938769D01*
X66809365Y52920319D01*
X66811919Y52869323D01*
X66813860Y52792308D01*
X66815003Y52695805D01*
X66815231Y52625184D01*
X66814068Y52488525D01*
X66809521Y52384851D01*
X66800001Y52308108D01*
X66783919Y52252246D01*
X66759687Y52211212D01*
X66725714Y52178954D01*
X66692167Y52156440D01*
X66611501Y52126476D01*
X66517619Y52119718D01*
X66429193Y52136782D01*
G36*
X65754776Y52147838D02*
G01*
X65677472Y52198361D01*
X65640186Y52243590D01*
X65610647Y52325663D01*
X65608301Y52390607D01*
X65613615Y52477445D01*
X65813885Y52565103D01*
X65911261Y52609887D01*
X65974887Y52645913D01*
X66007971Y52677117D01*
X66013720Y52707436D01*
X65995342Y52740805D01*
X65975077Y52762923D01*
X65916111Y52798393D01*
X65851976Y52800879D01*
X65793074Y52773235D01*
X65749803Y52718320D01*
X65742064Y52698928D01*
X65704994Y52638364D01*
X65662346Y52612552D01*
X65603846Y52590471D01*
X65603846Y52674184D01*
X65609018Y52731150D01*
X65629277Y52779189D01*
X65671738Y52834346D01*
X65678049Y52841514D01*
X65725280Y52890585D01*
X65765879Y52916920D01*
X65816672Y52929035D01*
X65858780Y52933003D01*
X65934098Y52933991D01*
X65987714Y52921466D01*
X66021162Y52902869D01*
X66073732Y52861975D01*
X66110121Y52817748D01*
X66133150Y52762126D01*
X66145641Y52687047D01*
X66150413Y52584449D01*
X66150794Y52532376D01*
X66149499Y52469948D01*
X66031529Y52469948D01*
X66030161Y52503438D01*
X66026751Y52508923D01*
X66004247Y52501472D01*
X65955818Y52481753D01*
X65891092Y52453718D01*
X65877557Y52447692D01*
X65795756Y52406096D01*
X65750688Y52369538D01*
X65740783Y52335296D01*
X65764474Y52300648D01*
X65784040Y52285339D01*
X65854640Y52254721D01*
X65920720Y52259780D01*
X65976041Y52297151D01*
X66014364Y52363473D01*
X66026651Y52416116D01*
X66031529Y52469948D01*
X66149499Y52469948D01*
X66148270Y52410720D01*
X66138968Y52320710D01*
X66120540Y52255167D01*
X66090640Y52206912D01*
X66046920Y52168767D01*
X66027859Y52156440D01*
X65941274Y52124336D01*
X65846478Y52122316D01*
X65754776Y52147838D01*
G37*
X65754776Y52147838D02*
X65677472Y52198361D01*
X65640186Y52243590D01*
X65610647Y52325663D01*
X65608301Y52390607D01*
X65613615Y52477445D01*
X65813885Y52565103D01*
X65911261Y52609887D01*
X65974887Y52645913D01*
X66007971Y52677117D01*
X66013720Y52707436D01*
X65995342Y52740805D01*
X65975077Y52762923D01*
X65916111Y52798393D01*
X65851976Y52800879D01*
X65793074Y52773235D01*
X65749803Y52718320D01*
X65742064Y52698928D01*
X65704994Y52638364D01*
X65662346Y52612552D01*
X65603846Y52590471D01*
X65603846Y52674184D01*
X65609018Y52731150D01*
X65629277Y52779189D01*
X65671738Y52834346D01*
X65678049Y52841514D01*
X65725280Y52890585D01*
X65765879Y52916920D01*
X65816672Y52929035D01*
X65858780Y52933003D01*
X65934098Y52933991D01*
X65987714Y52921466D01*
X66021162Y52902869D01*
X66073732Y52861975D01*
X66110121Y52817748D01*
X66133150Y52762126D01*
X66145641Y52687047D01*
X66150413Y52584449D01*
X66150794Y52532376D01*
X66149499Y52469948D01*
X66031529Y52469948D01*
X66030161Y52503438D01*
X66026751Y52508923D01*
X66004247Y52501472D01*
X65955818Y52481753D01*
X65891092Y52453718D01*
X65877557Y52447692D01*
X65795756Y52406096D01*
X65750688Y52369538D01*
X65740783Y52335296D01*
X65764474Y52300648D01*
X65784040Y52285339D01*
X65854640Y52254721D01*
X65920720Y52259780D01*
X65976041Y52297151D01*
X66014364Y52363473D01*
X66026651Y52416116D01*
X66031529Y52469948D01*
X66149499Y52469948D01*
X66148270Y52410720D01*
X66138968Y52320710D01*
X66120540Y52255167D01*
X66090640Y52206912D01*
X66046920Y52168767D01*
X66027859Y52156440D01*
X65941274Y52124336D01*
X65846478Y52122316D01*
X65754776Y52147838D01*
G36*
X69860122Y45787776D02*
G01*
X69754388Y45788355D01*
X69677868Y45789922D01*
X69625628Y45792972D01*
X69592737Y45797996D01*
X69574263Y45805489D01*
X69565273Y45815944D01*
X69560837Y45829853D01*
X69560406Y45831654D01*
X69553667Y45864145D01*
X69541192Y45928252D01*
X69524281Y46017151D01*
X69504229Y46124019D01*
X69482336Y46242033D01*
X69481571Y46246178D01*
X69459641Y46361831D01*
X69439123Y46464014D01*
X69421341Y46546598D01*
X69407619Y46603456D01*
X69399282Y46628458D01*
X69398884Y46628901D01*
X69374323Y46641110D01*
X69323685Y46661456D01*
X69257905Y46685545D01*
X69257539Y46685674D01*
X69174683Y46716818D01*
X69077000Y46756491D01*
X68984923Y46796381D01*
X68980566Y46798353D01*
X68830593Y46866420D01*
X68498502Y46639639D01*
X68396626Y46570504D01*
X68304343Y46508697D01*
X68226997Y46457733D01*
X68169936Y46421127D01*
X68138505Y46402394D01*
X68135521Y46401004D01*
X68112679Y46407190D01*
X68070018Y46437035D01*
X68005872Y46491947D01*
X67918579Y46573334D01*
X67829465Y46659922D01*
X67743559Y46745247D01*
X67666673Y46823108D01*
X67603436Y46888697D01*
X67558477Y46937205D01*
X67536424Y46963825D01*
X67535604Y46965195D01*
X67533166Y46983463D01*
X67542350Y47013295D01*
X67565426Y47058721D01*
X67604663Y47123770D01*
X67662330Y47212470D01*
X67739205Y47326657D01*
X67807430Y47427162D01*
X67868418Y47517303D01*
X67918644Y47591849D01*
X67954584Y47645565D01*
X67972713Y47673218D01*
X67973854Y47675095D01*
X67971641Y47701590D01*
X67954862Y47753086D01*
X67926858Y47819851D01*
X67916878Y47841172D01*
X67873328Y47936159D01*
X67826866Y48043937D01*
X67789123Y48137192D01*
X67761927Y48206406D01*
X67740325Y48259006D01*
X67727842Y48286497D01*
X67726291Y48288616D01*
X67703332Y48292124D01*
X67649214Y48301738D01*
X67571132Y48316089D01*
X67476281Y48333807D01*
X67371857Y48353525D01*
X67265056Y48373874D01*
X67163074Y48393486D01*
X67073106Y48410991D01*
X67002347Y48425022D01*
X66957994Y48434209D01*
X66947115Y48436807D01*
X66935878Y48443218D01*
X66927395Y48457697D01*
X66921286Y48485133D01*
X66917168Y48530411D01*
X66914659Y48598420D01*
X66913379Y48694047D01*
X66912946Y48822180D01*
X66912923Y48874701D01*
X66912923Y49301845D01*
X67015500Y49322091D01*
X67072569Y49333070D01*
X67157731Y49349095D01*
X67260628Y49368233D01*
X67370904Y49388551D01*
X67401385Y49394132D01*
X67503145Y49413917D01*
X67591795Y49433373D01*
X67659892Y49450697D01*
X67699996Y49464088D01*
X67706677Y49468079D01*
X67723081Y49496342D01*
X67746601Y49551109D01*
X67772684Y49621588D01*
X67777858Y49636769D01*
X67812044Y49730896D01*
X67854477Y49837101D01*
X67896003Y49932473D01*
X67896208Y49932916D01*
X67965360Y50082525D01*
X67510488Y50751617D01*
X67802500Y51044116D01*
X67890820Y51131170D01*
X67971375Y51207909D01*
X68039640Y51270237D01*
X68091092Y51314056D01*
X68121206Y51335270D01*
X68125526Y51336616D01*
X68150889Y51326016D01*
X68202642Y51296547D01*
X68275132Y51251705D01*
X68362706Y51194984D01*
X68457388Y51131462D01*
X68553484Y51066668D01*
X68639163Y51010287D01*
X68708984Y50965788D01*
X68757506Y50936639D01*
X68779218Y50926308D01*
X68805707Y50935050D01*
X68855938Y50958087D01*
X68919549Y50990631D01*
X68926292Y50994249D01*
X69011954Y51037210D01*
X69070694Y51058279D01*
X69107228Y51058503D01*
X69126269Y51038928D01*
X69126380Y51038654D01*
X69135898Y51015472D01*
X69158597Y50960441D01*
X69192718Y50877822D01*
X69236500Y50771872D01*
X69288184Y50646852D01*
X69346008Y50507020D01*
X69402009Y50371637D01*
X69463553Y50222234D01*
X69520061Y50083832D01*
X69569839Y49960673D01*
X69611194Y49857002D01*
X69642432Y49777059D01*
X69661859Y49725088D01*
X69667846Y49705692D01*
X69652832Y49683443D01*
X69613561Y49647982D01*
X69561193Y49608887D01*
X69412059Y49485245D01*
X69295489Y49343522D01*
X69212882Y49186704D01*
X69165634Y49017775D01*
X69155143Y48839722D01*
X69162769Y48757539D01*
X69204318Y48587031D01*
X69275877Y48436459D01*
X69373005Y48307309D01*
X69491266Y48201064D01*
X69626220Y48119210D01*
X69773429Y48063232D01*
X69928456Y48034615D01*
X70086861Y48034844D01*
X70244206Y48065405D01*
X70396054Y48127782D01*
X70537965Y48223460D01*
X70597197Y48277572D01*
X70710797Y48416520D01*
X70789894Y48568361D01*
X70835014Y48728667D01*
X70846684Y48893012D01*
X70825431Y49056971D01*
X70771780Y49216118D01*
X70686260Y49366025D01*
X70569395Y49502267D01*
X70438807Y49608887D01*
X70384412Y49649642D01*
X70345986Y49684718D01*
X70332154Y49705726D01*
X70339397Y49728635D01*
X70359995Y49783365D01*
X70392254Y49865672D01*
X70434479Y49971315D01*
X70484977Y50096050D01*
X70542052Y50235636D01*
X70598146Y50371670D01*
X70660033Y50521201D01*
X70717356Y50659767D01*
X70768356Y50783107D01*
X70811273Y50886964D01*
X70844347Y50967080D01*
X70865819Y51019195D01*
X70873775Y51038654D01*
X70892571Y51058423D01*
X70928926Y51058365D01*
X70987521Y51037441D01*
X71073032Y50994613D01*
X71073708Y50994249D01*
X71138093Y50961012D01*
X71190139Y50936802D01*
X71219488Y50926404D01*
X71220783Y50926308D01*
X71242876Y50936855D01*
X71291652Y50966184D01*
X71361669Y51010827D01*
X71447486Y51067314D01*
X71542612Y51131462D01*
X71639460Y51196411D01*
X71726747Y51252896D01*
X71798819Y51297421D01*
X71850023Y51326490D01*
X71874474Y51336616D01*
X71896990Y51323307D01*
X71942258Y51286112D01*
X72005756Y51229128D01*
X72082961Y51156449D01*
X72169349Y51072171D01*
X72197601Y51044016D01*
X72489713Y50751416D01*
X72267369Y50425104D01*
X72199798Y50324897D01*
X72140493Y50234963D01*
X72092783Y50160510D01*
X72059993Y50106751D01*
X72045452Y50078894D01*
X72045026Y50076912D01*
X72052692Y50050655D01*
X72073311Y49997837D01*
X72103315Y49927310D01*
X72124375Y49880093D01*
X72163752Y49789694D01*
X72200835Y49698366D01*
X72229585Y49621200D01*
X72237395Y49597692D01*
X72259583Y49534916D01*
X72281273Y49486411D01*
X72293187Y49468079D01*
X72319477Y49456859D01*
X72376858Y49440954D01*
X72457882Y49422167D01*
X72555105Y49402299D01*
X72598615Y49394132D01*
X72709104Y49373829D01*
X72815084Y49354170D01*
X72906199Y49337088D01*
X72972092Y49324518D01*
X72984500Y49322091D01*
X73087077Y49301845D01*
X73087077Y48874701D01*
X73086847Y48734246D01*
X73085901Y48627979D01*
X73083859Y48551013D01*
X73080338Y48498460D01*
X73074957Y48465433D01*
X73067334Y48447045D01*
X73057088Y48438408D01*
X73052885Y48436807D01*
X73027530Y48431127D01*
X72971516Y48419795D01*
X72892036Y48404179D01*
X72796288Y48385647D01*
X72691467Y48365569D01*
X72584768Y48345312D01*
X72483387Y48326246D01*
X72394521Y48309739D01*
X72325363Y48297159D01*
X72283111Y48289875D01*
X72273710Y48288616D01*
X72265193Y48271763D01*
X72246340Y48226870D01*
X72220676Y48162430D01*
X72210877Y48137192D01*
X72171352Y48039686D01*
X72124808Y47931959D01*
X72083123Y47841172D01*
X72052450Y47771753D01*
X72032044Y47714710D01*
X72025232Y47679777D01*
X72026318Y47675095D01*
X72040715Y47652991D01*
X72073588Y47603831D01*
X72121410Y47532848D01*
X72180652Y47445278D01*
X72247785Y47346357D01*
X72261059Y47326830D01*
X72338954Y47211140D01*
X72396213Y47123044D01*
X72435119Y47058486D01*
X72457956Y47013411D01*
X72467006Y46983763D01*
X72464552Y46965485D01*
X72464489Y46965369D01*
X72445173Y46941361D01*
X72402449Y46894947D01*
X72340949Y46830937D01*
X72265302Y46754145D01*
X72180139Y46669382D01*
X72170535Y46659922D01*
X72063210Y46555989D01*
X71980385Y46479675D01*
X71920395Y46429571D01*
X71881577Y46404270D01*
X71864480Y46401004D01*
X71839527Y46415250D01*
X71787745Y46448156D01*
X71714480Y46496208D01*
X71625080Y46555890D01*
X71524889Y46623688D01*
X71501499Y46639639D01*
X71169407Y46866420D01*
X71019435Y46798353D01*
X70928230Y46758685D01*
X70830331Y46718791D01*
X70746169Y46686983D01*
X70742462Y46685674D01*
X70676631Y46661576D01*
X70625884Y46641200D01*
X70601158Y46628936D01*
X70601116Y46628901D01*
X70593271Y46606734D01*
X70579934Y46552217D01*
X70562430Y46471480D01*
X70542083Y46370650D01*
X70520218Y46255856D01*
X70518429Y46246178D01*
X70496496Y46127904D01*
X70476360Y46020542D01*
X70459320Y45930917D01*
X70446672Y45865851D01*
X70439716Y45832168D01*
X70439594Y45831654D01*
X70435361Y45817325D01*
X70427129Y45806507D01*
X70409967Y45798706D01*
X70378942Y45793429D01*
X70329122Y45790182D01*
X70255576Y45788472D01*
X70153371Y45787807D01*
X70017575Y45787693D01*
X70000000Y45787692D01*
X69860122Y45787776D01*
G37*
X69860122Y45787776D02*
X69754388Y45788355D01*
X69677868Y45789922D01*
X69625628Y45792972D01*
X69592737Y45797996D01*
X69574263Y45805489D01*
X69565273Y45815944D01*
X69560837Y45829853D01*
X69560406Y45831654D01*
X69553667Y45864145D01*
X69541192Y45928252D01*
X69524281Y46017151D01*
X69504229Y46124019D01*
X69482336Y46242033D01*
X69481571Y46246178D01*
X69459641Y46361831D01*
X69439123Y46464014D01*
X69421341Y46546598D01*
X69407619Y46603456D01*
X69399282Y46628458D01*
X69398884Y46628901D01*
X69374323Y46641110D01*
X69323685Y46661456D01*
X69257905Y46685545D01*
X69257539Y46685674D01*
X69174683Y46716818D01*
X69077000Y46756491D01*
X68984923Y46796381D01*
X68980566Y46798353D01*
X68830593Y46866420D01*
X68498502Y46639639D01*
X68396626Y46570504D01*
X68304343Y46508697D01*
X68226997Y46457733D01*
X68169936Y46421127D01*
X68138505Y46402394D01*
X68135521Y46401004D01*
X68112679Y46407190D01*
X68070018Y46437035D01*
X68005872Y46491947D01*
X67918579Y46573334D01*
X67829465Y46659922D01*
X67743559Y46745247D01*
X67666673Y46823108D01*
X67603436Y46888697D01*
X67558477Y46937205D01*
X67536424Y46963825D01*
X67535604Y46965195D01*
X67533166Y46983463D01*
X67542350Y47013295D01*
X67565426Y47058721D01*
X67604663Y47123770D01*
X67662330Y47212470D01*
X67739205Y47326657D01*
X67807430Y47427162D01*
X67868418Y47517303D01*
X67918644Y47591849D01*
X67954584Y47645565D01*
X67972713Y47673218D01*
X67973854Y47675095D01*
X67971641Y47701590D01*
X67954862Y47753086D01*
X67926858Y47819851D01*
X67916878Y47841172D01*
X67873328Y47936159D01*
X67826866Y48043937D01*
X67789123Y48137192D01*
X67761927Y48206406D01*
X67740325Y48259006D01*
X67727842Y48286497D01*
X67726291Y48288616D01*
X67703332Y48292124D01*
X67649214Y48301738D01*
X67571132Y48316089D01*
X67476281Y48333807D01*
X67371857Y48353525D01*
X67265056Y48373874D01*
X67163074Y48393486D01*
X67073106Y48410991D01*
X67002347Y48425022D01*
X66957994Y48434209D01*
X66947115Y48436807D01*
X66935878Y48443218D01*
X66927395Y48457697D01*
X66921286Y48485133D01*
X66917168Y48530411D01*
X66914659Y48598420D01*
X66913379Y48694047D01*
X66912946Y48822180D01*
X66912923Y48874701D01*
X66912923Y49301845D01*
X67015500Y49322091D01*
X67072569Y49333070D01*
X67157731Y49349095D01*
X67260628Y49368233D01*
X67370904Y49388551D01*
X67401385Y49394132D01*
X67503145Y49413917D01*
X67591795Y49433373D01*
X67659892Y49450697D01*
X67699996Y49464088D01*
X67706677Y49468079D01*
X67723081Y49496342D01*
X67746601Y49551109D01*
X67772684Y49621588D01*
X67777858Y49636769D01*
X67812044Y49730896D01*
X67854477Y49837101D01*
X67896003Y49932473D01*
X67896208Y49932916D01*
X67965360Y50082525D01*
X67510488Y50751617D01*
X67802500Y51044116D01*
X67890820Y51131170D01*
X67971375Y51207909D01*
X68039640Y51270237D01*
X68091092Y51314056D01*
X68121206Y51335270D01*
X68125526Y51336616D01*
X68150889Y51326016D01*
X68202642Y51296547D01*
X68275132Y51251705D01*
X68362706Y51194984D01*
X68457388Y51131462D01*
X68553484Y51066668D01*
X68639163Y51010287D01*
X68708984Y50965788D01*
X68757506Y50936639D01*
X68779218Y50926308D01*
X68805707Y50935050D01*
X68855938Y50958087D01*
X68919549Y50990631D01*
X68926292Y50994249D01*
X69011954Y51037210D01*
X69070694Y51058279D01*
X69107228Y51058503D01*
X69126269Y51038928D01*
X69126380Y51038654D01*
X69135898Y51015472D01*
X69158597Y50960441D01*
X69192718Y50877822D01*
X69236500Y50771872D01*
X69288184Y50646852D01*
X69346008Y50507020D01*
X69402009Y50371637D01*
X69463553Y50222234D01*
X69520061Y50083832D01*
X69569839Y49960673D01*
X69611194Y49857002D01*
X69642432Y49777059D01*
X69661859Y49725088D01*
X69667846Y49705692D01*
X69652832Y49683443D01*
X69613561Y49647982D01*
X69561193Y49608887D01*
X69412059Y49485245D01*
X69295489Y49343522D01*
X69212882Y49186704D01*
X69165634Y49017775D01*
X69155143Y48839722D01*
X69162769Y48757539D01*
X69204318Y48587031D01*
X69275877Y48436459D01*
X69373005Y48307309D01*
X69491266Y48201064D01*
X69626220Y48119210D01*
X69773429Y48063232D01*
X69928456Y48034615D01*
X70086861Y48034844D01*
X70244206Y48065405D01*
X70396054Y48127782D01*
X70537965Y48223460D01*
X70597197Y48277572D01*
X70710797Y48416520D01*
X70789894Y48568361D01*
X70835014Y48728667D01*
X70846684Y48893012D01*
X70825431Y49056971D01*
X70771780Y49216118D01*
X70686260Y49366025D01*
X70569395Y49502267D01*
X70438807Y49608887D01*
X70384412Y49649642D01*
X70345986Y49684718D01*
X70332154Y49705726D01*
X70339397Y49728635D01*
X70359995Y49783365D01*
X70392254Y49865672D01*
X70434479Y49971315D01*
X70484977Y50096050D01*
X70542052Y50235636D01*
X70598146Y50371670D01*
X70660033Y50521201D01*
X70717356Y50659767D01*
X70768356Y50783107D01*
X70811273Y50886964D01*
X70844347Y50967080D01*
X70865819Y51019195D01*
X70873775Y51038654D01*
X70892571Y51058423D01*
X70928926Y51058365D01*
X70987521Y51037441D01*
X71073032Y50994613D01*
X71073708Y50994249D01*
X71138093Y50961012D01*
X71190139Y50936802D01*
X71219488Y50926404D01*
X71220783Y50926308D01*
X71242876Y50936855D01*
X71291652Y50966184D01*
X71361669Y51010827D01*
X71447486Y51067314D01*
X71542612Y51131462D01*
X71639460Y51196411D01*
X71726747Y51252896D01*
X71798819Y51297421D01*
X71850023Y51326490D01*
X71874474Y51336616D01*
X71896990Y51323307D01*
X71942258Y51286112D01*
X72005756Y51229128D01*
X72082961Y51156449D01*
X72169349Y51072171D01*
X72197601Y51044016D01*
X72489713Y50751416D01*
X72267369Y50425104D01*
X72199798Y50324897D01*
X72140493Y50234963D01*
X72092783Y50160510D01*
X72059993Y50106751D01*
X72045452Y50078894D01*
X72045026Y50076912D01*
X72052692Y50050655D01*
X72073311Y49997837D01*
X72103315Y49927310D01*
X72124375Y49880093D01*
X72163752Y49789694D01*
X72200835Y49698366D01*
X72229585Y49621200D01*
X72237395Y49597692D01*
X72259583Y49534916D01*
X72281273Y49486411D01*
X72293187Y49468079D01*
X72319477Y49456859D01*
X72376858Y49440954D01*
X72457882Y49422167D01*
X72555105Y49402299D01*
X72598615Y49394132D01*
X72709104Y49373829D01*
X72815084Y49354170D01*
X72906199Y49337088D01*
X72972092Y49324518D01*
X72984500Y49322091D01*
X73087077Y49301845D01*
X73087077Y48874701D01*
X73086847Y48734246D01*
X73085901Y48627979D01*
X73083859Y48551013D01*
X73080338Y48498460D01*
X73074957Y48465433D01*
X73067334Y48447045D01*
X73057088Y48438408D01*
X73052885Y48436807D01*
X73027530Y48431127D01*
X72971516Y48419795D01*
X72892036Y48404179D01*
X72796288Y48385647D01*
X72691467Y48365569D01*
X72584768Y48345312D01*
X72483387Y48326246D01*
X72394521Y48309739D01*
X72325363Y48297159D01*
X72283111Y48289875D01*
X72273710Y48288616D01*
X72265193Y48271763D01*
X72246340Y48226870D01*
X72220676Y48162430D01*
X72210877Y48137192D01*
X72171352Y48039686D01*
X72124808Y47931959D01*
X72083123Y47841172D01*
X72052450Y47771753D01*
X72032044Y47714710D01*
X72025232Y47679777D01*
X72026318Y47675095D01*
X72040715Y47652991D01*
X72073588Y47603831D01*
X72121410Y47532848D01*
X72180652Y47445278D01*
X72247785Y47346357D01*
X72261059Y47326830D01*
X72338954Y47211140D01*
X72396213Y47123044D01*
X72435119Y47058486D01*
X72457956Y47013411D01*
X72467006Y46983763D01*
X72464552Y46965485D01*
X72464489Y46965369D01*
X72445173Y46941361D01*
X72402449Y46894947D01*
X72340949Y46830937D01*
X72265302Y46754145D01*
X72180139Y46669382D01*
X72170535Y46659922D01*
X72063210Y46555989D01*
X71980385Y46479675D01*
X71920395Y46429571D01*
X71881577Y46404270D01*
X71864480Y46401004D01*
X71839527Y46415250D01*
X71787745Y46448156D01*
X71714480Y46496208D01*
X71625080Y46555890D01*
X71524889Y46623688D01*
X71501499Y46639639D01*
X71169407Y46866420D01*
X71019435Y46798353D01*
X70928230Y46758685D01*
X70830331Y46718791D01*
X70746169Y46686983D01*
X70742462Y46685674D01*
X70676631Y46661576D01*
X70625884Y46641200D01*
X70601158Y46628936D01*
X70601116Y46628901D01*
X70593271Y46606734D01*
X70579934Y46552217D01*
X70562430Y46471480D01*
X70542083Y46370650D01*
X70520218Y46255856D01*
X70518429Y46246178D01*
X70496496Y46127904D01*
X70476360Y46020542D01*
X70459320Y45930917D01*
X70446672Y45865851D01*
X70439716Y45832168D01*
X70439594Y45831654D01*
X70435361Y45817325D01*
X70427129Y45806507D01*
X70409967Y45798706D01*
X70378942Y45793429D01*
X70329122Y45790182D01*
X70255576Y45788472D01*
X70153371Y45787807D01*
X70017575Y45787693D01*
X70000000Y45787692D01*
X69860122Y45787776D01*
D16*
%TO.C,J3*%
X45829000Y11230000D02*
X45829000Y5210000D01*
X45829000Y5210000D02*
X56209000Y5210000D01*
X56209000Y5210000D02*
X56209000Y11230000D01*
X56209000Y11230000D02*
X45829000Y11230000D01*
X45539000Y10200000D02*
X45539000Y6200000D01*
X47209000Y5210000D02*
X47209000Y6210000D01*
X47209000Y6210000D02*
X54829000Y6210000D01*
X54829000Y6210000D02*
X54829000Y5210000D01*
X47209000Y6210000D02*
X47459000Y6740000D01*
X47459000Y6740000D02*
X54579000Y6740000D01*
X54579000Y6740000D02*
X54829000Y6210000D01*
X47459000Y5210000D02*
X47459000Y6210000D01*
X54579000Y5210000D02*
X54579000Y6210000D01*
X46409000Y11230000D02*
X46409000Y10630000D01*
X46409000Y10630000D02*
X48009000Y10630000D01*
X48009000Y10630000D02*
X48009000Y11230000D01*
X48949000Y11230000D02*
X48949000Y10630000D01*
X48949000Y10630000D02*
X50549000Y10630000D01*
X50549000Y10630000D02*
X50549000Y11230000D01*
X51489000Y11230000D02*
X51489000Y10630000D01*
X51489000Y10630000D02*
X53089000Y10630000D01*
X53089000Y10630000D02*
X53089000Y11230000D01*
X54029000Y11230000D02*
X54029000Y10630000D01*
X54029000Y10630000D02*
X55629000Y10630000D01*
X55629000Y10630000D02*
X55629000Y11230000D01*
%TO.C,Q2*%
X27910000Y38750000D02*
X27910000Y37650000D01*
X28600000Y38750000D02*
X27910000Y38750000D01*
X28600000Y40250000D02*
X28600000Y38750000D01*
X18890000Y38750000D02*
X18890000Y33625000D01*
X18200000Y38750000D02*
X18890000Y38750000D01*
X18200000Y40250000D02*
X18200000Y38750000D01*
%TO.C,R19*%
X23242500Y30669258D02*
X23242500Y30194742D01*
X22197500Y30669258D02*
X22197500Y30194742D01*
%TO.C,R11*%
X27623212Y13862742D02*
X27623212Y14337258D01*
X28668212Y13862742D02*
X28668212Y14337258D01*
%TO.C,U1*%
X59964000Y26238000D02*
X58864000Y26238000D01*
X59964000Y25968000D02*
X59964000Y26238000D01*
X61464000Y25968000D02*
X59964000Y25968000D01*
X59964000Y32598000D02*
X57134000Y32598000D01*
X59964000Y32868000D02*
X59964000Y32598000D01*
X61464000Y32868000D02*
X59964000Y32868000D01*
%TO.C,R4*%
X60637258Y22877500D02*
X60162742Y22877500D01*
X60637258Y23922500D02*
X60162742Y23922500D01*
%TO.C,D2*%
X62700000Y22665000D02*
X64985000Y22665000D01*
X64985000Y22665000D02*
X64985000Y24135000D01*
X64985000Y24135000D02*
X62700000Y24135000D01*
%TO.C,C6*%
X60264420Y25483000D02*
X60545580Y25483000D01*
X60264420Y24463000D02*
X60545580Y24463000D01*
%TO.C,C3*%
X55810000Y31040580D02*
X55810000Y30759420D01*
X54790000Y31040580D02*
X54790000Y30759420D01*
%TO.C,U3*%
X30903000Y21573000D02*
X30903000Y23773000D01*
X30903000Y21573000D02*
X30903000Y19373000D01*
X24133000Y21573000D02*
X24133000Y23773000D01*
X24133000Y21573000D02*
X24133000Y17973000D01*
%TO.C,U2*%
X53399000Y22275000D02*
X53399000Y23775000D01*
X53399000Y22275000D02*
X53399000Y20775000D01*
X50179000Y22275000D02*
X50179000Y23775000D01*
X50179000Y22275000D02*
X50179000Y19350000D01*
%TO.C,R20*%
X38369500Y30677258D02*
X38369500Y30202742D01*
X37324500Y30677258D02*
X37324500Y30202742D01*
%TO.C,R18*%
X41671500Y30677258D02*
X41671500Y30202742D01*
X40626500Y30677258D02*
X40626500Y30202742D01*
%TO.C,R17*%
X26544500Y30669258D02*
X26544500Y30194742D01*
X25499500Y30669258D02*
X25499500Y30194742D01*
%TO.C,R16*%
X21422500Y14337258D02*
X21422500Y13862742D01*
X20377500Y14337258D02*
X20377500Y13862742D01*
%TO.C,R15*%
X26876784Y14337258D02*
X26876784Y13862742D01*
X25831784Y14337258D02*
X25831784Y13862742D01*
%TO.C,R14*%
X32331068Y14337258D02*
X32331068Y13862742D01*
X31286068Y14337258D02*
X31286068Y13862742D01*
%TO.C,R13*%
X34122500Y14337258D02*
X34122500Y13862742D01*
X33077500Y14337258D02*
X33077500Y13862742D01*
%TO.C,R12*%
X22168928Y13862742D02*
X22168928Y14337258D01*
X23213928Y13862742D02*
X23213928Y14337258D01*
%TO.C,R10*%
X47122500Y14837258D02*
X47122500Y14362742D01*
X46077500Y14837258D02*
X46077500Y14362742D01*
%TO.C,R9*%
X49372500Y14837258D02*
X49372500Y14362742D01*
X48327500Y14837258D02*
X48327500Y14362742D01*
%TO.C,R8*%
X51277500Y29062742D02*
X51277500Y29537258D01*
X52322500Y29062742D02*
X52322500Y29537258D01*
%TO.C,R7*%
X46777500Y43362742D02*
X46777500Y43837258D01*
X47822500Y43362742D02*
X47822500Y43837258D01*
%TO.C,R6*%
X48922936Y36710000D02*
X53277064Y36710000D01*
X48922936Y33290000D02*
X53277064Y33290000D01*
%TO.C,R5*%
X49677500Y29062742D02*
X49677500Y29537258D01*
X50722500Y29062742D02*
X50722500Y29537258D01*
%TO.C,R3*%
X50577500Y14362742D02*
X50577500Y14837258D01*
X51622500Y14362742D02*
X51622500Y14837258D01*
%TO.C,R2*%
X55077500Y14362742D02*
X55077500Y14837258D01*
X56122500Y14362742D02*
X56122500Y14837258D01*
%TO.C,R1*%
X52827500Y14362742D02*
X52827500Y14837258D01*
X53872500Y14362742D02*
X53872500Y14837258D01*
%TO.C,Q3*%
X43110000Y38750000D02*
X43110000Y37650000D01*
X43800000Y38750000D02*
X43110000Y38750000D01*
X43800000Y40250000D02*
X43800000Y38750000D01*
X34090000Y38750000D02*
X34090000Y33625000D01*
X33400000Y38750000D02*
X34090000Y38750000D01*
X33400000Y40250000D02*
X33400000Y38750000D01*
%TO.C,Q1*%
X55140000Y42772000D02*
X55140000Y41672000D01*
X55410000Y42772000D02*
X55140000Y42772000D01*
X55410000Y44272000D02*
X55410000Y42772000D01*
X48780000Y42772000D02*
X48780000Y39942000D01*
X48510000Y42772000D02*
X48780000Y42772000D01*
X48510000Y44272000D02*
X48510000Y42772000D01*
%TO.C,JP2*%
X38670000Y5390000D02*
X41330000Y5390000D01*
X38670000Y10530000D02*
X38670000Y5390000D01*
X41330000Y10530000D02*
X41330000Y5390000D01*
X38670000Y10530000D02*
X41330000Y10530000D01*
X38670000Y11800000D02*
X38670000Y13130000D01*
X38670000Y13130000D02*
X40000000Y13130000D01*
%TO.C,JP1*%
X49400000Y21100000D02*
X49700000Y21400000D01*
X49700000Y20800000D02*
X49700000Y21400000D01*
X49400000Y21100000D02*
X49700000Y20800000D01*
X48500000Y20250000D02*
X47900000Y20250000D01*
X49200000Y23700000D02*
X49200000Y20900000D01*
X47900000Y24350000D02*
X48500000Y24350000D01*
X47200000Y20900000D02*
X47200000Y23700000D01*
X47900000Y20250000D02*
G75*
G02*
X47200000Y20950000I0J700000D01*
G01*
X49200000Y20950000D02*
G75*
G02*
X48500000Y20250000I-700000J0D01*
G01*
X48500000Y24350000D02*
G75*
G02*
X49200000Y23650000I0J-700000D01*
G01*
X47200000Y23650000D02*
G75*
G02*
X47900000Y24350000I700000J0D01*
G01*
%TO.C,J4*%
X17020000Y11230000D02*
X17020000Y5210000D01*
X17020000Y5210000D02*
X35020000Y5210000D01*
X35020000Y5210000D02*
X35020000Y11230000D01*
X35020000Y11230000D02*
X17020000Y11230000D01*
X16730000Y10200000D02*
X16730000Y6200000D01*
X18400000Y5210000D02*
X18400000Y6210000D01*
X18400000Y6210000D02*
X23480000Y6210000D01*
X23480000Y6210000D02*
X23480000Y5210000D01*
X18400000Y6210000D02*
X18650000Y6740000D01*
X18650000Y6740000D02*
X23480000Y6740000D01*
X23480000Y6740000D02*
X23480000Y6210000D01*
X18650000Y5210000D02*
X18650000Y6210000D01*
X33640000Y5210000D02*
X33640000Y6210000D01*
X33640000Y6210000D02*
X28560000Y6210000D01*
X28560000Y6210000D02*
X28560000Y5210000D01*
X33640000Y6210000D02*
X33390000Y6740000D01*
X33390000Y6740000D02*
X28560000Y6740000D01*
X28560000Y6740000D02*
X28560000Y6210000D01*
X33390000Y5210000D02*
X33390000Y6210000D01*
X17600000Y11230000D02*
X17600000Y10630000D01*
X17600000Y10630000D02*
X19200000Y10630000D01*
X19200000Y10630000D02*
X19200000Y11230000D01*
X20140000Y11230000D02*
X20140000Y10630000D01*
X20140000Y10630000D02*
X21740000Y10630000D01*
X21740000Y10630000D02*
X21740000Y11230000D01*
X22680000Y11230000D02*
X22680000Y10630000D01*
X22680000Y10630000D02*
X24280000Y10630000D01*
X24280000Y10630000D02*
X24280000Y11230000D01*
X25220000Y11230000D02*
X25220000Y10630000D01*
X25220000Y10630000D02*
X26820000Y10630000D01*
X26820000Y10630000D02*
X26820000Y11230000D01*
X27760000Y11230000D02*
X27760000Y10630000D01*
X27760000Y10630000D02*
X29360000Y10630000D01*
X29360000Y10630000D02*
X29360000Y11230000D01*
X30300000Y11230000D02*
X30300000Y10630000D01*
X30300000Y10630000D02*
X31900000Y10630000D01*
X31900000Y10630000D02*
X31900000Y11230000D01*
X32840000Y11230000D02*
X32840000Y10630000D01*
X32840000Y10630000D02*
X34440000Y10630000D01*
X34440000Y10630000D02*
X34440000Y11230000D01*
%TO.C,J2*%
X19950000Y60910000D02*
X19950000Y52090000D01*
X19950000Y52090000D02*
X42490000Y52090000D01*
X42490000Y52090000D02*
X42490000Y60910000D01*
X42490000Y60910000D02*
X19950000Y60910000D01*
X19950000Y60100000D02*
X22490000Y60100000D01*
X42490000Y60100000D02*
X39950000Y60100000D01*
X24600000Y60100000D02*
X27680000Y60100000D01*
X29680000Y60100000D02*
X32760000Y60100000D01*
X34760000Y60100000D02*
X37840000Y60100000D01*
X22600000Y59100000D02*
X22600000Y60910000D01*
X22600000Y60910000D02*
X24600000Y60910000D01*
X24600000Y60910000D02*
X24600000Y59100000D01*
X24600000Y59100000D02*
X22600000Y59100000D01*
X27680000Y59100000D02*
X27680000Y60910000D01*
X27680000Y60910000D02*
X29680000Y60910000D01*
X29680000Y60910000D02*
X29680000Y59100000D01*
X29680000Y59100000D02*
X27680000Y59100000D01*
X32760000Y59100000D02*
X32760000Y60910000D01*
X32760000Y60910000D02*
X34760000Y60910000D01*
X34760000Y60910000D02*
X34760000Y59100000D01*
X34760000Y59100000D02*
X32760000Y59100000D01*
X37840000Y59100000D02*
X37840000Y60910000D01*
X37840000Y60910000D02*
X39840000Y60910000D01*
X39840000Y60910000D02*
X39840000Y59100000D01*
X39840000Y59100000D02*
X37840000Y59100000D01*
X25600000Y53800000D02*
X26680000Y53800000D01*
X30680000Y53800000D02*
X31760000Y53800000D01*
X35760000Y53800000D02*
X36840000Y53800000D01*
X21600000Y53800000D02*
X20860000Y53800000D01*
X20860000Y53800000D02*
X20860000Y59100000D01*
X20860000Y59100000D02*
X41580000Y59100000D01*
X41580000Y59100000D02*
X41580000Y53800000D01*
X41580000Y53800000D02*
X40840000Y53800000D01*
X23900000Y61710000D02*
X23600000Y61110000D01*
X23600000Y61110000D02*
X23300000Y61710000D01*
X23300000Y61710000D02*
X23900000Y61710000D01*
X40826841Y53784179D02*
G75*
G02*
X36840000Y53800000I-1986841J1665821D01*
G01*
X35746841Y53784179D02*
G75*
G02*
X31760000Y53800000I-1986841J1665821D01*
G01*
X30666841Y53784179D02*
G75*
G02*
X26680000Y53800000I-1986841J1665821D01*
G01*
X25586841Y53784179D02*
G75*
G02*
X21600000Y53800000I-1986841J1665821D01*
G01*
%TO.C,J1*%
X48350000Y60910000D02*
X48350000Y52090000D01*
X48350000Y52090000D02*
X60730000Y52090000D01*
X60730000Y52090000D02*
X60730000Y60910000D01*
X60730000Y60910000D02*
X48350000Y60910000D01*
X48350000Y60100000D02*
X50890000Y60100000D01*
X60730000Y60100000D02*
X58190000Y60100000D01*
X53000000Y60100000D02*
X56080000Y60100000D01*
X51000000Y59100000D02*
X51000000Y60910000D01*
X51000000Y60910000D02*
X53000000Y60910000D01*
X53000000Y60910000D02*
X53000000Y59100000D01*
X53000000Y59100000D02*
X51000000Y59100000D01*
X56080000Y59100000D02*
X56080000Y60910000D01*
X56080000Y60910000D02*
X58080000Y60910000D01*
X58080000Y60910000D02*
X58080000Y59100000D01*
X58080000Y59100000D02*
X56080000Y59100000D01*
X54000000Y53800000D02*
X55080000Y53800000D01*
X50000000Y53800000D02*
X49260000Y53800000D01*
X49260000Y53800000D02*
X49260000Y59100000D01*
X49260000Y59100000D02*
X59820000Y59100000D01*
X59820000Y59100000D02*
X59820000Y53800000D01*
X59820000Y53800000D02*
X59080000Y53800000D01*
X52300000Y61710000D02*
X52000000Y61110000D01*
X52000000Y61110000D02*
X51700000Y61710000D01*
X51700000Y61710000D02*
X52300000Y61710000D01*
X59066841Y53784179D02*
G75*
G02*
X55080000Y53800000I-1986841J1665821D01*
G01*
X53986841Y53784179D02*
G75*
G02*
X50000000Y53800000I-1986841J1665821D01*
G01*
%TO.C,D4*%
X23787856Y14920000D02*
X23787856Y12635000D01*
X23787856Y12635000D02*
X25257856Y12635000D01*
X25257856Y12635000D02*
X25257856Y14920000D01*
%TO.C,D3*%
X29242140Y14920000D02*
X29242140Y12635000D01*
X29242140Y12635000D02*
X30712140Y12635000D01*
X30712140Y12635000D02*
X30712140Y14920000D01*
%TO.C,D1*%
X53575000Y37257000D02*
X53575000Y39257000D01*
X53575000Y39257000D02*
X49675000Y39257000D01*
X53575000Y37257000D02*
X49675000Y37257000D01*
%TO.C,C20*%
X40008000Y30580580D02*
X40008000Y30299420D01*
X38988000Y30580580D02*
X38988000Y30299420D01*
%TO.C,C19*%
X24881000Y30572580D02*
X24881000Y30291420D01*
X23861000Y30572580D02*
X23861000Y30291420D01*
%TO.C,C18*%
X42290000Y30580580D02*
X42290000Y30299420D01*
X43310000Y30580580D02*
X43310000Y30299420D01*
%TO.C,C17*%
X46612000Y30580580D02*
X46612000Y30299420D01*
X45592000Y30580580D02*
X45592000Y30299420D01*
%TO.C,C16*%
X43840580Y27590000D02*
X43559420Y27590000D01*
X43840580Y28610000D02*
X43559420Y28610000D01*
%TO.C,C15*%
X28640580Y27490000D02*
X28359420Y27490000D01*
X28640580Y28510000D02*
X28359420Y28510000D01*
%TO.C,C14*%
X31485000Y30572580D02*
X31485000Y30291420D01*
X30465000Y30572580D02*
X30465000Y30291420D01*
%TO.C,C13*%
X27163000Y30572580D02*
X27163000Y30291420D01*
X28183000Y30572580D02*
X28183000Y30291420D01*
%TO.C,C12*%
X22140580Y23890000D02*
X21859420Y23890000D01*
X22140580Y24910000D02*
X21859420Y24910000D01*
%TO.C,C11*%
X44961000Y30580580D02*
X44961000Y30299420D01*
X43941000Y30580580D02*
X43941000Y30299420D01*
%TO.C,C10*%
X29834000Y30572580D02*
X29834000Y30291420D01*
X28814000Y30572580D02*
X28814000Y30291420D01*
%TO.C,C9*%
X66057000Y41051000D02*
G75*
G03*
X66057000Y41051000I-5120000J0D01*
G01*
X60937000Y46131000D02*
X60937000Y35971000D01*
X60977000Y46131000D02*
X60977000Y35971000D01*
X61017000Y46131000D02*
X61017000Y35971000D01*
X61057000Y46130000D02*
X61057000Y35972000D01*
X61097000Y46129000D02*
X61097000Y35973000D01*
X61137000Y46128000D02*
X61137000Y35974000D01*
X61177000Y46126000D02*
X61177000Y35976000D01*
X61217000Y46124000D02*
X61217000Y35978000D01*
X61257000Y46121000D02*
X61257000Y35981000D01*
X61297000Y46119000D02*
X61297000Y35983000D01*
X61337000Y46116000D02*
X61337000Y35986000D01*
X61377000Y46113000D02*
X61377000Y35989000D01*
X61417000Y46109000D02*
X61417000Y35993000D01*
X61457000Y46105000D02*
X61457000Y35997000D01*
X61497000Y46101000D02*
X61497000Y36001000D01*
X61537000Y46096000D02*
X61537000Y36006000D01*
X61577000Y46091000D02*
X61577000Y36011000D01*
X61617000Y46086000D02*
X61617000Y36016000D01*
X61658000Y46081000D02*
X61658000Y36021000D01*
X61698000Y46075000D02*
X61698000Y36027000D01*
X61738000Y46069000D02*
X61738000Y36033000D01*
X61778000Y46062000D02*
X61778000Y36040000D01*
X61818000Y46055000D02*
X61818000Y36047000D01*
X61858000Y46048000D02*
X61858000Y36054000D01*
X61898000Y46041000D02*
X61898000Y36061000D01*
X61938000Y46033000D02*
X61938000Y36069000D01*
X61978000Y46025000D02*
X61978000Y36077000D01*
X62018000Y46016000D02*
X62018000Y36086000D01*
X62058000Y46007000D02*
X62058000Y36095000D01*
X62098000Y45998000D02*
X62098000Y36104000D01*
X62138000Y45989000D02*
X62138000Y36113000D01*
X62178000Y45979000D02*
X62178000Y36123000D01*
X62218000Y45969000D02*
X62218000Y42292000D01*
X62218000Y39810000D02*
X62218000Y36133000D01*
X62258000Y45958000D02*
X62258000Y42292000D01*
X62258000Y39810000D02*
X62258000Y36144000D01*
X62298000Y45948000D02*
X62298000Y42292000D01*
X62298000Y39810000D02*
X62298000Y36154000D01*
X62338000Y45936000D02*
X62338000Y42292000D01*
X62338000Y39810000D02*
X62338000Y36166000D01*
X62378000Y45925000D02*
X62378000Y42292000D01*
X62378000Y39810000D02*
X62378000Y36177000D01*
X62418000Y45913000D02*
X62418000Y42292000D01*
X62418000Y39810000D02*
X62418000Y36189000D01*
X62458000Y45901000D02*
X62458000Y42292000D01*
X62458000Y39810000D02*
X62458000Y36201000D01*
X62498000Y45888000D02*
X62498000Y42292000D01*
X62498000Y39810000D02*
X62498000Y36214000D01*
X62538000Y45875000D02*
X62538000Y42292000D01*
X62538000Y39810000D02*
X62538000Y36227000D01*
X62578000Y45862000D02*
X62578000Y42292000D01*
X62578000Y39810000D02*
X62578000Y36240000D01*
X62618000Y45848000D02*
X62618000Y42292000D01*
X62618000Y39810000D02*
X62618000Y36254000D01*
X62658000Y45834000D02*
X62658000Y42292000D01*
X62658000Y39810000D02*
X62658000Y36268000D01*
X62698000Y45819000D02*
X62698000Y42292000D01*
X62698000Y39810000D02*
X62698000Y36283000D01*
X62738000Y45805000D02*
X62738000Y42292000D01*
X62738000Y39810000D02*
X62738000Y36297000D01*
X62778000Y45789000D02*
X62778000Y42292000D01*
X62778000Y39810000D02*
X62778000Y36313000D01*
X62818000Y45774000D02*
X62818000Y42292000D01*
X62818000Y39810000D02*
X62818000Y36328000D01*
X62858000Y45758000D02*
X62858000Y42292000D01*
X62858000Y39810000D02*
X62858000Y36344000D01*
X62898000Y45741000D02*
X62898000Y42292000D01*
X62898000Y39810000D02*
X62898000Y36361000D01*
X62938000Y45725000D02*
X62938000Y42292000D01*
X62938000Y39810000D02*
X62938000Y36377000D01*
X62978000Y45708000D02*
X62978000Y42292000D01*
X62978000Y39810000D02*
X62978000Y36394000D01*
X63018000Y45690000D02*
X63018000Y42292000D01*
X63018000Y39810000D02*
X63018000Y36412000D01*
X63058000Y45672000D02*
X63058000Y42292000D01*
X63058000Y39810000D02*
X63058000Y36430000D01*
X63098000Y45654000D02*
X63098000Y42292000D01*
X63098000Y39810000D02*
X63098000Y36448000D01*
X63138000Y45635000D02*
X63138000Y42292000D01*
X63138000Y39810000D02*
X63138000Y36467000D01*
X63178000Y45615000D02*
X63178000Y42292000D01*
X63178000Y39810000D02*
X63178000Y36487000D01*
X63218000Y45596000D02*
X63218000Y42292000D01*
X63218000Y39810000D02*
X63218000Y36506000D01*
X63258000Y45576000D02*
X63258000Y42292000D01*
X63258000Y39810000D02*
X63258000Y36526000D01*
X63298000Y45555000D02*
X63298000Y42292000D01*
X63298000Y39810000D02*
X63298000Y36547000D01*
X63338000Y45534000D02*
X63338000Y42292000D01*
X63338000Y39810000D02*
X63338000Y36568000D01*
X63378000Y45513000D02*
X63378000Y42292000D01*
X63378000Y39810000D02*
X63378000Y36589000D01*
X63418000Y45491000D02*
X63418000Y42292000D01*
X63418000Y39810000D02*
X63418000Y36611000D01*
X63458000Y45468000D02*
X63458000Y42292000D01*
X63458000Y39810000D02*
X63458000Y36634000D01*
X63498000Y45446000D02*
X63498000Y42292000D01*
X63498000Y39810000D02*
X63498000Y36656000D01*
X63538000Y45422000D02*
X63538000Y42292000D01*
X63538000Y39810000D02*
X63538000Y36680000D01*
X63578000Y45398000D02*
X63578000Y42292000D01*
X63578000Y39810000D02*
X63578000Y36704000D01*
X63618000Y45374000D02*
X63618000Y42292000D01*
X63618000Y39810000D02*
X63618000Y36728000D01*
X63658000Y45349000D02*
X63658000Y42292000D01*
X63658000Y39810000D02*
X63658000Y36753000D01*
X63698000Y45324000D02*
X63698000Y42292000D01*
X63698000Y39810000D02*
X63698000Y36778000D01*
X63738000Y45298000D02*
X63738000Y42292000D01*
X63738000Y39810000D02*
X63738000Y36804000D01*
X63778000Y45272000D02*
X63778000Y42292000D01*
X63778000Y39810000D02*
X63778000Y36830000D01*
X63818000Y45245000D02*
X63818000Y42292000D01*
X63818000Y39810000D02*
X63818000Y36857000D01*
X63858000Y45217000D02*
X63858000Y42292000D01*
X63858000Y39810000D02*
X63858000Y36885000D01*
X63898000Y45189000D02*
X63898000Y42292000D01*
X63898000Y39810000D02*
X63898000Y36913000D01*
X63938000Y45161000D02*
X63938000Y42292000D01*
X63938000Y39810000D02*
X63938000Y36941000D01*
X63978000Y45131000D02*
X63978000Y42292000D01*
X63978000Y39810000D02*
X63978000Y36971000D01*
X64018000Y45101000D02*
X64018000Y42292000D01*
X64018000Y39810000D02*
X64018000Y37001000D01*
X64058000Y45071000D02*
X64058000Y42292000D01*
X64058000Y39810000D02*
X64058000Y37031000D01*
X64098000Y45040000D02*
X64098000Y42292000D01*
X64098000Y39810000D02*
X64098000Y37062000D01*
X64138000Y45008000D02*
X64138000Y42292000D01*
X64138000Y39810000D02*
X64138000Y37094000D01*
X64178000Y44976000D02*
X64178000Y42292000D01*
X64178000Y39810000D02*
X64178000Y37126000D01*
X64218000Y44943000D02*
X64218000Y42292000D01*
X64218000Y39810000D02*
X64218000Y37159000D01*
X64258000Y44909000D02*
X64258000Y42292000D01*
X64258000Y39810000D02*
X64258000Y37193000D01*
X64298000Y44875000D02*
X64298000Y42292000D01*
X64298000Y39810000D02*
X64298000Y37227000D01*
X64338000Y44840000D02*
X64338000Y42292000D01*
X64338000Y39810000D02*
X64338000Y37262000D01*
X64378000Y44804000D02*
X64378000Y42292000D01*
X64378000Y39810000D02*
X64378000Y37298000D01*
X64418000Y44767000D02*
X64418000Y42292000D01*
X64418000Y39810000D02*
X64418000Y37335000D01*
X64458000Y44730000D02*
X64458000Y42292000D01*
X64458000Y39810000D02*
X64458000Y37372000D01*
X64498000Y44691000D02*
X64498000Y42292000D01*
X64498000Y39810000D02*
X64498000Y37411000D01*
X64538000Y44652000D02*
X64538000Y42292000D01*
X64538000Y39810000D02*
X64538000Y37450000D01*
X64578000Y44612000D02*
X64578000Y42292000D01*
X64578000Y39810000D02*
X64578000Y37490000D01*
X64618000Y44571000D02*
X64618000Y42292000D01*
X64618000Y39810000D02*
X64618000Y37531000D01*
X64658000Y44529000D02*
X64658000Y42292000D01*
X64658000Y39810000D02*
X64658000Y37573000D01*
X64698000Y44487000D02*
X64698000Y37615000D01*
X64738000Y44443000D02*
X64738000Y37659000D01*
X64778000Y44398000D02*
X64778000Y37704000D01*
X64818000Y44352000D02*
X64818000Y37750000D01*
X64858000Y44305000D02*
X64858000Y37797000D01*
X64898000Y44257000D02*
X64898000Y37845000D01*
X64938000Y44207000D02*
X64938000Y37895000D01*
X64978000Y44157000D02*
X64978000Y37945000D01*
X65018000Y44105000D02*
X65018000Y37997000D01*
X65058000Y44051000D02*
X65058000Y38051000D01*
X65098000Y43996000D02*
X65098000Y38106000D01*
X65138000Y43940000D02*
X65138000Y38162000D01*
X65178000Y43881000D02*
X65178000Y38221000D01*
X65218000Y43821000D02*
X65218000Y38281000D01*
X65258000Y43760000D02*
X65258000Y38342000D01*
X65298000Y43696000D02*
X65298000Y38406000D01*
X65338000Y43630000D02*
X65338000Y38472000D01*
X65378000Y43561000D02*
X65378000Y38541000D01*
X65418000Y43490000D02*
X65418000Y38612000D01*
X65458000Y43416000D02*
X65458000Y38686000D01*
X65498000Y43340000D02*
X65498000Y38762000D01*
X65538000Y43260000D02*
X65538000Y38842000D01*
X65578000Y43176000D02*
X65578000Y38926000D01*
X65618000Y43088000D02*
X65618000Y39014000D01*
X65658000Y42995000D02*
X65658000Y39107000D01*
X65698000Y42897000D02*
X65698000Y39205000D01*
X65738000Y42793000D02*
X65738000Y39309000D01*
X65778000Y42681000D02*
X65778000Y39421000D01*
X65818000Y42561000D02*
X65818000Y39541000D01*
X65858000Y42429000D02*
X65858000Y39673000D01*
X65898000Y42281000D02*
X65898000Y39821000D01*
X65938000Y42113000D02*
X65938000Y39989000D01*
X65978000Y41913000D02*
X65978000Y40189000D01*
X66018000Y41650000D02*
X66018000Y40452000D01*
X55457354Y43926000D02*
X56457354Y43926000D01*
X55957354Y44426000D02*
X55957354Y43426000D01*
%TO.C,C8*%
X57159748Y50422000D02*
X57682252Y50422000D01*
X57159748Y48952000D02*
X57682252Y48952000D01*
%TO.C,C7*%
X57159748Y48390000D02*
X57682252Y48390000D01*
X57159748Y46920000D02*
X57682252Y46920000D01*
%TO.C,C2*%
X50859420Y27510000D02*
X51140580Y27510000D01*
X50859420Y26490000D02*
X51140580Y26490000D01*
%TO.C,C1*%
X60259420Y22310000D02*
X60540580Y22310000D01*
X60259420Y21290000D02*
X60540580Y21290000D01*
%TO.C,J3*%
D10*
X57375666Y5947620D02*
X57375666Y5233334D01*
X57328047Y5090477D01*
X57232809Y4995239D01*
X57089952Y4947620D01*
X56994714Y4947620D01*
X57756619Y5947620D02*
X58375666Y5947620D01*
X58042333Y5566667D01*
X58185190Y5566667D01*
X58280428Y5519048D01*
X58328047Y5471429D01*
X58375666Y5376191D01*
X58375666Y5138096D01*
X58328047Y5042858D01*
X58280428Y4995239D01*
X58185190Y4947620D01*
X57899476Y4947620D01*
X57804238Y4995239D01*
X57756619Y5042858D01*
%TO.C,Q2*%
X17297619Y41604762D02*
X17250000Y41509524D01*
X17154761Y41414286D01*
X17011904Y41271429D01*
X16964285Y41176191D01*
X16964285Y41080953D01*
X17202380Y41128572D02*
X17154761Y41033334D01*
X17059523Y40938096D01*
X16869047Y40890477D01*
X16535714Y40890477D01*
X16345238Y40938096D01*
X16250000Y41033334D01*
X16202380Y41128572D01*
X16202380Y41319048D01*
X16250000Y41414286D01*
X16345238Y41509524D01*
X16535714Y41557143D01*
X16869047Y41557143D01*
X17059523Y41509524D01*
X17154761Y41414286D01*
X17202380Y41319048D01*
X17202380Y41128572D01*
X16297619Y41938096D02*
X16250000Y41985715D01*
X16202380Y42080953D01*
X16202380Y42319048D01*
X16250000Y42414286D01*
X16297619Y42461905D01*
X16392857Y42509524D01*
X16488095Y42509524D01*
X16630952Y42461905D01*
X17202380Y41890477D01*
X17202380Y42509524D01*
%TO.C,R19*%
X13602380Y26989143D02*
X13126190Y26655810D01*
X13602380Y26417715D02*
X12602380Y26417715D01*
X12602380Y26798667D01*
X12650000Y26893905D01*
X12697619Y26941524D01*
X12792857Y26989143D01*
X12935714Y26989143D01*
X13030952Y26941524D01*
X13078571Y26893905D01*
X13126190Y26798667D01*
X13126190Y26417715D01*
X13602380Y27941524D02*
X13602380Y27370096D01*
X13602380Y27655810D02*
X12602380Y27655810D01*
X12745238Y27560572D01*
X12840476Y27465334D01*
X12888095Y27370096D01*
X13602380Y28417715D02*
X13602380Y28608191D01*
X13554761Y28703429D01*
X13507142Y28751048D01*
X13364285Y28846286D01*
X13173809Y28893905D01*
X12792857Y28893905D01*
X12697619Y28846286D01*
X12650000Y28798667D01*
X12602380Y28703429D01*
X12602380Y28512953D01*
X12650000Y28417715D01*
X12697619Y28370096D01*
X12792857Y28322477D01*
X13030952Y28322477D01*
X13126190Y28370096D01*
X13173809Y28417715D01*
X13221428Y28512953D01*
X13221428Y28703429D01*
X13173809Y28798667D01*
X13126190Y28846286D01*
X13030952Y28893905D01*
%TO.C,R11*%
X15138092Y17057143D02*
X14661902Y16723810D01*
X15138092Y16485715D02*
X14138092Y16485715D01*
X14138092Y16866667D01*
X14185712Y16961905D01*
X14233331Y17009524D01*
X14328569Y17057143D01*
X14471426Y17057143D01*
X14566664Y17009524D01*
X14614283Y16961905D01*
X14661902Y16866667D01*
X14661902Y16485715D01*
X15138092Y18009524D02*
X15138092Y17438096D01*
X15138092Y17723810D02*
X14138092Y17723810D01*
X14280950Y17628572D01*
X14376188Y17533334D01*
X14423807Y17438096D01*
X15138092Y18961905D02*
X15138092Y18390477D01*
X15138092Y18676191D02*
X14138092Y18676191D01*
X14280950Y18580953D01*
X14376188Y18485715D01*
X14423807Y18390477D01*
%TO.C,U1*%
X65888095Y34747620D02*
X65888095Y33938096D01*
X65935714Y33842858D01*
X65983333Y33795239D01*
X66078571Y33747620D01*
X66269047Y33747620D01*
X66364285Y33795239D01*
X66411904Y33842858D01*
X66459523Y33938096D01*
X66459523Y34747620D01*
X67459523Y33747620D02*
X66888095Y33747620D01*
X67173809Y33747620D02*
X67173809Y34747620D01*
X67078571Y34604762D01*
X66983333Y34509524D01*
X66888095Y34461905D01*
%TO.C,R4*%
X56733333Y21347620D02*
X56400000Y21823810D01*
X56161904Y21347620D02*
X56161904Y22347620D01*
X56542857Y22347620D01*
X56638095Y22300000D01*
X56685714Y22252381D01*
X56733333Y22157143D01*
X56733333Y22014286D01*
X56685714Y21919048D01*
X56638095Y21871429D01*
X56542857Y21823810D01*
X56161904Y21823810D01*
X57590476Y22014286D02*
X57590476Y21347620D01*
X57352380Y22395239D02*
X57114285Y21680953D01*
X57733333Y21680953D01*
%TO.C,D2*%
X63161904Y21297620D02*
X63161904Y22297620D01*
X63400000Y22297620D01*
X63542857Y22250000D01*
X63638095Y22154762D01*
X63685714Y22059524D01*
X63733333Y21869048D01*
X63733333Y21726191D01*
X63685714Y21535715D01*
X63638095Y21440477D01*
X63542857Y21345239D01*
X63400000Y21297620D01*
X63161904Y21297620D01*
X64114285Y22202381D02*
X64161904Y22250000D01*
X64257142Y22297620D01*
X64495238Y22297620D01*
X64590476Y22250000D01*
X64638095Y22202381D01*
X64685714Y22107143D01*
X64685714Y22011905D01*
X64638095Y21869048D01*
X64066666Y21297620D01*
X64685714Y21297620D01*
%TO.C,C6*%
X56733333Y24742858D02*
X56685714Y24695239D01*
X56542857Y24647620D01*
X56447619Y24647620D01*
X56304761Y24695239D01*
X56209523Y24790477D01*
X56161904Y24885715D01*
X56114285Y25076191D01*
X56114285Y25219048D01*
X56161904Y25409524D01*
X56209523Y25504762D01*
X56304761Y25600000D01*
X56447619Y25647620D01*
X56542857Y25647620D01*
X56685714Y25600000D01*
X56733333Y25552381D01*
X57590476Y25647620D02*
X57400000Y25647620D01*
X57304761Y25600000D01*
X57257142Y25552381D01*
X57161904Y25409524D01*
X57114285Y25219048D01*
X57114285Y24838096D01*
X57161904Y24742858D01*
X57209523Y24695239D01*
X57304761Y24647620D01*
X57495238Y24647620D01*
X57590476Y24695239D01*
X57638095Y24742858D01*
X57685714Y24838096D01*
X57685714Y25076191D01*
X57638095Y25171429D01*
X57590476Y25219048D01*
X57495238Y25266667D01*
X57304761Y25266667D01*
X57209523Y25219048D01*
X57161904Y25171429D01*
X57114285Y25076191D01*
%TO.C,C3*%
X57087142Y30733334D02*
X57134761Y30685715D01*
X57182380Y30542858D01*
X57182380Y30447620D01*
X57134761Y30304762D01*
X57039523Y30209524D01*
X56944285Y30161905D01*
X56753809Y30114286D01*
X56610952Y30114286D01*
X56420476Y30161905D01*
X56325238Y30209524D01*
X56230000Y30304762D01*
X56182380Y30447620D01*
X56182380Y30542858D01*
X56230000Y30685715D01*
X56277619Y30733334D01*
X56182380Y31066667D02*
X56182380Y31685715D01*
X56563333Y31352381D01*
X56563333Y31495239D01*
X56610952Y31590477D01*
X56658571Y31638096D01*
X56753809Y31685715D01*
X56991904Y31685715D01*
X57087142Y31638096D01*
X57134761Y31590477D01*
X57182380Y31495239D01*
X57182380Y31209524D01*
X57134761Y31114286D01*
X57087142Y31066667D01*
%TO.C,U3*%
X31538095Y20447620D02*
X31538095Y19638096D01*
X31585714Y19542858D01*
X31633333Y19495239D01*
X31728571Y19447620D01*
X31919047Y19447620D01*
X32014285Y19495239D01*
X32061904Y19542858D01*
X32109523Y19638096D01*
X32109523Y20447620D01*
X32490476Y20447620D02*
X33109523Y20447620D01*
X32776190Y20066667D01*
X32919047Y20066667D01*
X33014285Y20019048D01*
X33061904Y19971429D01*
X33109523Y19876191D01*
X33109523Y19638096D01*
X33061904Y19542858D01*
X33014285Y19495239D01*
X32919047Y19447620D01*
X32633333Y19447620D01*
X32538095Y19495239D01*
X32490476Y19542858D01*
%TO.C,U2*%
X53938095Y20397620D02*
X53938095Y19588096D01*
X53985714Y19492858D01*
X54033333Y19445239D01*
X54128571Y19397620D01*
X54319047Y19397620D01*
X54414285Y19445239D01*
X54461904Y19492858D01*
X54509523Y19588096D01*
X54509523Y20397620D01*
X54938095Y20302381D02*
X54985714Y20350000D01*
X55080952Y20397620D01*
X55319047Y20397620D01*
X55414285Y20350000D01*
X55461904Y20302381D01*
X55509523Y20207143D01*
X55509523Y20111905D01*
X55461904Y19969048D01*
X54890476Y19397620D01*
X55509523Y19397620D01*
%TO.C,R20*%
X32529380Y25847143D02*
X32053190Y25513810D01*
X32529380Y25275715D02*
X31529380Y25275715D01*
X31529380Y25656667D01*
X31577000Y25751905D01*
X31624619Y25799524D01*
X31719857Y25847143D01*
X31862714Y25847143D01*
X31957952Y25799524D01*
X32005571Y25751905D01*
X32053190Y25656667D01*
X32053190Y25275715D01*
X31624619Y26228096D02*
X31577000Y26275715D01*
X31529380Y26370953D01*
X31529380Y26609048D01*
X31577000Y26704286D01*
X31624619Y26751905D01*
X31719857Y26799524D01*
X31815095Y26799524D01*
X31957952Y26751905D01*
X32529380Y26180477D01*
X32529380Y26799524D01*
X31529380Y27418572D02*
X31529380Y27513810D01*
X31577000Y27609048D01*
X31624619Y27656667D01*
X31719857Y27704286D01*
X31910333Y27751905D01*
X32148428Y27751905D01*
X32338904Y27704286D01*
X32434142Y27656667D01*
X32481761Y27609048D01*
X32529380Y27513810D01*
X32529380Y27418572D01*
X32481761Y27323334D01*
X32434142Y27275715D01*
X32338904Y27228096D01*
X32148428Y27180477D01*
X31910333Y27180477D01*
X31719857Y27228096D01*
X31624619Y27275715D01*
X31577000Y27323334D01*
X31529380Y27418572D01*
%TO.C,R18*%
X35831380Y25847143D02*
X35355190Y25513810D01*
X35831380Y25275715D02*
X34831380Y25275715D01*
X34831380Y25656667D01*
X34879000Y25751905D01*
X34926619Y25799524D01*
X35021857Y25847143D01*
X35164714Y25847143D01*
X35259952Y25799524D01*
X35307571Y25751905D01*
X35355190Y25656667D01*
X35355190Y25275715D01*
X35831380Y26799524D02*
X35831380Y26228096D01*
X35831380Y26513810D02*
X34831380Y26513810D01*
X34974238Y26418572D01*
X35069476Y26323334D01*
X35117095Y26228096D01*
X35259952Y27370953D02*
X35212333Y27275715D01*
X35164714Y27228096D01*
X35069476Y27180477D01*
X35021857Y27180477D01*
X34926619Y27228096D01*
X34879000Y27275715D01*
X34831380Y27370953D01*
X34831380Y27561429D01*
X34879000Y27656667D01*
X34926619Y27704286D01*
X35021857Y27751905D01*
X35069476Y27751905D01*
X35164714Y27704286D01*
X35212333Y27656667D01*
X35259952Y27561429D01*
X35259952Y27370953D01*
X35307571Y27275715D01*
X35355190Y27228096D01*
X35450428Y27180477D01*
X35640904Y27180477D01*
X35736142Y27228096D01*
X35783761Y27275715D01*
X35831380Y27370953D01*
X35831380Y27561429D01*
X35783761Y27656667D01*
X35736142Y27704286D01*
X35640904Y27751905D01*
X35450428Y27751905D01*
X35355190Y27704286D01*
X35307571Y27656667D01*
X35259952Y27561429D01*
%TO.C,R17*%
X16904380Y26989143D02*
X16428190Y26655810D01*
X16904380Y26417715D02*
X15904380Y26417715D01*
X15904380Y26798667D01*
X15952000Y26893905D01*
X15999619Y26941524D01*
X16094857Y26989143D01*
X16237714Y26989143D01*
X16332952Y26941524D01*
X16380571Y26893905D01*
X16428190Y26798667D01*
X16428190Y26417715D01*
X16904380Y27941524D02*
X16904380Y27370096D01*
X16904380Y27655810D02*
X15904380Y27655810D01*
X16047238Y27560572D01*
X16142476Y27465334D01*
X16190095Y27370096D01*
X15904380Y28274858D02*
X15904380Y28941524D01*
X16904380Y28512953D01*
%TO.C,R16*%
X9052380Y17057143D02*
X8576190Y16723810D01*
X9052380Y16485715D02*
X8052380Y16485715D01*
X8052380Y16866667D01*
X8100000Y16961905D01*
X8147619Y17009524D01*
X8242857Y17057143D01*
X8385714Y17057143D01*
X8480952Y17009524D01*
X8528571Y16961905D01*
X8576190Y16866667D01*
X8576190Y16485715D01*
X9052380Y18009524D02*
X9052380Y17438096D01*
X9052380Y17723810D02*
X8052380Y17723810D01*
X8195238Y17628572D01*
X8290476Y17533334D01*
X8338095Y17438096D01*
X8052380Y18866667D02*
X8052380Y18676191D01*
X8100000Y18580953D01*
X8147619Y18533334D01*
X8290476Y18438096D01*
X8480952Y18390477D01*
X8861904Y18390477D01*
X8957142Y18438096D01*
X9004761Y18485715D01*
X9052380Y18580953D01*
X9052380Y18771429D01*
X9004761Y18866667D01*
X8957142Y18914286D01*
X8861904Y18961905D01*
X8623809Y18961905D01*
X8528571Y18914286D01*
X8480952Y18866667D01*
X8433333Y18771429D01*
X8433333Y18580953D01*
X8480952Y18485715D01*
X8528571Y18438096D01*
X8623809Y18390477D01*
%TO.C,R15*%
X13616664Y17057143D02*
X13140474Y16723810D01*
X13616664Y16485715D02*
X12616664Y16485715D01*
X12616664Y16866667D01*
X12664284Y16961905D01*
X12711903Y17009524D01*
X12807141Y17057143D01*
X12949998Y17057143D01*
X13045236Y17009524D01*
X13092855Y16961905D01*
X13140474Y16866667D01*
X13140474Y16485715D01*
X13616664Y18009524D02*
X13616664Y17438096D01*
X13616664Y17723810D02*
X12616664Y17723810D01*
X12759522Y17628572D01*
X12854760Y17533334D01*
X12902379Y17438096D01*
X12616664Y18914286D02*
X12616664Y18438096D01*
X13092855Y18390477D01*
X13045236Y18438096D01*
X12997617Y18533334D01*
X12997617Y18771429D01*
X13045236Y18866667D01*
X13092855Y18914286D01*
X13188093Y18961905D01*
X13426188Y18961905D01*
X13521426Y18914286D01*
X13569045Y18866667D01*
X13616664Y18771429D01*
X13616664Y18533334D01*
X13569045Y18438096D01*
X13521426Y18390477D01*
%TO.C,R14*%
X18180948Y17057143D02*
X17704758Y16723810D01*
X18180948Y16485715D02*
X17180948Y16485715D01*
X17180948Y16866667D01*
X17228568Y16961905D01*
X17276187Y17009524D01*
X17371425Y17057143D01*
X17514282Y17057143D01*
X17609520Y17009524D01*
X17657139Y16961905D01*
X17704758Y16866667D01*
X17704758Y16485715D01*
X18180948Y18009524D02*
X18180948Y17438096D01*
X18180948Y17723810D02*
X17180948Y17723810D01*
X17323806Y17628572D01*
X17419044Y17533334D01*
X17466663Y17438096D01*
X17514282Y18866667D02*
X18180948Y18866667D01*
X17133329Y18628572D02*
X17847615Y18390477D01*
X17847615Y19009524D01*
%TO.C,R13*%
X19702376Y17057143D02*
X19226186Y16723810D01*
X19702376Y16485715D02*
X18702376Y16485715D01*
X18702376Y16866667D01*
X18749996Y16961905D01*
X18797615Y17009524D01*
X18892853Y17057143D01*
X19035710Y17057143D01*
X19130948Y17009524D01*
X19178567Y16961905D01*
X19226186Y16866667D01*
X19226186Y16485715D01*
X19702376Y18009524D02*
X19702376Y17438096D01*
X19702376Y17723810D02*
X18702376Y17723810D01*
X18845234Y17628572D01*
X18940472Y17533334D01*
X18988091Y17438096D01*
X18702376Y18342858D02*
X18702376Y18961905D01*
X19083329Y18628572D01*
X19083329Y18771429D01*
X19130948Y18866667D01*
X19178567Y18914286D01*
X19273805Y18961905D01*
X19511900Y18961905D01*
X19607138Y18914286D01*
X19654757Y18866667D01*
X19702376Y18771429D01*
X19702376Y18485715D01*
X19654757Y18390477D01*
X19607138Y18342858D01*
%TO.C,R12*%
X10573808Y17057143D02*
X10097618Y16723810D01*
X10573808Y16485715D02*
X9573808Y16485715D01*
X9573808Y16866667D01*
X9621428Y16961905D01*
X9669047Y17009524D01*
X9764285Y17057143D01*
X9907142Y17057143D01*
X10002380Y17009524D01*
X10049999Y16961905D01*
X10097618Y16866667D01*
X10097618Y16485715D01*
X10573808Y18009524D02*
X10573808Y17438096D01*
X10573808Y17723810D02*
X9573808Y17723810D01*
X9716666Y17628572D01*
X9811904Y17533334D01*
X9859523Y17438096D01*
X9669047Y18390477D02*
X9621428Y18438096D01*
X9573808Y18533334D01*
X9573808Y18771429D01*
X9621428Y18866667D01*
X9669047Y18914286D01*
X9764285Y18961905D01*
X9859523Y18961905D01*
X10002380Y18914286D01*
X10573808Y18342858D01*
X10573808Y18961905D01*
%TO.C,R10*%
X46984880Y16933334D02*
X46508690Y16600001D01*
X46984880Y16361906D02*
X45984880Y16361906D01*
X45984880Y16742858D01*
X46032500Y16838096D01*
X46080119Y16885715D01*
X46175357Y16933334D01*
X46318214Y16933334D01*
X46413452Y16885715D01*
X46461071Y16838096D01*
X46508690Y16742858D01*
X46508690Y16361906D01*
X46984880Y17885715D02*
X46984880Y17314287D01*
X46984880Y17600001D02*
X45984880Y17600001D01*
X46127738Y17504763D01*
X46222976Y17409525D01*
X46270595Y17314287D01*
X45984880Y18504763D02*
X45984880Y18600001D01*
X46032500Y18695239D01*
X46080119Y18742858D01*
X46175357Y18790477D01*
X46365833Y18838096D01*
X46603928Y18838096D01*
X46794404Y18790477D01*
X46889642Y18742858D01*
X46937261Y18695239D01*
X46984880Y18600001D01*
X46984880Y18504763D01*
X46937261Y18409525D01*
X46889642Y18361906D01*
X46794404Y18314287D01*
X46603928Y18266668D01*
X46365833Y18266668D01*
X46175357Y18314287D01*
X46080119Y18361906D01*
X46032500Y18409525D01*
X45984880Y18504763D01*
%TO.C,R9*%
X49234880Y16933334D02*
X48758690Y16600000D01*
X49234880Y16361905D02*
X48234880Y16361905D01*
X48234880Y16742858D01*
X48282500Y16838096D01*
X48330119Y16885715D01*
X48425357Y16933334D01*
X48568214Y16933334D01*
X48663452Y16885715D01*
X48711071Y16838096D01*
X48758690Y16742858D01*
X48758690Y16361905D01*
X49234880Y17409524D02*
X49234880Y17600000D01*
X49187261Y17695239D01*
X49139642Y17742858D01*
X48996785Y17838096D01*
X48806309Y17885715D01*
X48425357Y17885715D01*
X48330119Y17838096D01*
X48282500Y17790477D01*
X48234880Y17695239D01*
X48234880Y17504762D01*
X48282500Y17409524D01*
X48330119Y17361905D01*
X48425357Y17314286D01*
X48663452Y17314286D01*
X48758690Y17361905D01*
X48806309Y17409524D01*
X48853928Y17504762D01*
X48853928Y17695239D01*
X48806309Y17790477D01*
X48758690Y17838096D01*
X48663452Y17885715D01*
%TO.C,R8*%
X52322380Y31633334D02*
X51846190Y31300000D01*
X52322380Y31061905D02*
X51322380Y31061905D01*
X51322380Y31442858D01*
X51370000Y31538096D01*
X51417619Y31585715D01*
X51512857Y31633334D01*
X51655714Y31633334D01*
X51750952Y31585715D01*
X51798571Y31538096D01*
X51846190Y31442858D01*
X51846190Y31061905D01*
X51750952Y32204762D02*
X51703333Y32109524D01*
X51655714Y32061905D01*
X51560476Y32014286D01*
X51512857Y32014286D01*
X51417619Y32061905D01*
X51370000Y32109524D01*
X51322380Y32204762D01*
X51322380Y32395239D01*
X51370000Y32490477D01*
X51417619Y32538096D01*
X51512857Y32585715D01*
X51560476Y32585715D01*
X51655714Y32538096D01*
X51703333Y32490477D01*
X51750952Y32395239D01*
X51750952Y32204762D01*
X51798571Y32109524D01*
X51846190Y32061905D01*
X51941428Y32014286D01*
X52131904Y32014286D01*
X52227142Y32061905D01*
X52274761Y32109524D01*
X52322380Y32204762D01*
X52322380Y32395239D01*
X52274761Y32490477D01*
X52227142Y32538096D01*
X52131904Y32585715D01*
X51941428Y32585715D01*
X51846190Y32538096D01*
X51798571Y32490477D01*
X51750952Y32395239D01*
%TO.C,R7*%
X47752380Y46283334D02*
X47276190Y45950000D01*
X47752380Y45711905D02*
X46752380Y45711905D01*
X46752380Y46092858D01*
X46800000Y46188096D01*
X46847619Y46235715D01*
X46942857Y46283334D01*
X47085714Y46283334D01*
X47180952Y46235715D01*
X47228571Y46188096D01*
X47276190Y46092858D01*
X47276190Y45711905D01*
X46752380Y46616667D02*
X46752380Y47283334D01*
X47752380Y46854762D01*
%TO.C,R6*%
X57152380Y35033334D02*
X56676190Y34700000D01*
X57152380Y34461905D02*
X56152380Y34461905D01*
X56152380Y34842858D01*
X56200000Y34938096D01*
X56247619Y34985715D01*
X56342857Y35033334D01*
X56485714Y35033334D01*
X56580952Y34985715D01*
X56628571Y34938096D01*
X56676190Y34842858D01*
X56676190Y34461905D01*
X56152380Y35890477D02*
X56152380Y35700000D01*
X56200000Y35604762D01*
X56247619Y35557143D01*
X56390476Y35461905D01*
X56580952Y35414286D01*
X56961904Y35414286D01*
X57057142Y35461905D01*
X57104761Y35509524D01*
X57152380Y35604762D01*
X57152380Y35795239D01*
X57104761Y35890477D01*
X57057142Y35938096D01*
X56961904Y35985715D01*
X56723809Y35985715D01*
X56628571Y35938096D01*
X56580952Y35890477D01*
X56533333Y35795239D01*
X56533333Y35604762D01*
X56580952Y35509524D01*
X56628571Y35461905D01*
X56723809Y35414286D01*
%TO.C,R5*%
X50722380Y31633334D02*
X50246190Y31300000D01*
X50722380Y31061905D02*
X49722380Y31061905D01*
X49722380Y31442858D01*
X49770000Y31538096D01*
X49817619Y31585715D01*
X49912857Y31633334D01*
X50055714Y31633334D01*
X50150952Y31585715D01*
X50198571Y31538096D01*
X50246190Y31442858D01*
X50246190Y31061905D01*
X49722380Y32538096D02*
X49722380Y32061905D01*
X50198571Y32014286D01*
X50150952Y32061905D01*
X50103333Y32157143D01*
X50103333Y32395239D01*
X50150952Y32490477D01*
X50198571Y32538096D01*
X50293809Y32585715D01*
X50531904Y32585715D01*
X50627142Y32538096D01*
X50674761Y32490477D01*
X50722380Y32395239D01*
X50722380Y32157143D01*
X50674761Y32061905D01*
X50627142Y32014286D01*
%TO.C,R3*%
X51484880Y16933334D02*
X51008690Y16600000D01*
X51484880Y16361905D02*
X50484880Y16361905D01*
X50484880Y16742858D01*
X50532500Y16838096D01*
X50580119Y16885715D01*
X50675357Y16933334D01*
X50818214Y16933334D01*
X50913452Y16885715D01*
X50961071Y16838096D01*
X51008690Y16742858D01*
X51008690Y16361905D01*
X50484880Y17266667D02*
X50484880Y17885715D01*
X50865833Y17552381D01*
X50865833Y17695239D01*
X50913452Y17790477D01*
X50961071Y17838096D01*
X51056309Y17885715D01*
X51294404Y17885715D01*
X51389642Y17838096D01*
X51437261Y17790477D01*
X51484880Y17695239D01*
X51484880Y17409524D01*
X51437261Y17314286D01*
X51389642Y17266667D01*
%TO.C,R2*%
X55984880Y16933334D02*
X55508690Y16600000D01*
X55984880Y16361905D02*
X54984880Y16361905D01*
X54984880Y16742858D01*
X55032500Y16838096D01*
X55080119Y16885715D01*
X55175357Y16933334D01*
X55318214Y16933334D01*
X55413452Y16885715D01*
X55461071Y16838096D01*
X55508690Y16742858D01*
X55508690Y16361905D01*
X55080119Y17314286D02*
X55032500Y17361905D01*
X54984880Y17457143D01*
X54984880Y17695239D01*
X55032500Y17790477D01*
X55080119Y17838096D01*
X55175357Y17885715D01*
X55270595Y17885715D01*
X55413452Y17838096D01*
X55984880Y17266667D01*
X55984880Y17885715D01*
%TO.C,R1*%
X53734880Y16933334D02*
X53258690Y16600000D01*
X53734880Y16361905D02*
X52734880Y16361905D01*
X52734880Y16742858D01*
X52782500Y16838096D01*
X52830119Y16885715D01*
X52925357Y16933334D01*
X53068214Y16933334D01*
X53163452Y16885715D01*
X53211071Y16838096D01*
X53258690Y16742858D01*
X53258690Y16361905D01*
X53734880Y17885715D02*
X53734880Y17314286D01*
X53734880Y17600000D02*
X52734880Y17600000D01*
X52877738Y17504762D01*
X52972976Y17409524D01*
X53020595Y17314286D01*
%TO.C,Q3*%
X32497619Y41604762D02*
X32450000Y41509524D01*
X32354761Y41414286D01*
X32211904Y41271429D01*
X32164285Y41176191D01*
X32164285Y41080953D01*
X32402380Y41128572D02*
X32354761Y41033334D01*
X32259523Y40938096D01*
X32069047Y40890477D01*
X31735714Y40890477D01*
X31545238Y40938096D01*
X31450000Y41033334D01*
X31402380Y41128572D01*
X31402380Y41319048D01*
X31450000Y41414286D01*
X31545238Y41509524D01*
X31735714Y41557143D01*
X32069047Y41557143D01*
X32259523Y41509524D01*
X32354761Y41414286D01*
X32402380Y41319048D01*
X32402380Y41128572D01*
X31402380Y41890477D02*
X31402380Y42509524D01*
X31783333Y42176191D01*
X31783333Y42319048D01*
X31830952Y42414286D01*
X31878571Y42461905D01*
X31973809Y42509524D01*
X32211904Y42509524D01*
X32307142Y42461905D01*
X32354761Y42414286D01*
X32402380Y42319048D01*
X32402380Y42033334D01*
X32354761Y41938096D01*
X32307142Y41890477D01*
%TO.C,Q1*%
X48347619Y50804762D02*
X48300000Y50709524D01*
X48204761Y50614286D01*
X48061904Y50471429D01*
X48014285Y50376191D01*
X48014285Y50280953D01*
X48252380Y50328572D02*
X48204761Y50233334D01*
X48109523Y50138096D01*
X47919047Y50090477D01*
X47585714Y50090477D01*
X47395238Y50138096D01*
X47300000Y50233334D01*
X47252380Y50328572D01*
X47252380Y50519048D01*
X47300000Y50614286D01*
X47395238Y50709524D01*
X47585714Y50757143D01*
X47919047Y50757143D01*
X48109523Y50709524D01*
X48204761Y50614286D01*
X48252380Y50519048D01*
X48252380Y50328572D01*
X48252380Y51709524D02*
X48252380Y51138096D01*
X48252380Y51423810D02*
X47252380Y51423810D01*
X47395238Y51328572D01*
X47490476Y51233334D01*
X47538095Y51138096D01*
%TO.C,JP2*%
X36852380Y5966667D02*
X37566666Y5966667D01*
X37709523Y5919048D01*
X37804761Y5823810D01*
X37852380Y5680953D01*
X37852380Y5585715D01*
X37852380Y6442858D02*
X36852380Y6442858D01*
X36852380Y6823810D01*
X36900000Y6919048D01*
X36947619Y6966667D01*
X37042857Y7014286D01*
X37185714Y7014286D01*
X37280952Y6966667D01*
X37328571Y6919048D01*
X37376190Y6823810D01*
X37376190Y6442858D01*
X36947619Y7395239D02*
X36900000Y7442858D01*
X36852380Y7538096D01*
X36852380Y7776191D01*
X36900000Y7871429D01*
X36947619Y7919048D01*
X37042857Y7966667D01*
X37138095Y7966667D01*
X37280952Y7919048D01*
X37852380Y7347620D01*
X37852380Y7966667D01*
%TO.C,JP1*%
X47452666Y25872620D02*
X47452666Y25158334D01*
X47405047Y25015477D01*
X47309809Y24920239D01*
X47166952Y24872620D01*
X47071714Y24872620D01*
X47928857Y24872620D02*
X47928857Y25872620D01*
X48309809Y25872620D01*
X48405047Y25825000D01*
X48452666Y25777381D01*
X48500285Y25682143D01*
X48500285Y25539286D01*
X48452666Y25444048D01*
X48405047Y25396429D01*
X48309809Y25348810D01*
X47928857Y25348810D01*
X49452666Y24872620D02*
X48881238Y24872620D01*
X49166952Y24872620D02*
X49166952Y25872620D01*
X49071714Y25729762D01*
X48976476Y25634524D01*
X48881238Y25586905D01*
%TO.C,J4*%
X15002380Y5766667D02*
X15716666Y5766667D01*
X15859523Y5719048D01*
X15954761Y5623810D01*
X16002380Y5480953D01*
X16002380Y5385715D01*
X15335714Y6671429D02*
X16002380Y6671429D01*
X14954761Y6433334D02*
X15669047Y6195239D01*
X15669047Y6814286D01*
%TO.C,J2*%
X18602380Y59766667D02*
X19316666Y59766667D01*
X19459523Y59719048D01*
X19554761Y59623810D01*
X19602380Y59480953D01*
X19602380Y59385715D01*
X18697619Y60195239D02*
X18650000Y60242858D01*
X18602380Y60338096D01*
X18602380Y60576191D01*
X18650000Y60671429D01*
X18697619Y60719048D01*
X18792857Y60766667D01*
X18888095Y60766667D01*
X19030952Y60719048D01*
X19602380Y60147620D01*
X19602380Y60766667D01*
%TO.C,J1*%
X46802380Y59816667D02*
X47516666Y59816667D01*
X47659523Y59769048D01*
X47754761Y59673810D01*
X47802380Y59530953D01*
X47802380Y59435715D01*
X47802380Y60816667D02*
X47802380Y60245239D01*
X47802380Y60530953D02*
X46802380Y60530953D01*
X46945238Y60435715D01*
X47040476Y60340477D01*
X47088095Y60245239D01*
%TO.C,D4*%
X12095236Y16485714D02*
X11095236Y16485714D01*
X11095236Y16723809D01*
X11142856Y16866667D01*
X11238094Y16961905D01*
X11333332Y17009524D01*
X11523808Y17057143D01*
X11666665Y17057143D01*
X11857141Y17009524D01*
X11952379Y16961905D01*
X12047617Y16866667D01*
X12095236Y16723809D01*
X12095236Y16485714D01*
X11428570Y17914286D02*
X12095236Y17914286D01*
X11047617Y17676190D02*
X11761903Y17438095D01*
X11761903Y18057143D01*
%TO.C,D3*%
X16659520Y16485714D02*
X15659520Y16485714D01*
X15659520Y16723809D01*
X15707140Y16866667D01*
X15802378Y16961905D01*
X15897616Y17009524D01*
X16088092Y17057143D01*
X16230949Y17057143D01*
X16421425Y17009524D01*
X16516663Y16961905D01*
X16611901Y16866667D01*
X16659520Y16723809D01*
X16659520Y16485714D01*
X15659520Y17390476D02*
X15659520Y18009524D01*
X16040473Y17676190D01*
X16040473Y17819048D01*
X16088092Y17914286D01*
X16135711Y17961905D01*
X16230949Y18009524D01*
X16469044Y18009524D01*
X16564282Y17961905D01*
X16611901Y17914286D01*
X16659520Y17819048D01*
X16659520Y17533333D01*
X16611901Y17438095D01*
X16564282Y17390476D01*
%TO.C,D1*%
X46961904Y37847620D02*
X46961904Y38847620D01*
X47200000Y38847620D01*
X47342857Y38800000D01*
X47438095Y38704762D01*
X47485714Y38609524D01*
X47533333Y38419048D01*
X47533333Y38276191D01*
X47485714Y38085715D01*
X47438095Y37990477D01*
X47342857Y37895239D01*
X47200000Y37847620D01*
X46961904Y37847620D01*
X48485714Y37847620D02*
X47914285Y37847620D01*
X48200000Y37847620D02*
X48200000Y38847620D01*
X48104761Y38704762D01*
X48009523Y38609524D01*
X47914285Y38561905D01*
%TO.C,C20*%
X34085142Y25847143D02*
X34132761Y25799524D01*
X34180380Y25656667D01*
X34180380Y25561429D01*
X34132761Y25418572D01*
X34037523Y25323334D01*
X33942285Y25275715D01*
X33751809Y25228096D01*
X33608952Y25228096D01*
X33418476Y25275715D01*
X33323238Y25323334D01*
X33228000Y25418572D01*
X33180380Y25561429D01*
X33180380Y25656667D01*
X33228000Y25799524D01*
X33275619Y25847143D01*
X33275619Y26228096D02*
X33228000Y26275715D01*
X33180380Y26370953D01*
X33180380Y26609048D01*
X33228000Y26704286D01*
X33275619Y26751905D01*
X33370857Y26799524D01*
X33466095Y26799524D01*
X33608952Y26751905D01*
X34180380Y26180477D01*
X34180380Y26799524D01*
X33180380Y27418572D02*
X33180380Y27513810D01*
X33228000Y27609048D01*
X33275619Y27656667D01*
X33370857Y27704286D01*
X33561333Y27751905D01*
X33799428Y27751905D01*
X33989904Y27704286D01*
X34085142Y27656667D01*
X34132761Y27609048D01*
X34180380Y27513810D01*
X34180380Y27418572D01*
X34132761Y27323334D01*
X34085142Y27275715D01*
X33989904Y27228096D01*
X33799428Y27180477D01*
X33561333Y27180477D01*
X33370857Y27228096D01*
X33275619Y27275715D01*
X33228000Y27323334D01*
X33180380Y27418572D01*
%TO.C,C19*%
X15158142Y26989143D02*
X15205761Y26941524D01*
X15253380Y26798667D01*
X15253380Y26703429D01*
X15205761Y26560572D01*
X15110523Y26465334D01*
X15015285Y26417715D01*
X14824809Y26370096D01*
X14681952Y26370096D01*
X14491476Y26417715D01*
X14396238Y26465334D01*
X14301000Y26560572D01*
X14253380Y26703429D01*
X14253380Y26798667D01*
X14301000Y26941524D01*
X14348619Y26989143D01*
X15253380Y27941524D02*
X15253380Y27370096D01*
X15253380Y27655810D02*
X14253380Y27655810D01*
X14396238Y27560572D01*
X14491476Y27465334D01*
X14539095Y27370096D01*
X15253380Y28417715D02*
X15253380Y28608191D01*
X15205761Y28703429D01*
X15158142Y28751048D01*
X15015285Y28846286D01*
X14824809Y28893905D01*
X14443857Y28893905D01*
X14348619Y28846286D01*
X14301000Y28798667D01*
X14253380Y28703429D01*
X14253380Y28512953D01*
X14301000Y28417715D01*
X14348619Y28370096D01*
X14443857Y28322477D01*
X14681952Y28322477D01*
X14777190Y28370096D01*
X14824809Y28417715D01*
X14872428Y28512953D01*
X14872428Y28703429D01*
X14824809Y28798667D01*
X14777190Y28846286D01*
X14681952Y28893905D01*
%TO.C,C18*%
X37387142Y25847143D02*
X37434761Y25799524D01*
X37482380Y25656667D01*
X37482380Y25561429D01*
X37434761Y25418572D01*
X37339523Y25323334D01*
X37244285Y25275715D01*
X37053809Y25228096D01*
X36910952Y25228096D01*
X36720476Y25275715D01*
X36625238Y25323334D01*
X36530000Y25418572D01*
X36482380Y25561429D01*
X36482380Y25656667D01*
X36530000Y25799524D01*
X36577619Y25847143D01*
X37482380Y26799524D02*
X37482380Y26228096D01*
X37482380Y26513810D02*
X36482380Y26513810D01*
X36625238Y26418572D01*
X36720476Y26323334D01*
X36768095Y26228096D01*
X36910952Y27370953D02*
X36863333Y27275715D01*
X36815714Y27228096D01*
X36720476Y27180477D01*
X36672857Y27180477D01*
X36577619Y27228096D01*
X36530000Y27275715D01*
X36482380Y27370953D01*
X36482380Y27561429D01*
X36530000Y27656667D01*
X36577619Y27704286D01*
X36672857Y27751905D01*
X36720476Y27751905D01*
X36815714Y27704286D01*
X36863333Y27656667D01*
X36910952Y27561429D01*
X36910952Y27370953D01*
X36958571Y27275715D01*
X37006190Y27228096D01*
X37101428Y27180477D01*
X37291904Y27180477D01*
X37387142Y27228096D01*
X37434761Y27275715D01*
X37482380Y27370953D01*
X37482380Y27561429D01*
X37434761Y27656667D01*
X37387142Y27704286D01*
X37291904Y27751905D01*
X37101428Y27751905D01*
X37006190Y27704286D01*
X36958571Y27656667D01*
X36910952Y27561429D01*
%TO.C,C17*%
X40689142Y25847143D02*
X40736761Y25799524D01*
X40784380Y25656667D01*
X40784380Y25561429D01*
X40736761Y25418572D01*
X40641523Y25323334D01*
X40546285Y25275715D01*
X40355809Y25228096D01*
X40212952Y25228096D01*
X40022476Y25275715D01*
X39927238Y25323334D01*
X39832000Y25418572D01*
X39784380Y25561429D01*
X39784380Y25656667D01*
X39832000Y25799524D01*
X39879619Y25847143D01*
X40784380Y26799524D02*
X40784380Y26228096D01*
X40784380Y26513810D02*
X39784380Y26513810D01*
X39927238Y26418572D01*
X40022476Y26323334D01*
X40070095Y26228096D01*
X39784380Y27132858D02*
X39784380Y27799524D01*
X40784380Y27370953D01*
%TO.C,C16*%
X43057142Y26312858D02*
X43009523Y26265239D01*
X42866666Y26217620D01*
X42771428Y26217620D01*
X42628571Y26265239D01*
X42533333Y26360477D01*
X42485714Y26455715D01*
X42438095Y26646191D01*
X42438095Y26789048D01*
X42485714Y26979524D01*
X42533333Y27074762D01*
X42628571Y27170000D01*
X42771428Y27217620D01*
X42866666Y27217620D01*
X43009523Y27170000D01*
X43057142Y27122381D01*
X44009523Y26217620D02*
X43438095Y26217620D01*
X43723809Y26217620D02*
X43723809Y27217620D01*
X43628571Y27074762D01*
X43533333Y26979524D01*
X43438095Y26931905D01*
X44866666Y27217620D02*
X44676190Y27217620D01*
X44580952Y27170000D01*
X44533333Y27122381D01*
X44438095Y26979524D01*
X44390476Y26789048D01*
X44390476Y26408096D01*
X44438095Y26312858D01*
X44485714Y26265239D01*
X44580952Y26217620D01*
X44771428Y26217620D01*
X44866666Y26265239D01*
X44914285Y26312858D01*
X44961904Y26408096D01*
X44961904Y26646191D01*
X44914285Y26741429D01*
X44866666Y26789048D01*
X44771428Y26836667D01*
X44580952Y26836667D01*
X44485714Y26789048D01*
X44438095Y26741429D01*
X44390476Y26646191D01*
%TO.C,C15*%
X27807142Y26242858D02*
X27759523Y26195239D01*
X27616666Y26147620D01*
X27521428Y26147620D01*
X27378571Y26195239D01*
X27283333Y26290477D01*
X27235714Y26385715D01*
X27188095Y26576191D01*
X27188095Y26719048D01*
X27235714Y26909524D01*
X27283333Y27004762D01*
X27378571Y27100000D01*
X27521428Y27147620D01*
X27616666Y27147620D01*
X27759523Y27100000D01*
X27807142Y27052381D01*
X28759523Y26147620D02*
X28188095Y26147620D01*
X28473809Y26147620D02*
X28473809Y27147620D01*
X28378571Y27004762D01*
X28283333Y26909524D01*
X28188095Y26861905D01*
X29664285Y27147620D02*
X29188095Y27147620D01*
X29140476Y26671429D01*
X29188095Y26719048D01*
X29283333Y26766667D01*
X29521428Y26766667D01*
X29616666Y26719048D01*
X29664285Y26671429D01*
X29711904Y26576191D01*
X29711904Y26338096D01*
X29664285Y26242858D01*
X29616666Y26195239D01*
X29521428Y26147620D01*
X29283333Y26147620D01*
X29188095Y26195239D01*
X29140476Y26242858D01*
%TO.C,C14*%
X21762142Y26989143D02*
X21809761Y26941524D01*
X21857380Y26798667D01*
X21857380Y26703429D01*
X21809761Y26560572D01*
X21714523Y26465334D01*
X21619285Y26417715D01*
X21428809Y26370096D01*
X21285952Y26370096D01*
X21095476Y26417715D01*
X21000238Y26465334D01*
X20905000Y26560572D01*
X20857380Y26703429D01*
X20857380Y26798667D01*
X20905000Y26941524D01*
X20952619Y26989143D01*
X21857380Y27941524D02*
X21857380Y27370096D01*
X21857380Y27655810D02*
X20857380Y27655810D01*
X21000238Y27560572D01*
X21095476Y27465334D01*
X21143095Y27370096D01*
X21190714Y28798667D02*
X21857380Y28798667D01*
X20809761Y28560572D02*
X21524047Y28322477D01*
X21524047Y28941524D01*
%TO.C,C13*%
X18460142Y26989143D02*
X18507761Y26941524D01*
X18555380Y26798667D01*
X18555380Y26703429D01*
X18507761Y26560572D01*
X18412523Y26465334D01*
X18317285Y26417715D01*
X18126809Y26370096D01*
X17983952Y26370096D01*
X17793476Y26417715D01*
X17698238Y26465334D01*
X17603000Y26560572D01*
X17555380Y26703429D01*
X17555380Y26798667D01*
X17603000Y26941524D01*
X17650619Y26989143D01*
X18555380Y27941524D02*
X18555380Y27370096D01*
X18555380Y27655810D02*
X17555380Y27655810D01*
X17698238Y27560572D01*
X17793476Y27465334D01*
X17841095Y27370096D01*
X17555380Y28274858D02*
X17555380Y28893905D01*
X17936333Y28560572D01*
X17936333Y28703429D01*
X17983952Y28798667D01*
X18031571Y28846286D01*
X18126809Y28893905D01*
X18364904Y28893905D01*
X18460142Y28846286D01*
X18507761Y28798667D01*
X18555380Y28703429D01*
X18555380Y28417715D01*
X18507761Y28322477D01*
X18460142Y28274858D01*
%TO.C,C12*%
X21257142Y22442858D02*
X21209523Y22395239D01*
X21066666Y22347620D01*
X20971428Y22347620D01*
X20828571Y22395239D01*
X20733333Y22490477D01*
X20685714Y22585715D01*
X20638095Y22776191D01*
X20638095Y22919048D01*
X20685714Y23109524D01*
X20733333Y23204762D01*
X20828571Y23300000D01*
X20971428Y23347620D01*
X21066666Y23347620D01*
X21209523Y23300000D01*
X21257142Y23252381D01*
X22209523Y22347620D02*
X21638095Y22347620D01*
X21923809Y22347620D02*
X21923809Y23347620D01*
X21828571Y23204762D01*
X21733333Y23109524D01*
X21638095Y23061905D01*
X22590476Y23252381D02*
X22638095Y23300000D01*
X22733333Y23347620D01*
X22971428Y23347620D01*
X23066666Y23300000D01*
X23114285Y23252381D01*
X23161904Y23157143D01*
X23161904Y23061905D01*
X23114285Y22919048D01*
X22542857Y22347620D01*
X23161904Y22347620D01*
%TO.C,C11*%
X39038142Y25847143D02*
X39085761Y25799524D01*
X39133380Y25656667D01*
X39133380Y25561429D01*
X39085761Y25418572D01*
X38990523Y25323334D01*
X38895285Y25275715D01*
X38704809Y25228096D01*
X38561952Y25228096D01*
X38371476Y25275715D01*
X38276238Y25323334D01*
X38181000Y25418572D01*
X38133380Y25561429D01*
X38133380Y25656667D01*
X38181000Y25799524D01*
X38228619Y25847143D01*
X39133380Y26799524D02*
X39133380Y26228096D01*
X39133380Y26513810D02*
X38133380Y26513810D01*
X38276238Y26418572D01*
X38371476Y26323334D01*
X38419095Y26228096D01*
X39133380Y27751905D02*
X39133380Y27180477D01*
X39133380Y27466191D02*
X38133380Y27466191D01*
X38276238Y27370953D01*
X38371476Y27275715D01*
X38419095Y27180477D01*
%TO.C,C10*%
X20111142Y26989143D02*
X20158761Y26941524D01*
X20206380Y26798667D01*
X20206380Y26703429D01*
X20158761Y26560572D01*
X20063523Y26465334D01*
X19968285Y26417715D01*
X19777809Y26370096D01*
X19634952Y26370096D01*
X19444476Y26417715D01*
X19349238Y26465334D01*
X19254000Y26560572D01*
X19206380Y26703429D01*
X19206380Y26798667D01*
X19254000Y26941524D01*
X19301619Y26989143D01*
X20206380Y27941524D02*
X20206380Y27370096D01*
X20206380Y27655810D02*
X19206380Y27655810D01*
X19349238Y27560572D01*
X19444476Y27465334D01*
X19492095Y27370096D01*
X19206380Y28560572D02*
X19206380Y28655810D01*
X19254000Y28751048D01*
X19301619Y28798667D01*
X19396857Y28846286D01*
X19587333Y28893905D01*
X19825428Y28893905D01*
X20015904Y28846286D01*
X20111142Y28798667D01*
X20158761Y28751048D01*
X20206380Y28655810D01*
X20206380Y28560572D01*
X20158761Y28465334D01*
X20111142Y28417715D01*
X20015904Y28370096D01*
X19825428Y28322477D01*
X19587333Y28322477D01*
X19396857Y28370096D01*
X19301619Y28417715D01*
X19254000Y28465334D01*
X19206380Y28560572D01*
%TO.C,C9*%
X60583333Y34442858D02*
X60535714Y34395239D01*
X60392857Y34347620D01*
X60297619Y34347620D01*
X60154761Y34395239D01*
X60059523Y34490477D01*
X60011904Y34585715D01*
X59964285Y34776191D01*
X59964285Y34919048D01*
X60011904Y35109524D01*
X60059523Y35204762D01*
X60154761Y35300000D01*
X60297619Y35347620D01*
X60392857Y35347620D01*
X60535714Y35300000D01*
X60583333Y35252381D01*
X61059523Y34347620D02*
X61250000Y34347620D01*
X61345238Y34395239D01*
X61392857Y34442858D01*
X61488095Y34585715D01*
X61535714Y34776191D01*
X61535714Y35157143D01*
X61488095Y35252381D01*
X61440476Y35300000D01*
X61345238Y35347620D01*
X61154761Y35347620D01*
X61059523Y35300000D01*
X61011904Y35252381D01*
X60964285Y35157143D01*
X60964285Y34919048D01*
X61011904Y34823810D01*
X61059523Y34776191D01*
X61154761Y34728572D01*
X61345238Y34728572D01*
X61440476Y34776191D01*
X61488095Y34823810D01*
X61535714Y34919048D01*
%TO.C,C8*%
X60404333Y49359858D02*
X60356714Y49312239D01*
X60213857Y49264620D01*
X60118619Y49264620D01*
X59975761Y49312239D01*
X59880523Y49407477D01*
X59832904Y49502715D01*
X59785285Y49693191D01*
X59785285Y49836048D01*
X59832904Y50026524D01*
X59880523Y50121762D01*
X59975761Y50217000D01*
X60118619Y50264620D01*
X60213857Y50264620D01*
X60356714Y50217000D01*
X60404333Y50169381D01*
X60975761Y49836048D02*
X60880523Y49883667D01*
X60832904Y49931286D01*
X60785285Y50026524D01*
X60785285Y50074143D01*
X60832904Y50169381D01*
X60880523Y50217000D01*
X60975761Y50264620D01*
X61166238Y50264620D01*
X61261476Y50217000D01*
X61309095Y50169381D01*
X61356714Y50074143D01*
X61356714Y50026524D01*
X61309095Y49931286D01*
X61261476Y49883667D01*
X61166238Y49836048D01*
X60975761Y49836048D01*
X60880523Y49788429D01*
X60832904Y49740810D01*
X60785285Y49645572D01*
X60785285Y49455096D01*
X60832904Y49359858D01*
X60880523Y49312239D01*
X60975761Y49264620D01*
X61166238Y49264620D01*
X61261476Y49312239D01*
X61309095Y49359858D01*
X61356714Y49455096D01*
X61356714Y49645572D01*
X61309095Y49740810D01*
X61261476Y49788429D01*
X61166238Y49836048D01*
%TO.C,C7*%
X60404333Y47327858D02*
X60356714Y47280239D01*
X60213857Y47232620D01*
X60118619Y47232620D01*
X59975761Y47280239D01*
X59880523Y47375477D01*
X59832904Y47470715D01*
X59785285Y47661191D01*
X59785285Y47804048D01*
X59832904Y47994524D01*
X59880523Y48089762D01*
X59975761Y48185000D01*
X60118619Y48232620D01*
X60213857Y48232620D01*
X60356714Y48185000D01*
X60404333Y48137381D01*
X60737666Y48232620D02*
X61404333Y48232620D01*
X60975761Y47232620D01*
%TO.C,C2*%
X53283333Y26592858D02*
X53235714Y26545239D01*
X53092857Y26497620D01*
X52997619Y26497620D01*
X52854761Y26545239D01*
X52759523Y26640477D01*
X52711904Y26735715D01*
X52664285Y26926191D01*
X52664285Y27069048D01*
X52711904Y27259524D01*
X52759523Y27354762D01*
X52854761Y27450000D01*
X52997619Y27497620D01*
X53092857Y27497620D01*
X53235714Y27450000D01*
X53283333Y27402381D01*
X53664285Y27402381D02*
X53711904Y27450000D01*
X53807142Y27497620D01*
X54045238Y27497620D01*
X54140476Y27450000D01*
X54188095Y27402381D01*
X54235714Y27307143D01*
X54235714Y27211905D01*
X54188095Y27069048D01*
X53616666Y26497620D01*
X54235714Y26497620D01*
%TO.C,C1*%
X56733333Y23092858D02*
X56685714Y23045239D01*
X56542857Y22997620D01*
X56447619Y22997620D01*
X56304761Y23045239D01*
X56209523Y23140477D01*
X56161904Y23235715D01*
X56114285Y23426191D01*
X56114285Y23569048D01*
X56161904Y23759524D01*
X56209523Y23854762D01*
X56304761Y23950000D01*
X56447619Y23997620D01*
X56542857Y23997620D01*
X56685714Y23950000D01*
X56733333Y23902381D01*
X57685714Y22997620D02*
X57114285Y22997620D01*
X57400000Y22997620D02*
X57400000Y23997620D01*
X57304761Y23854762D01*
X57209523Y23759524D01*
X57114285Y23711905D01*
%TD*%
M02*
