M48
; DRILL file {KiCad 5.1.8-db9833491~87~ubuntu20.04.1} date Sun Nov 15 00:24:09 2020
; FORMAT={-:-/ absolute / metric / decimal}
; #@! TF.CreationDate,2020-11-15T00:24:09-03:00
; #@! TF.GenerationSoftware,Kicad,Pcbnew,5.1.8-db9833491~87~ubuntu20.04.1
; #@! TF.FileFunction,Plated,1,2,PTH
FMAT,2
METRIC
T1C0.400
T2C1.000
T3C1.190
T4C1.200
%
G90
G05
T1
X2.5Y67.5
X2.5Y50.0
X2.5Y45.0
X2.5Y40.0
X2.5Y35.0
X2.5Y30.0
X2.5Y25.0
X2.5Y20.0
X2.5Y15.0
X2.5Y10.0
X2.5Y5.0
X3.75Y65.0
X5.0Y62.5
X7.5Y67.5
X7.5Y47.5
X7.5Y42.5
X7.5Y37.5
X7.5Y32.5
X7.5Y27.5
X7.5Y22.5
X7.5Y17.5
X7.5Y12.5
X7.5Y7.5
X7.5Y2.5
X8.75Y65.0
X10.0Y62.5
X12.5Y67.5
X12.5Y45.0
X12.5Y40.0
X12.5Y35.0
X12.5Y30.0
X12.5Y25.0
X12.5Y20.0
X12.5Y15.0
X12.5Y10.0
X12.5Y5.0
X13.75Y65.0
X14.4Y38.8
X15.0Y62.5
X17.35Y36.45
X17.35Y35.25
X17.35Y34.05
X17.35Y32.85
X17.5Y67.5
X17.5Y2.5
X18.55Y36.45
X18.55Y35.25
X18.55Y34.05
X18.55Y32.85
X18.75Y65.0
X19.6Y49.0
X19.6Y47.5
X19.6Y46.0
X19.6Y44.5
X19.6Y43.0
X19.6Y41.5
X20.0Y62.5
X20.1Y24.4
X20.9Y16.1
X21.1Y49.0
X21.1Y47.5
X21.1Y46.0
X21.1Y44.5
X21.1Y43.0
X21.1Y41.5
X22.5Y67.5
X22.5Y2.5
X22.6Y49.0
X22.6Y47.5
X22.6Y46.0
X22.6Y44.5
X22.6Y43.0
X22.6Y41.5
X23.5Y18.71
X23.75Y65.0
X23.8Y24.4
X24.1Y49.0
X24.1Y47.5
X24.1Y46.0
X24.1Y44.5
X24.1Y43.0
X24.1Y41.5
X24.407Y28.5
X24.5Y22.3
X24.7Y32.7
X25.0Y62.5
X25.6Y49.0
X25.6Y47.5
X25.6Y46.0
X25.6Y44.5
X25.6Y43.0
X25.6Y41.5
X25.94Y32.7
X26.022Y28.496
X26.354Y16.1
X27.1Y49.0
X27.1Y47.5
X27.1Y46.0
X27.1Y44.5
X27.1Y43.0
X27.1Y41.5
X27.5Y67.5
X27.5Y2.5
X28.5Y37.8
X28.5Y36.6
X28.5Y35.4
X28.5Y34.2
X28.75Y65.0
X29.7Y37.8
X29.7Y36.6
X29.7Y35.4
X29.7Y34.2
X30.0Y62.5
X30.975Y28.5
X31.4Y18.7
X31.809Y16.1
X32.5Y67.5
X32.5Y2.5
X32.55Y36.55
X32.55Y35.35
X32.55Y34.15
X32.55Y32.95
X33.6Y22.3
X33.75Y65.0
X33.75Y36.55
X33.75Y35.35
X33.75Y34.15
X33.75Y32.95
X34.3Y26.8
X34.8Y49.0
X34.8Y47.5
X34.8Y46.0
X34.8Y44.5
X34.8Y43.0
X34.8Y41.5
X35.0Y62.5
X35.55Y24.3
X36.06Y32.8
X36.3Y49.0
X36.3Y47.5
X36.3Y46.0
X36.3Y44.5
X36.3Y43.0
X36.3Y41.5
X36.8Y26.8
X37.33Y32.8
X37.5Y67.5
X37.5Y2.5
X37.8Y49.0
X37.8Y47.5
X37.8Y46.0
X37.8Y44.5
X37.8Y43.0
X37.8Y41.5
X38.05Y24.3
X38.6Y32.8
X38.75Y65.0
X39.3Y49.0
X39.3Y47.5
X39.3Y46.0
X39.3Y44.5
X39.3Y43.0
X39.3Y41.5
X39.3Y26.8
X39.5Y28.5
X39.87Y32.8
X40.0Y62.5
X40.0Y20.0
X40.0Y17.5
X40.0Y15.0
X40.55Y24.3
X40.8Y49.0
X40.8Y47.5
X40.8Y46.0
X40.8Y44.5
X40.8Y43.0
X40.8Y41.5
X41.14Y32.8
X41.52Y27.92
X42.3Y49.0
X42.3Y47.5
X42.3Y46.0
X42.3Y44.5
X42.3Y43.0
X42.3Y41.5
X42.5Y67.5
X42.5Y20.0
X42.5Y17.5
X42.5Y15.0
X42.5Y2.5
X43.75Y65.0
X43.9Y37.7
X43.9Y36.5
X43.9Y35.3
X43.9Y34.1
X44.0Y27.0
X44.451Y32.5
X44.9Y22.3
X45.0Y62.5
X45.0Y20.0
X45.0Y17.5
X45.0Y15.0
X45.1Y37.7
X45.1Y36.5
X45.1Y35.3
X45.1Y34.1
X46.102Y32.5
X46.35Y37.7
X46.35Y36.5
X46.35Y35.3
X46.35Y34.1
X46.6Y12.7
X46.9Y22.3
X47.5Y67.5
X47.5Y2.5
X47.6Y29.665
X48.75Y65.0
X48.85Y12.7
X50.0Y62.5
X50.2Y31.3
X51.1Y12.7
X52.5Y67.5
X52.5Y2.5
X52.6Y22.7
X52.8Y25.9
X53.35Y12.7
X53.4Y31.3
X53.4Y29.4
X53.4Y27.6
X53.7Y22.7
X53.75Y65.0
X54.9Y22.7
X55.0Y62.5
X55.3Y28.6
X55.4Y36.25
X55.4Y35.0
X55.4Y33.7
X55.6Y12.7
X56.4Y27.138
X57.5Y67.5
X57.5Y2.5
X58.5Y25.0
X58.5Y23.4
X58.5Y21.8
X58.75Y65.0
X60.0Y62.5
X62.4Y24.973
X62.4Y21.8
X62.5Y67.5
X62.5Y2.5
X63.75Y65.0
X65.0Y62.5
X65.5Y23.4
X67.5Y67.5
X68.75Y65.0
X70.0Y62.5
X70.0Y50.0
X70.0Y45.0
X70.0Y40.0
X70.0Y35.0
X70.0Y30.0
X70.0Y25.0
X70.0Y20.0
X72.5Y67.5
X73.0Y47.5
X73.0Y42.5
X73.0Y37.5
X73.0Y32.5
X73.0Y27.5
X73.0Y22.5
X73.0Y17.5
X73.75Y65.0
T2
X58.437Y41.051
X63.437Y41.051
X40.0Y11.8
X40.0Y9.26
X40.0Y6.72
T3
X18.4Y8.2
X20.94Y8.2
X23.48Y8.2
X26.02Y8.2
X28.56Y8.2
X31.1Y8.2
X33.64Y8.2
X47.209Y8.2
X49.749Y8.2
X52.289Y8.2
X54.829Y8.2
T4
X52.0Y56.0
X57.08Y56.0
X23.6Y56.0
X28.68Y56.0
X33.8Y56.0
X38.88Y56.0
T0
M30
