%TF.GenerationSoftware,KiCad,Pcbnew,5.1.8-db9833491~87~ubuntu20.04.1*%
%TF.CreationDate,2020-11-15T00:24:13-03:00*%
%TF.ProjectId,dc_motor,64635f6d-6f74-46f7-922e-6b696361645f,Rev: 1.0*%
%TF.SameCoordinates,PX2dc6c00PY6cb8080*%
%TF.FileFunction,Paste,Top*%
%TF.FilePolarity,Positive*%
%FSLAX46Y46*%
G04 Gerber Fmt 4.6, Leading zero omitted, Abs format (unit mm)*
G04 Created by KiCad (PCBNEW 5.1.8-db9833491~87~ubuntu20.04.1) date 2020-11-15 00:24:13*
%MOMM*%
%LPD*%
G01*
G04 APERTURE LIST*
%ADD10R,0.800000X4.600000*%
%ADD11R,5.250000X4.550000*%
%ADD12R,2.200000X1.200000*%
%ADD13R,3.050000X2.750000*%
%ADD14R,1.200000X2.200000*%
%ADD15R,2.750000X3.050000*%
%ADD16R,0.900000X1.200000*%
G04 APERTURE END LIST*
D10*
%TO.C,Q2*%
X19590000Y35925000D03*
X20860000Y35925000D03*
X22130000Y35925000D03*
X23400000Y35925000D03*
X24670000Y35925000D03*
X25940000Y35925000D03*
X27210000Y35925000D03*
D11*
X26175000Y47500000D03*
X20625000Y42650000D03*
X20625000Y47500000D03*
X26175000Y42650000D03*
%TD*%
%TO.C,R19*%
G36*
G01*
X22445000Y30007000D02*
X22995000Y30007000D01*
G75*
G02*
X23195000Y29807000I0J-200000D01*
G01*
X23195000Y29407000D01*
G75*
G02*
X22995000Y29207000I-200000J0D01*
G01*
X22445000Y29207000D01*
G75*
G02*
X22245000Y29407000I0J200000D01*
G01*
X22245000Y29807000D01*
G75*
G02*
X22445000Y30007000I200000J0D01*
G01*
G37*
G36*
G01*
X22445000Y31657000D02*
X22995000Y31657000D01*
G75*
G02*
X23195000Y31457000I0J-200000D01*
G01*
X23195000Y31057000D01*
G75*
G02*
X22995000Y30857000I-200000J0D01*
G01*
X22445000Y30857000D01*
G75*
G02*
X22245000Y31057000I0J200000D01*
G01*
X22245000Y31457000D01*
G75*
G02*
X22445000Y31657000I200000J0D01*
G01*
G37*
%TD*%
%TO.C,R11*%
G36*
G01*
X28420712Y14525000D02*
X27870712Y14525000D01*
G75*
G02*
X27670712Y14725000I0J200000D01*
G01*
X27670712Y15125000D01*
G75*
G02*
X27870712Y15325000I200000J0D01*
G01*
X28420712Y15325000D01*
G75*
G02*
X28620712Y15125000I0J-200000D01*
G01*
X28620712Y14725000D01*
G75*
G02*
X28420712Y14525000I-200000J0D01*
G01*
G37*
G36*
G01*
X28420712Y12875000D02*
X27870712Y12875000D01*
G75*
G02*
X27670712Y13075000I0J200000D01*
G01*
X27670712Y13475000D01*
G75*
G02*
X27870712Y13675000I200000J0D01*
G01*
X28420712Y13675000D01*
G75*
G02*
X28620712Y13475000I0J-200000D01*
G01*
X28620712Y13075000D01*
G75*
G02*
X28420712Y12875000I-200000J0D01*
G01*
G37*
%TD*%
D12*
%TO.C,U1*%
X58234000Y31698000D03*
X58234000Y29418000D03*
X58234000Y27138000D03*
D13*
X66209000Y27893000D03*
X62859000Y30943000D03*
X66209000Y30943000D03*
X62859000Y27893000D03*
%TD*%
%TO.C,R4*%
G36*
G01*
X59975000Y23675000D02*
X59975000Y23125000D01*
G75*
G02*
X59775000Y22925000I-200000J0D01*
G01*
X59375000Y22925000D01*
G75*
G02*
X59175000Y23125000I0J200000D01*
G01*
X59175000Y23675000D01*
G75*
G02*
X59375000Y23875000I200000J0D01*
G01*
X59775000Y23875000D01*
G75*
G02*
X59975000Y23675000I0J-200000D01*
G01*
G37*
G36*
G01*
X61625000Y23675000D02*
X61625000Y23125000D01*
G75*
G02*
X61425000Y22925000I-200000J0D01*
G01*
X61025000Y22925000D01*
G75*
G02*
X60825000Y23125000I0J200000D01*
G01*
X60825000Y23675000D01*
G75*
G02*
X61025000Y23875000I200000J0D01*
G01*
X61425000Y23875000D01*
G75*
G02*
X61625000Y23675000I0J-200000D01*
G01*
G37*
%TD*%
%TO.C,D2*%
G36*
G01*
X63150000Y23656250D02*
X63150000Y23143750D01*
G75*
G02*
X62931250Y22925000I-218750J0D01*
G01*
X62493750Y22925000D01*
G75*
G02*
X62275000Y23143750I0J218750D01*
G01*
X62275000Y23656250D01*
G75*
G02*
X62493750Y23875000I218750J0D01*
G01*
X62931250Y23875000D01*
G75*
G02*
X63150000Y23656250I0J-218750D01*
G01*
G37*
G36*
G01*
X64725000Y23656250D02*
X64725000Y23143750D01*
G75*
G02*
X64506250Y22925000I-218750J0D01*
G01*
X64068750Y22925000D01*
G75*
G02*
X63850000Y23143750I0J218750D01*
G01*
X63850000Y23656250D01*
G75*
G02*
X64068750Y23875000I218750J0D01*
G01*
X64506250Y23875000D01*
G75*
G02*
X64725000Y23656250I0J-218750D01*
G01*
G37*
%TD*%
%TO.C,C6*%
G36*
G01*
X60730000Y24723000D02*
X60730000Y25223000D01*
G75*
G02*
X60955000Y25448000I225000J0D01*
G01*
X61405000Y25448000D01*
G75*
G02*
X61630000Y25223000I0J-225000D01*
G01*
X61630000Y24723000D01*
G75*
G02*
X61405000Y24498000I-225000J0D01*
G01*
X60955000Y24498000D01*
G75*
G02*
X60730000Y24723000I0J225000D01*
G01*
G37*
G36*
G01*
X59180000Y24723000D02*
X59180000Y25223000D01*
G75*
G02*
X59405000Y25448000I225000J0D01*
G01*
X59855000Y25448000D01*
G75*
G02*
X60080000Y25223000I0J-225000D01*
G01*
X60080000Y24723000D01*
G75*
G02*
X59855000Y24498000I-225000J0D01*
G01*
X59405000Y24498000D01*
G75*
G02*
X59180000Y24723000I0J225000D01*
G01*
G37*
%TD*%
%TO.C,C3*%
G36*
G01*
X55050000Y30575000D02*
X55550000Y30575000D01*
G75*
G02*
X55775000Y30350000I0J-225000D01*
G01*
X55775000Y29900000D01*
G75*
G02*
X55550000Y29675000I-225000J0D01*
G01*
X55050000Y29675000D01*
G75*
G02*
X54825000Y29900000I0J225000D01*
G01*
X54825000Y30350000D01*
G75*
G02*
X55050000Y30575000I225000J0D01*
G01*
G37*
G36*
G01*
X55050000Y32125000D02*
X55550000Y32125000D01*
G75*
G02*
X55775000Y31900000I0J-225000D01*
G01*
X55775000Y31450000D01*
G75*
G02*
X55550000Y31225000I-225000J0D01*
G01*
X55050000Y31225000D01*
G75*
G02*
X54825000Y31450000I0J225000D01*
G01*
X54825000Y31900000D01*
G75*
G02*
X55050000Y32125000I225000J0D01*
G01*
G37*
%TD*%
%TO.C,U3*%
G36*
G01*
X24693000Y23698000D02*
X24493000Y23698000D01*
G75*
G02*
X24393000Y23798000I0J100000D01*
G01*
X24393000Y25073000D01*
G75*
G02*
X24493000Y25173000I100000J0D01*
G01*
X24693000Y25173000D01*
G75*
G02*
X24793000Y25073000I0J-100000D01*
G01*
X24793000Y23798000D01*
G75*
G02*
X24693000Y23698000I-100000J0D01*
G01*
G37*
G36*
G01*
X25343000Y23698000D02*
X25143000Y23698000D01*
G75*
G02*
X25043000Y23798000I0J100000D01*
G01*
X25043000Y25073000D01*
G75*
G02*
X25143000Y25173000I100000J0D01*
G01*
X25343000Y25173000D01*
G75*
G02*
X25443000Y25073000I0J-100000D01*
G01*
X25443000Y23798000D01*
G75*
G02*
X25343000Y23698000I-100000J0D01*
G01*
G37*
G36*
G01*
X25993000Y23698000D02*
X25793000Y23698000D01*
G75*
G02*
X25693000Y23798000I0J100000D01*
G01*
X25693000Y25073000D01*
G75*
G02*
X25793000Y25173000I100000J0D01*
G01*
X25993000Y25173000D01*
G75*
G02*
X26093000Y25073000I0J-100000D01*
G01*
X26093000Y23798000D01*
G75*
G02*
X25993000Y23698000I-100000J0D01*
G01*
G37*
G36*
G01*
X26643000Y23698000D02*
X26443000Y23698000D01*
G75*
G02*
X26343000Y23798000I0J100000D01*
G01*
X26343000Y25073000D01*
G75*
G02*
X26443000Y25173000I100000J0D01*
G01*
X26643000Y25173000D01*
G75*
G02*
X26743000Y25073000I0J-100000D01*
G01*
X26743000Y23798000D01*
G75*
G02*
X26643000Y23698000I-100000J0D01*
G01*
G37*
G36*
G01*
X27293000Y23698000D02*
X27093000Y23698000D01*
G75*
G02*
X26993000Y23798000I0J100000D01*
G01*
X26993000Y25073000D01*
G75*
G02*
X27093000Y25173000I100000J0D01*
G01*
X27293000Y25173000D01*
G75*
G02*
X27393000Y25073000I0J-100000D01*
G01*
X27393000Y23798000D01*
G75*
G02*
X27293000Y23698000I-100000J0D01*
G01*
G37*
G36*
G01*
X27943000Y23698000D02*
X27743000Y23698000D01*
G75*
G02*
X27643000Y23798000I0J100000D01*
G01*
X27643000Y25073000D01*
G75*
G02*
X27743000Y25173000I100000J0D01*
G01*
X27943000Y25173000D01*
G75*
G02*
X28043000Y25073000I0J-100000D01*
G01*
X28043000Y23798000D01*
G75*
G02*
X27943000Y23698000I-100000J0D01*
G01*
G37*
G36*
G01*
X28593000Y23698000D02*
X28393000Y23698000D01*
G75*
G02*
X28293000Y23798000I0J100000D01*
G01*
X28293000Y25073000D01*
G75*
G02*
X28393000Y25173000I100000J0D01*
G01*
X28593000Y25173000D01*
G75*
G02*
X28693000Y25073000I0J-100000D01*
G01*
X28693000Y23798000D01*
G75*
G02*
X28593000Y23698000I-100000J0D01*
G01*
G37*
G36*
G01*
X29243000Y23698000D02*
X29043000Y23698000D01*
G75*
G02*
X28943000Y23798000I0J100000D01*
G01*
X28943000Y25073000D01*
G75*
G02*
X29043000Y25173000I100000J0D01*
G01*
X29243000Y25173000D01*
G75*
G02*
X29343000Y25073000I0J-100000D01*
G01*
X29343000Y23798000D01*
G75*
G02*
X29243000Y23698000I-100000J0D01*
G01*
G37*
G36*
G01*
X29893000Y23698000D02*
X29693000Y23698000D01*
G75*
G02*
X29593000Y23798000I0J100000D01*
G01*
X29593000Y25073000D01*
G75*
G02*
X29693000Y25173000I100000J0D01*
G01*
X29893000Y25173000D01*
G75*
G02*
X29993000Y25073000I0J-100000D01*
G01*
X29993000Y23798000D01*
G75*
G02*
X29893000Y23698000I-100000J0D01*
G01*
G37*
G36*
G01*
X30543000Y23698000D02*
X30343000Y23698000D01*
G75*
G02*
X30243000Y23798000I0J100000D01*
G01*
X30243000Y25073000D01*
G75*
G02*
X30343000Y25173000I100000J0D01*
G01*
X30543000Y25173000D01*
G75*
G02*
X30643000Y25073000I0J-100000D01*
G01*
X30643000Y23798000D01*
G75*
G02*
X30543000Y23698000I-100000J0D01*
G01*
G37*
G36*
G01*
X30543000Y17973000D02*
X30343000Y17973000D01*
G75*
G02*
X30243000Y18073000I0J100000D01*
G01*
X30243000Y19348000D01*
G75*
G02*
X30343000Y19448000I100000J0D01*
G01*
X30543000Y19448000D01*
G75*
G02*
X30643000Y19348000I0J-100000D01*
G01*
X30643000Y18073000D01*
G75*
G02*
X30543000Y17973000I-100000J0D01*
G01*
G37*
G36*
G01*
X29893000Y17973000D02*
X29693000Y17973000D01*
G75*
G02*
X29593000Y18073000I0J100000D01*
G01*
X29593000Y19348000D01*
G75*
G02*
X29693000Y19448000I100000J0D01*
G01*
X29893000Y19448000D01*
G75*
G02*
X29993000Y19348000I0J-100000D01*
G01*
X29993000Y18073000D01*
G75*
G02*
X29893000Y17973000I-100000J0D01*
G01*
G37*
G36*
G01*
X29243000Y17973000D02*
X29043000Y17973000D01*
G75*
G02*
X28943000Y18073000I0J100000D01*
G01*
X28943000Y19348000D01*
G75*
G02*
X29043000Y19448000I100000J0D01*
G01*
X29243000Y19448000D01*
G75*
G02*
X29343000Y19348000I0J-100000D01*
G01*
X29343000Y18073000D01*
G75*
G02*
X29243000Y17973000I-100000J0D01*
G01*
G37*
G36*
G01*
X28593000Y17973000D02*
X28393000Y17973000D01*
G75*
G02*
X28293000Y18073000I0J100000D01*
G01*
X28293000Y19348000D01*
G75*
G02*
X28393000Y19448000I100000J0D01*
G01*
X28593000Y19448000D01*
G75*
G02*
X28693000Y19348000I0J-100000D01*
G01*
X28693000Y18073000D01*
G75*
G02*
X28593000Y17973000I-100000J0D01*
G01*
G37*
G36*
G01*
X27943000Y17973000D02*
X27743000Y17973000D01*
G75*
G02*
X27643000Y18073000I0J100000D01*
G01*
X27643000Y19348000D01*
G75*
G02*
X27743000Y19448000I100000J0D01*
G01*
X27943000Y19448000D01*
G75*
G02*
X28043000Y19348000I0J-100000D01*
G01*
X28043000Y18073000D01*
G75*
G02*
X27943000Y17973000I-100000J0D01*
G01*
G37*
G36*
G01*
X27293000Y17973000D02*
X27093000Y17973000D01*
G75*
G02*
X26993000Y18073000I0J100000D01*
G01*
X26993000Y19348000D01*
G75*
G02*
X27093000Y19448000I100000J0D01*
G01*
X27293000Y19448000D01*
G75*
G02*
X27393000Y19348000I0J-100000D01*
G01*
X27393000Y18073000D01*
G75*
G02*
X27293000Y17973000I-100000J0D01*
G01*
G37*
G36*
G01*
X26643000Y17973000D02*
X26443000Y17973000D01*
G75*
G02*
X26343000Y18073000I0J100000D01*
G01*
X26343000Y19348000D01*
G75*
G02*
X26443000Y19448000I100000J0D01*
G01*
X26643000Y19448000D01*
G75*
G02*
X26743000Y19348000I0J-100000D01*
G01*
X26743000Y18073000D01*
G75*
G02*
X26643000Y17973000I-100000J0D01*
G01*
G37*
G36*
G01*
X25993000Y17973000D02*
X25793000Y17973000D01*
G75*
G02*
X25693000Y18073000I0J100000D01*
G01*
X25693000Y19348000D01*
G75*
G02*
X25793000Y19448000I100000J0D01*
G01*
X25993000Y19448000D01*
G75*
G02*
X26093000Y19348000I0J-100000D01*
G01*
X26093000Y18073000D01*
G75*
G02*
X25993000Y17973000I-100000J0D01*
G01*
G37*
G36*
G01*
X25343000Y17973000D02*
X25143000Y17973000D01*
G75*
G02*
X25043000Y18073000I0J100000D01*
G01*
X25043000Y19348000D01*
G75*
G02*
X25143000Y19448000I100000J0D01*
G01*
X25343000Y19448000D01*
G75*
G02*
X25443000Y19348000I0J-100000D01*
G01*
X25443000Y18073000D01*
G75*
G02*
X25343000Y17973000I-100000J0D01*
G01*
G37*
G36*
G01*
X24693000Y17973000D02*
X24493000Y17973000D01*
G75*
G02*
X24393000Y18073000I0J100000D01*
G01*
X24393000Y19348000D01*
G75*
G02*
X24493000Y19448000I100000J0D01*
G01*
X24693000Y19448000D01*
G75*
G02*
X24793000Y19348000I0J-100000D01*
G01*
X24793000Y18073000D01*
G75*
G02*
X24693000Y17973000I-100000J0D01*
G01*
G37*
%TD*%
%TO.C,U2*%
G36*
G01*
X50864000Y23750000D02*
X50714000Y23750000D01*
G75*
G02*
X50639000Y23825000I0J75000D01*
G01*
X50639000Y25125000D01*
G75*
G02*
X50714000Y25200000I75000J0D01*
G01*
X50864000Y25200000D01*
G75*
G02*
X50939000Y25125000I0J-75000D01*
G01*
X50939000Y23825000D01*
G75*
G02*
X50864000Y23750000I-75000J0D01*
G01*
G37*
G36*
G01*
X51364000Y23750000D02*
X51214000Y23750000D01*
G75*
G02*
X51139000Y23825000I0J75000D01*
G01*
X51139000Y25125000D01*
G75*
G02*
X51214000Y25200000I75000J0D01*
G01*
X51364000Y25200000D01*
G75*
G02*
X51439000Y25125000I0J-75000D01*
G01*
X51439000Y23825000D01*
G75*
G02*
X51364000Y23750000I-75000J0D01*
G01*
G37*
G36*
G01*
X51864000Y23750000D02*
X51714000Y23750000D01*
G75*
G02*
X51639000Y23825000I0J75000D01*
G01*
X51639000Y25125000D01*
G75*
G02*
X51714000Y25200000I75000J0D01*
G01*
X51864000Y25200000D01*
G75*
G02*
X51939000Y25125000I0J-75000D01*
G01*
X51939000Y23825000D01*
G75*
G02*
X51864000Y23750000I-75000J0D01*
G01*
G37*
G36*
G01*
X52364000Y23750000D02*
X52214000Y23750000D01*
G75*
G02*
X52139000Y23825000I0J75000D01*
G01*
X52139000Y25125000D01*
G75*
G02*
X52214000Y25200000I75000J0D01*
G01*
X52364000Y25200000D01*
G75*
G02*
X52439000Y25125000I0J-75000D01*
G01*
X52439000Y23825000D01*
G75*
G02*
X52364000Y23750000I-75000J0D01*
G01*
G37*
G36*
G01*
X52864000Y23750000D02*
X52714000Y23750000D01*
G75*
G02*
X52639000Y23825000I0J75000D01*
G01*
X52639000Y25125000D01*
G75*
G02*
X52714000Y25200000I75000J0D01*
G01*
X52864000Y25200000D01*
G75*
G02*
X52939000Y25125000I0J-75000D01*
G01*
X52939000Y23825000D01*
G75*
G02*
X52864000Y23750000I-75000J0D01*
G01*
G37*
G36*
G01*
X52864000Y19350000D02*
X52714000Y19350000D01*
G75*
G02*
X52639000Y19425000I0J75000D01*
G01*
X52639000Y20725000D01*
G75*
G02*
X52714000Y20800000I75000J0D01*
G01*
X52864000Y20800000D01*
G75*
G02*
X52939000Y20725000I0J-75000D01*
G01*
X52939000Y19425000D01*
G75*
G02*
X52864000Y19350000I-75000J0D01*
G01*
G37*
G36*
G01*
X52364000Y19350000D02*
X52214000Y19350000D01*
G75*
G02*
X52139000Y19425000I0J75000D01*
G01*
X52139000Y20725000D01*
G75*
G02*
X52214000Y20800000I75000J0D01*
G01*
X52364000Y20800000D01*
G75*
G02*
X52439000Y20725000I0J-75000D01*
G01*
X52439000Y19425000D01*
G75*
G02*
X52364000Y19350000I-75000J0D01*
G01*
G37*
G36*
G01*
X51864000Y19350000D02*
X51714000Y19350000D01*
G75*
G02*
X51639000Y19425000I0J75000D01*
G01*
X51639000Y20725000D01*
G75*
G02*
X51714000Y20800000I75000J0D01*
G01*
X51864000Y20800000D01*
G75*
G02*
X51939000Y20725000I0J-75000D01*
G01*
X51939000Y19425000D01*
G75*
G02*
X51864000Y19350000I-75000J0D01*
G01*
G37*
G36*
G01*
X51364000Y19350000D02*
X51214000Y19350000D01*
G75*
G02*
X51139000Y19425000I0J75000D01*
G01*
X51139000Y20725000D01*
G75*
G02*
X51214000Y20800000I75000J0D01*
G01*
X51364000Y20800000D01*
G75*
G02*
X51439000Y20725000I0J-75000D01*
G01*
X51439000Y19425000D01*
G75*
G02*
X51364000Y19350000I-75000J0D01*
G01*
G37*
G36*
G01*
X50864000Y19350000D02*
X50714000Y19350000D01*
G75*
G02*
X50639000Y19425000I0J75000D01*
G01*
X50639000Y20725000D01*
G75*
G02*
X50714000Y20800000I75000J0D01*
G01*
X50864000Y20800000D01*
G75*
G02*
X50939000Y20725000I0J-75000D01*
G01*
X50939000Y19425000D01*
G75*
G02*
X50864000Y19350000I-75000J0D01*
G01*
G37*
%TD*%
%TO.C,R20*%
G36*
G01*
X37572000Y30015000D02*
X38122000Y30015000D01*
G75*
G02*
X38322000Y29815000I0J-200000D01*
G01*
X38322000Y29415000D01*
G75*
G02*
X38122000Y29215000I-200000J0D01*
G01*
X37572000Y29215000D01*
G75*
G02*
X37372000Y29415000I0J200000D01*
G01*
X37372000Y29815000D01*
G75*
G02*
X37572000Y30015000I200000J0D01*
G01*
G37*
G36*
G01*
X37572000Y31665000D02*
X38122000Y31665000D01*
G75*
G02*
X38322000Y31465000I0J-200000D01*
G01*
X38322000Y31065000D01*
G75*
G02*
X38122000Y30865000I-200000J0D01*
G01*
X37572000Y30865000D01*
G75*
G02*
X37372000Y31065000I0J200000D01*
G01*
X37372000Y31465000D01*
G75*
G02*
X37572000Y31665000I200000J0D01*
G01*
G37*
%TD*%
%TO.C,R18*%
G36*
G01*
X40874000Y30015000D02*
X41424000Y30015000D01*
G75*
G02*
X41624000Y29815000I0J-200000D01*
G01*
X41624000Y29415000D01*
G75*
G02*
X41424000Y29215000I-200000J0D01*
G01*
X40874000Y29215000D01*
G75*
G02*
X40674000Y29415000I0J200000D01*
G01*
X40674000Y29815000D01*
G75*
G02*
X40874000Y30015000I200000J0D01*
G01*
G37*
G36*
G01*
X40874000Y31665000D02*
X41424000Y31665000D01*
G75*
G02*
X41624000Y31465000I0J-200000D01*
G01*
X41624000Y31065000D01*
G75*
G02*
X41424000Y30865000I-200000J0D01*
G01*
X40874000Y30865000D01*
G75*
G02*
X40674000Y31065000I0J200000D01*
G01*
X40674000Y31465000D01*
G75*
G02*
X40874000Y31665000I200000J0D01*
G01*
G37*
%TD*%
%TO.C,R17*%
G36*
G01*
X25747000Y30007000D02*
X26297000Y30007000D01*
G75*
G02*
X26497000Y29807000I0J-200000D01*
G01*
X26497000Y29407000D01*
G75*
G02*
X26297000Y29207000I-200000J0D01*
G01*
X25747000Y29207000D01*
G75*
G02*
X25547000Y29407000I0J200000D01*
G01*
X25547000Y29807000D01*
G75*
G02*
X25747000Y30007000I200000J0D01*
G01*
G37*
G36*
G01*
X25747000Y31657000D02*
X26297000Y31657000D01*
G75*
G02*
X26497000Y31457000I0J-200000D01*
G01*
X26497000Y31057000D01*
G75*
G02*
X26297000Y30857000I-200000J0D01*
G01*
X25747000Y30857000D01*
G75*
G02*
X25547000Y31057000I0J200000D01*
G01*
X25547000Y31457000D01*
G75*
G02*
X25747000Y31657000I200000J0D01*
G01*
G37*
%TD*%
%TO.C,R16*%
G36*
G01*
X20625000Y13675000D02*
X21175000Y13675000D01*
G75*
G02*
X21375000Y13475000I0J-200000D01*
G01*
X21375000Y13075000D01*
G75*
G02*
X21175000Y12875000I-200000J0D01*
G01*
X20625000Y12875000D01*
G75*
G02*
X20425000Y13075000I0J200000D01*
G01*
X20425000Y13475000D01*
G75*
G02*
X20625000Y13675000I200000J0D01*
G01*
G37*
G36*
G01*
X20625000Y15325000D02*
X21175000Y15325000D01*
G75*
G02*
X21375000Y15125000I0J-200000D01*
G01*
X21375000Y14725000D01*
G75*
G02*
X21175000Y14525000I-200000J0D01*
G01*
X20625000Y14525000D01*
G75*
G02*
X20425000Y14725000I0J200000D01*
G01*
X20425000Y15125000D01*
G75*
G02*
X20625000Y15325000I200000J0D01*
G01*
G37*
%TD*%
%TO.C,R15*%
G36*
G01*
X26079284Y13675000D02*
X26629284Y13675000D01*
G75*
G02*
X26829284Y13475000I0J-200000D01*
G01*
X26829284Y13075000D01*
G75*
G02*
X26629284Y12875000I-200000J0D01*
G01*
X26079284Y12875000D01*
G75*
G02*
X25879284Y13075000I0J200000D01*
G01*
X25879284Y13475000D01*
G75*
G02*
X26079284Y13675000I200000J0D01*
G01*
G37*
G36*
G01*
X26079284Y15325000D02*
X26629284Y15325000D01*
G75*
G02*
X26829284Y15125000I0J-200000D01*
G01*
X26829284Y14725000D01*
G75*
G02*
X26629284Y14525000I-200000J0D01*
G01*
X26079284Y14525000D01*
G75*
G02*
X25879284Y14725000I0J200000D01*
G01*
X25879284Y15125000D01*
G75*
G02*
X26079284Y15325000I200000J0D01*
G01*
G37*
%TD*%
%TO.C,R14*%
G36*
G01*
X31533568Y13675000D02*
X32083568Y13675000D01*
G75*
G02*
X32283568Y13475000I0J-200000D01*
G01*
X32283568Y13075000D01*
G75*
G02*
X32083568Y12875000I-200000J0D01*
G01*
X31533568Y12875000D01*
G75*
G02*
X31333568Y13075000I0J200000D01*
G01*
X31333568Y13475000D01*
G75*
G02*
X31533568Y13675000I200000J0D01*
G01*
G37*
G36*
G01*
X31533568Y15325000D02*
X32083568Y15325000D01*
G75*
G02*
X32283568Y15125000I0J-200000D01*
G01*
X32283568Y14725000D01*
G75*
G02*
X32083568Y14525000I-200000J0D01*
G01*
X31533568Y14525000D01*
G75*
G02*
X31333568Y14725000I0J200000D01*
G01*
X31333568Y15125000D01*
G75*
G02*
X31533568Y15325000I200000J0D01*
G01*
G37*
%TD*%
%TO.C,R13*%
G36*
G01*
X33325000Y13675000D02*
X33875000Y13675000D01*
G75*
G02*
X34075000Y13475000I0J-200000D01*
G01*
X34075000Y13075000D01*
G75*
G02*
X33875000Y12875000I-200000J0D01*
G01*
X33325000Y12875000D01*
G75*
G02*
X33125000Y13075000I0J200000D01*
G01*
X33125000Y13475000D01*
G75*
G02*
X33325000Y13675000I200000J0D01*
G01*
G37*
G36*
G01*
X33325000Y15325000D02*
X33875000Y15325000D01*
G75*
G02*
X34075000Y15125000I0J-200000D01*
G01*
X34075000Y14725000D01*
G75*
G02*
X33875000Y14525000I-200000J0D01*
G01*
X33325000Y14525000D01*
G75*
G02*
X33125000Y14725000I0J200000D01*
G01*
X33125000Y15125000D01*
G75*
G02*
X33325000Y15325000I200000J0D01*
G01*
G37*
%TD*%
%TO.C,R12*%
G36*
G01*
X22966428Y14525000D02*
X22416428Y14525000D01*
G75*
G02*
X22216428Y14725000I0J200000D01*
G01*
X22216428Y15125000D01*
G75*
G02*
X22416428Y15325000I200000J0D01*
G01*
X22966428Y15325000D01*
G75*
G02*
X23166428Y15125000I0J-200000D01*
G01*
X23166428Y14725000D01*
G75*
G02*
X22966428Y14525000I-200000J0D01*
G01*
G37*
G36*
G01*
X22966428Y12875000D02*
X22416428Y12875000D01*
G75*
G02*
X22216428Y13075000I0J200000D01*
G01*
X22216428Y13475000D01*
G75*
G02*
X22416428Y13675000I200000J0D01*
G01*
X22966428Y13675000D01*
G75*
G02*
X23166428Y13475000I0J-200000D01*
G01*
X23166428Y13075000D01*
G75*
G02*
X22966428Y12875000I-200000J0D01*
G01*
G37*
%TD*%
%TO.C,R10*%
G36*
G01*
X46325000Y14175000D02*
X46875000Y14175000D01*
G75*
G02*
X47075000Y13975000I0J-200000D01*
G01*
X47075000Y13575000D01*
G75*
G02*
X46875000Y13375000I-200000J0D01*
G01*
X46325000Y13375000D01*
G75*
G02*
X46125000Y13575000I0J200000D01*
G01*
X46125000Y13975000D01*
G75*
G02*
X46325000Y14175000I200000J0D01*
G01*
G37*
G36*
G01*
X46325000Y15825000D02*
X46875000Y15825000D01*
G75*
G02*
X47075000Y15625000I0J-200000D01*
G01*
X47075000Y15225000D01*
G75*
G02*
X46875000Y15025000I-200000J0D01*
G01*
X46325000Y15025000D01*
G75*
G02*
X46125000Y15225000I0J200000D01*
G01*
X46125000Y15625000D01*
G75*
G02*
X46325000Y15825000I200000J0D01*
G01*
G37*
%TD*%
%TO.C,R9*%
G36*
G01*
X48575000Y14175000D02*
X49125000Y14175000D01*
G75*
G02*
X49325000Y13975000I0J-200000D01*
G01*
X49325000Y13575000D01*
G75*
G02*
X49125000Y13375000I-200000J0D01*
G01*
X48575000Y13375000D01*
G75*
G02*
X48375000Y13575000I0J200000D01*
G01*
X48375000Y13975000D01*
G75*
G02*
X48575000Y14175000I200000J0D01*
G01*
G37*
G36*
G01*
X48575000Y15825000D02*
X49125000Y15825000D01*
G75*
G02*
X49325000Y15625000I0J-200000D01*
G01*
X49325000Y15225000D01*
G75*
G02*
X49125000Y15025000I-200000J0D01*
G01*
X48575000Y15025000D01*
G75*
G02*
X48375000Y15225000I0J200000D01*
G01*
X48375000Y15625000D01*
G75*
G02*
X48575000Y15825000I200000J0D01*
G01*
G37*
%TD*%
%TO.C,R8*%
G36*
G01*
X52075000Y29725000D02*
X51525000Y29725000D01*
G75*
G02*
X51325000Y29925000I0J200000D01*
G01*
X51325000Y30325000D01*
G75*
G02*
X51525000Y30525000I200000J0D01*
G01*
X52075000Y30525000D01*
G75*
G02*
X52275000Y30325000I0J-200000D01*
G01*
X52275000Y29925000D01*
G75*
G02*
X52075000Y29725000I-200000J0D01*
G01*
G37*
G36*
G01*
X52075000Y28075000D02*
X51525000Y28075000D01*
G75*
G02*
X51325000Y28275000I0J200000D01*
G01*
X51325000Y28675000D01*
G75*
G02*
X51525000Y28875000I200000J0D01*
G01*
X52075000Y28875000D01*
G75*
G02*
X52275000Y28675000I0J-200000D01*
G01*
X52275000Y28275000D01*
G75*
G02*
X52075000Y28075000I-200000J0D01*
G01*
G37*
%TD*%
%TO.C,R7*%
G36*
G01*
X47575000Y44025000D02*
X47025000Y44025000D01*
G75*
G02*
X46825000Y44225000I0J200000D01*
G01*
X46825000Y44625000D01*
G75*
G02*
X47025000Y44825000I200000J0D01*
G01*
X47575000Y44825000D01*
G75*
G02*
X47775000Y44625000I0J-200000D01*
G01*
X47775000Y44225000D01*
G75*
G02*
X47575000Y44025000I-200000J0D01*
G01*
G37*
G36*
G01*
X47575000Y42375000D02*
X47025000Y42375000D01*
G75*
G02*
X46825000Y42575000I0J200000D01*
G01*
X46825000Y42975000D01*
G75*
G02*
X47025000Y43175000I200000J0D01*
G01*
X47575000Y43175000D01*
G75*
G02*
X47775000Y42975000I0J-200000D01*
G01*
X47775000Y42575000D01*
G75*
G02*
X47575000Y42375000I-200000J0D01*
G01*
G37*
%TD*%
%TO.C,R6*%
G36*
G01*
X53450000Y33574999D02*
X53450000Y36425001D01*
G75*
G02*
X53699999Y36675000I249999J0D01*
G01*
X54425001Y36675000D01*
G75*
G02*
X54675000Y36425001I0J-249999D01*
G01*
X54675000Y33574999D01*
G75*
G02*
X54425001Y33325000I-249999J0D01*
G01*
X53699999Y33325000D01*
G75*
G02*
X53450000Y33574999I0J249999D01*
G01*
G37*
G36*
G01*
X47525000Y33574999D02*
X47525000Y36425001D01*
G75*
G02*
X47774999Y36675000I249999J0D01*
G01*
X48500001Y36675000D01*
G75*
G02*
X48750000Y36425001I0J-249999D01*
G01*
X48750000Y33574999D01*
G75*
G02*
X48500001Y33325000I-249999J0D01*
G01*
X47774999Y33325000D01*
G75*
G02*
X47525000Y33574999I0J249999D01*
G01*
G37*
%TD*%
%TO.C,R5*%
G36*
G01*
X50475000Y29725000D02*
X49925000Y29725000D01*
G75*
G02*
X49725000Y29925000I0J200000D01*
G01*
X49725000Y30325000D01*
G75*
G02*
X49925000Y30525000I200000J0D01*
G01*
X50475000Y30525000D01*
G75*
G02*
X50675000Y30325000I0J-200000D01*
G01*
X50675000Y29925000D01*
G75*
G02*
X50475000Y29725000I-200000J0D01*
G01*
G37*
G36*
G01*
X50475000Y28075000D02*
X49925000Y28075000D01*
G75*
G02*
X49725000Y28275000I0J200000D01*
G01*
X49725000Y28675000D01*
G75*
G02*
X49925000Y28875000I200000J0D01*
G01*
X50475000Y28875000D01*
G75*
G02*
X50675000Y28675000I0J-200000D01*
G01*
X50675000Y28275000D01*
G75*
G02*
X50475000Y28075000I-200000J0D01*
G01*
G37*
%TD*%
%TO.C,R3*%
G36*
G01*
X51375000Y15025000D02*
X50825000Y15025000D01*
G75*
G02*
X50625000Y15225000I0J200000D01*
G01*
X50625000Y15625000D01*
G75*
G02*
X50825000Y15825000I200000J0D01*
G01*
X51375000Y15825000D01*
G75*
G02*
X51575000Y15625000I0J-200000D01*
G01*
X51575000Y15225000D01*
G75*
G02*
X51375000Y15025000I-200000J0D01*
G01*
G37*
G36*
G01*
X51375000Y13375000D02*
X50825000Y13375000D01*
G75*
G02*
X50625000Y13575000I0J200000D01*
G01*
X50625000Y13975000D01*
G75*
G02*
X50825000Y14175000I200000J0D01*
G01*
X51375000Y14175000D01*
G75*
G02*
X51575000Y13975000I0J-200000D01*
G01*
X51575000Y13575000D01*
G75*
G02*
X51375000Y13375000I-200000J0D01*
G01*
G37*
%TD*%
%TO.C,R2*%
G36*
G01*
X55875000Y15025000D02*
X55325000Y15025000D01*
G75*
G02*
X55125000Y15225000I0J200000D01*
G01*
X55125000Y15625000D01*
G75*
G02*
X55325000Y15825000I200000J0D01*
G01*
X55875000Y15825000D01*
G75*
G02*
X56075000Y15625000I0J-200000D01*
G01*
X56075000Y15225000D01*
G75*
G02*
X55875000Y15025000I-200000J0D01*
G01*
G37*
G36*
G01*
X55875000Y13375000D02*
X55325000Y13375000D01*
G75*
G02*
X55125000Y13575000I0J200000D01*
G01*
X55125000Y13975000D01*
G75*
G02*
X55325000Y14175000I200000J0D01*
G01*
X55875000Y14175000D01*
G75*
G02*
X56075000Y13975000I0J-200000D01*
G01*
X56075000Y13575000D01*
G75*
G02*
X55875000Y13375000I-200000J0D01*
G01*
G37*
%TD*%
%TO.C,R1*%
G36*
G01*
X53625000Y15025000D02*
X53075000Y15025000D01*
G75*
G02*
X52875000Y15225000I0J200000D01*
G01*
X52875000Y15625000D01*
G75*
G02*
X53075000Y15825000I200000J0D01*
G01*
X53625000Y15825000D01*
G75*
G02*
X53825000Y15625000I0J-200000D01*
G01*
X53825000Y15225000D01*
G75*
G02*
X53625000Y15025000I-200000J0D01*
G01*
G37*
G36*
G01*
X53625000Y13375000D02*
X53075000Y13375000D01*
G75*
G02*
X52875000Y13575000I0J200000D01*
G01*
X52875000Y13975000D01*
G75*
G02*
X53075000Y14175000I200000J0D01*
G01*
X53625000Y14175000D01*
G75*
G02*
X53825000Y13975000I0J-200000D01*
G01*
X53825000Y13575000D01*
G75*
G02*
X53625000Y13375000I-200000J0D01*
G01*
G37*
%TD*%
D10*
%TO.C,Q3*%
X34790000Y35925000D03*
X36060000Y35925000D03*
X37330000Y35925000D03*
X38600000Y35925000D03*
X39870000Y35925000D03*
X41140000Y35925000D03*
X42410000Y35925000D03*
D11*
X41375000Y47500000D03*
X35825000Y42650000D03*
X35825000Y47500000D03*
X41375000Y42650000D03*
%TD*%
D14*
%TO.C,Q1*%
X49680000Y41042000D03*
X54240000Y41042000D03*
D15*
X53485000Y49017000D03*
X50435000Y45667000D03*
X50435000Y49017000D03*
X53485000Y45667000D03*
%TD*%
%TO.C,D4*%
G36*
G01*
X24779106Y14470000D02*
X24266606Y14470000D01*
G75*
G02*
X24047856Y14688750I0J218750D01*
G01*
X24047856Y15126250D01*
G75*
G02*
X24266606Y15345000I218750J0D01*
G01*
X24779106Y15345000D01*
G75*
G02*
X24997856Y15126250I0J-218750D01*
G01*
X24997856Y14688750D01*
G75*
G02*
X24779106Y14470000I-218750J0D01*
G01*
G37*
G36*
G01*
X24779106Y12895000D02*
X24266606Y12895000D01*
G75*
G02*
X24047856Y13113750I0J218750D01*
G01*
X24047856Y13551250D01*
G75*
G02*
X24266606Y13770000I218750J0D01*
G01*
X24779106Y13770000D01*
G75*
G02*
X24997856Y13551250I0J-218750D01*
G01*
X24997856Y13113750D01*
G75*
G02*
X24779106Y12895000I-218750J0D01*
G01*
G37*
%TD*%
%TO.C,D3*%
G36*
G01*
X30233390Y14470000D02*
X29720890Y14470000D01*
G75*
G02*
X29502140Y14688750I0J218750D01*
G01*
X29502140Y15126250D01*
G75*
G02*
X29720890Y15345000I218750J0D01*
G01*
X30233390Y15345000D01*
G75*
G02*
X30452140Y15126250I0J-218750D01*
G01*
X30452140Y14688750D01*
G75*
G02*
X30233390Y14470000I-218750J0D01*
G01*
G37*
G36*
G01*
X30233390Y12895000D02*
X29720890Y12895000D01*
G75*
G02*
X29502140Y13113750I0J218750D01*
G01*
X29502140Y13551250D01*
G75*
G02*
X29720890Y13770000I218750J0D01*
G01*
X30233390Y13770000D01*
G75*
G02*
X30452140Y13551250I0J-218750D01*
G01*
X30452140Y13113750D01*
G75*
G02*
X30233390Y12895000I-218750J0D01*
G01*
G37*
%TD*%
D16*
%TO.C,D1*%
X49675000Y38257000D03*
X52975000Y38257000D03*
%TD*%
%TO.C,C20*%
G36*
G01*
X39248000Y30115000D02*
X39748000Y30115000D01*
G75*
G02*
X39973000Y29890000I0J-225000D01*
G01*
X39973000Y29440000D01*
G75*
G02*
X39748000Y29215000I-225000J0D01*
G01*
X39248000Y29215000D01*
G75*
G02*
X39023000Y29440000I0J225000D01*
G01*
X39023000Y29890000D01*
G75*
G02*
X39248000Y30115000I225000J0D01*
G01*
G37*
G36*
G01*
X39248000Y31665000D02*
X39748000Y31665000D01*
G75*
G02*
X39973000Y31440000I0J-225000D01*
G01*
X39973000Y30990000D01*
G75*
G02*
X39748000Y30765000I-225000J0D01*
G01*
X39248000Y30765000D01*
G75*
G02*
X39023000Y30990000I0J225000D01*
G01*
X39023000Y31440000D01*
G75*
G02*
X39248000Y31665000I225000J0D01*
G01*
G37*
%TD*%
%TO.C,C19*%
G36*
G01*
X24121000Y30107000D02*
X24621000Y30107000D01*
G75*
G02*
X24846000Y29882000I0J-225000D01*
G01*
X24846000Y29432000D01*
G75*
G02*
X24621000Y29207000I-225000J0D01*
G01*
X24121000Y29207000D01*
G75*
G02*
X23896000Y29432000I0J225000D01*
G01*
X23896000Y29882000D01*
G75*
G02*
X24121000Y30107000I225000J0D01*
G01*
G37*
G36*
G01*
X24121000Y31657000D02*
X24621000Y31657000D01*
G75*
G02*
X24846000Y31432000I0J-225000D01*
G01*
X24846000Y30982000D01*
G75*
G02*
X24621000Y30757000I-225000J0D01*
G01*
X24121000Y30757000D01*
G75*
G02*
X23896000Y30982000I0J225000D01*
G01*
X23896000Y31432000D01*
G75*
G02*
X24121000Y31657000I225000J0D01*
G01*
G37*
%TD*%
%TO.C,C18*%
G36*
G01*
X42550000Y31665000D02*
X43050000Y31665000D01*
G75*
G02*
X43275000Y31440000I0J-225000D01*
G01*
X43275000Y30990000D01*
G75*
G02*
X43050000Y30765000I-225000J0D01*
G01*
X42550000Y30765000D01*
G75*
G02*
X42325000Y30990000I0J225000D01*
G01*
X42325000Y31440000D01*
G75*
G02*
X42550000Y31665000I225000J0D01*
G01*
G37*
G36*
G01*
X42550000Y30115000D02*
X43050000Y30115000D01*
G75*
G02*
X43275000Y29890000I0J-225000D01*
G01*
X43275000Y29440000D01*
G75*
G02*
X43050000Y29215000I-225000J0D01*
G01*
X42550000Y29215000D01*
G75*
G02*
X42325000Y29440000I0J225000D01*
G01*
X42325000Y29890000D01*
G75*
G02*
X42550000Y30115000I225000J0D01*
G01*
G37*
%TD*%
%TO.C,C17*%
G36*
G01*
X45852000Y30115000D02*
X46352000Y30115000D01*
G75*
G02*
X46577000Y29890000I0J-225000D01*
G01*
X46577000Y29440000D01*
G75*
G02*
X46352000Y29215000I-225000J0D01*
G01*
X45852000Y29215000D01*
G75*
G02*
X45627000Y29440000I0J225000D01*
G01*
X45627000Y29890000D01*
G75*
G02*
X45852000Y30115000I225000J0D01*
G01*
G37*
G36*
G01*
X45852000Y31665000D02*
X46352000Y31665000D01*
G75*
G02*
X46577000Y31440000I0J-225000D01*
G01*
X46577000Y30990000D01*
G75*
G02*
X46352000Y30765000I-225000J0D01*
G01*
X45852000Y30765000D01*
G75*
G02*
X45627000Y30990000I0J225000D01*
G01*
X45627000Y31440000D01*
G75*
G02*
X45852000Y31665000I225000J0D01*
G01*
G37*
%TD*%
%TO.C,C16*%
G36*
G01*
X43375000Y28350000D02*
X43375000Y27850000D01*
G75*
G02*
X43150000Y27625000I-225000J0D01*
G01*
X42700000Y27625000D01*
G75*
G02*
X42475000Y27850000I0J225000D01*
G01*
X42475000Y28350000D01*
G75*
G02*
X42700000Y28575000I225000J0D01*
G01*
X43150000Y28575000D01*
G75*
G02*
X43375000Y28350000I0J-225000D01*
G01*
G37*
G36*
G01*
X44925000Y28350000D02*
X44925000Y27850000D01*
G75*
G02*
X44700000Y27625000I-225000J0D01*
G01*
X44250000Y27625000D01*
G75*
G02*
X44025000Y27850000I0J225000D01*
G01*
X44025000Y28350000D01*
G75*
G02*
X44250000Y28575000I225000J0D01*
G01*
X44700000Y28575000D01*
G75*
G02*
X44925000Y28350000I0J-225000D01*
G01*
G37*
%TD*%
%TO.C,C15*%
G36*
G01*
X28175000Y28250000D02*
X28175000Y27750000D01*
G75*
G02*
X27950000Y27525000I-225000J0D01*
G01*
X27500000Y27525000D01*
G75*
G02*
X27275000Y27750000I0J225000D01*
G01*
X27275000Y28250000D01*
G75*
G02*
X27500000Y28475000I225000J0D01*
G01*
X27950000Y28475000D01*
G75*
G02*
X28175000Y28250000I0J-225000D01*
G01*
G37*
G36*
G01*
X29725000Y28250000D02*
X29725000Y27750000D01*
G75*
G02*
X29500000Y27525000I-225000J0D01*
G01*
X29050000Y27525000D01*
G75*
G02*
X28825000Y27750000I0J225000D01*
G01*
X28825000Y28250000D01*
G75*
G02*
X29050000Y28475000I225000J0D01*
G01*
X29500000Y28475000D01*
G75*
G02*
X29725000Y28250000I0J-225000D01*
G01*
G37*
%TD*%
%TO.C,C14*%
G36*
G01*
X30725000Y30107000D02*
X31225000Y30107000D01*
G75*
G02*
X31450000Y29882000I0J-225000D01*
G01*
X31450000Y29432000D01*
G75*
G02*
X31225000Y29207000I-225000J0D01*
G01*
X30725000Y29207000D01*
G75*
G02*
X30500000Y29432000I0J225000D01*
G01*
X30500000Y29882000D01*
G75*
G02*
X30725000Y30107000I225000J0D01*
G01*
G37*
G36*
G01*
X30725000Y31657000D02*
X31225000Y31657000D01*
G75*
G02*
X31450000Y31432000I0J-225000D01*
G01*
X31450000Y30982000D01*
G75*
G02*
X31225000Y30757000I-225000J0D01*
G01*
X30725000Y30757000D01*
G75*
G02*
X30500000Y30982000I0J225000D01*
G01*
X30500000Y31432000D01*
G75*
G02*
X30725000Y31657000I225000J0D01*
G01*
G37*
%TD*%
%TO.C,C13*%
G36*
G01*
X27423000Y31657000D02*
X27923000Y31657000D01*
G75*
G02*
X28148000Y31432000I0J-225000D01*
G01*
X28148000Y30982000D01*
G75*
G02*
X27923000Y30757000I-225000J0D01*
G01*
X27423000Y30757000D01*
G75*
G02*
X27198000Y30982000I0J225000D01*
G01*
X27198000Y31432000D01*
G75*
G02*
X27423000Y31657000I225000J0D01*
G01*
G37*
G36*
G01*
X27423000Y30107000D02*
X27923000Y30107000D01*
G75*
G02*
X28148000Y29882000I0J-225000D01*
G01*
X28148000Y29432000D01*
G75*
G02*
X27923000Y29207000I-225000J0D01*
G01*
X27423000Y29207000D01*
G75*
G02*
X27198000Y29432000I0J225000D01*
G01*
X27198000Y29882000D01*
G75*
G02*
X27423000Y30107000I225000J0D01*
G01*
G37*
%TD*%
%TO.C,C12*%
G36*
G01*
X21675000Y24650000D02*
X21675000Y24150000D01*
G75*
G02*
X21450000Y23925000I-225000J0D01*
G01*
X21000000Y23925000D01*
G75*
G02*
X20775000Y24150000I0J225000D01*
G01*
X20775000Y24650000D01*
G75*
G02*
X21000000Y24875000I225000J0D01*
G01*
X21450000Y24875000D01*
G75*
G02*
X21675000Y24650000I0J-225000D01*
G01*
G37*
G36*
G01*
X23225000Y24650000D02*
X23225000Y24150000D01*
G75*
G02*
X23000000Y23925000I-225000J0D01*
G01*
X22550000Y23925000D01*
G75*
G02*
X22325000Y24150000I0J225000D01*
G01*
X22325000Y24650000D01*
G75*
G02*
X22550000Y24875000I225000J0D01*
G01*
X23000000Y24875000D01*
G75*
G02*
X23225000Y24650000I0J-225000D01*
G01*
G37*
%TD*%
%TO.C,C11*%
G36*
G01*
X44201000Y30115000D02*
X44701000Y30115000D01*
G75*
G02*
X44926000Y29890000I0J-225000D01*
G01*
X44926000Y29440000D01*
G75*
G02*
X44701000Y29215000I-225000J0D01*
G01*
X44201000Y29215000D01*
G75*
G02*
X43976000Y29440000I0J225000D01*
G01*
X43976000Y29890000D01*
G75*
G02*
X44201000Y30115000I225000J0D01*
G01*
G37*
G36*
G01*
X44201000Y31665000D02*
X44701000Y31665000D01*
G75*
G02*
X44926000Y31440000I0J-225000D01*
G01*
X44926000Y30990000D01*
G75*
G02*
X44701000Y30765000I-225000J0D01*
G01*
X44201000Y30765000D01*
G75*
G02*
X43976000Y30990000I0J225000D01*
G01*
X43976000Y31440000D01*
G75*
G02*
X44201000Y31665000I225000J0D01*
G01*
G37*
%TD*%
%TO.C,C10*%
G36*
G01*
X29074000Y30107000D02*
X29574000Y30107000D01*
G75*
G02*
X29799000Y29882000I0J-225000D01*
G01*
X29799000Y29432000D01*
G75*
G02*
X29574000Y29207000I-225000J0D01*
G01*
X29074000Y29207000D01*
G75*
G02*
X28849000Y29432000I0J225000D01*
G01*
X28849000Y29882000D01*
G75*
G02*
X29074000Y30107000I225000J0D01*
G01*
G37*
G36*
G01*
X29074000Y31657000D02*
X29574000Y31657000D01*
G75*
G02*
X29799000Y31432000I0J-225000D01*
G01*
X29799000Y30982000D01*
G75*
G02*
X29574000Y30757000I-225000J0D01*
G01*
X29074000Y30757000D01*
G75*
G02*
X28849000Y30982000I0J225000D01*
G01*
X28849000Y31432000D01*
G75*
G02*
X29074000Y31657000I225000J0D01*
G01*
G37*
%TD*%
%TO.C,C8*%
G36*
G01*
X57871000Y49212000D02*
X57871000Y50162000D01*
G75*
G02*
X58121000Y50412000I250000J0D01*
G01*
X58621000Y50412000D01*
G75*
G02*
X58871000Y50162000I0J-250000D01*
G01*
X58871000Y49212000D01*
G75*
G02*
X58621000Y48962000I-250000J0D01*
G01*
X58121000Y48962000D01*
G75*
G02*
X57871000Y49212000I0J250000D01*
G01*
G37*
G36*
G01*
X55971000Y49212000D02*
X55971000Y50162000D01*
G75*
G02*
X56221000Y50412000I250000J0D01*
G01*
X56721000Y50412000D01*
G75*
G02*
X56971000Y50162000I0J-250000D01*
G01*
X56971000Y49212000D01*
G75*
G02*
X56721000Y48962000I-250000J0D01*
G01*
X56221000Y48962000D01*
G75*
G02*
X55971000Y49212000I0J250000D01*
G01*
G37*
%TD*%
%TO.C,C7*%
G36*
G01*
X57871000Y47180000D02*
X57871000Y48130000D01*
G75*
G02*
X58121000Y48380000I250000J0D01*
G01*
X58621000Y48380000D01*
G75*
G02*
X58871000Y48130000I0J-250000D01*
G01*
X58871000Y47180000D01*
G75*
G02*
X58621000Y46930000I-250000J0D01*
G01*
X58121000Y46930000D01*
G75*
G02*
X57871000Y47180000I0J250000D01*
G01*
G37*
G36*
G01*
X55971000Y47180000D02*
X55971000Y48130000D01*
G75*
G02*
X56221000Y48380000I250000J0D01*
G01*
X56721000Y48380000D01*
G75*
G02*
X56971000Y48130000I0J-250000D01*
G01*
X56971000Y47180000D01*
G75*
G02*
X56721000Y46930000I-250000J0D01*
G01*
X56221000Y46930000D01*
G75*
G02*
X55971000Y47180000I0J250000D01*
G01*
G37*
%TD*%
%TO.C,C2*%
G36*
G01*
X51325000Y26750000D02*
X51325000Y27250000D01*
G75*
G02*
X51550000Y27475000I225000J0D01*
G01*
X52000000Y27475000D01*
G75*
G02*
X52225000Y27250000I0J-225000D01*
G01*
X52225000Y26750000D01*
G75*
G02*
X52000000Y26525000I-225000J0D01*
G01*
X51550000Y26525000D01*
G75*
G02*
X51325000Y26750000I0J225000D01*
G01*
G37*
G36*
G01*
X49775000Y26750000D02*
X49775000Y27250000D01*
G75*
G02*
X50000000Y27475000I225000J0D01*
G01*
X50450000Y27475000D01*
G75*
G02*
X50675000Y27250000I0J-225000D01*
G01*
X50675000Y26750000D01*
G75*
G02*
X50450000Y26525000I-225000J0D01*
G01*
X50000000Y26525000D01*
G75*
G02*
X49775000Y26750000I0J225000D01*
G01*
G37*
%TD*%
%TO.C,C1*%
G36*
G01*
X60725000Y21550000D02*
X60725000Y22050000D01*
G75*
G02*
X60950000Y22275000I225000J0D01*
G01*
X61400000Y22275000D01*
G75*
G02*
X61625000Y22050000I0J-225000D01*
G01*
X61625000Y21550000D01*
G75*
G02*
X61400000Y21325000I-225000J0D01*
G01*
X60950000Y21325000D01*
G75*
G02*
X60725000Y21550000I0J225000D01*
G01*
G37*
G36*
G01*
X59175000Y21550000D02*
X59175000Y22050000D01*
G75*
G02*
X59400000Y22275000I225000J0D01*
G01*
X59850000Y22275000D01*
G75*
G02*
X60075000Y22050000I0J-225000D01*
G01*
X60075000Y21550000D01*
G75*
G02*
X59850000Y21325000I-225000J0D01*
G01*
X59400000Y21325000D01*
G75*
G02*
X59175000Y21550000I0J225000D01*
G01*
G37*
%TD*%
M02*
