%TF.GenerationSoftware,KiCad,Pcbnew,5.1.8-db9833491~87~ubuntu20.04.1*%
%TF.CreationDate,2020-11-15T12:16:06-03:00*%
%TF.ProjectId,dc_motor,64635f6d-6f74-46f7-922e-6b696361645f,Rev: 1.1*%
%TF.SameCoordinates,PX2dc6c00PY6cb8080*%
%TF.FileFunction,Soldermask,Bot*%
%TF.FilePolarity,Negative*%
%FSLAX46Y46*%
G04 Gerber Fmt 4.6, Leading zero omitted, Abs format (unit mm)*
G04 Created by KiCad (PCBNEW 5.1.8-db9833491~87~ubuntu20.04.1) date 2020-11-15 12:16:06*
%MOMM*%
%LPD*%
G01*
G04 APERTURE LIST*
%ADD10O,1.800000X3.600000*%
%ADD11O,1.740000X2.190000*%
%ADD12O,1.700000X1.700000*%
%ADD13R,1.700000X1.700000*%
%ADD14C,3.200000*%
%ADD15C,2.000000*%
%ADD16R,2.000000X2.000000*%
G04 APERTURE END LIST*
D10*
%TO.C,J5*%
X38880000Y56000000D03*
G36*
G01*
X32900000Y54450000D02*
X32900000Y57550000D01*
G75*
G02*
X33150000Y57800000I250000J0D01*
G01*
X34450000Y57800000D01*
G75*
G02*
X34700000Y57550000I0J-250000D01*
G01*
X34700000Y54450000D01*
G75*
G02*
X34450000Y54200000I-250000J0D01*
G01*
X33150000Y54200000D01*
G75*
G02*
X32900000Y54450000I0J250000D01*
G01*
G37*
%TD*%
%TO.C,J2*%
X28680000Y56000000D03*
G36*
G01*
X22700000Y54450000D02*
X22700000Y57550000D01*
G75*
G02*
X22950000Y57800000I250000J0D01*
G01*
X24250000Y57800000D01*
G75*
G02*
X24500000Y57550000I0J-250000D01*
G01*
X24500000Y54450000D01*
G75*
G02*
X24250000Y54200000I-250000J0D01*
G01*
X22950000Y54200000D01*
G75*
G02*
X22700000Y54450000I0J250000D01*
G01*
G37*
%TD*%
%TO.C,J1*%
X57080000Y56000000D03*
G36*
G01*
X51100000Y54450000D02*
X51100000Y57550000D01*
G75*
G02*
X51350000Y57800000I250000J0D01*
G01*
X52650000Y57800000D01*
G75*
G02*
X52900000Y57550000I0J-250000D01*
G01*
X52900000Y54450000D01*
G75*
G02*
X52650000Y54200000I-250000J0D01*
G01*
X51350000Y54200000D01*
G75*
G02*
X51100000Y54450000I0J250000D01*
G01*
G37*
%TD*%
D11*
%TO.C,J3*%
X54829000Y8200000D03*
X52289000Y8200000D03*
X49749000Y8200000D03*
G36*
G01*
X46339000Y7354999D02*
X46339000Y9045001D01*
G75*
G02*
X46588999Y9295000I249999J0D01*
G01*
X47829001Y9295000D01*
G75*
G02*
X48079000Y9045001I0J-249999D01*
G01*
X48079000Y7354999D01*
G75*
G02*
X47829001Y7105000I-249999J0D01*
G01*
X46588999Y7105000D01*
G75*
G02*
X46339000Y7354999I0J249999D01*
G01*
G37*
%TD*%
D12*
%TO.C,JP2*%
X40000000Y6720000D03*
X40000000Y9260000D03*
D13*
X40000000Y11800000D03*
%TD*%
D11*
%TO.C,J4*%
X33640000Y8200000D03*
X31100000Y8200000D03*
X28560000Y8200000D03*
X26020000Y8200000D03*
X23480000Y8200000D03*
X20940000Y8200000D03*
G36*
G01*
X17530000Y7354999D02*
X17530000Y9045001D01*
G75*
G02*
X17779999Y9295000I249999J0D01*
G01*
X19020001Y9295000D01*
G75*
G02*
X19270000Y9045001I0J-249999D01*
G01*
X19270000Y7354999D01*
G75*
G02*
X19020001Y7105000I-249999J0D01*
G01*
X17779999Y7105000D01*
G75*
G02*
X17530000Y7354999I0J249999D01*
G01*
G37*
%TD*%
D14*
%TO.C,H4*%
X66000000Y6000000D03*
%TD*%
%TO.C,H3*%
X66000000Y56000000D03*
%TD*%
%TO.C,H2*%
X10000000Y56000000D03*
%TD*%
%TO.C,H1*%
X10000000Y6000000D03*
%TD*%
D15*
%TO.C,C9*%
X63437000Y41051000D03*
D16*
X58437000Y41051000D03*
%TD*%
M02*
